<svg height="192" viewBox="0 0 62 48" width="248" xmlns="http://www.w3.org/2000/svg"><path clip-rule="evenodd" d="m4.11 9.65v14.92l-4.11 4.88 4.11 3.5v15.05l32.19-5.76 15.03 5.56v-8.26l6.5-1.19v-14.94l4.17-4.93-4.17-3.53v-14.95l-53.72 9.67zm2.17 22.1-3.25-2.75 3.25-3.83v-13.7l49.37-8.87v13.57l3.26 2.77-3.26 3.85v13.71l-6.5 1.18v6.94l-12.62-4.68-30.25 5.42v-13.63zm42.94-23.59v1.5c0 .3-.05.58-.2.82l-1.98 3.4-1.99-2.74c-.14-.2-.17-.48-.17-.71v-1.49l-2.15.39v1.6c0 .42.07.85.32 1.2l2.9 4.01v3.67l2.15-.39v-3.67l2.9-4.98c.23-.4.31-.84.31-1.28v-1.69l-2.1.38zm-14.35 2.57v11.05l7.4-1.33v-2l-5.24.94v-9.03l-2.16.39zm-6.35 1.12-3.06.55c-1.73.32-2.7 1.49-2.7 3.26v5.4c0 1.8 1.02 2.7 2.78 2.37l3.07-.55c1.73-.32 2.7-1.49 2.7-3.26v-5.4c0-1.57-.76-2.44-2.1-2.44-.22 0-.44.02-.67.07zm-3.6 8.94v-5.52c0-.53.24-.81.74-.9l2.8-.5c.47-.09.67.07.67.57v5.56c0 .53-.24.81-.76.9l-2.8.5c-.06.02-.13.02-.2.02-.35 0-.45-.21-.45-.64zm-7.94-6.87v4.3l-4.22.76v-4.3l-2.16.4v11.05l2.16-.4v-4.73l4.22-.76v4.74l2.16-.4v-11.04l-2.16.4zm22.76 9.1-4.63 13.3 2.24-.4 4.62-13.3-2.23.39zm-11.22 2.79-3 .53c-1.63.3-2.7 1.31-2.7 3.07v.8c0 1.2.54 2.02 1.76 2.13l4.17.35c.28.02.38.14.38.43v1.12c0 .5-.3.7-.78.8l-2.8.49c-.43.07-.7.05-.7-.44v-1.53l-2.13.4v1.37c0 1.8 1.1 2.47 2.75 2.17l3.12-.57c1.66-.3 2.72-1.31 2.72-3.07v-1.33c0-1.22-.7-1.88-1.86-1.98l-4.1-.36c-.37-.03-.38-.14-.38-.5v-.65c0-.52.31-.71.78-.8l2.69-.48c.42-.07.7-.05.7.44v1.64l2.12-.4v-1.48c0-1.51-.82-2.24-2.07-2.24-.21 0-.44.02-.68.07zm-11.56 2.07v8.32c0 .55-.24.84-.76.93l-2.8.5c-.48.08-.67-.08-.67-.6v-1.78l-2.15.39v1.65c0 1.8 1.03 2.7 2.8 2.37l3.06-.55c1.73-.32 2.7-1.49 2.7-3.26v-8.36l-2.16.4h-.02zm32.16 3.43v1.93l2.16-.39v-1.93zm-3.68.65v1.94l2.16-.4v-1.93l-2.16.4zm-3.68.66v1.93l2.16-.39v-1.93l-2.16.4z" fill="#fff" fill-rule="evenodd"/></svg>