<svg viewBox="0 0 512 192.77" xmlns="http://www.w3.org/2000/svg"><path d="m376.82 158.24 14.79-37.4h42.71l-20.27-56.74 25.35-64.1 72.6 192.77h-53.54l-12.41-34.53z" fill="#3d3d3d"/><path d="m331.14 192.77 77.72-192.77h-51.52l-53.17 124.57-37.81-124.57h-39.61l-40.59 124.57-28.63-56.76-25.91 79.81 26.31 45.15h50.71l36.68-111.71 35 111.71z" fill="#5a0fc8"/><path d="m48.91 126.59h31.74a93.79 93.79 0 0 0 25.68-3.21l8.21-25.29 22.94-70.68a55.61 55.61 0 0 0 -6-7.85q-17.64-19.56-51.68-19.56h-79.8v192.77h48.91zm42-82.24q6.9 6.94 6.9 18.59t-6.06 18.61q-6.65 7.64-24.5 7.64h-18.34v-51.79h18.48q16.61 0 23.53 6.95z" fill="#3d3d3d"/></svg>