<svg xmlns="http://www.w3.org/2000/svg" viewBox="0 0 113.3 21.1"><path d="M55.1 16.1h3.1c-.4 1.7-1.3 3-2.6 3.9-1.3.9-2.9 1.4-4.8 1.4-2.3 0-4.1-.8-5.4-2.3s-2-3.6-2-6.3c0-2.6.6-4.6 1.9-6.1s3.1-2.3 5.4-2.3c2.4 0 4.3.7 5.7 2.2.7.9 1.3 1.9 1.6 3.1h-4.3c-.2-.4-.4-.7-.6-.9-.5-.6-1.3-.9-2.3-.9-.9 0-1.6.3-2.2.9-.7.8-1.1 2.2-1.1 4 0 1.9.4 3.2 1.1 4 .5.7 1.3 1 2.4 1 .7 0 1.3-.1 1.8-.4.1 0 .2-.1.3-.2l.3-.3c.1-.1.2-.3.5-.5s.7-.3 1.2-.3zm-31.2 5V3.8h6.2V2.3c0-.6-.2-1.1-.6-1.6-.4-.4-1-.6-1.6-.6H13.4v3.7h6.2v17.3h4.3zm46-11.7c-.6-.9-1.4-1.3-2.5-1.3s-2 .4-2.6 1.2c-.6.8-.9 1.9-.9 3.4v8.4h-4.2V.1h2.1c.6 0 1.1.2 1.5.6s.6.9.6 1.5V7c.7-1.2 1.8-2 3.1-2.3 1.3-.3 2.6-.2 3.8.2 1.1.5 2.1 1.3 2.9 2.3.8 1.1 1.2 2.5 1.2 4.4v9.5h-4.1v-8.4c0-.6-.1-1.2-.2-1.7s-.3-1-.7-1.6zm-31.2 6.7h3.1c-.4 1.7-1.3 3-2.6 3.9-1.3.9-2.9 1.4-4.8 1.4-2.3 0-4.1-.8-5.4-2.3s-2-3.6-2-6.3c0-2.6.6-4.6 1.9-6.1s3.1-2.3 5.4-2.3c2.4 0 4.3.7 5.7 2.2 1.3 1.5 2 3.6 2 6.3v.6c0 .2 0 .3-.1.4H31.3c0 1.3.3 2.2.9 2.8.5.7 1.3 1 2.4 1 .7 0 1.3-.1 1.8-.4.1 0 .2-.1.3-.2l.3-.3c0-.1.2-.3.5-.5.3-.1.7-.2 1.2-.2zm-7.3-4.8h6.2c-.1-1.1-.4-1.9-.9-2.4-.5-.6-1.3-.9-2.3-.9-.9 0-1.6.3-2.2.9-.5.6-.8 1.4-.8 2.4zm65 9.8v-7.9c0-1.6.2-2.9.7-4s1.1-1.9 1.9-2.6c.8-.6 1.7-1.1 2.7-1.3 1-.3 2.1-.4 3.2-.4h.6v4.3h-1.4c-1.2 0-2.1.3-2.6.9-.6.6-.9 1.5-.9 2.7v8.4h-4.2v-.1zM8.4.1h2.7v3.7H6.7V1.7C6.7.6 7.3.1 8.4.1zM0 16.7h4.5v4.5H0v-4.5zM1.7 5.6h2.8v4.5H0V7.3c0-1.1.5-1.7 1.7-1.7zm5 0h4.4v15.5H6.7V5.6zm106.6 15.5c-1.3.1-2.8.1-4.4-.1-1.6-.1-2.4-1.1-2.4-3V0h2.2c.5 0 1 .2 1.4.6s.6.9.6 1.5v2.8h2.5v2.2c0 .6-.2 1.1-.6 1.5s-.9.6-1.5.6h-.4v7.3c0 .7.4 1 1.2 1 1 0 1.3.4 1.3 1.3l.1 2.3zM84.8.1h3.4l7.6 21h-4.6l-1.4-4.3h-8.2l-1.3 4.3h-4.6l7-19.6C83.1.6 83.8.1 84.8.1zm1 4.2l-2.9 8.9h5.9l-3-8.9z"/></svg>
