<svg height="192" viewBox="0 0 192 192" width="192" xmlns="http://www.w3.org/2000/svg"><g fill="none" fill-rule="evenodd"><path d="m66.56 0h58.88c53.76 0 66.56 12.8 66.56 66.56v58.88c0 53.76-12.8 66.56-66.56 66.56s-5.12 0-58.88 0c-53.76 0-66.56-12.8-66.56-66.56s0-28.859671 0-58.88c0-53.76 12.8-66.56 66.56-66.56z" fill="#5181b8"/><path d="m157.233993 66.1462211c.889564-2.9664492.000001-5.1462211-4.233749-5.1462211h-14c-3.559739 0-5.200829 1.8830035-6.090888 3.9593945 0 0-7.119478 17.3535428-17.205158 28.6258029-3.262971 3.2629707-4.746319 4.3011662-6.526189 4.3011662-.889811 0-2.178009-1.0381955-2.178009-4.0043978v-27.7357447c0-3.5597391-1.03306-5.1462211-3.999756-5.1462211h-21.9999999c-2.2245283 0-3.5623772 1.6521562-3.5623772 3.2179674 0 3.3745674 5.0425934 4.152782 5.5623772 13.6454195v20.6165134c0 4.5200997-.8163053 5.3396087-2.5961748 5.3396087-4.7460719 0-16.2909046-17.431068-23.1380571-37.3767664-1.3418769-3.8767529-2.6877587-5.4427426-6.2657681-5.4427426h-14c-4 0-4.8000488 1.8830035-4.8000488 3.9593945 0 3.7081233 4.7463188 22.0998615 22.0996146 46.4242515 11.5687816 16.611622 27.868435 25.616354 42.7004342 25.616354 8.8991009 0 9.9999999-2 9.9999999-5.444993v-12.555007c0-4 .843048-4.798289 3.661113-4.798289 2.076392 0 5.636131 1.038195 13.942188 9.047485 9.492391 9.49239 11.057337 13.750804 16.396699 13.750804h14c4 0 6-2 4.846231-5.946888-1.262569-3.933701-5.794673-9.640977-11.808351-16.406495-3.263218-3.856261-8.157674-8.009043-9.641022-10.085928-2.076391-2.669434-1.483101-3.85626 0-6.2291728 0 0 17.057021-24.0278684 18.836891-32.1852951z" fill="#fff"/></g></svg>