<svg viewBox="0 0 33 22" xmlns="http://www.w3.org/2000/svg" xmlns:xlink="http://www.w3.org/1999/xlink"><symbol id="a" overflow="visible"><path d="m7.0625-2.328125c.015625-.046875.046875-.109375.046875-.140625 0 0 0-.109375-.125-.109375-.09375 0-.109375.0625-.125.125-.65625 1.46875-1.015625 2.140625-2.71875 2.140625h-1.453125c-.140625 0-.171875 0-.21875 0-.109375-.015625-.140625-.03125-.140625-.109375 0-.03125 0-.046875.046875-.21875l.6875-2.734375h.984375c.84375 0 .84375.21875.84375.46875 0 .0625 0 .1875-.0625.484375-.015625.046875-.03125.078125-.03125.109375 0 .046875.03125.109375.125.109375.078125 0 .109375-.046875.15625-.203125l.5625-2.328125c0-.0625-.046875-.109375-.125-.109375s-.109375.0625-.125.171875c-.21875.765625-.390625 1-1.3125 1h-.9375l.59375-2.40625c.09375-.359375.109375-.390625.546875-.390625h1.40625c1.203125 0 1.515625.28125 1.515625 1.109375 0 .234375 0 .25-.046875.53125 0 .046875-.015625.125-.015625.171875s.03125.125.125.125c.109375 0 .125-.0625.140625-.25l.203125-1.734375c.03125-.265625-.015625-.265625-.265625-.265625h-5.046875c-.1875 0-.296875 0-.296875.203125 0 .109375.09375.109375.28125.109375.375 0 .65625 0 .65625.171875 0 .046875 0 .0625-.0625.25l-1.3125 5.265625c-.09375.390625-.109375.46875-.90625.46875-.171875 0-.28125 0-.28125.1875 0 .125.09375.125.28125.125h5.171875c.234375 0 .25-.015625.3125-.171875zm0 0"/></symbol><symbol id="b" overflow="visible"><path d="m2.859375-6.8125s0-.109375-.125-.109375c-.234375 0-.953125.078125-1.21875.109375-.078125 0-.1875.015625-.1875.1875 0 .125.09375.125.234375.125.484375 0 .5.0625.5.171875l-.03125.203125-1.4375 5.734375c-.046875.140625-.046875.15625-.046875.21875 0 .234375.203125.28125.296875.28125.15625 0 .3125-.125.359375-.265625l.1875-.75.21875-.890625c.0625-.234375.125-.453125.171875-.671875.015625-.0625.109375-.390625.109375-.453125.03125-.09375.34375-.640625.6875-.921875.21875-.15625.515625-.34375.953125-.34375.421875 0 .53125.34375.53125.703125 0 .53125-.375 1.625-.609375 2.234375-.078125.21875-.140625.34375-.140625.546875 0 .46875.359375.8125.828125.8125.9375 0 1.296875-1.453125 1.296875-1.53125 0-.109375-.078125-.109375-.109375-.109375-.109375 0-.109375.03125-.15625.1875-.140625.53125-.46875 1.234375-1.015625 1.234375-.171875 0-.234375-.09375-.234375-.328125 0-.25.078125-.484375.171875-.703125.15625-.4375.609375-1.625.609375-2.203125 0-.640625-.390625-1.0625-1.140625-1.0625-.625 0-1.109375.3125-1.484375.765625zm0 0"/></symbol><symbol id="c" overflow="visible"><path d="m3.953125-3.78125c-.171875 0-.296875 0-.4375.125-.171875.15625-.1875.328125-.1875.390625 0 .25.1875.359375.375.359375.28125 0 .546875-.25.546875-.640625 0-.484375-.46875-.859375-1.171875-.859375-1.34375 0-2.671875 1.421875-2.671875 2.828125 0 .90625.578125 1.6875 1.625 1.6875 1.421875 0 2.25-1.0625 2.25-1.171875 0-.0625-.046875-.140625-.109375-.140625s-.078125.03125-.140625.109375c-.78125.984375-1.875.984375-1.984375.984375-.625 0-.90625-.484375-.90625-1.09375 0-.40625.203125-1.375.546875-1.984375.3125-.578125.859375-1 1.40625-1 .328125 0 .71875.125.859375.40625zm0 0"/></symbol><symbol id="d" overflow="visible"><path d="m3.5625-2.90625c.40625 1.046875.890625 2.5625 1.046875 2.796875.15625.21875.25.21875.53125.21875h.21875c.09375-.015625.109375-.0625.109375-.09375s-.03125-.0625-.0625-.09375c-.09375-.109375-.15625-.265625-.21875-.453125l-2.03125-5.671875c-.21875-.578125-.75-.71875-1.21875-.71875-.046875 0-.1875 0-.1875.109375 0 .078125.078125.109375.09375.109375.328125.046875.40625.109375.65625.796875l.953125 2.703125-2.75 2.734375c-.109375.125-.171875.171875-.171875.3125 0 .171875.140625.28125.296875.28125s.25-.109375.328125-.203125zm0 0"/></symbol><symbol id="e" overflow="visible"><path d="m6.84375-3.265625c.15625 0 .34375 0 .34375-.1875 0-.203125-.1875-.203125-.328125-.203125h-5.96875c-.140625 0-.328125 0-.328125.203125 0 .1875.1875.1875.328125.1875zm.015625 1.9375c.140625 0 .328125 0 .328125-.203125 0-.1875-.1875-.1875-.34375-.1875h-5.953125c-.140625 0-.328125 0-.328125.1875 0 .203125.1875.203125.328125.203125zm0 0"/></symbol><use x="-.198828" xlink:href="#a" y="14.41797"/><use x="10.493372" xlink:href="#e" y="14.41797"/><use x="22.201972" xlink:href="#b" y="7.67695"/><use x="27.943971" xlink:href="#c" y="7.67695"/><path d="m222.03125 100.703125h100.507812" fill="none" stroke="#000" stroke-miterlimit="10" stroke-width="4.05" transform="matrix(.1 0 0 -.1 0 22)"/><use x="24.3262" xlink:href="#d" y="21.248828"/></svg>