<svg height="117.8" width="120.8" xmlns="http://www.w3.org/2000/svg"><g fill="#fff"><path clip-rule="evenodd" d="m60.4 0c-33.4 0-60.4 27-60.4 60.4 0 26.7 17.3 49.3 41.3 57.3 3 .6 4.1-1.3 4.1-2.9 0-1.4-.1-6.2-.1-11.2-16.8 3.6-20.3-7.2-20.3-7.2-2.7-7-6.7-8.8-6.7-8.8-5.5-3.7.4-3.7.4-3.7 6.1.4 9.3 6.2 9.3 6.2 5.4 9.2 14.1 6.6 17.6 5 .5-3.9 2.1-6.6 3.8-8.1-13.4-1.4-27.5-6.6-27.5-29.8 0-6.6 2.4-12 6.2-16.2-.6-1.5-2.7-7.7.6-16 0 0 5.1-1.6 16.6 6.2 4.8-1.3 10-2 15.1-2s10.3.7 15.1 2c11.5-7.8 16.6-6.2 16.6-6.2 3.3 8.3 1.2 14.5.6 16 3.9 4.2 6.2 9.6 6.2 16.2 0 23.2-14.1 28.3-27.6 29.8 2.2 1.9 4.1 5.5 4.1 11.2 0 8.1-.1 14.6-.1 16.6 0 1.6 1.1 3.5 4.1 2.9 24-8 41.3-30.6 41.3-57.3.1-33.4-27-60.4-60.3-60.4z" fill-rule="evenodd"/><path d="m22.9 86.7c-.1.3-.6.4-1 .2s-.7-.6-.5-.9c.1-.3.6-.4 1-.2s.6.6.5.9zm2.4 2.7c-.3.3-.9.1-1.2-.3-.4-.4-.5-1-.2-1.3s.8-.1 1.2.3c.4.5.5 1.1.2 1.3zm2.4 3.5c-.4.3-1 0-1.3-.5-.4-.5-.4-1.2 0-1.4.4-.3 1 0 1.3.5.4.5.4 1.1 0 1.4zm3.3 3.4c-.3.4-1 .3-1.6-.2-.5-.5-.7-1.2-.3-1.5.3-.4 1-.3 1.6.2.5.4.6 1.1.3 1.5zm4.5 1.9c-.1.5-.8.7-1.5.5s-1.1-.8-1-1.2c.1-.5.8-.7 1.5-.5s1.1.7 1 1.2zm4.9.4c0 .5-.6.9-1.3.9s-1.3-.4-1.3-.9.6-.9 1.3-.9 1.3.4 1.3.9zm4.6-.8c.1.5-.4 1-1.1 1.1s-1.3-.2-1.4-.7.4-1 1.1-1.1 1.3.2 1.4.7zm0 0"/></g></svg>