<svg height="160pt" viewBox="0 0 216 160" width="216pt" xmlns="http://www.w3.org/2000/svg"><g fill="#fff"><path d="m9.7002 27.5496s-.9502 1.05-.9502 1.05-8.75-28.5996-8.75-28.5996 1.40039.2998 1.40039.2998 8.29981 27.2498 8.29981 27.2498z" transform="translate(2 73.1504)"/><path d="m7.9004 22.1494s-1.1504.3506-1.1504.3506-6.75-22.1006-6.75-22.1006 1.1504-.3994 1.1504-.3994 6.75 22.1494 6.75 22.1494z" transform="translate(8.0498 74.4502)"/><path d="m28.75 6.4s.2002.7.2002.7-.4004.5-.4004.5-28.5498-6.55-28.5498-6.55.9502-1.05.9502-1.05 27.7998 6.4 27.7998 6.4z" transform="translate(10.75 100.7)"/><path d="m19.4004 0s.6992.1504.6992.1504.1504.75.1504.75-19.2998 20.6996-19.2998 20.6996-.75-.05-.75-.05-.2002-.7-.2002-.7 19.4004-20.85 19.4004-20.85z" transform="translate(39.5 86.25)"/><path d="m15.7998 0s.9004.7998.9004.7998-15.8008 16.9498-15.8008 16.9498-.8994-.85-.8994-.85 15.7998-16.8996 15.7998-16.8996z" transform="translate(37.4502 84.6504)"/><path d="m0 1s.9502-1 .9502-1 8.5498 28 8.5498 28-.5.4004-.5.4004-.6992-.1504-.6992-.1504-8.3008-27.25-8.3008-27.25z" transform="translate(50.5996 58)"/><path d="m.2002 1.1992s-.2002-.6494-.2002-.6494.5-.5498.5-.5498 28.4502 6.5996 28.4502 6.5996-.9502 1-.9502 1-27.7998-6.4004-27.7998-6.4004z" transform="translate(22.5996 51.4004)"/><path d="m0 1.1494s.2998-1.1494.2998-1.1494 22.5 5.1992 22.5 5.1992-.25 1.2002-.25 1.2002-22.5498-5.25-22.5498-5.25z" transform="translate(24.25 57.1504)"/><path d="m1.40039 21.7002s-1.40039-.2998-1.40039-.2998 19.9502-21.4004 19.9502-21.4004.6494.2002.6494.2002.2002.6494.2002.6494-19.39941 20.8506-19.39941 20.8506z" transform="translate(2 51.75)"/><path d="m11.5596 0h-1.7842v12.087s-7.7266-12.087-7.7266-12.087h-2.0488v14.784h1.7852v-11.985s7.6455 11.985 7.6455 11.985h2.1289z" fill-rule="evenodd" transform="translate(48.041 126.466)"/><path d="m9.4004 14.95s-1.1006.6-1.1006.6-8.2998-15.05-8.2998-15.05.4004-.5.4004-.5.75.05.75.05 8.25 14.9 8.25 14.9z" transform="translate(39.2998 107.8)"/><path d="m18.6504 0s1.0996 1 1.0996 1-19.5 3.8-19.5 3.8-.25-1.2-.25-1.2 18.6504-3.6 18.6504-3.6z" transform="translate(63.2998 127.25)"/><path d="m3.4502.4004s.6992-.4004.6992-.4004.5508.4004.5508.4004-3.6006 29.0996-3.6006 29.0996-1.0996-1-1.0996-1 3.4502-28.0996 3.4502-28.0996z" transform="translate(81.9502 98.75)"/><path d="m2.6494 0s1.2002.15 1.2002.15-2.6504 21.4-2.6504 21.4-1.1992-.15-1.1992-.15 2.6494-21.4 2.6494-21.4z" transform="translate(77.1504 101.85)"/><path d="m.1504 1.1504s-.1504-.75-.1504-.75.5-.4004.5-.4004 25.9502 12.0996 25.9502 12.0996.0498.6504.0498.6504-.6992.4004-.6992.4004-25.6504-12-25.6504-12z" transform="translate(59.5996 86)"/><path d="m25.6002 0s-.05 1.3994-.05 1.3994-24.9496 13.8506-24.9496 13.8506-.5508-.4004-.5508-.4004-.0498-.6504-.0498-.6504 25.6002-14.1992 25.6002-14.1992z" transform="translate(86.0498 83.9004)"/><path d="m25.05 15.0498v1.3998s-25.05-15.0502-25.05-15.0502.05-1.3994.05-1.3994 25 15.0498 25 15.0498z" transform="translate(111.6 83.9004)"/><path d="m9.49 8.0508v6.7334h1.887v-14.7842h-1.887v6.3887h-7.605v-6.3887h-1.885v14.7842h1.906v-6.7334z" fill-rule="evenodd" transform="translate(156.684 61.7158)"/><path d="m11.56 0h-1.785v12.0869s-7.726-12.0869-7.726-12.0869h-2.049v14.7842h1.785v-11.9854s7.646 11.9854 7.646 11.9854h2.129z" fill-rule="evenodd" transform="translate(156.541 78.7158)"/><path d="m14.8 0s.55 1.0996.55 1.0996-15.35 8.5004-15.35 8.5004v-1.3998s14.8-8.2002 14.8-8.2002z" transform="translate(136.65 90.75)"/><path d="m14.95 8.5996s-.05 1.4004-.05 1.4004-14.9-9-14.9-9 .6-1 .6-1 14.35 8.5996 14.35 8.5996z" transform="translate(172.3 91.25)"/><path d="m25.25 0s.6 1.0508.6 1.0508-25.85 14.3496-25.85 14.3496.05-1.4004.05-1.4004 25.2-14 25.2-14z" transform="translate(187.2 85.8496)"/><path d="m7.118 0c-4.239 0-7.118 3.123-7.118 7.747s2.879 7.747 7.138 7.747c1.784 0 3.387-.548 4.583-1.562 1.603-1.359 2.556-3.65 2.556-6.064 0-4.766-2.819-7.868-7.159-7.868zm0 1.663c3.204 0 5.273 2.433 5.273 6.165 0 3.569-2.13 6.003-5.253 6.003-3.143 0-5.253-2.434-5.253-6.084 0-3.651 2.11-6.084 5.233-6.084z" fill-rule="evenodd" transform="translate(179.521 122.723)"/><path d="m1.2 20.7002h-1.2s.55-20.7002.55-20.7002h1.2s-.55 20.7002-.55 20.7002z" transform="translate(188.75 99.0498)"/><path d="m1.2 20.7498s-1.2-.05-1.2-.05.55-20.6998.55-20.6998 1.2.0498 1.2.0498-.55 20.7-.55 20.7z" transform="translate(183.5 98.9502)"/><path d="m7.11819 0c-4.23831 0-7.11819 3.123-7.11819 7.747 0 4.6241 2.87988 7.7471 7.13869 7.7471 1.7842 0 3.38671-.5479 4.58301-1.5615 1.6025-1.3594 2.5557-3.6504 2.5557-6.0645 0-4.7656-2.8194-7.8681-7.15921-7.8681zm0 1.663c3.20411 0 5.27341 2.4336 5.27341 6.1651 0 3.5693-2.1299 6.0029-5.25291 6.0029-3.1436 0-5.25295-2.4336-5.25295-6.084s2.10935-6.084 5.23245-6.084z" fill-rule="evenodd" transform="translate(7.02051 16.9727)"/><path d="m0 .3496s1.1504-.3496 1.1504-.3496 5.0996 16.6504 5.0996 16.6504-.5.5498-.5.5498-.6494-.2002-.6494-.2002-5.1006-16.6504-5.1006-16.6504z" transform="translate(16.8496 34.75)"/><path d="m13 0s.9004.7998.9004.7998-13 13.9502-13 13.9502-.9004-.8496-.9004-.8496 13-13.9004 13-13.9004z" transform="translate(20.5498 2.25)"/><path d="m9.4902 8.051v6.733h1.8867v-14.784h-1.8867v6.388h-7.6045v-6.388h-1.8857v14.784h1.9062v-6.733z" fill-rule="evenodd" transform="translate(48.1836 142.716)"/></g></svg>