<svg viewBox="0 0 1224 1324" xmlns="http://www.w3.org/2000/svg" xmlns:xlink="http://www.w3.org/1999/xlink"><linearGradient id="a" gradientUnits="userSpaceOnUse" x1="1074" x2="1074" y1="662" y2="406"><stop offset="0" stop-color="#a8cd4b"/><stop offset=".9" stop-color="#98c55b"/></linearGradient><linearGradient id="b" gradientUnits="userSpaceOnUse" x1="1074" x2="612" y1="406" y2="150"><stop offset="0" stop-color="#98c55b"/><stop offset=".9" stop-color="#79b580"/></linearGradient><linearGradient id="c" gradientUnits="userSpaceOnUse" x1="612" x2="150" y1="150" y2="406"><stop offset="0" stop-color="#79b580"/><stop offset=".8" stop-color="#5aa5a7"/></linearGradient><linearGradient id="d" gradientUnits="userSpaceOnUse" x1="150" x2="612" y1="406" y2="662"><stop offset="0" stop-color="#5aa5a7"/><stop offset=".9" stop-color="#4a94b1"/></linearGradient><linearGradient id="e" gradientUnits="userSpaceOnUse" x1="612" x2="612" y1="662" y2="1174"><stop offset="0" stop-color="#4a94b1"/><stop offset=".8" stop-color="#49839f"/></linearGradient><linearGradient id="f" gradientUnits="userSpaceOnUse" x1="1074" x2="612" y1="918" y2="1174"><stop offset="0" stop-color="#466d85"/><stop offset=".7" stop-color="#49839f"/></linearGradient><linearGradient id="g" gradientUnits="userSpaceOnUse" x1="612" x2="150" y1="1174" y2="918"><stop offset=".3" stop-color="#49839f"/><stop offset=".9" stop-color="#47728b"/></linearGradient><linearGradient id="h" gradientUnits="userSpaceOnUse" x1="150" x2="150" y1="918" y2="662"><stop offset="0" stop-color="#47728b"/><stop offset="1" stop-color="#456a81"/></linearGradient><g fill="none" stroke-linecap="round" stroke-linejoin="round" stroke-width="120"><path d="m1074 406-462-256-462 256v512l462 256 462-256z" fill="#fff" stroke="#fff" stroke-width="300"/><path d="m1074 662v-256" stroke="url(#a)"/><path d="m1074 406-462-256" stroke="url(#b)"/><path d="m612 150-462 256" stroke="url(#c)"/><path d="m150 406 462 256" stroke="url(#d)"/><path d="m612 662v512" stroke="url(#e)"/><path d="m1074 918-462 256" stroke="url(#f)"/><path d="m612 1174-462-256" stroke="url(#g)"/><path d="m150 918v-256" stroke="url(#h)"/></g></svg>