<svg xmlns="http://www.w3.org/2000/svg" viewBox="0 0 275.66 224.2"><defs><style>.cls-1{fill:#fff;}.cls-2{fill:#fc4a4a;}</style></defs><title>logo wrw</title><g id="Layer_2" data-name="Layer 2"><g id="Layer_1-2" data-name="Layer 1"><path class="cls-1" d="M9,59.72a24.47,24.47,0,0,0,9.53,5.75,37.43,37.43,0,0,0,20.7.59,22.38,22.38,0,0,0,7.43-3.28V44.54h-10v11a30.28,30.28,0,0,1-5.84.55,16.84,16.84,0,0,1-7.48-1.6A15.64,15.64,0,0,1,17.78,50a20.56,20.56,0,0,1-3.46-7,31.89,31.89,0,0,1-1.19-9,33.52,33.52,0,0,1,1.28-9.8A19.66,19.66,0,0,1,18,17.36a14.28,14.28,0,0,1,5.34-4A16.5,16.5,0,0,1,29.91,12a37.13,37.13,0,0,1,5.84.46v10.4h10v-19a32,32,0,0,0-6.25-2.1A40,40,0,0,0,30.28.86,35,35,0,0,0,19.7,2.55,26.58,26.58,0,0,0,9.94,8.11,28.81,28.81,0,0,0,2.78,18.32Q0,24.67,0,34.05A42.59,42.59,0,0,0,2.46,49.42,28.27,28.27,0,0,0,9,59.72Z"/><path class="cls-1" d="M64.33,65.33A42.83,42.83,0,0,0,69.8,66.7a36,36,0,0,0,6.43.54A36.32,36.32,0,0,0,85.9,66a22.43,22.43,0,0,0,7.75-3.73,17.47,17.47,0,0,0,5.11-6.21,19.29,19.29,0,0,0,1.82-8.61A14.52,14.52,0,0,0,98.25,39a20.44,20.44,0,0,0-5.74-5.61A39.44,39.44,0,0,0,85,29.58c-2.7-1-5.2-2.06-7.47-3.1A25.82,25.82,0,0,1,71.81,23a6.1,6.1,0,0,1-2.32-4.93A5.39,5.39,0,0,1,72,13.44a12,12,0,0,1,6.89-1.73,34.21,34.21,0,0,1,4.6.32,32.48,32.48,0,0,1,4.33.87,1.81,1.81,0,0,0,.55.09V23.11h10V4.6a29.47,29.47,0,0,0-8.57-2.74,59.45,59.45,0,0,0-10.94-1,27.68,27.68,0,0,0-8.94,1.37,20.69,20.69,0,0,0-6.88,3.83,17.17,17.17,0,0,0-4.47,5.88A17.49,17.49,0,0,0,57,19.46a15.13,15.13,0,0,0,2.33,8.76,20.54,20.54,0,0,0,5.74,5.6,35.46,35.46,0,0,0,7.48,3.7Q76.6,39,80,40.43a23.57,23.57,0,0,1,5.74,3.38,6.19,6.19,0,0,1,2.33,5,6.48,6.48,0,0,1-2.83,5.52c-1.88,1.37-4.53,2-7.93,2A22.94,22.94,0,0,1,72,55.8a27.57,27.57,0,0,1-4.6-1.5l-.55-.19v-9h-10v17c.79.42,1.82.94,3.1,1.55A37.85,37.85,0,0,0,64.33,65.33Z"/><path class="cls-1" d="M119.05,65.33a42.41,42.41,0,0,0,5.47,1.37,35.79,35.79,0,0,0,6.43.54A36.3,36.3,0,0,0,140.61,66a22.35,22.35,0,0,0,7.75-3.73,17.47,17.47,0,0,0,5.11-6.21,19.29,19.29,0,0,0,1.82-8.61A14.59,14.59,0,0,0,153,39a20.61,20.61,0,0,0-5.75-5.61,39.65,39.65,0,0,0-7.47-3.79q-4.06-1.54-7.48-3.1A25.82,25.82,0,0,1,126.52,23a6.1,6.1,0,0,1-2.32-4.93,5.38,5.38,0,0,1,2.51-4.65,12,12,0,0,1,6.88-1.73,34.09,34.09,0,0,1,4.6.32,32.64,32.64,0,0,1,4.34.87,1.7,1.7,0,0,0,.54.09V23.11h10V4.6a29.36,29.36,0,0,0-8.57-2.74,59.37,59.37,0,0,0-10.94-1,27.68,27.68,0,0,0-8.94,1.37,20.69,20.69,0,0,0-6.88,3.83,17.17,17.17,0,0,0-4.47,5.88,17.63,17.63,0,0,0-1.6,7.52A15.13,15.13,0,0,0,114,28.22a20.67,20.67,0,0,0,5.74,5.6,36,36,0,0,0,7.48,3.7q4.06,1.45,7.48,2.91a23.64,23.64,0,0,1,5.75,3.38,6.21,6.21,0,0,1,2.32,5A6.46,6.46,0,0,1,140,54.34c-1.88,1.37-4.53,2-7.93,2a22.85,22.85,0,0,1-5.33-.59,27.39,27.39,0,0,1-4.61-1.5l-.55-.19v-9h-10v17c.79.42,1.83.94,3.1,1.55A37.36,37.36,0,0,0,119.05,65.33Z"/><polygon class="cls-2" points="25.29 96.9 24.93 96.9 14.05 79.31 1.44 79.31 1.44 142.78 13.23 142.78 13.23 107.96 12.69 99.08 13.14 99.08 23.75 115.67 25.92 115.67 36.08 99.08 36.62 99.08 36.17 108.96 36.17 142.78 48.59 142.78 48.59 79.31 36.08 79.31 25.29 96.9"/><polygon class="cls-2" points="60.31 90.37 76.36 90.37 76.36 131.72 60.31 131.72 60.31 142.78 104.92 142.78 104.92 131.72 88.78 131.72 88.78 90.37 104.92 90.37 104.92 79.31 60.31 79.31 60.31 90.37"/><polygon class="cls-2" points="149.72 142.78 160.59 142.78 160.59 79.31 148.81 79.31 148.81 110.5 149.62 118.12 149.17 118.12 127.23 79.31 116.35 79.31 116.35 142.78 128.13 142.78 128.13 112.77 127.59 105.24 128.04 105.24 149.72 142.78"/><path class="cls-2" d="M190.59,144.05a36.28,36.28,0,0,0,9.61-1.22,22.48,22.48,0,0,0,7.71-3.72A17.41,17.41,0,0,0,213,133a19.27,19.27,0,0,0,1.81-8.57,14.55,14.55,0,0,0-2.31-8.44,20.5,20.5,0,0,0-5.72-5.57,38.93,38.93,0,0,0-7.43-3.77q-4-1.53-7.44-3.08a25.71,25.71,0,0,1-5.71-3.45,6,6,0,0,1-2.31-4.89,5.37,5.37,0,0,1,2.49-4.63,12,12,0,0,1,6.85-1.72,33.92,33.92,0,0,1,4.58.32,34.58,34.58,0,0,1,4.31.86,1.7,1.7,0,0,0,.54.09v10.07h10V81.76A29.13,29.13,0,0,0,204.1,79a59.67,59.67,0,0,0-10.88-1,27.64,27.64,0,0,0-8.89,1.36,20.63,20.63,0,0,0-6.84,3.81A17.12,17.12,0,0,0,173,89.06a17.59,17.59,0,0,0-1.58,7.48,15,15,0,0,0,2.31,8.7,20.36,20.36,0,0,0,5.71,5.58,35.29,35.29,0,0,0,7.44,3.67q4,1.45,7.43,2.9a23.58,23.58,0,0,1,5.72,3.36,6.15,6.15,0,0,1,2.31,5,6.43,6.43,0,0,1-2.81,5.48q-2.82,2-7.89,2a22.68,22.68,0,0,1-5.31-.59,27.33,27.33,0,0,1-4.58-1.49l-.54-.19v-9h-10v16.86c.78.43,1.81.94,3.08,1.55a38.62,38.62,0,0,0,4.4,1.72,42,42,0,0,0,5.44,1.36A35.42,35.42,0,0,0,190.59,144.05Z"/><polygon class="cls-2" points="238.3 116.31 244.74 116.31 260.34 142.78 275.66 142.78 255.53 109.96 273.39 79.31 259.25 79.31 244.74 105.24 238.3 105.24 238.3 79.31 225.88 79.31 225.88 142.78 238.3 142.78 238.3 116.31"/><path class="cls-1" d="M181.09,168.4h25.63V198q0,6.19-3.2,9.67a9.72,9.72,0,0,1-4.05,2.59,13.71,13.71,0,0,1-4.34.78,23.41,23.41,0,0,1-5.79-.64,24.2,24.2,0,0,1-6-2.64l-4.47,10a28.82,28.82,0,0,0,8.21,3.42,37.11,37.11,0,0,0,8.48.95c.91,0,2.07,0,3.47-.18a25.35,25.35,0,0,0,4.46-.82,24.94,24.94,0,0,0,4.88-1.91,18.59,18.59,0,0,0,4.7-3.47,19.21,19.21,0,0,0,4.79-8.11,35,35,0,0,0,1.32-9.76V157.28H181.09Z"/><path class="cls-1" d="M267.59,188.51a38.84,38.84,0,0,0-7.48-3.78c-2.7-1-5.2-2.07-7.47-3.1a25.83,25.83,0,0,1-5.75-3.47,6.09,6.09,0,0,1-2.33-4.92,5.38,5.38,0,0,1,2.51-4.65,11.93,11.93,0,0,1,6.89-1.74,34.21,34.21,0,0,1,4.6.32,36,36,0,0,1,4.33.87,1.81,1.81,0,0,0,.55.09v10.12h10V159.74A29.49,29.49,0,0,0,264.9,157,59.45,59.45,0,0,0,254,156a27.68,27.68,0,0,0-8.94,1.37,20.59,20.59,0,0,0-6.88,3.83,17.17,17.17,0,0,0-4.47,5.88,17.5,17.5,0,0,0-1.6,7.53,15.12,15.12,0,0,0,2.33,8.75,20.58,20.58,0,0,0,5.74,5.61,35.43,35.43,0,0,0,7.48,3.69c2.7,1,5.2,2,7.48,2.92a23.56,23.56,0,0,1,5.74,3.37,6.2,6.2,0,0,1,2.33,5,6.5,6.5,0,0,1-2.83,5.52c-1.88,1.36-4.53,2-7.93,2a22.87,22.87,0,0,1-5.34-.6,26.68,26.68,0,0,1-4.6-1.5l-.55-.18v-9h-10v17c.79.43,1.82.95,3.1,1.55a36.16,36.16,0,0,0,4.42,1.73,41.22,41.22,0,0,0,5.47,1.37,35.92,35.92,0,0,0,6.43.55,36.32,36.32,0,0,0,9.67-1.23,22.45,22.45,0,0,0,7.75-3.74,17.43,17.43,0,0,0,5.11-6.2,19.33,19.33,0,0,0,1.82-8.62,14.52,14.52,0,0,0-2.33-8.48A20.44,20.44,0,0,0,267.59,188.51Z"/><rect class="cls-1" x="163.82" y="2.05" width="9.88" height="9.88" transform="translate(44.49 121.38) rotate(-45)"/><rect class="cls-1" x="2.89" y="170.53" width="9.88" height="9.88" transform="translate(-121.78 56.93) rotate(-45)"/><rect class="cls-1" x="46.47" y="156.58" width="9.88" height="9.88" transform="translate(-99.16 83.66) rotate(-45)"/><rect class="cls-1" x="45.6" y="212.28" width="9.88" height="9.88" transform="translate(-138.79 99.35) rotate(-45)"/><rect class="cls-1" x="31.65" y="198.12" width="9.88" height="9.88" transform="translate(-132.87 85.35) rotate(-45)"/><rect class="cls-1" x="101.37" y="156.58" width="9.88" height="9.88" transform="translate(-83.08 122.48) rotate(-45)"/><rect class="cls-1" x="87.72" y="170.53" width="9.88" height="9.88" transform="translate(-96.93 116.91) rotate(-45)"/><rect class="cls-1" x="73.77" y="156.58" width="9.88" height="9.88" transform="translate(-91.16 102.97) rotate(-45)"/><rect class="cls-1" x="101.37" y="211.98" width="9.88" height="9.88" transform="translate(-122.25 138.71) rotate(-45)"/><path class="cls-1" d="M64.69,168.34,43.92,189.12l20.77,20.77,20.78-20.77Zm-7,20.78,7-7,7,7-7,7Z"/><path class="cls-1" d="M141.57,189.22l13.91-13.91L134.7,154.54l-20.78,20.77,13.91,13.91-13.91,13.91,20.78,20.78,20.78-20.78Zm-13.85-13.91,7-7,7,7-7,7Zm0,27.82,7-7,7,7-7,7Z"/><polygon class="cls-1" points="43.35 175.54 22.36 154.54 15.37 161.52 29.39 175.53 1.72 203.13 22.5 223.91 29.48 216.92 15.72 203.17 43.35 175.54"/><rect class="cls-1" x="68.28" y="198.19" width="48.89" height="9.88" transform="translate(-116.48 125.06) rotate(-45)"/><rect class="cls-1" x="262.88" y="15.99" width="9.88" height="9.88" transform="translate(63.64 195.5) rotate(-45)"/><rect class="cls-1" x="262.88" y="43.88" width="9.88" height="9.88" transform="translate(43.93 203.67) rotate(-45)"/><rect class="cls-1" x="163.82" y="30.22" width="9.88" height="9.88" transform="translate(24.57 129.63) rotate(-45)"/><rect class="cls-1" x="221.05" y="29.64" width="9.88" height="9.88" transform="translate(41.74 169.93) rotate(-45)"/><rect class="cls-1" x="192.87" y="57.82" width="9.88" height="9.88" transform="translate(13.56 158.25) rotate(-45)"/><polygon class="cls-1" points="253.87 69.74 260.85 62.76 246.91 48.81 260.85 34.87 260.85 34.87 260.85 34.86 246.91 20.93 260.85 6.99 253.87 0.01 239.93 13.94 225.99 0 219 6.98 246.89 34.87 219 62.75 225.99 69.73 239.93 55.8 253.87 69.74"/><polygon class="cls-1" points="218.73 48.81 197.81 27.89 197.81 27.9 197.8 27.89 176.88 48.81 183.87 55.8 197.81 41.86 211.75 55.8 218.73 48.81"/><polygon class="cls-1" points="183.87 27.91 197.81 13.97 211.75 27.91 218.73 20.93 197.81 0.01 197.81 0.01 197.8 0.01 176.88 20.93 183.87 27.91"/><rect class="cls-1" x="163.82" y="57.82" width="9.88" height="9.88" transform="translate(5.05 137.71) rotate(-45)"/><rect class="cls-1" x="157.14" y="156" width="9.88" height="9.88" transform="translate(-66.33 161.75) rotate(-45)"/><rect class="cls-1" x="157.14" y="184.18" width="9.88" height="9.88" transform="translate(-86.25 170) rotate(-45)"/><rect class="cls-1" x="183.87" y="184.18" width="9.88" height="9.88" transform="translate(-78.43 188.9) rotate(-45)"/><rect class="cls-1" x="157.14" y="211.98" width="9.88" height="9.88" transform="translate(-105.92 178.14) rotate(-45)"/></g></g></svg>