<?xml version="1.0" encoding="utf-8"?>
<!-- Generator: Adobe Illustrator 20.0.0, SVG Export Plug-In . SVG Version: 6.00 Build 0)  -->
<svg version="1.1" id="Layer_1" xmlns="http://www.w3.org/2000/svg" xmlns:xlink="http://www.w3.org/1999/xlink" x="0px" y="0px"
	 viewBox="0 0 240 200" enable-background="new 0 0 240 200" xml:space="preserve">
<g id="Artwork_99">
	<g>
		
			<line fill="none" stroke="#000000" stroke-width="4" stroke-linecap="round" stroke-linejoin="round" stroke-miterlimit="10" x1="208.354" y1="99.95" x2="215.243" y2="99.95"/>
		
			<line fill="none" stroke="#000000" stroke-width="4" stroke-linecap="round" stroke-linejoin="round" stroke-miterlimit="10" x1="201.465" y1="127.507" x2="208.354" y2="127.507"/>
		
			<line fill="none" stroke="#000000" stroke-width="4" stroke-linecap="round" stroke-linejoin="round" stroke-miterlimit="10" x1="194.575" y1="155.064" x2="201.464" y2="155.064"/>
		<g>
			<path fill="#FFCC00" d="M69.262,72.393H17.867c-3.235,0-5.857,2.622-5.857,5.856v112.395c0,3.235,2.623,5.856,5.857,5.856h51.396
				c3.235,0,5.857-2.622,5.857-5.856V78.249C75.119,75.014,72.497,72.393,69.262,72.393 M43.556,176.804
				c-3.243,0-5.873-2.657-5.873-5.935c0-3.277,2.629-5.934,5.873-5.934c3.243,0,5.873,2.657,5.873,5.934
				C49.428,174.147,46.799,176.804,43.556,176.804"/>
			<path fill="none" stroke="#000000" stroke-width="4" stroke-linecap="round" stroke-linejoin="round" stroke-miterlimit="10" d="
				M69.262,72.393H17.867c-3.235,0-5.857,2.622-5.857,5.856v112.395c0,3.235,2.623,5.856,5.857,5.856h51.396
				c3.235,0,5.857-2.622,5.857-5.856V78.249C75.119,75.014,72.497,72.393,69.262,72.393z M43.556,176.804
				c-3.243,0-5.873-2.657-5.873-5.935c0-3.277,2.629-5.934,5.873-5.934c3.243,0,5.873,2.657,5.873,5.934
				C49.428,174.147,46.799,176.804,43.556,176.804z"/>
			
				<line fill="none" stroke="#000000" stroke-width="4" stroke-linecap="round" stroke-linejoin="round" stroke-miterlimit="10" x1="107.522" y1="182.817" x2="184.503" y2="182.817"/>
			<path fill="none" stroke="#000000" stroke-width="4" stroke-linecap="round" stroke-linejoin="round" stroke-miterlimit="10" d="
				M171.291,72.393h-5.079c0,0-10.334,0-10.334-10.334v-44.78c0-7.609-6.168-13.779-13.778-13.779
				c-7.609,0-13.779,6.169-13.779,13.779v17.223c0,27.556-25.107,44.78-52.665,44.78V99.95v62.003
				c0,11.412,9.256,20.668,20.668,20.668h81.169"/>
			<path fill="none" stroke="#000000" stroke-width="4" stroke-linecap="round" stroke-linejoin="round" stroke-miterlimit="10" d="
				M149.511,86.16c0,7.625,6.267,13.808,13.997,13.808h41.99c7.73,0,13.997-6.183,13.997-13.808c0-7.625-6.267-13.808-13.997-13.808
				h-41.99C155.778,72.352,149.511,78.535,149.511,86.16z"/>
			<path fill="none" stroke="#000000" stroke-width="4" stroke-linecap="round" stroke-linejoin="round" stroke-miterlimit="10" d="
				M156.509,169.009c0,7.625,6.267,13.808,13.997,13.808h27.993c7.73,0,13.997-6.183,13.997-13.808
				c0-7.625-6.267-13.808-13.997-13.808h-27.993C162.776,155.2,156.509,161.384,156.509,169.009z"/>
			<path fill="none" stroke="#000000" stroke-width="4" stroke-linecap="round" stroke-linejoin="round" stroke-miterlimit="10" d="
				M139.014,113.776c0,7.625,6.267,13.808,13.997,13.808h62.984c7.73,0,13.996-6.183,13.996-13.808
				c0-7.625-6.266-13.808-13.996-13.808H153.01C145.281,99.968,139.014,106.151,139.014,113.776z"/>
			<path fill="none" stroke="#000000" stroke-width="4" stroke-linecap="round" stroke-linejoin="round" stroke-miterlimit="10" d="
				M139.014,141.393c0,7.625,6.267,13.808,13.997,13.808h62.984c7.73,0,13.996-6.183,13.996-13.808
				c0-7.625-6.266-13.808-13.996-13.808H153.01C145.281,127.584,139.014,133.767,139.014,141.393z"/>
		</g>
	</g>
</g>
</svg>
