<?xml version="1.0" encoding="utf-8"?>
<!-- Generator: Adobe Illustrator 20.0.0, SVG Export Plug-In . SVG Version: 6.00 Build 0)  -->
<svg version="1.1" id="Layer_1" xmlns="http://www.w3.org/2000/svg" xmlns:xlink="http://www.w3.org/1999/xlink" x="0px" y="0px"
	 viewBox="0 0 240 200" enable-background="new 0 0 240 200" xml:space="preserve">
<g id="Artwork_98">
	<g>
		<rect x="2.869" y="71.921" fill="#FFCB00" width="51.377" height="117.433"/>
		<g>
			
				<rect x="2.869" y="71.921" fill="none" stroke="#000000" stroke-width="4" stroke-linecap="round" stroke-linejoin="round" stroke-miterlimit="10" width="51.377" height="117.433"/>
			<path fill="none" stroke="#000000" stroke-width="4" stroke-linecap="round" stroke-linejoin="round" stroke-miterlimit="10" d="
				M234.181,117.333c0-7.616-7.161-13.792-14.778-13.792h3.937c8.646,0,14.005-5.383,13.786-14.318
				c-0.182-7.409-6.374-13.265-13.786-13.265h-55.655c0,0-10.344,0-10.344-10.344V21.181c0-7.426-5.706-13.815-13.124-14.165
				c-7.92-0.374-14.459,5.937-14.459,13.776v17.24c0,11.694-10.497,22.601-17.18,28.36c-3.62,3.119-6.201,7.259-7.421,11.879
				l-0.056,0.213c-0.682,2.583-3.007,4.388-5.677,4.409c-3.789,0.029-9.383,0.068-14.489,0.083v20.567l-7.199,70.709l18.453,0.176
				c2.467,0.03,4.683,1.583,5.493,3.914c2.916,8.386,9.649,7.951,19.725,7.951h81.924c7.341,0,13.662-5.609,14.076-12.938
				c0.451-8.004-3.895-14.646-11.794-14.646h6.896c8.334,0,13.792-5.602,13.792-13.792c0-7.616-6.176-13.792-13.792-13.792h7.882
				C228.723,131.125,234.181,125.236,234.181,117.333z"/>
			<rect x="51.583" y="62.455" fill="#FFCB00" width="35.65" height="134.545"/>
			
				<rect x="51.583" y="62.455" fill="none" stroke="#000000" stroke-width="4" stroke-linecap="round" stroke-linejoin="round" stroke-miterlimit="10" width="35.65" height="134.545"/>
			
				<line fill="none" stroke="#000000" stroke-width="4" stroke-linecap="round" stroke-linejoin="round" stroke-miterlimit="10" x1="86.153" y1="160.081" x2="51.616" y2="160.081"/>
			<path fill="#FFFFFF" d="M69.408,170.414c3.931,0,7.118,3.084,7.118,6.888c0,3.805-3.187,6.889-7.118,6.889
				c-3.931,0-7.118-3.084-7.118-6.889C62.291,173.498,65.478,170.414,69.408,170.414"/>
			
				<ellipse fill="none" stroke="#000000" stroke-width="4" stroke-linecap="round" stroke-linejoin="round" stroke-miterlimit="10" cx="69.408" cy="177.302" rx="7.118" ry="6.889"/>
		</g>
	</g>
</g>
</svg>
