<svg fill="none" height="609" viewBox="0 0 765 609" width="765" xmlns="http://www.w3.org/2000/svg" xmlns:xlink="http://www.w3.org/1999/xlink"><mask id="a" fill="#fff"><rect fill="#fff" height="360" rx="6" width="280" x="91" y="103"/></mask><mask id="b" fill="#fff"><rect fill="#fff" height="360" rx="6" width="280" x="395" y="103"/></mask><path d="m0 0h765v609h-765z" fill="#fff"/><path d="m369.5 113.5h29v61h-29z" fill="#f2f2f2" stroke="#000" stroke-dasharray="4 4"/><rect fill="#0e71f2" height="360" mask="url(#a)" rx="6" stroke="#0f2645" stroke-width="20" width="280" x="91" y="103"/><rect fill="#0e71f2" height="360" mask="url(#b)" rx="6" stroke="#0f2645" stroke-width="20" width="280" x="395" y="103"/><path d="m532 228h-103" stroke="#fd94ff" stroke-width="4"/><path d="m419.383 228.851c-.635-.39-.635-1.312 0-1.702l8.343-5.138c.666-.411 1.524.069 1.524.851v10.276c0 .782-.858 1.262-1.524.851z" fill="#fd94ff"/><g stroke="#fd94ff" stroke-width="4"><path d="m428 448h-20"/><path d="m428 180h-20"/><path d="m418 182v267"/><path d="m396 487v-20"/><path d="m370 487v-20"/><path d="m394 477h-22"/></g><rect fill="#fd94ff" height="35" rx="2" width="165" x="475" y="226"/><path d="m480.304 246.416c.032.789.277 1.424.736 1.904s1.099.72 1.92.72c.373 0 .699-.043.976-.128s.512-.203.704-.352c.203-.149.363-.32.48-.512.128-.203.229-.416.304-.64l1.184.32c-.224.736-.64 1.339-1.248 1.808-.597.459-1.408.688-2.432.688-.565 0-1.088-.096-1.568-.288-.469-.203-.875-.485-1.216-.848s-.608-.795-.8-1.296-.288-1.056-.288-1.664v-.384c0-.555.096-1.072.288-1.552.203-.48.48-.891.832-1.232.352-.352.763-.624 1.232-.816.48-.203.997-.304 1.552-.304.651 0 1.211.123 1.68.368.48.235.869.528 1.168.88.309.352.533.736.672 1.152.149.416.224.8.224 1.152v1.024zm2.656-3.392c-.352 0-.683.059-.992.176-.299.107-.565.261-.8.464-.224.203-.411.443-.56.72-.139.267-.229.56-.272.88h5.12c-.021-.341-.107-.651-.256-.928-.139-.277-.325-.512-.56-.704-.224-.192-.485-.341-.784-.448-.288-.107-.587-.16-.896-.16zm7.477 6.976h-1.248v-7.936h1.248v1.344h.192c.491-1.045 1.344-1.568 2.56-1.568.917 0 1.648.288 2.192.864.544.565.816 1.419.816 2.56v4.736h-1.248v-4.48c0-.832-.187-1.456-.56-1.872s-.88-.624-1.52-.624c-.757 0-1.355.261-1.792.784-.427.512-.64 1.2-.64 2.064zm13.269 0h-2.464l-2.768-7.936h1.472l2.432 7.36h.192l2.432-7.36h1.472zm12.421 1.312v1.184h-.576c-.747 0-1.462-.139-2.144-.416-.683-.277-1.286-.683-1.808-1.216-.523-.523-.939-1.157-1.248-1.904-.31-.747-.464-1.595-.464-2.544v-4.032c0-.939.154-1.781.464-2.528.309-.757.725-1.397 1.248-1.92.522-.533 1.125-.939 1.808-1.216.682-.277 1.397-.416 2.144-.416h.576v1.184h-.576c-.576 0-1.131.117-1.664.352-.534.224-1.003.549-1.408.976-.406.427-.731.949-.976 1.568-.246.608-.368 1.296-.368 2.064v3.904c0 .768.122 1.461.368 2.08.245.608.57 1.125.976 1.552.405.427.874.752 1.408.976.533.235 1.088.352 1.664.352zm2.373-9.248h2.448v-2.016c0-.363.112-.661.336-.896.234-.235.533-.352.896-.352h3.136v1.152h-2.688c-.288 0-.432.16-.432.48v1.632h3.312v1.152h-3.312v6.784h-1.248v-6.784h-2.448zm17.364 4.064c0 .661-.112 1.248-.336 1.76-.213.501-.501.928-.864 1.28-.362.341-.789.603-1.28.784-.48.181-.981.272-1.504.272-.533 0-1.04-.091-1.52-.272s-.901-.443-1.264-.784c-.362-.352-.656-.779-.88-1.28-.213-.512-.32-1.099-.32-1.76v-.192c0-.651.107-1.227.32-1.728.224-.512.518-.944.88-1.296.374-.352.8-.619 1.28-.8s.982-.272 1.504-.272c.523 0 1.024.091 1.504.272s.902.448 1.264.8c.374.352.667.784.88 1.296.224.501.336 1.077.336 1.728zm-3.984 2.912c.384 0 .736-.064 1.056-.192.331-.139.619-.336.864-.592.246-.256.438-.56.576-.912.139-.363.208-.768.208-1.216v-.192c0-.427-.069-.816-.208-1.168-.138-.363-.33-.672-.576-.928-.245-.256-.533-.453-.864-.592-.33-.149-.682-.224-1.056-.224-.373 0-.725.075-1.056.224-.33.139-.618.336-.864.592-.245.256-.437.565-.576.928-.138.352-.208.741-.208 1.168v.192c0 .448.07.853.208 1.216.139.352.331.656.576.912.246.256.528.453.848.592.331.128.688.192 1.072.192zm6.293-.192h2.88v-8.896h-2.784v-1.152h4.032v10.048h2.88v1.152h-7.008zm15.941-.064h-.192c-.128.245-.293.459-.496.64-.192.181-.405.331-.64.448-.224.117-.464.203-.72.256-.256.064-.501.096-.736.096-.533 0-1.029-.091-1.488-.272s-.864-.443-1.216-.784c-.341-.341-.613-.763-.816-1.264-.192-.512-.288-1.093-.288-1.744v-.256c0-.64.101-1.211.304-1.712.203-.512.475-.939.816-1.28.341-.352.741-.619 1.2-.8s.944-.272 1.456-.272c.544 0 1.051.123 1.52.368.48.235.848.603 1.104 1.104h.192v-4.512h1.248v11.2h-1.248zm-2.656.256c.373 0 .72-.069 1.04-.208s.597-.336.832-.592c.245-.256.437-.56.576-.912.139-.363.208-.763.208-1.2v-.192c0-.427-.069-.816-.208-1.168-.139-.363-.331-.672-.576-.928-.235-.256-.517-.453-.848-.592-.32-.149-.661-.224-1.024-.224-.373 0-.725.069-1.056.208-.32.139-.603.336-.848.592-.235.256-.421.56-.56.912-.128.352-.192.741-.192 1.168v.256c0 .448.064.848.192 1.2.139.352.325.656.56.912.245.245.528.437.848.576.32.128.672.192 1.056.192zm7.413-3.776h4.8v1.152h-4.8zm9.941 4.736h-1.248v-11.2h1.248v4.704h.192c.245-.512.587-.917 1.024-1.216.448-.299.992-.448 1.632-.448.864 0 1.563.288 2.096.864.544.565.816 1.419.816 2.56v4.736h-1.248v-4.48c0-.832-.187-1.456-.56-1.872s-.88-.624-1.52-.624c-.757 0-1.355.261-1.792.784-.427.512-.64 1.2-.64 2.064zm9.461-3.584c.032.789.277 1.424.736 1.904.458.48 1.098.72 1.92.72.373 0 .698-.043.976-.128.277-.085.512-.203.704-.352.202-.149.362-.32.48-.512.128-.203.229-.416.304-.64l1.184.32c-.224.736-.64 1.339-1.248 1.808-.598.459-1.408.688-2.432.688-.566 0-1.088-.096-1.568-.288-.47-.203-.875-.485-1.216-.848-.342-.363-.608-.795-.8-1.296s-.288-1.056-.288-1.664v-.384c0-.555.096-1.072.288-1.552.202-.48.48-.891.832-1.232.352-.352.762-.624 1.232-.816.48-.203.997-.304 1.552-.304.65 0 1.21.123 1.68.368.48.235.869.528 1.168.88.309.352.533.736.672 1.152.149.416.224.8.224 1.152v1.024zm2.656-3.392c-.352 0-.683.059-.992.176-.299.107-.566.261-.8.464-.224.203-.411.443-.56.72-.139.267-.23.56-.272.88h5.12c-.022-.341-.107-.651-.256-.928-.139-.277-.326-.512-.56-.704-.224-.192-.486-.341-.784-.448-.288-.107-.587-.16-.896-.16zm8.693-3.328c0-.309.106-.571.32-.784.224-.224.49-.336.8-.336.309 0 .57.112.784.336.224.213.336.475.336.784s-.112.576-.336.8c-.214.213-.475.32-.784.32-.31 0-.576-.107-.8-.32-.214-.224-.32-.491-.32-.8zm-2.272 9.152h2.784v-5.632h-2.496v-1.152h3.744v6.784h2.592v1.152h-6.624zm15.637-.064h-.192c-.256.48-.608.843-1.056 1.088-.438.235-.918.352-1.44.352-.534 0-1.035-.091-1.504-.272-.47-.181-.886-.443-1.248-.784-.352-.341-.635-.763-.848-1.264-.203-.512-.304-1.093-.304-1.744v-.256c0-.64.106-1.211.32-1.712.213-.512.496-.939.847-1.28.353-.352.763-.619 1.233-.8.469-.181.96-.272 1.471-.272.577 0 1.078.128 1.505.384.437.245.778.608 1.024 1.088h.192v-1.248h1.248v9.888c0 .363-.118.661-.352.896-.224.235-.518.352-.88.352h-5.168v-1.152h4.72c.288 0 .432-.16.432-.48zm-2.656.256c.373 0 .72-.069 1.04-.208s.597-.336.832-.592c.245-.256.437-.56.576-.912.138-.363.208-.763.208-1.2v-.192c0-.427-.07-.816-.208-1.168-.139-.363-.331-.672-.576-.928-.235-.256-.518-.453-.848-.592-.32-.149-.662-.224-1.024-.224-.374 0-.726.069-1.056.208-.32.139-.603.336-.848.592-.235.256-.422.56-.56.912-.128.352-.193.741-.193 1.168v.256c0 .448.065.848.193 1.2.138.352.325.656.56.912.245.245.528.437.848.576.32.128.672.192 1.056.192zm7.668.96h-1.248v-11.2h1.248v4.704h.192c.246-.512.587-.917 1.024-1.216.448-.299.992-.448 1.632-.448.864 0 1.563.288 2.096.864.544.565.816 1.419.816 2.56v4.736h-1.248v-4.48c0-.832-.186-1.456-.56-1.872-.373-.416-.88-.624-1.52-.624-.757 0-1.354.261-1.792.784-.426.512-.64 1.2-.64 2.064zm8.277-7.936h2.496v-3.264h1.248v3.264h3.072v1.152h-3.072v5.152c0 .32.144.48.432.48h2.256v1.152h-2.704c-.362 0-.661-.117-.896-.352-.224-.235-.336-.533-.336-.896v-5.536h-2.496zm10.309 9.248c.576 0 1.131-.117 1.664-.352.533-.224 1.003-.549 1.408-.976s.731-.944.976-1.552c.245-.619.368-1.312.368-2.08v-3.904c0-.768-.123-1.456-.368-2.064-.245-.619-.571-1.141-.976-1.568s-.875-.752-1.408-.976c-.533-.235-1.088-.352-1.664-.352h-.576v-1.184h.576c.747 0 1.461.139 2.144.416s1.285.683 1.808 1.216c.523.523.939 1.163 1.248 1.92.309.747.464 1.589.464 2.528v4.032c0 .949-.155 1.797-.464 2.544s-.725 1.381-1.248 1.904c-.523.533-1.125.939-1.808 1.216s-1.397.416-2.144.416h-.576v-1.184z" fill="#000"/><path d="m101 113h260v62h-260z" fill="#fff" fill-opacity=".99"/><path d="m405 113h260v62h-260z" fill="#fff" fill-opacity=".99"/><rect fill="#c8dffc" height="14" rx="3" width="14" x="626" y="117"/><rect fill="#c8dffc" height="14" rx="3" width="14" x="645" y="117"/><path d="m129 144c0-3.314 2.686-6 6-6h226v31h-226c-3.314 0-6-2.686-6-6z" fill="#0e71f2" fill-opacity=".22"/><path d="m405 138h248c3.314 0 6 2.686 6 6v19c0 3.314-2.686 6-6 6h-248z" fill="#0e71f2" fill-opacity=".22"/><path d="m113.2 159.6-6.8-6.8 6.8-6.8" stroke="#c8dffc" stroke-width="2"/><path d="m121.8 152.8h-15.4" stroke="#c8dffc" stroke-width="2"/><rect fill="#fd94ff" height="35" rx="2" width="140" x="357" y="22"/><path d="m365.304 42.416c.032.7893.277 1.424.736 1.904s1.099.72 1.92.72c.373 0 .699-.0427.976-.128s.512-.2027.704-.352c.203-.1493.363-.32.48-.512.128-.2027.229-.416.304-.64l1.184.32c-.224.736-.64 1.3387-1.248 1.808-.597.4587-1.408.688-2.432.688-.565 0-1.088-.096-1.568-.288-.469-.2027-.875-.4853-1.216-.848s-.608-.7947-.8-1.296-.288-1.056-.288-1.664v-.384c0-.5547.096-1.072.288-1.552.203-.48.48-.8907.832-1.232.352-.352.763-.624 1.232-.816.48-.2027.997-.304 1.552-.304.651 0 1.211.1227 1.68.368.48.2347.869.528 1.168.88.309.352.533.736.672 1.152.149.416.224.8.224 1.152v1.024zm2.656-3.392c-.352 0-.683.0587-.992.176-.299.1067-.565.2613-.8.464-.224.2027-.411.4427-.56.72-.139.2667-.229.56-.272.88h5.12c-.021-.3413-.107-.6507-.256-.928-.139-.2773-.325-.512-.56-.704-.224-.192-.485-.3413-.784-.448-.288-.1067-.587-.16-.896-.16zm7.477 6.976h-1.248v-7.936h1.248v1.344h.192c.491-1.0453 1.344-1.568 2.56-1.568.917 0 1.648.288 2.192.864.544.5653.816 1.4187.816 2.56v4.736h-1.248v-4.48c0-.832-.187-1.456-.56-1.872s-.88-.624-1.52-.624c-.757 0-1.355.2613-1.792.784-.427.512-.64 1.2-.64 2.064zm13.269 0h-2.464l-2.768-7.936h1.472l2.432 7.36h.192l2.432-7.36h1.472zm12.421 1.312v1.184h-.576c-.747 0-1.462-.1387-2.144-.416-.683-.2773-1.286-.6827-1.808-1.216-.523-.5227-.939-1.1573-1.248-1.904-.31-.7467-.464-1.5947-.464-2.544v-4.032c0-.9387.154-1.7813.464-2.528.309-.7573.725-1.3973 1.248-1.92.522-.5333 1.125-.9387 1.808-1.216.682-.2773 1.397-.416 2.144-.416h.576v1.184h-.576c-.576 0-1.131.1173-1.664.352-.534.224-1.003.5493-1.408.976-.406.4267-.731.9493-.976 1.568-.246.608-.368 1.296-.368 2.064v3.904c0 .768.122 1.4613.368 2.08.245.608.57 1.1253.976 1.552.405.4267.874.752 1.408.976.533.2347 1.088.352 1.664.352zm2.373-9.248h2.448v-2.016c0-.3627.112-.6613.336-.896.234-.2347.533-.352.896-.352h3.136v1.152h-2.688c-.288 0-.432.16-.432.48v1.632h3.312v1.152h-3.312v6.784h-1.248v-6.784h-2.448zm17.364 4.064c0 .6613-.112 1.248-.336 1.76-.213.5013-.501.928-.864 1.28-.362.3413-.789.6027-1.28.784-.48.1813-.981.272-1.504.272-.533 0-1.04-.0907-1.52-.272s-.901-.4427-1.264-.784c-.362-.352-.656-.7787-.88-1.28-.213-.512-.32-1.0987-.32-1.76v-.192c0-.6507.107-1.2267.32-1.728.224-.512.518-.944.88-1.296.374-.352.8-.6187 1.28-.8s.982-.272 1.504-.272c.523 0 1.024.0907 1.504.272s.902.448 1.264.8c.374.352.667.784.88 1.296.224.5013.336 1.0773.336 1.728zm-3.984 2.912c.384 0 .736-.064 1.056-.192.331-.1387.619-.336.864-.592.246-.256.438-.56.576-.912.139-.3627.208-.768.208-1.216v-.192c0-.4267-.069-.816-.208-1.168-.138-.3627-.33-.672-.576-.928-.245-.256-.533-.4533-.864-.592-.33-.1493-.682-.224-1.056-.224-.373 0-.725.0747-1.056.224-.33.1387-.618.336-.864.592-.245.256-.437.5653-.576.928-.138.352-.208.7413-.208 1.168v.192c0 .448.07.8533.208 1.216.139.352.331.656.576.912.246.256.528.4533.848.592.331.128.688.192 1.072.192zm6.293-.192h2.88v-8.896h-2.784v-1.152h4.032v10.048h2.88v1.152h-7.008zm15.941-.064h-.192c-.128.2453-.293.4587-.496.64-.192.1813-.405.3307-.64.448-.224.1173-.464.2027-.72.256-.256.064-.501.096-.736.096-.533 0-1.029-.0907-1.488-.272s-.864-.4427-1.216-.784c-.341-.3413-.613-.7627-.816-1.264-.192-.512-.288-1.0933-.288-1.744v-.256c0-.64.101-1.2107.304-1.712.203-.512.475-.9387.816-1.28.341-.352.741-.6187 1.2-.8s.944-.272 1.456-.272c.544 0 1.051.1227 1.52.368.48.2347.848.6027 1.104 1.104h.192v-4.512h1.248v11.2h-1.248zm-2.656.256c.373 0 .72-.0693 1.04-.208s.597-.336.832-.592c.245-.256.437-.56.576-.912.139-.3627.208-.7627.208-1.2v-.192c0-.4267-.069-.816-.208-1.168-.139-.3627-.331-.672-.576-.928-.235-.256-.517-.4533-.848-.592-.32-.1493-.661-.224-1.024-.224-.373 0-.725.0693-1.056.208-.32.1387-.603.336-.848.592-.235.256-.421.56-.56.912-.128.352-.192.7413-.192 1.168v.256c0 .448.064.848.192 1.2.139.352.325.656.56.912.245.2453.528.4373.848.576.32.128.672.192 1.056.192zm7.413-3.776h4.8v1.152h-4.8zm8.421-3.2h2.496v-3.264h1.248v3.264h3.072v1.152h-3.072v5.152c0 .32.144.48.432.48h2.256v1.152h-2.704c-.363 0-.661-.1173-.896-.352-.224-.2347-.336-.5333-.336-.896v-5.536h-2.496zm17.557 4.064c0 .6613-.112 1.248-.336 1.76-.214.5013-.502.928-.864 1.28-.363.3413-.79.6027-1.28.784-.48.1813-.982.272-1.504.272-.534 0-1.04-.0907-1.52-.272s-.902-.4427-1.264-.784c-.363-.352-.656-.7787-.88-1.28-.214-.512-.32-1.0987-.32-1.76v-.192c0-.6507.106-1.2267.32-1.728.224-.512.517-.944.88-1.296.373-.352.8-.6187 1.28-.8s.981-.272 1.504-.272c.522 0 1.024.0907 1.504.272s.901.448 1.264.8c.373.352.666.784.88 1.296.224.5013.336 1.0773.336 1.728zm-3.984 2.912c.384 0 .736-.064 1.056-.192.33-.1387.618-.336.864-.592.245-.256.437-.56.576-.912.138-.3627.208-.768.208-1.216v-.192c0-.4267-.07-.816-.208-1.168-.139-.3627-.331-.672-.576-.928-.246-.256-.534-.4533-.864-.592-.331-.1493-.683-.224-1.056-.224-.374 0-.726.0747-1.056.224-.331.1387-.619.336-.864.592-.246.256-.438.5653-.576.928-.139.352-.208.7413-.208 1.168v.192c0 .448.069.8533.208 1.216.138.352.33.656.576.912.245.256.528.4533.848.592.33.128.688.192 1.072.192zm7.253 4.16h-1.248v-11.136h1.248v1.248h.192c.277-.48.661-.8427 1.152-1.088.49-.256 1.024-.384 1.6-.384.49 0 .954.0907 1.392.272.437.1813.821.4427 1.152.784.341.3413.608.7627.8 1.264.202.5013.304 1.072.304 1.712v.32c0 .6507-.096 1.2267-.288 1.728s-.459.9227-.8 1.264c-.331.3413-.72.6027-1.168.784-.448.1707-.923.256-1.424.256-.256 0-.518-.032-.784-.096-.267-.0533-.523-.1387-.768-.256-.235-.128-.454-.2773-.656-.448-.203-.1813-.374-.3947-.512-.64h-.192zm2.656-4.16c.384 0 .736-.064 1.056-.192.32-.1387.597-.3307.832-.576.245-.2453.432-.544.56-.896.138-.352.208-.7467.208-1.184v-.32c0-.4267-.07-.8107-.208-1.152-.128-.352-.315-.6507-.56-.896-.235-.256-.518-.4533-.848-.592-.32-.1387-.667-.208-1.04-.208-.374 0-.72.0747-1.04.224-.32.1387-.603.336-.848.592-.235.256-.422.5653-.56.928-.139.352-.208.7413-.208 1.168v.192c0 .4373.069.8373.208 1.2.138.352.325.656.56.912.245.256.528.4533.848.592s.666.208 1.04.208zm6.421 2.272c.576 0 1.13-.1173 1.664-.352.533-.224 1.002-.5493 1.407-.976.406-.4267.731-.944.977-1.552.245-.6187.368-1.312.368-2.08v-3.904c0-.768-.123-1.456-.368-2.064-.246-.6187-.571-1.1413-.977-1.568-.405-.4267-.874-.752-1.407-.976-.534-.2347-1.088-.352-1.664-.352h-.577v-1.184h.577c.746 0 1.461.1387 2.144.416.682.2773 1.285.6827 1.808 1.216.522.5227.938 1.1627 1.248 1.92.309.7467.464 1.5893.464 2.528v4.032c0 .9493-.155 1.7973-.464 2.544-.31.7467-.726 1.3813-1.248 1.904-.523.5333-1.126.9387-1.808 1.216-.683.2773-1.398.416-2.144.416h-.577v-1.184z" fill="#000"/><rect fill="#fd94ff" height="35" rx="2" width="158" x="382" y="531"/><path d="m390.304 551.416c.032.789.277 1.424.736 1.904s1.099.72 1.92.72c.373 0 .699-.043.976-.128s.512-.203.704-.352c.203-.149.363-.32.48-.512.128-.203.229-.416.304-.64l1.184.32c-.224.736-.64 1.339-1.248 1.808-.597.459-1.408.688-2.432.688-.565 0-1.088-.096-1.568-.288-.469-.203-.875-.485-1.216-.848s-.608-.795-.8-1.296-.288-1.056-.288-1.664v-.384c0-.555.096-1.072.288-1.552.203-.48.48-.891.832-1.232.352-.352.763-.624 1.232-.816.48-.203.997-.304 1.552-.304.651 0 1.211.123 1.68.368.48.235.869.528 1.168.88.309.352.533.736.672 1.152.149.416.224.8.224 1.152v1.024zm2.656-3.392c-.352 0-.683.059-.992.176-.299.107-.565.261-.8.464-.224.203-.411.443-.56.72-.139.267-.229.56-.272.88h5.12c-.021-.341-.107-.651-.256-.928-.139-.277-.325-.512-.56-.704-.224-.192-.485-.341-.784-.448-.288-.107-.587-.16-.896-.16zm7.477 6.976h-1.248v-7.936h1.248v1.344h.192c.491-1.045 1.344-1.568 2.56-1.568.917 0 1.648.288 2.192.864.544.565.816 1.419.816 2.56v4.736h-1.248v-4.48c0-.832-.187-1.456-.56-1.872s-.88-.624-1.52-.624c-.757 0-1.355.261-1.792.784-.427.512-.64 1.2-.64 2.064zm13.269 0h-2.464l-2.768-7.936h1.472l2.432 7.36h.192l2.432-7.36h1.472zm12.421 1.312v1.184h-.576c-.747 0-1.462-.139-2.144-.416-.683-.277-1.286-.683-1.808-1.216-.523-.523-.939-1.157-1.248-1.904-.31-.747-.464-1.595-.464-2.544v-4.032c0-.939.154-1.781.464-2.528.309-.757.725-1.397 1.248-1.92.522-.533 1.125-.939 1.808-1.216.682-.277 1.397-.416 2.144-.416h.576v1.184h-.576c-.576 0-1.131.117-1.664.352-.534.224-1.003.549-1.408.976-.406.427-.731.949-.976 1.568-.246.608-.368 1.296-.368 2.064v3.904c0 .768.122 1.461.368 2.08.245.608.57 1.125.976 1.552.405.427.874.752 1.408.976.533.235 1.088.352 1.664.352zm2.373-9.248h2.448v-2.016c0-.363.112-.661.336-.896.234-.235.533-.352.896-.352h3.136v1.152h-2.688c-.288 0-.432.16-.432.48v1.632h3.312v1.152h-3.312v6.784h-1.248v-6.784h-2.448zm17.364 4.064c0 .661-.112 1.248-.336 1.76-.213.501-.501.928-.864 1.28-.362.341-.789.603-1.28.784-.48.181-.981.272-1.504.272-.533 0-1.04-.091-1.52-.272s-.901-.443-1.264-.784c-.362-.352-.656-.779-.88-1.28-.213-.512-.32-1.099-.32-1.76v-.192c0-.651.107-1.227.32-1.728.224-.512.518-.944.88-1.296.374-.352.8-.619 1.28-.8s.982-.272 1.504-.272c.523 0 1.024.091 1.504.272s.902.448 1.264.8c.374.352.667.784.88 1.296.224.501.336 1.077.336 1.728zm-3.984 2.912c.384 0 .736-.064 1.056-.192.331-.139.619-.336.864-.592.246-.256.438-.56.576-.912.139-.363.208-.768.208-1.216v-.192c0-.427-.069-.816-.208-1.168-.138-.363-.33-.672-.576-.928-.245-.256-.533-.453-.864-.592-.33-.149-.682-.224-1.056-.224-.373 0-.725.075-1.056.224-.33.139-.618.336-.864.592-.245.256-.437.565-.576.928-.138.352-.208.741-.208 1.168v.192c0 .448.07.853.208 1.216.139.352.331.656.576.912.246.256.528.453.848.592.331.128.688.192 1.072.192zm6.293-.192h2.88v-8.896h-2.784v-1.152h4.032v10.048h2.88v1.152h-7.008zm15.941-.064h-.192c-.128.245-.293.459-.496.64-.192.181-.405.331-.64.448-.224.117-.464.203-.72.256-.256.064-.501.096-.736.096-.533 0-1.029-.091-1.488-.272s-.864-.443-1.216-.784c-.341-.341-.613-.763-.816-1.264-.192-.512-.288-1.093-.288-1.744v-.256c0-.64.101-1.211.304-1.712.203-.512.475-.939.816-1.28.341-.352.741-.619 1.2-.8s.944-.272 1.456-.272c.544 0 1.051.123 1.52.368.48.235.848.603 1.104 1.104h.192v-4.512h1.248v11.2h-1.248zm-2.656.256c.373 0 .72-.069 1.04-.208s.597-.336.832-.592c.245-.256.437-.56.576-.912.139-.363.208-.763.208-1.2v-.192c0-.427-.069-.816-.208-1.168-.139-.363-.331-.672-.576-.928-.235-.256-.517-.453-.848-.592-.32-.149-.661-.224-1.024-.224-.373 0-.725.069-1.056.208-.32.139-.603.336-.848.592-.235.256-.421.56-.56.912-.128.352-.192.741-.192 1.168v.256c0 .448.064.848.192 1.2.139.352.325.656.56.912.245.245.528.437.848.576.32.128.672.192 1.056.192zm7.413-3.776h4.8v1.152h-4.8zm15.557 4.736h-2.304l-.96-7.36h-.192l-.96 7.36h-2.304l-1.248-7.936h1.28l1.056 7.36h.192l.928-7.36h2.304l.928 7.36h.192l1.056-7.36h1.28zm5.397-10.304c0-.309.106-.571.32-.784.224-.224.49-.336.8-.336.309 0 .57.112.784.336.224.213.336.475.336.784s-.112.576-.336.8c-.214.213-.475.32-.784.32-.31 0-.576-.107-.8-.32-.214-.224-.32-.491-.32-.8zm-2.272 9.152h2.784v-5.632h-2.496v-1.152h3.744v6.784h2.592v1.152h-6.624zm15.749-.064h-.192c-.128.245-.294.459-.496.64-.192.181-.406.331-.64.448-.224.117-.464.203-.72.256-.256.064-.502.096-.736.096-.534 0-1.03-.091-1.488-.272-.459-.181-.864-.443-1.216-.784-.342-.341-.614-.763-.816-1.264-.192-.512-.288-1.093-.288-1.744v-.256c0-.64.101-1.211.304-1.712.202-.512.474-.939.816-1.28.341-.352.741-.619 1.2-.8.458-.181.944-.272 1.456-.272.544 0 1.05.123 1.52.368.48.235.848.603 1.104 1.104h.192v-4.512h1.248v11.2h-1.248zm-2.656.256c.373 0 .72-.069 1.04-.208s.597-.336.832-.592c.245-.256.437-.56.576-.912.138-.363.208-.763.208-1.2v-.192c0-.427-.07-.816-.208-1.168-.139-.363-.331-.672-.576-.928-.235-.256-.518-.453-.848-.592-.32-.149-.662-.224-1.024-.224-.374 0-.726.069-1.056.208-.32.139-.603.336-.848.592-.235.256-.422.56-.56.912-.128.352-.192.741-.192 1.168v.256c0 .448.064.848.192 1.2.138.352.325.656.56.912.245.245.528.437.848.576.32.128.672.192 1.056.192zm6.037-6.976h2.496v-3.264h1.248v3.264h3.072v1.152h-3.072v5.152c0 .32.144.48.432.48h2.256v1.152h-2.704c-.363 0-.662-.117-.896-.352-.224-.235-.336-.533-.336-.896v-5.536h-2.496zm11.316 7.936h-1.248v-11.2h1.248v4.704h.192c.246-.512.587-.917 1.024-1.216.448-.299.992-.448 1.632-.448.864 0 1.563.288 2.096.864.544.565.816 1.419.816 2.56v4.736h-1.248v-4.48c0-.832-.186-1.456-.56-1.872-.373-.416-.88-.624-1.52-.624-.757 0-1.354.261-1.792.784-.426.512-.64 1.2-.64 2.064zm8.789 1.312c.576 0 1.131-.117 1.664-.352.534-.224 1.003-.549 1.408-.976.406-.427.731-.944.976-1.552.246-.619.368-1.312.368-2.08v-3.904c0-.768-.122-1.456-.368-2.064-.245-.619-.57-1.141-.976-1.568-.405-.427-.874-.752-1.408-.976-.533-.235-1.088-.352-1.664-.352h-.576v-1.184h.576c.747 0 1.462.139 2.144.416.683.277 1.286.683 1.808 1.216.523.523.939 1.163 1.248 1.92.31.747.464 1.589.464 2.528v4.032c0 .949-.154 1.797-.464 2.544-.309.747-.725 1.381-1.248 1.904-.522.533-1.125.939-1.808 1.216-.682.277-1.397.416-2.144.416h-.576v-1.184z" fill="#000"/><rect fill="#fd94ff" height="35" rx="2" width="142" x="106" y="173"/><path d="m111.304 193.416c.032.789.277 1.424.736 1.904s1.099.72 1.92.72c.373 0 .699-.043.976-.128s.512-.203.704-.352c.203-.149.363-.32.48-.512.128-.203.229-.416.304-.64l1.184.32c-.224.736-.64 1.339-1.248 1.808-.597.459-1.408.688-2.432.688-.565 0-1.088-.096-1.568-.288-.469-.203-.875-.485-1.216-.848s-.608-.795-.8-1.296-.288-1.056-.288-1.664v-.384c0-.555.096-1.072.288-1.552.203-.48.48-.891.832-1.232.352-.352.763-.624 1.232-.816.48-.203.997-.304 1.552-.304.651 0 1.211.123 1.68.368.48.235.869.528 1.168.88.309.352.533.736.672 1.152.149.416.224.8.224 1.152v1.024zm2.656-3.392c-.352 0-.683.059-.992.176-.299.107-.565.261-.8.464-.224.203-.411.443-.56.72-.139.267-.229.56-.272.88h5.12c-.021-.341-.107-.651-.256-.928-.139-.277-.325-.512-.56-.704-.224-.192-.485-.341-.784-.448-.288-.107-.587-.16-.896-.16zm7.477 6.976h-1.248v-7.936h1.248v1.344h.192c.491-1.045 1.344-1.568 2.56-1.568.917 0 1.648.288 2.192.864.544.565.816 1.419.816 2.56v4.736h-1.248v-4.48c0-.832-.187-1.456-.56-1.872s-.88-.624-1.52-.624c-.757 0-1.355.261-1.792.784-.427.512-.64 1.2-.64 2.064zm13.269 0h-2.464l-2.768-7.936h1.472l2.432 7.36h.192l2.432-7.36h1.472zm12.421 1.312v1.184h-.576c-.747 0-1.462-.139-2.144-.416-.683-.277-1.286-.683-1.808-1.216-.523-.523-.939-1.157-1.248-1.904-.31-.747-.464-1.595-.464-2.544v-4.032c0-.939.154-1.781.464-2.528.309-.757.725-1.397 1.248-1.92.522-.533 1.125-.939 1.808-1.216.682-.277 1.397-.416 2.144-.416h.576v1.184h-.576c-.576 0-1.131.117-1.664.352-.534.224-1.003.549-1.408.976-.406.427-.731.949-.976 1.568-.246.608-.368 1.296-.368 2.064v3.904c0 .768.122 1.461.368 2.08.245.608.57 1.125.976 1.552.405.427.874.752 1.408.976.533.235 1.088.352 1.664.352zm2.373-9.248h2.448v-2.016c0-.363.112-.661.336-.896.234-.235.533-.352.896-.352h3.136v1.152h-2.688c-.288 0-.432.16-.432.48v1.632h3.312v1.152h-3.312v6.784h-1.248v-6.784h-2.448zm17.364 4.064c0 .661-.112 1.248-.336 1.76-.213.501-.501.928-.864 1.28-.362.341-.789.603-1.28.784-.48.181-.981.272-1.504.272-.533 0-1.04-.091-1.52-.272s-.901-.443-1.264-.784c-.362-.352-.656-.779-.88-1.28-.213-.512-.32-1.099-.32-1.76v-.192c0-.651.107-1.227.32-1.728.224-.512.518-.944.88-1.296.374-.352.8-.619 1.28-.8s.982-.272 1.504-.272c.523 0 1.024.091 1.504.272s.902.448 1.264.8c.374.352.667.784.88 1.296.224.501.336 1.077.336 1.728zm-3.984 2.912c.384 0 .736-.064 1.056-.192.331-.139.619-.336.864-.592.246-.256.438-.56.576-.912.139-.363.208-.768.208-1.216v-.192c0-.427-.069-.816-.208-1.168-.138-.363-.33-.672-.576-.928-.245-.256-.533-.453-.864-.592-.33-.149-.682-.224-1.056-.224-.373 0-.725.075-1.056.224-.33.139-.618.336-.864.592-.245.256-.437.565-.576.928-.138.352-.208.741-.208 1.168v.192c0 .448.07.853.208 1.216.139.352.331.656.576.912.246.256.528.453.848.592.331.128.688.192 1.072.192zm6.293-.192h2.88v-8.896h-2.784v-1.152h4.032v10.048h2.88v1.152h-7.008zm15.941-.064h-.192c-.128.245-.293.459-.496.64-.192.181-.405.331-.64.448-.224.117-.464.203-.72.256-.256.064-.501.096-.736.096-.533 0-1.029-.091-1.488-.272s-.864-.443-1.216-.784c-.341-.341-.613-.763-.816-1.264-.192-.512-.288-1.093-.288-1.744v-.256c0-.64.101-1.211.304-1.712.203-.512.475-.939.816-1.28.341-.352.741-.619 1.2-.8s.944-.272 1.456-.272c.544 0 1.051.123 1.52.368.48.235.848.603 1.104 1.104h.192v-4.512h1.248v11.2h-1.248zm-2.656.256c.373 0 .72-.069 1.04-.208s.597-.336.832-.592c.245-.256.437-.56.576-.912.139-.363.208-.763.208-1.2v-.192c0-.427-.069-.816-.208-1.168-.139-.363-.331-.672-.576-.928-.235-.256-.517-.453-.848-.592-.32-.149-.661-.224-1.024-.224-.373 0-.725.069-1.056.208-.32.139-.603.336-.848.592-.235.256-.421.56-.56.912-.128.352-.192.741-.192 1.168v.256c0 .448.064.848.192 1.2.139.352.325.656.56.912.245.245.528.437.848.576.32.128.672.192 1.056.192zm7.413-3.776h4.8v1.152h-4.8zm8.693 3.584h2.88v-8.896h-2.784v-1.152h4.032v10.048h2.88v1.152h-7.008zm10.709-2.432c.032.789.277 1.424.736 1.904.458.48 1.098.72 1.92.72.373 0 .698-.043.976-.128.277-.085.512-.203.704-.352.202-.149.362-.32.48-.512.128-.203.229-.416.304-.64l1.184.32c-.224.736-.64 1.339-1.248 1.808-.598.459-1.408.688-2.432.688-.566 0-1.088-.096-1.568-.288-.47-.203-.875-.485-1.216-.848-.342-.363-.608-.795-.8-1.296s-.288-1.056-.288-1.664v-.384c0-.555.096-1.072.288-1.552.202-.48.48-.891.832-1.232.352-.352.762-.624 1.232-.816.48-.203.997-.304 1.552-.304.65 0 1.21.123 1.68.368.48.235.869.528 1.168.88.309.352.533.736.672 1.152.149.416.224.8.224 1.152v1.024zm2.656-3.392c-.352 0-.683.059-.992.176-.299.107-.566.261-.8.464-.224.203-.411.443-.56.72-.139.267-.23.56-.272.88h5.12c-.022-.341-.107-.651-.256-.928-.139-.277-.326-.512-.56-.704-.224-.192-.486-.341-.784-.448-.288-.107-.587-.16-.896-.16zm6.149-.96h2.448v-2.016c0-.363.112-.661.336-.896.234-.235.533-.352.896-.352h3.136v1.152h-2.688c-.288 0-.432.16-.432.48v1.632h3.312v1.152h-3.312v6.784h-1.248v-6.784h-2.448zm9.605 0h2.496v-3.264h1.248v3.264h3.072v1.152h-3.072v5.152c0 .32.144.48.432.48h2.256v1.152h-2.704c-.363 0-.662-.117-.896-.352-.224-.235-.336-.533-.336-.896v-5.536h-2.496zm10.308 9.248c.576 0 1.131-.117 1.664-.352.534-.224 1.003-.549 1.408-.976.406-.427.731-.944.976-1.552.246-.619.368-1.312.368-2.08v-3.904c0-.768-.122-1.456-.368-2.064-.245-.619-.57-1.141-.976-1.568-.405-.427-.874-.752-1.408-.976-.533-.235-1.088-.352-1.664-.352h-.576v-1.184h.576c.747 0 1.462.139 2.144.416.683.277 1.286.683 1.808 1.216.523.523.939 1.163 1.248 1.92.31.747.464 1.589.464 2.528v4.032c0 .949-.154 1.797-.464 2.544-.309.747-.725 1.381-1.248 1.904-.522.533-1.125.939-1.808 1.216-.682.277-1.397.416-2.144.416h-.576v-1.184z" fill="#000"/><path d="m359 54v103" stroke="#fd94ff" stroke-width="4"/><path d="m359.851 166.617c-.39.635-1.312.635-1.702 0l-5.138-8.343c-.411-.666.069-1.524.851-1.524h10.276c.782 0 1.262.858.851 1.524z" fill="#fd94ff"/><path d="m384 533v-33" stroke="#fd94ff" stroke-width="4"/><path d="m383.149 490.383c.39-.635 1.312-.635 1.702 0l5.138 8.343c.411.666-.069 1.524-.851 1.524h-10.276c-.782 0-1.262-.858-.851-1.524z" fill="#fd94ff"/><path d="m239 175h103" stroke="#fd94ff" stroke-width="4"/><path d="m351.617 174.149c.635.39.635 1.312 0 1.702l-8.343 5.138c-.666.411-1.524-.069-1.524-.851v-10.276c0-.782.858-1.262 1.524-.851z" fill="#fd94ff"/><circle cx="359.5" cy="175.5" fill="#fd94ff" r="4.5"/><path d="m371 138h24v31h-24z" fill="#c8dffc" fill-opacity=".56"/></svg>