<svg fill="none" stroke-linecap="square" stroke-miterlimit="10" viewBox="0 0 154.52755906 120.67191601" xmlns="http://www.w3.org/2000/svg" xmlns:xlink="http://www.w3.org/1999/xlink"><clipPath id="a"><path d="m0 0h154.52756v120.67191h-154.52756z"/></clipPath><g clip-path="url(#a)"><path d="m0 0h154.52756v120.67191h-154.52756z" fill="none"/><path d="m40.48624 53.742287c-2.0451965 20.512383 5.0046005 41.844902 0 61.84227" fill="none"/><path d="m40.48624 53.742287c-2.0451965 20.512383 5.0046005 41.844902 0 61.84227" fill-rule="evenodd" stroke="#000" stroke-linecap="butt" stroke-linejoin="round" stroke-width="3"/><path d="m73.52758 52.04592c2.550209 12.740326.84817505 25.976875.84817505 38.969925 0 6.78302-3.8867416 26.395721-.84817505 20.331367 9.28363-18.52826.614624-61.01562 21.179543-58.453114 17.874847 2.2273064 8.4711 35.358074 8.4711 53.37116" fill="none"/><path d="m73.52758 52.04592c2.550209 12.740326.84817505 25.976875.84817505 38.969925 0 6.78302-3.8867416 26.395721-.84817505 20.331367 9.28363-18.52826.614624-61.01562 21.179543-58.453114 17.874847 2.2273064 8.4711 35.358074 8.4711 53.37116" fill-rule="evenodd" stroke="#000" stroke-linecap="butt" stroke-linejoin="round" stroke-width="3"/><path d="m37.94692 36.795734c.49578857-.74264526 3.28442.35359192 2.5409737.84817886" fill="none"/><path d="m37.94692 36.795734c.49578857-.74264526 3.28442.35359192 2.5409737.84817886" fill-rule="evenodd" stroke="#000" stroke-linecap="butt" stroke-linejoin="round" stroke-width="3"/><path d="m20.88674 40.243027h44.913383v33.921265h-44.913383z" fill="none"/><path d="m34.35549 60.763027h-1.046875v-6.71875q-.390625.359375-1.015625.734375-.6093769.359375-1.0937519.53125v-1.015625q.8750019-.421875 1.5312519-1 .671875-.59375.953125-1.15625h.671875z" fill="#000"/><path d="m51.887383 39.535263h44.91339v33.921265h-44.91339z" fill="none"/><path d="m66.93426 59.03964v1.015625h-5.6875q0-.375.125-.734375.21875-.578125.6875-1.140625.484375-.5625 1.390625-1.296875 1.40625-1.15625 1.890625-1.828125.5-.671875.5-1.265625 0-.625-.453125-1.046875-.453125-.4375-1.171875-.4375-.765625 0-1.21875.453125-.453125.453125-.46875 1.265625l-1.078125-.109375q.109375-1.21875.828125-1.84375.734375-.640625 1.96875-.640625 1.234375 0 1.953125.6875.71875.6875.71875 1.703125 0 .515625-.21875 1.015625-.203125.484375-.703125 1.046875-.484375.546875-1.609375 1.5-.953125.796875-1.234375 1.09375-.265625.28125-.4375.5625z" fill="#000"/><path d="m116.73606 61.36524c5.8210983 2.3274574 12.813911-.21351624 18.635002-2.5409737" fill="none"/><path d="m116.73606 61.36524c5.8210983 2.3274574 12.813911-.21351624 18.635002-2.5409737" fill-rule="evenodd" stroke="#000" stroke-linecap="butt" stroke-linejoin="round" stroke-width="3"/><path d="m127.74788 42.726585c0 24.241165-14.077263 72.00973 10.163895 72.00973" fill="none"/><path d="m127.74788 42.726585c0 24.241165-14.077263 72.00973 10.163895 72.00973" fill-rule="evenodd" stroke="#000" stroke-linecap="butt" stroke-linejoin="round" stroke-width="3"/><path d="m127.98248 37.54839h44.91339v33.92126h-44.91339z" fill="none"/><path d="m137.48248 55.802765 1.0625-.140625q.171875.890625.609375 1.296875.4375.390625 1.0625.390625.75 0 1.265625-.515625.515625-.515625.515625-1.28125 0-.71875-.484375-1.1875-.46875-.484375-1.203125-.484375-.296875 0-.75.125l.125-.9375q.109375.015625.171875.015625.671875 0 1.203125-.34375.546875-.359375.546875-1.09375 0-.578125-.390625-.953125-.390625-.390625-1.015625-.390625-.609375 0-1.03125.390625-.40625.390625-.515625 1.15625l-1.0625-.1875q.1875-1.046875.875-1.625.6875-.59375 1.703125-.59375.703125 0 1.296875.3125.59375.296875.90625.8125.3125.515625.3125 1.109375 0 .546875-.296875 1.015625-.296875.453125-.875.71875.75.171875 1.171875.734375.421875.546875.421875 1.390625 0 1.125-.828125 1.90625-.8125.78125-2.0625.78125-1.125 0-1.875-.671875-.75-.6875-.859375-1.75z" fill="#000"/><path d="m127.98248 91.46866h44.91339v33.921257h-44.91339z" fill="none"/><path d="m140.85748 111.988655v-2.0625h-3.71875v-.96875l3.921875-5.5625h.859375v5.5625h1.15625v.96875h-1.15625v2.0625zm0-3.03125v-3.859375l-2.6875 3.859375z" fill="#000"/><path d="m20.062077 10.2673435h44.913387v33.921257h-44.913387z" fill="none"/><path d="m29.562077 28.537344 1.109375-.09375q.125.8125.5625 1.21875.453125.40625 1.09375.40625.75 0 1.28125-.578125.53125-.578125.53125-1.515625 0-.90625-.515625-1.421875-.5-.53125-1.328125-.53125-.5 0-.921875.234375-.40625.234375-.640625.59375l-.984375-.125.828125-4.40625h4.28125v1h-3.4375l-.453125 2.3125q.765625-.546875 1.609375-.546875 1.125 0 1.890625.78125.78125.78125.78125 2.015625 0 1.15625-.671875 2.015625-.828125 1.03125-2.25 1.03125-1.171875 0-1.921875-.65625-.734375-.65625-.84375-1.734375z" fill="#000"/></g></svg>