<svg viewBox="0 0 630 630" xmlns="http://www.w3.org/2000/svg"><path d="m0 0h630v630h-630z" fill="#fc7c00"/><path d="m312.83 459.57h22.62q14.35 0 21.24-7.52t6.9-20.9q0-12.14-6.9-19.45t-20-7.31q-11.31 0-19 6.62t-7.73 17.38h-39l-.28-.83q-.83-23.59 18.07-38.9t46.9-15.31q31.17 0 49.73 14.9t18.55 42.49q0 13.11-8.28 24.9a55 55 0 0 1 -22.76 18.42q16.69 5.93 25.45 18.21t8.76 28.56q0 27.59-20.07 43.39t-51.43 15.78q-28 0-48.08-14.83t-19.38-41.87l.28-.83h39a24.49 24.49 0 0 0 8.28 19q8.3 7.53 21 7.53 13.93 0 22-7.71t8.07-20.92q0-15.83-7.93-23.19t-23.38-7.36h-22.63z"/><path d="m317.81 190.32h-54.81v-34.75h149.17v34.75h-54.81v157.36h-39.55z"/><path d="m402.28 251.63c0-56.79 43.79-98.32 98.88-98.32 34.75 0 59.61 12.43 76.85 39.27l-30.23 21.47c-9-14.69-24.58-25.14-46.62-25.14-34.75 0-58.2 26.84-58.2 62.72s23.45 63.28 58.2 63.28c24.86 0 38.71-11.87 49.44-28.25l30.79 21.19c-16.67 26-43.23 42.38-80.24 42.38-55.07-.01-98.87-41.82-98.87-98.6z"/><path d="m495.67 549q15.86 0 25.87-11.75t10-33.63v-9.93a44.78 44.78 0 0 1 -16.07 13 46.23 46.23 0 0 1 -20.08 4.31q-28 0-44.08-18.28t-16.07-49.46q0-30.07 19-50t48.42-19.93q30.76 0 49.94 21.18t19.18 59.53v47.46q0 36.56-21.45 57.53t-54.7 21a113.85 113.85 0 0 1 -21.59-2.15 97.69 97.69 0 0 1 -20.62-6.31l4.69-29.21a97.83 97.83 0 0 0 17.73 5 111.68 111.68 0 0 0 19.83 1.64zm6.48-67.46a38.4 38.4 0 0 0 17.38-3.72 32.73 32.73 0 0 0 12-9.93v-18.53q0-22.07-7.73-33.52t-21-11.45q-12.14 0-19.8 11.31t-7.66 27.59q0 17.11 7 27.66t19.81 10.55z"/></svg>