<svg id="Layer_1" data-name="Layer 1" xmlns="http://www.w3.org/2000/svg" viewBox="0 0 464.93 156.05"><defs><style>.cls-1{fill:#4a65ac}.cls-2{fill:#fff}.cls-3{fill:#666}.cls-4{fill:#ededed}.cls-5{fill:#ccc}.cls-6{fill:#676767}.cls-7{fill:#cdcccc}.cls-8{fill:#43b44f}.cls-9{fill:#ede634}</style></defs><rect class="cls-1" x="1.22" y="136.55" width="83.85" height="19.5" rx="4" ry="4"/><path class="cls-2" d="M12.19 150.31h-.82l-1.44-4.78q-.1-.32-.23-.8a4.72 4.72 0 0 1-.13-.58 11.13 11.13 0 0 1-.34 1.41l-1.4 4.75H7l-1.9-7.14H6l1.13 4.41a16.44 16.44 0 0 1 .34 1.68 12.14 12.14 0 0 1 .39-1.75l1.28-4.34H10l1.34 4.38a13.33 13.33 0 0 1 .4 1.71 14.72 14.72 0 0 1 .35-1.69l1.12-4.4h.89zm7.51 0h-4v-7.14h4v.74h-3.15v2.3h3v.73h-3v2.63h3.15v.74zm2.08-7.14h2a3.8 3.8 0 0 1 2.06.42 1.5 1.5 0 0 1 .63 1.34 1.55 1.55 0 0 1-.35 1 1.7 1.7 0 0 1-1 .54 1.65 1.65 0 0 1 1.63 1.71 1.84 1.84 0 0 1-.65 1.49 2.75 2.75 0 0 1-1.81.54h-2.51v-7.14zm.83 3.06H24a2.23 2.23 0 0 0 1.26-.28 1.07 1.07 0 0 0 .39-.93.94.94 0 0 0-.43-.87 2.68 2.68 0 0 0-1.37-.27h-1.24v2.34zm0 .7v2.67h1.49a2.11 2.11 0 0 0 1.3-.33 1.23 1.23 0 0 0 .44-1 1.11 1.11 0 0 0-.45-1 2.39 2.39 0 0 0-1.36-.31h-1.42zm9.25-3.76h2a3.8 3.8 0 0 1 2.06.42 1.5 1.5 0 0 1 .63 1.34 1.55 1.55 0 0 1-.35 1 1.7 1.7 0 0 1-1 .54 1.65 1.65 0 0 1 1.63 1.71 1.84 1.84 0 0 1-.65 1.49 2.75 2.75 0 0 1-1.81.54h-2.51v-7.14zm.83 3.06h1.37a2.23 2.23 0 0 0 1.26-.28 1.07 1.07 0 0 0 .38-.95.94.94 0 0 0-.43-.87 2.68 2.68 0 0 0-1.37-.27h-1.21v2.34zm0 .7v2.67h1.49a2.11 2.11 0 0 0 1.3-.33 1.23 1.23 0 0 0 .44-1 1.11 1.11 0 0 0-.45-1 2.39 2.39 0 0 0-1.36-.31h-1.42zm6.98.42v3h-.83v-7.14h2a3.09 3.09 0 0 1 1.94.5 1.82 1.82 0 0 1 .63 1.51 1.9 1.9 0 0 1-1.44 1.91l1.94 3.21h-1l-1.73-3h-1.51zm0-.71h1.13a2 2 0 0 0 1.29-.35 1.3 1.3 0 0 0 .41-1 1.19 1.19 0 0 0-.42-1 2.26 2.26 0 0 0-1.34-.31h-1.07v2.73zm12.04.09a3.93 3.93 0 0 1-.87 2.7 3 3 0 0 1-2.41 1 3.09 3.09 0 0 1-2.43-1 4 4 0 0 1-.86-2.72A3.91 3.91 0 0 1 46 144a3.1 3.1 0 0 1 2.44-1 3 3 0 0 1 2.4 1 3.93 3.93 0 0 1 .87 2.73zm-5.69 0a3.39 3.39 0 0 0 .62 2.2 2.52 2.52 0 0 0 3.59 0 4.28 4.28 0 0 0 0-4.39 2.16 2.16 0 0 0-1.78-.75 2.2 2.2 0 0 0-1.8.75 3.35 3.35 0 0 0-.65 2.19zM60 150.31h-.78l-1.44-4.78q-.1-.32-.23-.8a4.53 4.53 0 0 1-.13-.58 11.05 11.05 0 0 1-.34 1.41l-1.4 4.75h-.82L53 143.17h.88l1.12 4.41a16.31 16.31 0 0 1 .34 1.68 12.08 12.08 0 0 1 .39-1.75l1.27-4.34h.88l1.34 4.38a13.33 13.33 0 0 1 .4 1.71 14.52 14.52 0 0 1 .35-1.69l1.12-4.4h.88zm7.59-1.9a1.75 1.75 0 0 1-.68 1.47 3 3 0 0 1-1.86.53 4.65 4.65 0 0 1-2-.33v-.8a5.28 5.28 0 0 0 2 .4 2.06 2.06 0 0 0 1.25-.32 1 1 0 0 0 .42-.88 1.13 1.13 0 0 0-.15-.61 1.4 1.4 0 0 0-.5-.44A6.93 6.93 0 0 0 65 147a3.39 3.39 0 0 1-1.42-.84 1.87 1.87 0 0 1-.43-1.27 1.59 1.59 0 0 1 .62-1.31 2.58 2.58 0 0 1 1.64-.49 4.83 4.83 0 0 1 2 .39l-.26.72a4.43 4.43 0 0 0-1.72-.37 1.66 1.66 0 0 0-1 .28.93.93 0 0 0-.37.79 1.21 1.21 0 0 0 .14.61 1.29 1.29 0 0 0 .46.44 5.75 5.75 0 0 0 1 .44 3.94 3.94 0 0 1 1.55.86 1.69 1.69 0 0 1 .38 1.16zm5.94 1.9h-4v-7.14h4v.74h-3.15v2.3h3v.73h-3v2.63h3.15v.74zm2.91-2.96v3h-.83v-7.14h2a3.09 3.09 0 0 1 1.94.5 1.82 1.82 0 0 1 .63 1.51 1.9 1.9 0 0 1-1.44 1.91l1.94 3.21h-1l-1.73-3h-1.51zm0-.71h1.14a2 2 0 0 0 1.29-.35 1.3 1.3 0 0 0 .41-1 1.19 1.19 0 0 0-.42-1 2.26 2.26 0 0 0-1.34-.31h-1.08v2.73z"/><rect class="cls-1" x="392.93" y="136.55" width="72" height="19.5" rx="4" ry="4"/><path class="cls-2" d="M404.24 150.31h-.82l-1.42-4.78q-.1-.32-.23-.8a4.94 4.94 0 0 1-.13-.58 11.05 11.05 0 0 1-.34 1.41l-1.4 4.75h-.82l-1.9-7.14h.82l1.13 4.41a16.31 16.31 0 0 1 .34 1.68 12.21 12.21 0 0 1 .39-1.75l1.28-4.34h.88l1.34 4.38a13.33 13.33 0 0 1 .4 1.71 14.94 14.94 0 0 1 .35-1.69l1.12-4.4h.88zm7.5 0h-4v-7.14h4v.74h-3.15v2.3h3v.73h-3v2.63h3.15v.74zm2.08-7.14h2a3.8 3.8 0 0 1 2.06.42 1.5 1.5 0 0 1 .63 1.34 1.55 1.55 0 0 1-.35 1 1.7 1.7 0 0 1-1 .54 1.65 1.65 0 0 1 1.63 1.71 1.84 1.84 0 0 1-.65 1.49 2.75 2.75 0 0 1-1.81.54h-2.49v-7.14zm.83 3.06H416a2.23 2.23 0 0 0 1.26-.28 1.07 1.07 0 0 0 .39-.93.94.94 0 0 0-.43-.87 2.68 2.68 0 0 0-1.37-.27h-1.22v2.34zm0 .7v2.67h1.49a2.11 2.11 0 0 0 1.3-.33 1.23 1.23 0 0 0 .44-1 1.11 1.11 0 0 0-.45-1 2.39 2.39 0 0 0-1.36-.31h-1.42zm13.28 1.48a1.75 1.75 0 0 1-.68 1.47 3 3 0 0 1-1.86.53 4.65 4.65 0 0 1-2-.33v-.8a5.28 5.28 0 0 0 2 .4 2.06 2.06 0 0 0 1.25-.32 1 1 0 0 0 .42-.88 1.13 1.13 0 0 0-.15-.61 1.4 1.4 0 0 0-.5-.44 6.93 6.93 0 0 0-1.06-.45 3.39 3.39 0 0 1-1.42-.84 1.87 1.87 0 0 1-.43-1.27 1.59 1.59 0 0 1 .62-1.31 2.58 2.58 0 0 1 1.64-.49 4.83 4.83 0 0 1 2 .39l-.26.72a4.43 4.43 0 0 0-1.72-.37 1.66 1.66 0 0 0-1 .28.93.93 0 0 0-.37.79 1.21 1.21 0 0 0 .14.61 1.29 1.29 0 0 0 .46.44 5.75 5.75 0 0 0 1 .44 3.94 3.94 0 0 1 1.55.86 1.69 1.69 0 0 1 .37 1.18zm5.94 1.9h-4v-7.14h4v.74h-3.15v2.3h3v.73h-3v2.63h3.15v.74zm2.91-2.96v3H436v-7.14h2a3.09 3.09 0 0 1 1.94.5 1.82 1.82 0 0 1 .63 1.51 1.9 1.9 0 0 1-1.44 1.91l1.94 3.21h-1l-1.73-3h-1.49zm0-.71h1.14a2 2 0 0 0 1.29-.35 1.3 1.3 0 0 0 .41-1 1.19 1.19 0 0 0-.42-1 2.26 2.26 0 0 0-1.34-.31h-1.08v2.73zm9.93-3.47h.89l-2.6 7.14h-.82l-2.56-7.14h.88l1.64 4.62a13 13 0 0 1 .45 1.55 13 13 0 0 1 .46-1.58zm6.35 7.14h-4v-7.14h4v.74h-3.15v2.3h3v.73h-3v2.63h3.15v.74zm2.94-2.96v3h-.83v-7.14h2a3.09 3.09 0 0 1 1.94.5 1.82 1.82 0 0 1 .63 1.51 1.9 1.9 0 0 1-1.44 1.91l1.94 3.21h-1l-1.73-3H456zm0-.71h1.14a2 2 0 0 0 1.29-.35 1.3 1.3 0 0 0 .41-1 1.19 1.19 0 0 0-.42-1 2.26 2.26 0 0 0-1.34-.31H456v2.73z"/><path class="cls-3" d="M0 58.84l.52-7.15 85.77 8.97v50.38L.52 120.01 0 112.45V58.84z"/><path class="cls-4" d="M13.38 55.78a1.92 1.92 0 0 1 .69.2 2 2 0 0 1 .56.42 2 2 0 0 1 .37.6 1.76 1.76 0 0 1 .14.68 1.59 1.59 0 0 1-.14.66 1.52 1.52 0 0 1-.38.51 1.58 1.58 0 0 1-.56.32 1.74 1.74 0 0 1-.69.08 2 2 0 0 1-.7-.19 2 2 0 0 1-.57-.42 2 2 0 0 1-.37-.64 1.77 1.77 0 0 1-.14-.69 1.58 1.58 0 0 1 .14-.66 1.53 1.53 0 0 1 .39-.52 1.6 1.6 0 0 1 .57-.32 1.76 1.76 0 0 1 .69-.03zm69.89 11.4v40.17l-77.34 6.82V61.26l77.34 5.92zM7.49 55.21a2 2 0 0 1 .71.21 2.11 2.11 0 0 1 .58.43 2 2 0 0 1 .39.59 1.76 1.76 0 0 1 .14.69 1.6 1.6 0 0 1-.14.67 1.54 1.54 0 0 1-.39.52 1.65 1.65 0 0 1-.58.32 1.84 1.84 0 0 1-.71.08 2.06 2.06 0 0 1-.72-.2 2.11 2.11 0 0 1-.59-.43 2 2 0 0 1-.4-.6 1.78 1.78 0 0 1-.15-.7 1.58 1.58 0 0 1 .15-.67 1.55 1.55 0 0 1 .4-.52 1.66 1.66 0 0 1 .59-.32 1.86 1.86 0 0 1 .72-.07z"/><path class="cls-5" d="M1.77 53l83.84 8.47v48.8l-83.84 8.45V53zm82 55V66.57L5 60.33v54.78L83.79 108M13.38 55.49a2 2 0 0 0-.81.08 1.86 1.86 0 0 0-.66.37 1.77 1.77 0 0 0-.45.6 1.84 1.84 0 0 0-.17.77 2 2 0 0 0 .17.8 2.28 2.28 0 0 0 .45.68 2.37 2.37 0 0 0 .66.49 2.26 2.26 0 0 0 .81.23 2 2 0 0 0 .8-.09 1.85 1.85 0 0 0 .65-.42 1.78 1.78 0 0 0 .44-.6 1.84 1.84 0 0 0 .16-.76 2 2 0 0 0-.16-.79 2.28 2.28 0 0 0-.44-.68 2.37 2.37 0 0 0-.65-.49 2.23 2.23 0 0 0-.8-.23M19 56a1.91 1.91 0 0 0-.77.08 1.78 1.78 0 0 0-.64.36 1.75 1.75 0 0 0-.43.59 1.84 1.84 0 0 0-.16.76 2 2 0 0 0 .16.79 2.24 2.24 0 0 0 .43.67 2.28 2.28 0 0 0 .64.48A2.12 2.12 0 0 0 19 60a1.92 1.92 0 0 0 .77-.09 1.77 1.77 0 0 0 .63-.37 1.74 1.74 0 0 0 .42-.59 1.85 1.85 0 0 0 .18-.76 2.05 2.05 0 0 0-.15-.78 2.23 2.23 0 0 0-.42-.66 2.26 2.26 0 0 0-.63-.48A2.14 2.14 0 0 0 19 56M7.49 54.92a2.15 2.15 0 0 0-.84.08 1.92 1.92 0 0 0-.69.37 1.8 1.8 0 0 0-.46.63 1.86 1.86 0 0 0-.17.79 2.07 2.07 0 0 0 .17.82 2.32 2.32 0 0 0 .46.69 2.44 2.44 0 0 0 .69.5 2.36 2.36 0 0 0 .84.23 2.12 2.12 0 0 0 .83-.09 1.93 1.93 0 0 0 .68-.4 1.81 1.81 0 0 0 .46-.61 1.84 1.84 0 0 0 .17-.78 2.06 2.06 0 0 0-.17-.81 2.33 2.33 0 0 0-.46-.68 2.46 2.46 0 0 0-.68-.5 2.35 2.35 0 0 0-.83-.24"/><path class="cls-4" d="M18.38 59.52a1.83 1.83 0 0 0 .67.19 1.68 1.68 0 0 0 .67-.08 1.53 1.53 0 0 0 .54-.31 1.49 1.49 0 0 0 .37-.5 1.59 1.59 0 0 0 .13-.65 1.75 1.75 0 0 0-.13-.67 1.93 1.93 0 0 0-.37-.57 2 2 0 0 0-.54-.41 1.85 1.85 0 0 0-.67-.2 1.64 1.64 0 0 0-.67.07 1.53 1.53 0 0 0-.55.31 1.5 1.5 0 0 0-.37.51 1.58 1.58 0 0 0-.14.65 1.77 1.77 0 0 0 .14.68 1.92 1.92 0 0 0 .37.57 2 2 0 0 0 .55.41z"/><path class="cls-6" d="M397.19 54.21l50.08-6.62 13.4 15.12v46.28l-13.4 15.12-50.08-6.62V54.21z"/><path class="cls-7" d="M397.91 55l48.32-6.21v24L397.91 75V55z"/><path class="cls-3" d="M430.1 60.22h-.16a1.8 1.8 0 0 0-.71.22 2 2 0 0 0-.57.47 2.22 2.22 0 0 0-.52 1.42 2 2 0 0 0 .14.75 1.8 1.8 0 0 0 .39.6 1.64 1.64 0 0 0 .59.39 1.63 1.63 0 0 0 .59.11h.15a1.77 1.77 0 0 0 .7-.18 2 2 0 0 0 .57-.47 2.23 2.23 0 0 0 .52-1.43 2 2 0 0 0-.14-.76 1.8 1.8 0 0 0-.4-.61 1.64 1.64 0 0 0-.59-.38 1.61 1.61 0 0 0-.57-.1zm5.38-.5h-.17a1.88 1.88 0 0 0-.73.23 2.1 2.1 0 0 0-.59.48 2.24 2.24 0 0 0-.39.66 2.21 2.21 0 0 0-.14.78 2 2 0 0 0 .15.77 1.83 1.83 0 0 0 .4.61 1.7 1.7 0 0 0 1.21.5h.14a1.88 1.88 0 0 0 .74-.22 2.1 2.1 0 0 0 .6-.48 2.24 2.24 0 0 0 .4-.67 2.21 2.21 0 0 0 .15-.79 2 2 0 0 0-.15-.78 1.82 1.82 0 0 0-.41-.62 1.7 1.7 0 0 0-1.2-.49zm5.6-.53h-.18a2 2 0 0 0-.75.23 2.17 2.17 0 0 0-.61.49 2.28 2.28 0 0 0-.41.68 2.22 2.22 0 0 0-.15.8 2 2 0 0 0 .15.78 1.86 1.86 0 0 0 .42.62 1.75 1.75 0 0 0 .63.4 1.77 1.77 0 0 0 .62.11h.15a2 2 0 0 0 .76-.22 2.17 2.17 0 0 0 .62-.49 2.27 2.27 0 0 0 .42-.68 2.22 2.22 0 0 0 .15-.81 2 2 0 0 0-.16-.79 1.85 1.85 0 0 0-.43-.63 1.76 1.76 0 0 0-.64-.39 1.79 1.79 0 0 0-.6-.1z"/><path class="cls-7" d="M397.91 74.97l48.32-2.19m0 26.13v23.99l-48.32-6.21V96.72l48.32 2.19zm0-25.05v23.98l-48.32-2.01V75.87l48.32-2.01z"/><path class="cls-8" d="M429.85 64.07a1.51 1.51 0 0 1-.54-.1 1.52 1.52 0 0 1-.54-.36 1.67 1.67 0 0 1-.37-.61 1.91 1.91 0 0 1-.13-.71 2.09 2.09 0 0 1 .49-1.34 1.9 1.9 0 0 1 .53-.44 1.67 1.67 0 0 1 .66-.21h.14a1.5 1.5 0 0 1 .52.09 1.52 1.52 0 0 1 .55.36 1.69 1.69 0 0 1 .37.56 1.9 1.9 0 0 1 .13.71 2.1 2.1 0 0 1-.49 1.35 1.91 1.91 0 0 1-.54.44 1.65 1.65 0 0 1-.66.2h-.13z"/><path class="cls-9" d="M435.21 63.64a1.57 1.57 0 0 1-1.12-.46 1.72 1.72 0 0 1-.38-.57 1.93 1.93 0 0 1-.14-.72 2.1 2.1 0 0 1 .51-1.37 2 2 0 0 1 .55-.45 1.76 1.76 0 0 1 .69-.21h.16a1.57 1.57 0 0 1 1.11.45 1.69 1.69 0 0 1 .38.57 1.9 1.9 0 0 1 .14.73 2.1 2.1 0 0 1-.14.75 2.13 2.13 0 0 1-.38.63 2 2 0 0 1-.56.45 1.75 1.75 0 0 1-.69.2h-.13z"/><path class="cls-8" d="M440.8 63.19a1.64 1.64 0 0 1-.57-.1 1.62 1.62 0 0 1-.58-.37 1.72 1.72 0 0 1-.39-.58 1.9 1.9 0 0 1-.14-.73 2.08 2.08 0 0 1 .14-.75 2.14 2.14 0 0 1 .38-.64 2 2 0 0 1 .57-.46 1.83 1.83 0 0 1 .71-.22h.16a1.66 1.66 0 0 1 .56.09 1.63 1.63 0 0 1 .59.36 1.72 1.72 0 0 1 .4.58 1.9 1.9 0 0 1 .15.74 2.09 2.09 0 0 1-.14.76 2.15 2.15 0 0 1-.39.64 2.06 2.06 0 0 1-.58.46 1.85 1.85 0 0 1-.72.21h-.15z"/><path class="cls-1" d="M135.14 10.15H134l-2-6.69q-.14-.44-.32-1.12a6.47 6.47 0 0 1-.18-.81 15.53 15.53 0 0 1-.48 2l-2 6.65h-1.15l-2.66-10h1.23L128 6.33a22.91 22.91 0 0 1 .48 2.35 17 17 0 0 1 .55-2.45l1.79-6.08h1.23L134 6.29a18.65 18.65 0 0 1 .55 2.39 20.43 20.43 0 0 1 .45-2.36l1.57-6.16h1.23zm10.16 0h-5.57v-10h5.57v1h-4.41v3.26H145v1h-4.14v3.7h4.41v1zm2.56-9.99h2.82a5.33 5.33 0 0 1 2.88.59 2.1 2.1 0 0 1 .89 1.88A2.17 2.17 0 0 1 154 4.1a2.39 2.39 0 0 1-1.45.75v.07q2.28.39 2.28 2.39a2.57 2.57 0 0 1-.91 2.09 3.86 3.86 0 0 1-2.53.75h-3.49v-10zM149 4.44h1.91a3.12 3.12 0 0 0 1.77-.39 1.49 1.49 0 0 0 .54-1.3 1.32 1.32 0 0 0-.6-1.21 3.76 3.76 0 0 0-1.91-.37H149v3.27zm0 1v3.72h2.08a3 3 0 0 0 1.82-.47 1.73 1.73 0 0 0 .61-1.47 1.55 1.55 0 0 0-.63-1.37 3.34 3.34 0 0 0-1.9-.44h-2zm17.91 2.05a2.45 2.45 0 0 1-1 2.06 4.15 4.15 0 0 1-2.6.74 6.51 6.51 0 0 1-2.73-.46V8.71a7.18 7.18 0 0 0 1.34.41 7.06 7.06 0 0 0 1.44.15 2.9 2.9 0 0 0 1.75-.44 1.45 1.45 0 0 0 .59-1.23 1.57 1.57 0 0 0-.21-.85 1.94 1.94 0 0 0-.7-.61 9.71 9.71 0 0 0-1.49-.64 4.75 4.75 0 0 1-2-1.18 2.61 2.61 0 0 1-.6-1.78 2.22 2.22 0 0 1 .92-1.84 3.61 3.61 0 0 1 2.3-.68 6.77 6.77 0 0 1 2.74.55l-.36 1a6.2 6.2 0 0 0-2.41-.52 2.33 2.33 0 0 0-1.44.4 1.31 1.31 0 0 0-.52 1.1 1.69 1.69 0 0 0 .19.85 1.8 1.8 0 0 0 .65.61 8 8 0 0 0 1.39.61 5.5 5.5 0 0 1 2.16 1.2 2.37 2.37 0 0 1 .59 1.67zm7.97 2.66h-5.58v-10h5.57v1h-4.41v3.26h4.14v1h-4.14v3.7h4.41v1zM178.6 6v4.16h-1.16v-10h2.74a4.31 4.31 0 0 1 2.72.7 2.55 2.55 0 0 1 .88 2.14 2.65 2.65 0 0 1-2 2.68l2.71 4.49h-1.37L180.69 6h-2.09zm0-1h1.59a2.75 2.75 0 0 0 1.8-.49 1.82 1.82 0 0 0 .58-1.51 1.67 1.67 0 0 0-.57-1.39 3.17 3.17 0 0 0-1.88-.44h-1.52V5zM192.15.16h1.25l-3.6 10h-1.15l-3.58-10h1.23l2.3 6.47a18.14 18.14 0 0 1 .63 2.17 18.13 18.13 0 0 1 .64-2.21zm8.55 9.99h-5.57v-10h5.57v1h-4.41v3.26h4.14v1h-4.14v3.7h4.41v1zM204.43 6v4.16h-1.16v-10H206a4.31 4.31 0 0 1 2.72.7A2.55 2.55 0 0 1 209.6 3a2.65 2.65 0 0 1-2 2.68l2.71 4.49h-1.37L206.51 6h-2.08zm0-1H206a2.75 2.75 0 0 0 1.8-.49 1.82 1.82 0 0 0 .6-1.51 1.67 1.67 0 0 0-.58-1.43 3.17 3.17 0 0 0-1.88-.44h-1.51V5zm16.1-3.95a3.27 3.27 0 0 0-2.6 1.1 4.43 4.43 0 0 0-1 3 4.51 4.51 0 0 0 .92 3 3.27 3.27 0 0 0 2.62 1.07 9 9 0 0 0 2.39-.38v1a7.35 7.35 0 0 1-2.56.39 4.34 4.34 0 0 1-3.41-1.34 5.52 5.52 0 0 1-1.2-3.81 6 6 0 0 1 .58-2.71A4.15 4.15 0 0 1 218 .64a5 5 0 0 1 2.55-.64 6.2 6.2 0 0 1 2.75.57l-.49 1a5.3 5.3 0 0 0-2.28-.52zm13.58 4.09a5.5 5.5 0 0 1-1.21 3.77 4.27 4.27 0 0 1-3.37 1.37 4.32 4.32 0 0 1-3.41-1.35 5.55 5.55 0 0 1-1.2-3.81 5.48 5.48 0 0 1 1.2-3.78A4.35 4.35 0 0 1 229.54 0a4.26 4.26 0 0 1 3.36 1.37 5.5 5.5 0 0 1 1.21 3.77zm-8 0a4.74 4.74 0 0 0 .89 3.08 3.53 3.53 0 0 0 5 0 4.81 4.81 0 0 0 .85-3.08 4.77 4.77 0 0 0-.85-3.06 3 3 0 0 0-2.5-1 3.08 3.08 0 0 0-2.53 1 4.69 4.69 0 0 0-.82 3.06zm15 5.01l-3.39-8.86h-.05q.1 1.05.1 2.5v6.36h-1.07v-10h1.75l3.15 8.25h.05l3.19-8.24h1.74v10h-1.16V3.71q0-1.11.1-2.41h-.05L242 10.15h-.94zm12.99 0l-3.39-8.86h-.05q.1 1.05.1 2.5v6.36h-1.07v-10h1.75l3.17 8.24h.05l3.19-8.24h1.74v10h-1.16V3.71q0-1.11.1-2.41h-.05L255 10.15h-.9zM270.22.16v6.46a3.52 3.52 0 0 1-1 2.69 4 4 0 0 1-2.84 1 3.78 3.78 0 0 1-2.79-1 3.65 3.65 0 0 1-1-2.71V.16h1.16v6.52a2.57 2.57 0 0 0 .68 1.92 2.76 2.76 0 0 0 2 .67 2.66 2.66 0 0 0 1.95-.67 2.59 2.59 0 0 0 .68-1.93V.16h1.16zM281 10.15h-1.33l-5.46-8.39h-.05q.11 1.48.11 2.71v5.68h-1.07v-10h1.31L280 8.51q0-.18-.06-1.19t0-1.43V.16H281v10zm3.12 0v-10h1.16v10h-1.16zm8.53-9.1a3.26 3.26 0 0 0-2.6 1.1 4.42 4.42 0 0 0-1 3 4.52 4.52 0 0 0 .92 3 3.27 3.27 0 0 0 2.62 1.07 9 9 0 0 0 2.41-.34v1a7.34 7.34 0 0 1-2.56.39 4.34 4.34 0 0 1-3.41-1.34 5.51 5.51 0 0 1-1.2-3.81 6 6 0 0 1 .58-2.71A4.15 4.15 0 0 1 290.1.64a5.05 5.05 0 0 1 2.56-.64 6.2 6.2 0 0 1 2.75.57l-.49 1a5.3 5.3 0 0 0-2.27-.52zm11.18 9.1L302.59 7h-4l-1.23 3.18h-1.18l4-10h1l3.93 10h-1.2zm-1.61-4.22l-1.16-3.1q-.23-.59-.46-1.44a13.08 13.08 0 0 1-.43 1.44L299 5.93h3.23zm7.62 4.22h-1.16v-9h-3.17v-1H313v1h-3.17v9zm5.02 0v-10H316v10h-1.16zm12.92-5.01a5.5 5.5 0 0 1-1.21 3.77 4.27 4.27 0 0 1-3.37 1.37 4.32 4.32 0 0 1-3.41-1.35 5.54 5.54 0 0 1-1.2-3.81 5.48 5.48 0 0 1 1.2-3.78A4.35 4.35 0 0 1 323.21 0a4.26 4.26 0 0 1 3.36 1.37 5.5 5.5 0 0 1 1.21 3.77zm-8 0a4.75 4.75 0 0 0 .86 3.08 3.53 3.53 0 0 0 5 0 4.81 4.81 0 0 0 .85-3.08 4.77 4.77 0 0 0-.84-3.06 3 3 0 0 0-2.5-1 3.09 3.09 0 0 0-2.53 1 4.7 4.7 0 0 0-.8 3.06zm18.39 5.01h-1.33l-5.46-8.39h-.05q.11 1.48.11 2.71v5.68h-1.07v-10h1.31l5.45 8.35h.05q0-.18-.06-1.19t0-1.43V.16h1.09v10zM149.15 27H148l-2-6.69q-.14-.44-.32-1.12a6.47 6.47 0 0 1-.18-.81 15.53 15.53 0 0 1-.48 2L143 27h-1.1l-2.66-10h1.23l1.53 6.13a22.91 22.91 0 0 1 .48 2.35 17 17 0 0 1 .55-2.45l1.84-6.03h1.23l1.9 6.09a18.65 18.65 0 0 1 .55 2.39 20.43 20.43 0 0 1 .49-2.37l1.55-6.11h1.23zm4.59 0V17h1.16v10h-1.16zm7.33 0h-1.16v-9h-3.17v-1h7.49v1h-3.17v9zm12.61 0h-1.16v-4.7h-5.26V27h-1.16V17h1.16v4.25h5.26V17h1.16v10zm14.66 0h-1.16v-4.7h-5.26V27h-1.16V17h1.16v4.25h5.26V17h1.16v10zm6.17 0h-1.16v-9h-3.17v-1h7.49v1h-3.17v9zm8.1 0h-1.16v-9h-3.17v-1h7.49v1h-3.17v9zM214 19.87a2.8 2.8 0 0 1-1 2.33 4.69 4.69 0 0 1-3 .82h-1.18V27h-1.16V17h2.59q3.75 0 3.75 2.87zM208.79 22h1a3.89 3.89 0 0 0 2.24-.5 1.84 1.84 0 0 0 .69-1.6 1.72 1.72 0 0 0-.65-1.48 3.39 3.39 0 0 0-2-.49h-1.3V22zM220 17l-3.7 10h-1.13l3.73-10h1.1zm7.77 10h-6.57v-1l2.63-2.65a19.54 19.54 0 0 0 1.59-1.74 4.45 4.45 0 0 0 .57-1 2.91 2.91 0 0 0 .19-1.06 1.68 1.68 0 0 0-.49-1.27 1.86 1.86 0 0 0-1.35-.47 3.39 3.39 0 0 0-1.18.21 4.71 4.71 0 0 0-1.24.75l-.6-.77a4.61 4.61 0 0 1 3-1.15 3.18 3.18 0 0 1 2.21.72 2.48 2.48 0 0 1 .8 1.94 3.74 3.74 0 0 1-.53 1.88 12 12 0 0 1-2 2.35l-2.19 2.14v.02h5.14V27zm12.11-2.71a2.45 2.45 0 0 1-1 2.06 4.15 4.15 0 0 1-2.6.74 6.51 6.51 0 0 1-2.73-.46v-1.12a7.17 7.17 0 0 0 1.34.41 7.05 7.05 0 0 0 1.44.15 2.9 2.9 0 0 0 1.75-.44 1.45 1.45 0 0 0 .59-1.23 1.57 1.57 0 0 0-.21-.85 1.93 1.93 0 0 0-.7-.61 9.7 9.7 0 0 0-1.49-.64 4.75 4.75 0 0 1-2-1.18 2.61 2.61 0 0 1-.6-1.78 2.22 2.22 0 0 1 .87-1.84 3.61 3.61 0 0 1 2.3-.68 6.77 6.77 0 0 1 2.74.55l-.36 1a6.2 6.2 0 0 0-2.41-.52 2.33 2.33 0 0 0-1.44.4 1.31 1.31 0 0 0-.52 1.1 1.68 1.68 0 0 0 .19.85 1.8 1.8 0 0 0 .65.61 8 8 0 0 0 1.39.61 5.5 5.5 0 0 1 2.16 1.2 2.36 2.36 0 0 1 .64 1.67zm7.96 2.71h-5.57V17h5.57v1h-4.41v3.22h4.14v1h-4.14v3.68h4.41v1zm3.73-4.21V27h-1.17V17h2.74a4.32 4.32 0 0 1 2.72.7 2.55 2.55 0 0 1 .88 2.12 2.65 2.65 0 0 1-2 2.68l2.71 4.5h-1.37l-2.42-4.16h-2.08zm0-1h1.59a2.75 2.75 0 0 0 1.8-.49 1.82 1.82 0 0 0 .57-1.47 1.67 1.67 0 0 0-.58-1.43 3.17 3.17 0 0 0-1.88-.44h-1.51v3.84zM265.12 17h1.25l-3.6 10h-1.15L258 17h1.23l2.3 6.47a18.14 18.14 0 0 1 .63 2.17 18 18 0 0 1 .64-2.21zm8.54 10h-5.57V17h5.57v1h-4.41v3.22h4.14v1h-4.14v3.68h4.41v1zm3.73-4.21V27h-1.16V17H279a4.31 4.31 0 0 1 2.72.7 2.55 2.55 0 0 1 .88 2.12 2.65 2.65 0 0 1-2 2.68l2.67 4.5h-1.37l-2.42-4.16h-2.08zm0-1H279a2.75 2.75 0 0 0 1.8-.49 1.82 1.82 0 0 0 .57-1.47 1.67 1.67 0 0 0-.58-1.43 3.17 3.17 0 0 0-1.89-.4h-1.51v3.8zm18.17-1.92a2.8 2.8 0 0 1-1 2.33 4.7 4.7 0 0 1-3 .82h-1.18V27h-1.16V17h2.59q3.75 0 3.75 2.87zM290.38 22h1a3.89 3.89 0 0 0 2.24-.5 1.84 1.84 0 0 0 .69-1.6 1.73 1.73 0 0 0-.65-1.48 3.39 3.39 0 0 0-2-.49h-1.3V22zm15.17-5v6.47a3.52 3.52 0 0 1-1 2.69 4 4 0 0 1-2.84 1 3.78 3.78 0 0 1-2.79-1 3.65 3.65 0 0 1-1-2.71V17h1.16v6.52a2.57 2.57 0 0 0 .68 1.92 2.76 2.76 0 0 0 2 .67 2.66 2.66 0 0 0 1.95-.67 2.59 2.59 0 0 0 .68-1.93V17h1.16zm8.63 7.29a2.45 2.45 0 0 1-1 2.06 4.15 4.15 0 0 1-2.6.74 6.51 6.51 0 0 1-2.73-.46v-1.12a7.17 7.17 0 0 0 1.34.41 7.07 7.07 0 0 0 1.44.15 2.9 2.9 0 0 0 1.75-.44 1.45 1.45 0 0 0 .62-1.23 1.57 1.57 0 0 0-.21-.85 1.93 1.93 0 0 0-.7-.61 9.7 9.7 0 0 0-1.49-.64 4.74 4.74 0 0 1-2-1.18 2.61 2.61 0 0 1-.6-1.78 2.22 2.22 0 0 1 .87-1.84 3.61 3.61 0 0 1 2.3-.68 6.77 6.77 0 0 1 2.74.55l-.36 1a6.2 6.2 0 0 0-2.41-.52 2.33 2.33 0 0 0-1.44.4 1.31 1.31 0 0 0-.52 1.1 1.68 1.68 0 0 0 .19.85 1.8 1.8 0 0 0 .65.61 8.06 8.06 0 0 0 1.39.61 5.5 5.5 0 0 1 2.16 1.2 2.36 2.36 0 0 1 .61 1.67zm9.98 2.71H323v-4.7h-5.26V27h-1.16V17h1.16v4.25H323V17h1.16v10zm40.96 35.27a.5.5 0 0 0-.11-.16L357.93 55a.5.5 0 1 0-.71.71l6.23 6.29H259.58v-2a4.5 4.5 0 0 0-4.5-4.5H135.42a10.11 10.11 0 0 1 0 13.83h119.66a4.5 4.5 0 0 0 4.5-4.5V63h103.87l-6.23 6.23a.5.5 0 1 0 .71.71l7.07-7.12a.5.5 0 0 0 .12-.55zM232.16 79.43a4 4 0 0 0-4 4v1.92H120l6.23-6.23a.5.5 0 0 0-.71-.71l-7.08 7.08a.5.5 0 0 0 0 .71l7.08 7.08a.5.5 0 0 0 .71-.71L120 86.35h108.16v1.92a4 4 0 0 0 4 4h113.17v-6.42a10.12 10.12 0 0 1 2.29-6.42H232.16zm113.17 29.8v-6.42H232.16a4 4 0 0 0-4 4v1.92H120l6.23-6.23a.5.5 0 0 0-.71-.71l-7.08 7.08a.5.5 0 0 0 0 .71l7.08 7.08a.5.5 0 0 0 .71-.71l-6.23-6.22h108.16v1.92a4 4 0 0 0 4 4h115.46a10.12 10.12 0 0 1-2.29-6.42z"/><circle class="cls-8" cx="127.99" cy="62.46" r="9.17"/><path class="cls-2" d="M145.36 59.6v3.7a2 2 0 0 1-.59 1.54 2.26 2.26 0 0 1-1.62.56 2.16 2.16 0 0 1-1.6-.56 2.09 2.09 0 0 1-.56-1.55V59.6h.66v3.73a1.47 1.47 0 0 0 .39 1.1 1.58 1.58 0 0 0 1.15.38 1.52 1.52 0 0 0 1.11-.38 1.48 1.48 0 0 0 .39-1.1V59.6h.66zm4.94 4.19a1.4 1.4 0 0 1-.55 1.18 2.37 2.37 0 0 1-1.48.42 3.72 3.72 0 0 1-1.56-.26v-.65a4.09 4.09 0 0 0 .77.23 4 4 0 0 0 .82.09 1.66 1.66 0 0 0 1-.25.83.83 0 0 0 .34-.7.9.9 0 0 0-.12-.49 1.11 1.11 0 0 0-.4-.35 5.53 5.53 0 0 0-.85-.36 2.71 2.71 0 0 1-1.14-.68 1.49 1.49 0 0 1-.34-1 1.27 1.27 0 0 1 .5-1.05 2.06 2.06 0 0 1 1.31-.39 3.86 3.86 0 0 1 1.57.31l-.21.58a3.54 3.54 0 0 0-1.37-.3 1.33 1.33 0 0 0-.82.23.75.75 0 0 0-.3.63 1 1 0 0 0 .11.49 1 1 0 0 0 .37.35 4.57 4.57 0 0 0 .79.35 3.14 3.14 0 0 1 1.24.69 1.35 1.35 0 0 1 .32.93zm4.55 1.52h-3.18V59.6h3.18v.59h-2.52V62h2.37v.59h-2.37v2.1h2.52v.59zm2.15-2.38v2.38h-.66V59.6h1.57a2.47 2.47 0 0 1 1.55.4 1.46 1.46 0 0 1 .5 1.21 1.52 1.52 0 0 1-1.15 1.53l1.55 2.57h-.79l-1.38-2.37H157zm0-.57h.91a1.57 1.57 0 0 0 1-.28 1 1 0 0 0 .33-.84 1 1 0 0 0-.33-.82 1.81 1.81 0 0 0-1.07-.25H157v2.18zm7.4.57v2.38h-.66V59.6h1.57a2.47 2.47 0 0 1 1.55.4 1.46 1.46 0 0 1 .5 1.21 1.52 1.52 0 0 1-1.15 1.53l1.55 2.57H167l-1.38-2.37h-1.22zm0-.57h.91a1.57 1.57 0 0 0 1-.28 1 1 0 0 0 .33-.84 1 1 0 0 0-.33-.82 1.81 1.81 0 0 0-1.07-.25h-.84v2.18zm7.67 2.95h-3.18V59.6h3.18v.59h-2.52V62h2.37v.59h-2.37v2.1h2.52v.59zm6.42-2.86a3.46 3.46 0 0 1-.44 1.82 2.2 2.2 0 0 1-1.25 1l1.36 1.41h-1l-1.11-1.29h-.21a2.47 2.47 0 0 1-1.95-.77 3.17 3.17 0 0 1-.69-2.18 3.13 3.13 0 0 1 .69-2.16 2.49 2.49 0 0 1 2-.77 2.43 2.43 0 0 1 1.92.78 3.14 3.14 0 0 1 .68 2.16zm-4.55 0a2.71 2.71 0 0 0 .49 1.76 2 2 0 0 0 2.87 0 3.43 3.43 0 0 0 0-3.51 1.73 1.73 0 0 0-1.43-.6 1.76 1.76 0 0 0-1.44.6 2.68 2.68 0 0 0-.49 1.75zm10.33-2.85v3.7a2 2 0 0 1-.59 1.54 2.26 2.26 0 0 1-1.62.56 2.16 2.16 0 0 1-1.6-.56 2.09 2.09 0 0 1-.56-1.55V59.6h.66v3.73a1.47 1.47 0 0 0 .39 1.1 1.58 1.58 0 0 0 1.15.38 1.52 1.52 0 0 0 1.11-.38 1.48 1.48 0 0 0 .39-1.1V59.6h.66zm4.9 5.71H186V59.6h3.18v.59h-2.52V62H189v.59h-2.37v2.1h2.52v.59zm4.69-1.52a1.4 1.4 0 0 1-.55 1.18 2.37 2.37 0 0 1-1.48.42 3.72 3.72 0 0 1-1.56-.26v-.65a4.09 4.09 0 0 0 .77.23 4 4 0 0 0 .82.09 1.66 1.66 0 0 0 1-.25.83.83 0 0 0 .34-.7.9.9 0 0 0-.12-.49 1.11 1.11 0 0 0-.4-.35 5.53 5.53 0 0 0-.85-.36 2.71 2.71 0 0 1-1.14-.68 1.49 1.49 0 0 1-.34-1 1.27 1.27 0 0 1 .5-1.05 2.06 2.06 0 0 1 1.31-.39 3.86 3.86 0 0 1 1.57.31l-.21.58a3.54 3.54 0 0 0-1.37-.3 1.33 1.33 0 0 0-.82.23.75.75 0 0 0-.3.63 1 1 0 0 0 .11.49 1 1 0 0 0 .37.35 4.57 4.57 0 0 0 .79.35 3.14 3.14 0 0 1 1.24.69 1.35 1.35 0 0 1 .32.93zm3.14 1.52h-.66v-5.12h-1.81v-.59h4.28v.59H197v5.12zm6.07-1.52a1.4 1.4 0 0 1-.55 1.18 2.37 2.37 0 0 1-1.48.42 3.72 3.72 0 0 1-1.56-.26v-.65a4.09 4.09 0 0 0 .77.23 4 4 0 0 0 .82.09 1.66 1.66 0 0 0 1-.25.83.83 0 0 0 .34-.7.9.9 0 0 0-.12-.49 1.11 1.11 0 0 0-.4-.35 5.53 5.53 0 0 0-.85-.36 2.71 2.71 0 0 1-1.14-.65 1.49 1.49 0 0 1-.34-1 1.27 1.27 0 0 1 .5-1.05 2.06 2.06 0 0 1 1.31-.39 3.86 3.86 0 0 1 1.57.31l-.21.58a3.54 3.54 0 0 0-1.37-.3 1.33 1.33 0 0 0-.82.23.75.75 0 0 0-.3.63 1 1 0 0 0 .11.49 1 1 0 0 0 .37.35 4.57 4.57 0 0 0 .79.35 3.14 3.14 0 0 1 1.24.69 1.35 1.35 0 0 1 .32.9zm4.69 1.52v-3.76h-1.21v-.6h1.94v3.75h1.21v.61h-1.94zm-.12-5.94a.42.42 0 0 1 .17-.37.48.48 0 0 1 .63 0 .48.48 0 0 1 0 .73.48.48 0 0 1-.63 0 .42.42 0 0 1-.16-.36zm3.9 5.94v-4.36h.73v1a2.46 2.46 0 0 1 .75-.79 1.62 1.62 0 0 1 .88-.29 1.27 1.27 0 0 1 .7.21 1.1 1.1 0 0 1 .44.54 4.33 4.33 0 0 1 .13 1.3v2.44h-.73v-2.58a3.55 3.55 0 0 0-.06-.83.65.65 0 0 0-.22-.33.56.56 0 0 0-.35-.13 1.33 1.33 0 0 0-.82.36 2.9 2.9 0 0 0-.72.91v2.54h-.73zm7.92-.98a2.35 2.35 0 0 1-.8.82 1.71 1.71 0 0 1-.86.28 1.31 1.31 0 0 1-1-.47 2.05 2.05 0 0 1-.44-1.43 3.06 3.06 0 0 1 .29-1.35 2.43 2.43 0 0 1 .77-.94 2 2 0 0 1 1.2-.35h.82V59h.73v6.3h-.73v-1zm0-.86v-1.88a2.86 2.86 0 0 0-.72-.1 1.42 1.42 0 0 0-1.12.52 2.1 2.1 0 0 0-.45 1.42 1.64 1.64 0 0 0 .24 1 .69.69 0 0 0 .56.33 1.22 1.22 0 0 0 .75-.34 3.27 3.27 0 0 0 .74-.96zm5.71 1.53a3.87 3.87 0 0 1-1.65.41 1.94 1.94 0 0 1-1.06-.29 2.08 2.08 0 0 1-.74-.84 2.52 2.52 0 0 1-.28-1.17 2.61 2.61 0 0 1 .27-1.15 2.05 2.05 0 0 1 .74-.86 1.92 1.92 0 0 1 1.06-.31 1.56 1.56 0 0 1 1.25.55 2.6 2.6 0 0 1 .47 1.71v.16h-3a1.82 1.82 0 0 0 .19.83 1.35 1.35 0 0 0 .5.56 1.32 1.32 0 0 0 .7.19 3.27 3.27 0 0 0 1.55-.47V65zm-2.9-2.32h2.18v-.1a1.29 1.29 0 0 0-.26-.85.86.86 0 0 0-.7-.32 1 1 0 0 0-.76.32 1.82 1.82 0 0 0-.46.97zm4.73 2.63h-.84l1.71-2.31-1.6-2.09h.93l1.13 1.47 1.11-1.47h.83l-1.51 2 1.8 2.34h-.93l-1.33-1.73zm6.34.18a.64.64 0 1 1 .45-1.09.6.6 0 0 1 .19.45.64.64 0 0 1-.64.64zm3.21-.18V59h.73v2.9a2.47 2.47 0 0 1 .75-.79 1.62 1.62 0 0 1 .88-.29 1.26 1.26 0 0 1 .68.19 1 1 0 0 1 .43.46 1.57 1.57 0 0 1 .13.44 8.09 8.09 0 0 1 0 1v2.44h-.73v-2.57a3.52 3.52 0 0 0-.06-.83.65.65 0 0 0-.22-.33.55.55 0 0 0-.35-.13 1.33 1.33 0 0 0-.82.36 2.91 2.91 0 0 0-.72.91v2.54h-.73zm8.64-.18a4.06 4.06 0 0 1-.74.26 2.54 2.54 0 0 1-.45 0 2 2 0 0 1-.84-.18 1.23 1.23 0 0 1-.57-.52 2.25 2.25 0 0 1-.19-1.06v-1.72h-1.09v-.6h1.09v-1.76h.73v1.76h1.94v.61h-1.94v1.75a1.6 1.6 0 0 0 .13.74.78.78 0 0 0 .33.32 1.12 1.12 0 0 0 .49.1 2.25 2.25 0 0 0 1.11-.33v.64zm1.03.18v-4.36h.64v1a3 3 0 0 1 .56-.88.77.77 0 0 1 .53-.24.61.61 0 0 1 .51.25 1.13 1.13 0 0 1 .19.71V62a2.29 2.29 0 0 1 .31-.65 1.84 1.84 0 0 1 .38-.39.73.73 0 0 1 .45-.15.61.61 0 0 1 .48.24 1.57 1.57 0 0 1 .2.95v3.3h-.64v-3a3.5 3.5 0 0 0 0-.5.37.37 0 0 0-.09-.21.21.21 0 0 0-.15-.07.61.61 0 0 0-.44.31 3.86 3.86 0 0 0-.47 1v2.42H248v-3a1.14 1.14 0 0 0-.11-.68.32.32 0 0 0-.2-.1.61.61 0 0 0-.43.35 4.7 4.7 0 0 0-.44.89v2.52h-.64zm6.5 0v-5.7h-1.3V59h2v5.7h1.36v.61h-2.09zm-123.97.83H128v-6.28l-.23.21-1.16 1-.43-.56 1.89-1.51h.68v7.14zM236.59 83v3.7a2 2 0 0 1-.59 1.54 2.26 2.26 0 0 1-1.62.56 2.16 2.16 0 0 1-1.6-.56 2.08 2.08 0 0 1-.56-1.55V83h.66v3.73a1.47 1.47 0 0 0 .39 1.1 1.57 1.57 0 0 0 1.15.38 1.52 1.52 0 0 0 1.11-.38 1.48 1.48 0 0 0 .39-1.1V83h.66zm4.93 4.17a1.4 1.4 0 0 1-.55 1.18 2.37 2.37 0 0 1-1.48.42 3.72 3.72 0 0 1-1.56-.26v-.64a4.08 4.08 0 0 0 .77.23 4 4 0 0 0 .82.09 1.66 1.66 0 0 0 1-.25.83.83 0 0 0 .34-.7.9.9 0 0 0-.12-.49 1.12 1.12 0 0 0-.4-.35 5.57 5.57 0 0 0-.85-.36 2.71 2.71 0 0 1-1.14-.68 1.49 1.49 0 0 1-.34-1 1.27 1.27 0 0 1 .5-1.05 2.06 2.06 0 0 1 1.31-.39 3.87 3.87 0 0 1 1.57.31l-.21.58a3.54 3.54 0 0 0-1.37-.3 1.33 1.33 0 0 0-.82.23.75.75 0 0 0-.3.63 1 1 0 0 0 .11.49 1 1 0 0 0 .37.35 4.54 4.54 0 0 0 .79.35 3.15 3.15 0 0 1 1.24.69 1.35 1.35 0 0 1 .32.92zm4.56 1.52h-3.18V83h3.18v.59h-2.52v1.84h2.37V86h-2.37v2.1h2.52v.59zm2.13-2.37v2.38h-.66V83h1.57a2.46 2.46 0 0 1 1.55.4 1.46 1.46 0 0 1 .5 1.21 1.52 1.52 0 0 1-1.17 1.52l1.55 2.57h-.79l-1.38-2.37h-1.19zm0-.57h.91a1.57 1.57 0 0 0 1-.28 1 1 0 0 0 .33-.84 1 1 0 0 0-.33-.82 1.81 1.81 0 0 0-1.07-.25h-.86v2.18zm7.42.57v2.38H255V83h1.57a2.47 2.47 0 0 1 1.55.4 1.46 1.46 0 0 1 .5 1.21 1.52 1.52 0 0 1-1.15 1.53l1.53 2.55h-.8l-1.38-2.37h-1.19zm0-.57h.91a1.57 1.57 0 0 0 1-.28 1 1 0 0 0 .33-.84 1 1 0 0 0-.33-.82 1.81 1.81 0 0 0-1.07-.25h-.86v2.18zm7.66 2.94h-3.18V83h3.18v.59h-2.52v1.84h2.37V86h-2.37v2.1h2.52v.59zm3.92-5.2a1.87 1.87 0 0 0-1.49.63 2.53 2.53 0 0 0-.54 1.72 2.58 2.58 0 0 0 .53 1.73 1.87 1.87 0 0 0 1.5.61 5.12 5.12 0 0 0 1.36-.21v.58a4.2 4.2 0 0 1-1.46.22 2.48 2.48 0 0 1-1.95-.77 3.15 3.15 0 0 1-.69-2.18 3.44 3.44 0 0 1 .33-1.55 2.37 2.37 0 0 1 1-1 2.88 2.88 0 0 1 1.47-.36 3.54 3.54 0 0 1 1.57.33l-.28.57a3 3 0 0 0-1.35-.32zm5.98 5.2H270V83h3.18v.59h-2.52v1.84H273V86h-2.37v2.1h2.52v.59zm1.47 0V83h.66v5.71h-.66zm5.69-5.69h.71L279 88.69h-.66l-2-5.71h.66l1.31 3.7a10.36 10.36 0 0 1 .36 1.24 10.29 10.29 0 0 1 .37-1.26zm4.88 5.69H282V83h3.18v.59h-2.52v1.84h2.37V86h-2.37v2.1h2.52v.59zm4.69-1.52a1.4 1.4 0 0 1-.55 1.18 2.37 2.37 0 0 1-1.48.42 3.72 3.72 0 0 1-1.56-.26v-.64a4.22 4.22 0 0 0 1.59.32 1.66 1.66 0 0 0 1-.25.83.83 0 0 0 .34-.7.9.9 0 0 0-.12-.49 1.1 1.1 0 0 0-.4-.35 5.57 5.57 0 0 0-.85-.36 2.71 2.71 0 0 1-1.14-.68 1.49 1.49 0 0 1-.34-1 1.27 1.27 0 0 1 .5-1.05 2.06 2.06 0 0 1 1.31-.39 3.87 3.87 0 0 1 1.57.31l-.21.58a3.54 3.54 0 0 0-1.37-.3 1.33 1.33 0 0 0-.82.23.75.75 0 0 0-.3.63 1 1 0 0 0 .11.49 1 1 0 0 0 .37.35 4.57 4.57 0 0 0 .79.35 3.15 3.15 0 0 1 1.24.69 1.35 1.35 0 0 1 .32.92zm4.69 1.52v-3.75h-1.21v-.61h1.94v3.76h1.21v.61h-1.94zm-.12-5.94a.42.42 0 0 1 .17-.37.48.48 0 0 1 .63 0 .48.48 0 0 1 0 .73.48.48 0 0 1-.63 0 .42.42 0 0 1-.17-.36zm3.9 5.94v-4.36h.73v1a2.46 2.46 0 0 1 .75-.79 1.62 1.62 0 0 1 .88-.29 1.27 1.27 0 0 1 .7.21 1.1 1.1 0 0 1 .44.54 4.32 4.32 0 0 1 .13 1.3v2.44h-.72v-2.57a3.57 3.57 0 0 0-.06-.83.65.65 0 0 0-.24-.34.56.56 0 0 0-.35-.13 1.33 1.33 0 0 0-.82.36 2.91 2.91 0 0 0-.72.91v2.54h-.73zm7.92-.98a2.35 2.35 0 0 1-.8.82 1.71 1.71 0 0 1-.86.28 1.31 1.31 0 0 1-1-.47 2.05 2.05 0 0 1-.44-1.43 3.07 3.07 0 0 1 .29-1.35 2.44 2.44 0 0 1 .77-.94 2 2 0 0 1 1.2-.35h.82v-1.88h.71v6.3h-.73v-1zm0-.86V85a2.86 2.86 0 0 0-.72-.1 1.42 1.42 0 0 0-1.12.52 2.1 2.1 0 0 0-.45 1.42 1.64 1.64 0 0 0 .24 1 .7.7 0 0 0 .56.33 1.22 1.22 0 0 0 .75-.34 3.28 3.28 0 0 0 .74-.98zM312 88.4a3.87 3.87 0 0 1-1.65.41 1.93 1.93 0 0 1-1.05-.29 2.09 2.09 0 0 1-.74-.84 2.51 2.51 0 0 1-.28-1.17 2.61 2.61 0 0 1 .27-1.15 2.05 2.05 0 0 1 .74-.86 1.92 1.92 0 0 1 1.06-.31 1.56 1.56 0 0 1 1.25.55 2.6 2.6 0 0 1 .47 1.71v.16h-3a1.82 1.82 0 0 0 .19.83 1.34 1.34 0 0 0 .5.56 1.32 1.32 0 0 0 .7.19 3.27 3.27 0 0 0 1.55-.47v.68zm-2.9-2.32h2.18V86a1.29 1.29 0 0 0-.26-.85.86.86 0 0 0-.7-.32 1 1 0 0 0-.76.32 1.83 1.83 0 0 0-.44.93zm4.74 2.61H313l1.71-2.28-1.6-2.09h.89l1.13 1.47 1.11-1.47h.82l-1.51 2 1.8 2.34h-.93L315.14 87zm6.34.19a.64.64 0 1 1 .45-.19.61.61 0 0 1-.45.19zm3.21-.19v-6.3h.73v2.89a2.46 2.46 0 0 1 .75-.79 1.62 1.62 0 0 1 .88-.29 1.26 1.26 0 0 1 .68.19 1.06 1.06 0 0 1 .43.46 1.57 1.57 0 0 1 .13.44 8.09 8.09 0 0 1 0 1v2.44h-.69v-2.56a3.57 3.57 0 0 0-.06-.83.65.65 0 0 0-.24-.34.56.56 0 0 0-.35-.13 1.33 1.33 0 0 0-.82.36 2.91 2.91 0 0 0-.72.91v2.54h-.73zm8.61-.17a4.08 4.08 0 0 1-.74.26 2.54 2.54 0 0 1-.45 0 2 2 0 0 1-.84-.18 1.23 1.23 0 0 1-.57-.52 2.25 2.25 0 0 1-.19-1.06V85.3h-1.09v-.61h1.09v-1.75h.79v1.76h1.94v.6H330V87a1.6 1.6 0 0 0 .13.74.77.77 0 0 0 .33.32 1.12 1.12 0 0 0 .49.1 2.25 2.25 0 0 0 1.11-.33v.64zm1.06.17v-4.36h.64v1a3 3 0 0 1 .56-.88.77.77 0 0 1 .53-.24.61.61 0 0 1 .51.25 1.13 1.13 0 0 1 .19.71v.23a2.29 2.29 0 0 1 .31-.65 1.87 1.87 0 0 1 .38-.39.73.73 0 0 1 .45-.15.61.61 0 0 1 .48.24 1.57 1.57 0 0 1 .2.95v3.3h-.64v-3a3.5 3.5 0 0 0 0-.5.37.37 0 0 0-.09-.21.21.21 0 0 0-.15-.07.62.62 0 0 0-.44.31 3.86 3.86 0 0 0-.47 1v2.42h-.61v-3a1.15 1.15 0 0 0-.11-.68.33.33 0 0 0-.2-.1.61.61 0 0 0-.43.35 4.7 4.7 0 0 0-.44.89v2.52h-.64zm6.5 0V83h-1.3v-.61h2v5.7h1.36v.61h-2.09zm-102.97 17.68v3.7a2 2 0 0 1-.59 1.54 2.26 2.26 0 0 1-1.62.56 2.16 2.16 0 0 1-1.6-.56 2.08 2.08 0 0 1-.56-1.55v-3.68h.66v3.73a1.47 1.47 0 0 0 .39 1.1 1.57 1.57 0 0 0 1.15.38 1.52 1.52 0 0 0 1.11-.38 1.48 1.48 0 0 0 .39-1.1v-3.72h.66zm4.93 4.19a1.4 1.4 0 0 1-.55 1.18 2.37 2.37 0 0 1-1.48.42 3.72 3.72 0 0 1-1.56-.26v-.64a4.08 4.08 0 0 0 .77.23 4 4 0 0 0 .82.09 1.66 1.66 0 0 0 1-.25.83.83 0 0 0 .34-.7.9.9 0 0 0-.12-.49 1.12 1.12 0 0 0-.4-.35 5.57 5.57 0 0 0-.85-.36 2.71 2.71 0 0 1-1.14-.68 1.49 1.49 0 0 1-.34-1 1.27 1.27 0 0 1 .5-1.05 2.06 2.06 0 0 1 1.31-.39 3.87 3.87 0 0 1 1.57.31l-.21.58a3.54 3.54 0 0 0-1.37-.3 1.33 1.33 0 0 0-.82.23.75.75 0 0 0-.3.63 1 1 0 0 0 .11.49 1 1 0 0 0 .37.35 4.54 4.54 0 0 0 .79.35 3.15 3.15 0 0 1 1.24.69 1.35 1.35 0 0 1 .32.92zm4.56 1.52h-3.18v-5.71h3.18v.63h-2.52v1.84h2.37v.59h-2.37v2.1h2.52v.59zm2.13-2.38v2.38h-.66v-5.71h1.57a2.46 2.46 0 0 1 1.55.4 1.46 1.46 0 0 1 .5 1.21 1.52 1.52 0 0 1-1.15 1.53l1.55 2.57h-.79l-1.38-2.37h-1.19zm0-.57h.91a1.57 1.57 0 0 0 1-.28 1 1 0 0 0 .33-.84 1 1 0 0 0-.33-.82 1.81 1.81 0 0 0-1.07-.25h-.86v2.18zm7.42.57v2.38H255v-5.71h1.57a2.47 2.47 0 0 1 1.55.4 1.46 1.46 0 0 1 .5 1.21 1.52 1.52 0 0 1-1.15 1.53l1.55 2.57h-.82l-1.38-2.37h-1.19zm0-.57h.91a1.57 1.57 0 0 0 1-.28 1 1 0 0 0 .33-.84 1 1 0 0 0-.33-.82 1.81 1.81 0 0 0-1.07-.25h-.86v2.18zm7.66 2.95h-3.18v-5.71h3.18v.63h-2.52v1.84h2.37v.59h-2.37v2.1h2.52v.59zm3.92-5.2a1.87 1.87 0 0 0-1.49.63 2.53 2.53 0 0 0-.54 1.72 2.58 2.58 0 0 0 .53 1.73 1.87 1.87 0 0 0 1.5.61 5.12 5.12 0 0 0 1.36-.21v.58a4.2 4.2 0 0 1-1.46.22 2.48 2.48 0 0 1-1.95-.77 3.15 3.15 0 0 1-.69-2.18 3.44 3.44 0 0 1 .33-1.55 2.37 2.37 0 0 1 1-1 2.88 2.88 0 0 1 1.47-.36 3.54 3.54 0 0 1 1.57.33l-.28.57a3 3 0 0 0-1.35-.32zm5.98 5.2H270v-5.71h3.18v.63h-2.52v1.84H273v.59h-2.37v2.1h2.52v.59zm1.47 0v-5.71h.66v5.71h-.66zm5.69-5.71h.71l-2.06 5.71h-.66l-2-5.71h.66l1.31 3.7a10.36 10.36 0 0 1 .36 1.24A10.29 10.29 0 0 1 279 110zm4.88 5.71H282v-5.71h3.18v.63h-2.52v1.84h2.37v.59h-2.37v2.1h2.52v.59zm4.69-1.52a1.4 1.4 0 0 1-.55 1.18 2.37 2.37 0 0 1-1.48.42 3.72 3.72 0 0 1-1.56-.26v-.64a4.22 4.22 0 0 0 1.59.32 1.66 1.66 0 0 0 1-.25.83.83 0 0 0 .34-.7.9.9 0 0 0-.12-.49 1.1 1.1 0 0 0-.4-.35 5.57 5.57 0 0 0-.85-.36 2.71 2.71 0 0 1-1.14-.68 1.49 1.49 0 0 1-.34-1 1.27 1.27 0 0 1 .5-1.05 2.06 2.06 0 0 1 1.31-.39 3.87 3.87 0 0 1 1.57.31l-.21.58a3.54 3.54 0 0 0-1.37-.3 1.33 1.33 0 0 0-.82.23.75.75 0 0 0-.3.63 1 1 0 0 0 .11.49 1 1 0 0 0 .37.35 4.57 4.57 0 0 0 .79.35 3.15 3.15 0 0 1 1.24.69 1.35 1.35 0 0 1 .32.92zm3.52 1.29v-.77a2.92 2.92 0 0 0 .93.4 3.71 3.71 0 0 0 .83.12 1.36 1.36 0 0 0 .79-.18.53.53 0 0 0 .24-.44.43.43 0 0 0-.11-.3 1.76 1.76 0 0 0-.56-.31l-.25-.1-.5-.2a2.58 2.58 0 0 1-1-.59 1 1 0 0 1-.21-.65 1.1 1.1 0 0 1 .42-.89 2.11 2.11 0 0 1 1.35-.35 4.27 4.27 0 0 1 1.33.2v.66a4 4 0 0 0-1.35-.26 1.37 1.37 0 0 0-.72.16.47.47 0 0 0-.26.4.43.43 0 0 0 .23.38 4.08 4.08 0 0 0 .73.32l.49.18a2.49 2.49 0 0 1 .95.54 1 1 0 0 1 .27.72 1.16 1.16 0 0 1-.44.93 2.15 2.15 0 0 1-1.39.37 4.63 4.63 0 0 1-1.77-.34zm8.56.05a4.08 4.08 0 0 1-.74.26 2.54 2.54 0 0 1-.45 0 2 2 0 0 1-.81-.16 1.23 1.23 0 0 1-.57-.52 2.25 2.25 0 0 1-.19-1.06v-1.76h-1.09v-.61h1.09v-1.76h.76v1.76h1.94v.61H300v1.75a1.6 1.6 0 0 0 .13.74.77.77 0 0 0 .33.32 1.12 1.12 0 0 0 .49.1 2.25 2.25 0 0 0 1.11-.33v.64zm3 .01l-2-4.19h.8l1.61 3.28 1.34-3.28h.73l-1.69 4.06a4.85 4.85 0 0 1-1 1.7 1.83 1.83 0 0 1-1.25.42 2.74 2.74 0 0 1-.59-.06v-.64a1.94 1.94 0 0 0 .57.09 1.38 1.38 0 0 0 .63-.14 1.33 1.33 0 0 0 .5-.48 3.11 3.11 0 0 0 .32-.6zm4.56.17v-5.7h-1.3v-.61h2v5.7h1.36v.61h-2.09zm7.44-.29a3.87 3.87 0 0 1-1.65.41 1.93 1.93 0 0 1-1.05-.29 2.09 2.09 0 0 1-.74-.84 2.51 2.51 0 0 1-.28-1.17 2.61 2.61 0 0 1 .27-1.15 2.05 2.05 0 0 1 .74-.86 1.92 1.92 0 0 1 1.06-.31 1.56 1.56 0 0 1 1.25.55 2.6 2.6 0 0 1 .47 1.71v.16h-3a1.82 1.82 0 0 0 .19.83 1.34 1.34 0 0 0 .5.56 1.32 1.32 0 0 0 .7.19 3.27 3.27 0 0 0 1.55-.47v.66zm-2.9-2.32h2.18v-.1a1.29 1.29 0 0 0-.26-.85.86.86 0 0 0-.7-.32 1 1 0 0 0-.76.32 1.83 1.83 0 0 0-.44.95zm4.34 2.38v-.77a2.92 2.92 0 0 0 .93.4 3.71 3.71 0 0 0 .83.12 1.36 1.36 0 0 0 .79-.18.53.53 0 0 0 .24-.44.43.43 0 0 0-.11-.3 1.76 1.76 0 0 0-.56-.31l-.25-.1-.5-.2a2.58 2.58 0 0 1-1-.59 1 1 0 0 1-.21-.65 1.1 1.1 0 0 1 .42-.89 2.11 2.11 0 0 1 1.35-.35 4.27 4.27 0 0 1 1.33.2v.66a4 4 0 0 0-1.35-.26 1.37 1.37 0 0 0-.72.16.47.47 0 0 0-.26.4.43.43 0 0 0 .23.38 4.08 4.08 0 0 0 .73.32l.49.18a2.49 2.49 0 0 1 .95.54 1 1 0 0 1 .27.72 1.16 1.16 0 0 1-.44.93 2.15 2.15 0 0 1-1.39.37 4.63 4.63 0 0 1-1.77-.34zm6.74.41a.64.64 0 1 1 .45-.19.61.61 0 0 1-.45.19zm6.88-.26a4.36 4.36 0 0 1-1.39.25 2.24 2.24 0 0 1-1.17-.3 2.14 2.14 0 0 1-.79-.82 2.4 2.4 0 0 1-.29-1.18 2.25 2.25 0 0 1 .65-1.65 2.11 2.11 0 0 1 1.56-.66 4.48 4.48 0 0 1 1.43.25v.7a3.34 3.34 0 0 0-1.36-.35 1.51 1.51 0 0 0-.75.2 1.3 1.3 0 0 0-.54.62 2 2 0 0 0-.19.86 2 2 0 0 0 .37 1.13 1.31 1.31 0 0 0 1.16.54 3.3 3.3 0 0 0 .47 0 5.85 5.85 0 0 0 .85-.24v.65zm1.38-.15v-.77a2.92 2.92 0 0 0 .93.4 3.71 3.71 0 0 0 .83.12 1.36 1.36 0 0 0 .79-.18.53.53 0 0 0 .24-.44.43.43 0 0 0-.11-.3 1.76 1.76 0 0 0-.56-.31l-.25-.1-.5-.2a2.58 2.58 0 0 1-1-.59 1 1 0 0 1-.21-.65 1.1 1.1 0 0 1 .42-.89 2.11 2.11 0 0 1 1.35-.35 4.27 4.27 0 0 1 1.33.2v.66a4 4 0 0 0-1.35-.26 1.37 1.37 0 0 0-.72.16.47.47 0 0 0-.26.4.43.43 0 0 0 .23.38 4.08 4.08 0 0 0 .73.32l.49.18a2.49 2.49 0 0 1 .95.54 1 1 0 0 1 .27.72 1.16 1.16 0 0 1-.44.93 2.15 2.15 0 0 1-1.39.37 4.63 4.63 0 0 1-1.77-.34zm5 0v-.77a2.92 2.92 0 0 0 .93.4 3.71 3.71 0 0 0 .83.12 1.36 1.36 0 0 0 .79-.18.53.53 0 0 0 .24-.44.43.43 0 0 0-.11-.3 1.76 1.76 0 0 0-.56-.31l-.25-.1-.5-.2a2.58 2.58 0 0 1-1-.59 1 1 0 0 1-.21-.65 1.1 1.1 0 0 1 .42-.89 2.11 2.11 0 0 1 1.35-.35 4.27 4.27 0 0 1 1.33.2v.66a4 4 0 0 0-1.35-.26 1.37 1.37 0 0 0-.72.16.47.47 0 0 0-.26.4.43.43 0 0 0 .23.38 4.08 4.08 0 0 0 .73.32l.49.18a2.49 2.49 0 0 1 .95.54 1 1 0 0 1 .27.72 1.16 1.16 0 0 1-.44.93 2.15 2.15 0 0 1-1.39.37 4.63 4.63 0 0 1-1.77-.34z"/><path class="cls-8" d="M364.66 109.23a9.17 9.17 0 1 1-18.33 0V85.85a9.17 9.17 0 1 1 18.33 0v23.38z"/><path class="cls-2" d="M357.69 100.47H353v-.7l1.88-1.89a14 14 0 0 0 1.12-1.24 3.22 3.22 0 0 0 .41-.72 2.08 2.08 0 0 0 .14-.76 1.2 1.2 0 0 0-.35-.91 1.33 1.33 0 0 0-1-.33 2.42 2.42 0 0 0-.84.15 3.36 3.36 0 0 0-.89.53l-.43-.55a3.29 3.29 0 0 1 2.15-.82 2.27 2.27 0 0 1 1.58.52 1.77 1.77 0 0 1 .57 1.38 2.67 2.67 0 0 1-.38 1.34 8.54 8.54 0 0 1-1.43 1.68L354 99.68h3.67v.75z"/></svg>