<svg width="1920" height="1080" viewBox="0 0 1920 1080" fill="none" xmlns="http://www.w3.org/2000/svg">
<g clip-path="url(#clip0_1_30)">
<rect width="1920" height="1080" fill="#1D1D1D"/>
<path fill-rule="evenodd" clip-rule="evenodd" d="M2135.96 641.553C2200.87 637.183 2233.33 634.998 2259.09 646.205C2281.76 656.066 2300.84 672.966 2313.66 694.529C2328.22 719.038 2330.84 752.286 2336.08 818.783L2398.84 1615.08C2404.86 1691.52 2407.87 1729.75 2394.92 1758.51C2383.56 1783.76 2364.04 1804.22 2339.67 1816.42C2311.9 1830.31 2274.58 1828.05 2199.93 1823.52L1393.01 1774.54C1329.31 1770.68 1297.46 1768.75 1273.51 1754.7C1252.43 1742.34 1235.6 1723.6 1225.31 1701.04C1213.62 1675.41 1214.34 1642.7 1215.8 1577.28L1231.29 879.01C1232.67 816.609 1233.37 785.408 1245.36 761.033C1255.93 739.567 1272.5 721.826 1292.96 710.081C1316.2 696.744 1346.56 694.7 1407.29 690.611L2135.96 641.553Z" fill="#FFED00"/>
<path fill-rule="evenodd" clip-rule="evenodd" d="M2117.48 675.002C2178.72 670.88 2209.33 668.818 2233.64 679.392C2255.03 688.694 2273.03 704.638 2285.12 724.98C2298.86 748.101 2301.33 779.468 2306.27 842.2L2365.48 1593.42C2371.16 1665.54 2374 1701.6 2361.79 1728.74C2351.06 1752.56 2332.65 1771.86 2309.66 1783.36C2283.47 1796.47 2248.25 1794.34 2177.83 1790.06L1416.58 1743.86C1356.49 1740.22 1326.45 1738.39 1303.85 1725.14C1283.97 1713.48 1268.08 1695.8 1258.38 1674.52C1247.35 1650.34 1248.03 1619.48 1249.4 1557.76L1264.02 899.019C1265.32 840.15 1265.98 810.715 1277.3 787.72C1287.26 767.469 1302.9 750.732 1322.2 739.652C1344.12 727.07 1372.76 725.141 1430.06 721.284L2117.48 675.002Z" fill="#FFCD03"/>
<path fill-rule="evenodd" clip-rule="evenodd" d="M2102.5 702.459C2160.68 698.542 2189.76 696.584 2212.85 706.629C2233.17 715.466 2250.27 730.613 2261.76 749.938C2274.81 771.903 2277.16 801.701 2281.86 861.297L2338.1 1574.96C2343.5 1643.47 2346.2 1677.73 2334.59 1703.51C2324.4 1726.14 2306.91 1744.47 2285.07 1755.4C2260.19 1767.86 2226.73 1765.83 2159.83 1761.77L1436.65 1717.88C1379.56 1714.41 1351.02 1712.68 1329.55 1700.09C1310.66 1689.01 1295.57 1672.22 1286.35 1652C1275.87 1629.03 1276.52 1599.71 1277.82 1541.08L1291.71 915.275C1292.95 859.349 1293.57 831.386 1304.32 809.54C1313.79 790.302 1328.65 774.402 1346.98 763.876C1367.81 751.923 1395.02 750.091 1449.45 746.426L2102.5 702.459Z" fill="#FFBC03"/>
<path fill-rule="evenodd" clip-rule="evenodd" d="M2087.1 730.334C2142.21 726.623 2169.77 724.768 2191.65 734.284C2210.89 742.656 2227.1 757.006 2237.98 775.314C2250.34 796.123 2252.57 824.353 2257.02 880.812L2310.3 1556.91C2315.41 1621.82 2317.97 1654.27 2306.98 1678.7C2297.33 1700.14 2280.75 1717.5 2260.06 1727.86C2236.49 1739.66 2204.8 1737.73 2141.41 1733.89L1456.3 1692.31C1402.21 1689.03 1375.17 1687.38 1354.83 1675.46C1336.94 1664.96 1322.64 1649.05 1313.91 1629.9C1303.98 1608.14 1304.6 1580.36 1305.83 1524.82L1318.98 931.949C1320.16 878.966 1320.75 852.475 1330.93 831.779C1339.91 813.554 1353.98 798.49 1371.35 788.518C1391.07 777.194 1416.86 775.459 1468.42 771.987L2087.1 730.334Z" fill="#FFA303"/>
<path d="M1585.22 902.853H1574.03V867.273H1604.72V875.932H1585.22V882.979H1601.17V891.117H1585.22V902.853ZM1625.55 876.949L1627.59 877.098V888.363C1626.36 887.685 1624.67 887.346 1622.5 887.346C1620.48 887.346 1618.96 887.817 1617.93 888.76C1616.93 889.703 1616.42 891.009 1616.42 892.68V902.853H1606.25V877.446H1616.42V882.011H1616.92C1617.03 881.614 1617.4 881.019 1618.01 880.225C1618.41 879.679 1618.92 879.174 1619.55 878.711C1620.21 878.231 1621.07 877.818 1622.13 877.47C1623.2 877.123 1624.34 876.949 1625.55 876.949ZM1633.26 899.999C1630.49 897.766 1629.11 894.483 1629.11 890.149C1629.11 885.815 1630.49 882.532 1633.26 880.299C1636 878.066 1639.71 876.949 1644.37 876.949C1649.02 876.949 1652.72 878.066 1655.46 880.299C1658.23 882.532 1659.61 885.815 1659.61 890.149C1659.61 894.483 1658.23 897.766 1655.46 899.999C1652.72 902.233 1649.02 903.349 1644.37 903.349C1639.71 903.349 1636 902.233 1633.26 899.999ZM1648.02 893.623C1648.86 892.763 1649.29 891.605 1649.29 890.149C1649.29 888.694 1648.86 887.527 1648.02 886.651C1647.18 885.791 1645.96 885.361 1644.37 885.361C1642.77 885.361 1641.54 885.791 1640.7 886.651C1639.86 887.527 1639.44 888.694 1639.44 890.149C1639.44 891.605 1639.86 892.763 1640.7 893.623C1641.54 894.5 1642.77 894.938 1644.37 894.938C1645.96 894.938 1647.18 894.5 1648.02 893.623ZM1693.36 902.853H1683.22V890.596C1683.22 889.157 1682.79 888.007 1681.93 887.147C1681.07 886.27 1679.88 885.832 1678.38 885.832C1676.84 885.832 1675.65 886.262 1674.81 887.122C1673.98 887.966 1673.57 889.124 1673.57 890.596V902.853H1663.39V877.446H1673.57V882.011H1674.06C1674.18 881.614 1674.56 881.019 1675.2 880.225C1675.65 879.679 1676.2 879.174 1676.84 878.711C1677.55 878.231 1678.48 877.818 1679.62 877.47C1680.76 877.123 1681.96 876.949 1683.22 876.949C1686.36 876.949 1688.84 877.834 1690.66 879.604C1692.46 881.391 1693.36 884.062 1693.36 887.618V902.853ZM1699.36 892.68V885.063H1696.16V880.249L1704.44 872.359H1709.53V877.446H1716.43V885.063H1709.53V891.315C1709.53 892.754 1709.89 893.772 1710.6 894.367C1711.31 894.946 1712.41 895.236 1713.9 895.236C1715.11 895.236 1715.98 895.062 1716.53 894.715L1716.95 894.566V902.505C1715.73 903.084 1714.18 903.366 1712.31 903.349C1707.81 903.349 1704.53 902.505 1702.46 900.818C1700.39 899.148 1699.36 896.435 1699.36 892.68ZM1748.97 890.149L1748.82 891.663H1729.2C1729.23 893.333 1729.6 894.557 1730.31 895.335C1731.04 896.112 1732.17 896.501 1733.71 896.501C1734.56 896.501 1735.31 896.319 1735.97 895.955C1736.63 895.591 1737.07 895.194 1737.28 894.764L1737.58 894.218H1748.4C1748.4 894.632 1748.25 895.227 1747.95 896.005C1747.39 897.427 1746.54 898.676 1745.4 899.751C1744.6 900.512 1743.71 901.141 1742.72 901.637C1741.74 902.133 1740.5 902.539 1739 902.853C1737.38 903.184 1735.61 903.349 1733.71 903.349C1729.08 903.349 1725.38 902.241 1722.62 900.024C1719.86 897.808 1718.48 894.516 1718.48 890.149C1718.48 885.815 1719.86 882.532 1722.62 880.299C1725.37 878.066 1729.07 876.949 1733.74 876.949C1738.38 876.949 1742.08 878.066 1744.83 880.299C1747.59 882.532 1748.97 885.815 1748.97 890.149ZM1733.71 883.549C1732.42 883.549 1731.4 883.897 1730.64 884.591C1729.87 885.286 1729.49 886.121 1729.49 887.097H1737.78C1737.78 886.171 1737.42 885.344 1736.69 884.616C1735.98 883.905 1734.99 883.549 1733.71 883.549ZM1782.48 902.853H1772.33V890.596C1772.33 889.157 1771.9 888.007 1771.04 887.147C1770.18 886.27 1769 885.832 1767.49 885.832C1765.96 885.832 1764.77 886.262 1763.92 887.122C1763.09 887.966 1762.68 889.124 1762.68 890.596V902.853H1752.51V877.446H1762.68V882.011H1763.18C1763.29 881.614 1763.67 881.019 1764.32 880.225C1764.77 879.679 1765.31 879.174 1765.96 878.711C1766.67 878.231 1767.59 877.818 1768.73 877.47C1769.88 877.123 1771.08 876.949 1772.33 876.949C1775.48 876.949 1777.96 877.834 1779.78 879.604C1781.58 881.391 1782.48 884.062 1782.48 887.618V902.853ZM1797.48 903.349C1794.22 903.349 1791.5 902.208 1789.32 899.925C1787.13 897.642 1786.04 894.384 1786.04 890.149C1786.04 885.915 1787.13 882.656 1789.32 880.373C1791.5 878.091 1794.22 876.949 1797.48 876.949C1799.27 876.949 1800.87 877.198 1802.29 877.694C1803.7 878.223 1804.65 878.736 1805.15 879.232L1805.92 879.976H1806.36V867.273H1816.54V902.853H1806.36V898.287H1805.87C1805.6 898.866 1805.24 899.454 1804.78 900.049C1804.26 900.661 1803.74 901.166 1803.21 901.563C1802.57 902.059 1801.72 902.481 1800.68 902.828C1799.66 903.175 1798.59 903.349 1797.48 903.349ZM1797.98 886.998C1797.13 887.776 1796.71 888.826 1796.71 890.149C1796.71 891.473 1797.13 892.523 1797.95 893.3C1798.78 894.078 1799.98 894.466 1801.55 894.466C1803.09 894.466 1804.27 894.086 1805.1 893.325C1805.94 892.548 1806.36 891.489 1806.36 890.149C1806.36 888.793 1805.94 887.734 1805.1 886.973C1804.25 886.212 1803.07 885.832 1801.55 885.832C1800 885.832 1798.8 886.221 1797.98 886.998ZM1576.14 937.615C1573.63 935.221 1572.38 931.852 1572.38 927.51C1572.38 923.156 1573.63 919.781 1576.14 917.387C1578.64 914.993 1582.08 913.796 1586.45 913.796C1590.54 913.796 1593.85 914.813 1596.37 916.847C1598.87 918.87 1600.12 921.537 1600.12 924.849H1591.43C1591.43 924.514 1591.32 924.055 1591.08 923.472C1590.91 923.038 1590.65 922.635 1590.32 922.263C1589.96 921.89 1589.44 921.574 1588.75 921.314C1588.07 921.053 1587.3 920.923 1586.45 920.923C1582.91 920.923 1581.14 923.119 1581.14 927.51C1581.14 931.914 1582.91 934.116 1586.45 934.116C1587.33 934.116 1588.1 933.986 1588.77 933.726C1589.46 933.465 1589.97 933.13 1590.32 932.721C1590.97 931.976 1591.33 931.257 1591.4 930.562L1591.43 930.19H1600.12C1600.12 933.49 1598.87 936.151 1596.37 938.173C1593.85 940.208 1590.54 941.225 1586.45 941.225C1582.09 941.225 1578.66 940.022 1576.14 937.615ZM1605.34 938.713C1603.27 937.038 1602.24 934.575 1602.24 931.325C1602.24 928.075 1603.27 925.612 1605.34 923.937C1607.4 922.263 1610.18 921.425 1613.68 921.425C1617.17 921.425 1619.94 922.263 1622 923.937C1624.07 925.612 1625.11 928.075 1625.11 931.325C1625.11 934.575 1624.07 937.038 1622 938.713C1619.94 940.388 1617.17 941.225 1613.68 941.225C1610.18 941.225 1607.4 940.388 1605.34 938.713ZM1616.42 933.93C1617.05 933.285 1617.37 932.417 1617.37 931.325C1617.37 930.233 1617.05 929.359 1616.42 928.701C1615.78 928.056 1614.87 927.734 1613.68 927.734C1612.48 927.734 1611.56 928.056 1610.93 928.701C1610.29 929.359 1609.98 930.233 1609.98 931.325C1609.98 932.417 1610.29 933.285 1610.93 933.93C1611.56 934.588 1612.48 934.917 1613.68 934.917C1614.87 934.917 1615.78 934.588 1616.42 933.93ZM1650.43 940.853H1642.81V931.66C1642.81 930.581 1642.49 929.719 1641.85 929.073C1641.2 928.416 1640.32 928.087 1639.19 928.087C1638.03 928.087 1637.14 928.41 1636.51 929.055C1635.89 929.688 1635.58 930.556 1635.58 931.66V940.853H1627.95V921.797H1635.58V925.221H1635.95C1636.04 924.924 1636.32 924.477 1636.8 923.882C1637.14 923.472 1637.55 923.094 1638.03 922.746C1638.57 922.387 1639.26 922.077 1640.12 921.816C1640.97 921.556 1641.87 921.425 1642.81 921.425C1645.17 921.425 1647.03 922.089 1648.4 923.416C1649.75 924.756 1650.43 926.76 1650.43 929.427V940.853ZM1668.6 922.56V928.273H1663.24V940.853H1655.61V928.273H1652.15V924.086L1655.61 922.56V922.095C1655.61 919.267 1656.44 917.176 1658.1 915.824C1659.78 914.472 1662.38 913.796 1665.9 913.796C1666.69 913.796 1667.46 913.87 1668.19 914.019C1668.93 914.155 1669.49 914.31 1669.86 914.484L1670.33 914.745V920.495C1669.46 919.961 1668.44 919.695 1667.28 919.695C1664.59 919.695 1663.24 920.6 1663.24 922.412V922.56H1668.6Z" fill="black"/>
<path d="M1582.84 962.853H1571.37V960.361C1571.37 959.776 1571.5 959.258 1571.77 958.806C1572.05 958.349 1572.41 957.981 1572.88 957.703C1573.67 957.228 1574.7 956.817 1575.97 956.47C1576.33 956.372 1576.64 956.285 1576.89 956.21C1577.14 956.128 1577.41 956.027 1577.69 955.906C1577.97 955.784 1578.2 955.66 1578.37 955.532C1578.53 955.405 1578.67 955.251 1578.78 955.072C1578.89 954.892 1578.95 954.698 1578.95 954.49C1578.95 953.743 1578.39 953.37 1577.28 953.37C1576.16 953.37 1575.6 953.862 1575.6 954.846V955.506H1571.69V954.846C1571.69 953.237 1572.14 952.061 1573.06 951.32C1573.97 950.591 1575.37 950.226 1577.27 950.226C1579.15 950.226 1580.55 950.576 1581.47 951.277C1582.39 951.977 1582.86 953.048 1582.86 954.49C1582.86 955.295 1582.62 956.004 1582.14 956.618C1581.67 957.226 1581.09 957.692 1580.4 958.016C1579.75 958.317 1579.07 958.583 1578.37 958.815C1577.77 959.006 1577.19 959.188 1576.63 959.362C1576.15 959.518 1575.91 959.674 1575.91 959.831H1582.84V962.853ZM1594.84 951.946C1595.93 953.098 1596.47 954.658 1596.47 956.626C1596.47 958.601 1595.93 960.158 1594.84 961.298C1593.76 962.45 1592.26 963.027 1590.33 963.027C1588.41 963.027 1586.9 962.45 1585.82 961.298C1584.73 960.146 1584.19 958.589 1584.19 956.626C1584.19 954.664 1584.73 953.103 1585.82 951.946C1586.91 950.799 1588.41 950.226 1590.33 950.226C1592.26 950.226 1593.76 950.799 1594.84 951.946ZM1590.33 953.552C1588.96 953.552 1588.28 954.577 1588.28 956.626C1588.28 958.682 1588.96 959.709 1590.33 959.709C1591.69 959.709 1592.37 958.682 1592.37 956.626C1592.37 954.577 1591.69 953.552 1590.33 953.552ZM1609.18 962.853H1597.71V960.361C1597.71 959.776 1597.84 959.258 1598.11 958.806C1598.39 958.349 1598.75 957.981 1599.22 957.703C1600.01 957.228 1601.04 956.817 1602.31 956.47C1602.67 956.372 1602.98 956.285 1603.23 956.21C1603.48 956.128 1603.75 956.027 1604.03 955.906C1604.31 955.784 1604.54 955.66 1604.71 955.532C1604.87 955.405 1605.01 955.251 1605.12 955.072C1605.23 954.892 1605.29 954.698 1605.29 954.49C1605.29 953.743 1604.73 953.37 1603.62 953.37C1602.5 953.37 1601.94 953.862 1601.94 954.846V955.506H1598.03V954.846C1598.03 953.237 1598.48 952.061 1599.4 951.32C1600.31 950.591 1601.71 950.226 1603.61 950.226C1605.49 950.226 1606.89 950.576 1607.81 951.277C1608.73 951.977 1609.2 953.048 1609.2 954.49C1609.2 955.295 1608.96 956.004 1608.48 956.618C1608.01 957.226 1607.43 957.692 1606.74 958.016C1606.09 958.317 1605.41 958.583 1604.71 958.815C1604.11 959.006 1603.53 959.188 1602.97 959.362C1602.49 959.518 1602.25 959.674 1602.25 959.831H1609.18V962.853ZM1617.16 954.49C1618.63 954.49 1619.79 954.823 1620.63 955.489C1621.46 956.16 1621.88 957.185 1621.88 958.563C1621.88 960.028 1621.41 961.139 1620.46 961.898C1619.53 962.65 1618.14 963.027 1616.29 963.027C1614.47 963.027 1613.08 962.673 1612.14 961.967C1611.19 961.261 1610.71 960.251 1610.71 958.936H1614.62C1614.61 958.948 1614.61 958.98 1614.62 959.032C1614.63 959.084 1614.67 959.159 1614.72 959.258C1614.78 959.35 1614.86 959.437 1614.97 959.518C1615.26 959.727 1615.7 959.831 1616.29 959.831C1616.86 959.831 1617.28 959.727 1617.55 959.518C1617.83 959.304 1617.97 958.986 1617.96 958.563C1617.96 958.134 1617.81 957.81 1617.52 957.59C1617.22 957.364 1616.82 957.252 1616.29 957.252C1615.73 957.252 1615.32 957.321 1615.06 957.46C1614.84 957.582 1614.7 957.694 1614.66 957.799L1614.62 957.877H1610.71V950.4H1621.03V953.431H1614.51V955.028H1614.6C1614.65 954.982 1614.73 954.933 1614.84 954.881C1614.93 954.823 1615.21 954.742 1615.65 954.638C1616.11 954.539 1616.61 954.49 1617.16 954.49Z" fill="#FF4140"/>
<path fill-rule="evenodd" clip-rule="evenodd" d="M1503.4 853.344C1510.33 852.877 1513.8 852.643 1516.55 853.841C1518.98 854.894 1521.01 856.7 1522.38 859.004C1523.94 861.622 1524.22 865.175 1524.78 872.279L1531.48 957.358C1532.13 965.525 1532.45 969.609 1531.07 972.683C1529.85 975.381 1527.77 977.566 1525.16 978.869C1522.2 980.354 1518.21 980.112 1510.23 979.628L1424.02 974.396C1417.21 973.983 1413.81 973.776 1411.25 972.275C1409 970.955 1407.2 968.952 1406.1 966.542C1404.85 963.804 1404.93 960.309 1405.08 953.319L1406.74 878.714C1406.89 872.047 1406.96 868.713 1408.24 866.109C1409.37 863.816 1411.14 861.92 1413.33 860.665C1415.81 859.24 1419.06 859.022 1425.54 858.585L1503.4 853.344Z" fill="white"/>
<path d="M1437.32 941.2H1421.77V891.764H1464.41V903.796H1437.32V913.586H1459.48V924.894H1437.32V941.2Z" fill="black"/>
<path d="M1471.71 935.201C1467.07 930.766 1464.74 924.526 1464.74 916.482C1464.74 908.415 1467.07 902.164 1471.71 897.728C1476.35 893.293 1482.72 891.075 1490.81 891.075C1498.39 891.075 1504.52 892.959 1509.18 896.729C1513.82 900.475 1516.14 905.416 1516.14 911.552H1500.05C1500.05 910.932 1499.83 910.081 1499.39 909.001C1499.07 908.197 1498.6 907.45 1497.98 906.76C1497.31 906.071 1496.34 905.485 1495.08 905.002C1493.82 904.52 1492.39 904.278 1490.81 904.278C1484.26 904.278 1480.98 908.346 1480.98 916.482C1480.98 924.641 1484.26 928.72 1490.81 928.72C1492.44 928.72 1493.87 928.479 1495.12 927.996C1496.38 927.514 1497.33 926.893 1497.98 926.135C1499.19 924.756 1499.86 923.423 1499.98 922.136L1500.05 921.446H1516.14C1516.14 927.56 1513.82 932.489 1509.18 936.236C1504.52 940.005 1498.39 941.889 1490.81 941.889C1482.74 941.889 1476.37 939.66 1471.71 935.201Z" fill="black"/>
</g>
<defs>
<clipPath id="clip0_1_30">
<rect width="1920" height="1080" fill="white"/>
</clipPath>
</defs>
</svg>
