<svg fill="none" stroke-linecap="square" stroke-miterlimit="10" width="1129" height="180" xmlns="http://www.w3.org/2000/svg"><path fill="#fff" d="M0 0h1129v180H0V0z"/><path stroke="#333" stroke-linecap="butt" d="M188.5 9.5v141"/><path stroke="#ccc" stroke-linecap="butt" d="M291.5 9.5v141m104-141v141m103-141v141m104-141v141m103-141v141m104-141v141m103-141v141m104-141v141m104-141v141"/><clipPath id="a"><path d="M188 9h932v141H188V9z"/></clipPath><path clip-path="url(#a)" d="M188 70V31h36a2 2 0 0 1 2 2v35a2 2 0 0 1-2 2z"/><path fill="#36c" clip-path="url(#a)" d="M188 70V31h36a2 2 0 0 1 2 2v35a2 2 0 0 1-2 2z"/><path clip-path="url(#a)" d="M188 130V91h738a2 2 0 0 1 2 2v35a2 2 0 0 1-2 2z"/><path fill="#36c" clip-path="url(#a)" d="M188 130V91h738a2 2 0 0 1 2 2v35a2 2 0 0 1-2 2z"/><path stroke="#36c" stroke-width="3" stroke-linejoin="round" stroke-linecap="round" d="M213.217 46.578l-3.532 7.922h-1.14l3.515-7.64h-4.61v-.891h5.767v.61zm3.062 3.125h.813q.78-.016 1.218-.406.438-.39.438-1.063 0-1.5-1.5-1.5-.703 0-1.125.407-.406.406-.406 1.062h-1.094q0-1.016.734-1.687.75-.672 1.89-.672 1.204 0 1.891.64.688.641.688 1.782 0 .562-.36 1.078-.359.515-.984.781.703.219 1.078.734.39.516.39 1.266 0 1.14-.75 1.828-.75.672-1.952.672-1.188 0-1.953-.656-.75-.657-.75-1.719h1.093q0 .672.438 1.078.437.406 1.187.406.782 0 1.188-.406.422-.422.422-1.187 0-.735-.453-1.125-.453-.407-1.328-.422h-.813v-.89z"/><path fill="#fff" d="M213.217 46.578l-3.532 7.922h-1.14l3.515-7.64h-4.61v-.891h5.767v.61zm3.062 3.125h.813q.78-.016 1.218-.406.438-.39.438-1.063 0-1.5-1.5-1.5-.703 0-1.125.407-.406.406-.406 1.062h-1.094q0-1.016.734-1.687.75-.672 1.89-.672 1.204 0 1.891.64.688.641.688 1.782 0 .562-.36 1.078-.359.515-.984.781.703.219 1.078.734.39.516.39 1.266 0 1.14-.75 1.828-.75.672-1.952.672-1.188 0-1.953-.656-.75-.657-.75-1.719h1.093q0 .672.438 1.078.437.406 1.187.406.782 0 1.188-.406.422-.422.422-1.187 0-.735-.453-1.125-.453-.407-1.328-.422h-.813v-.89z"/><path stroke="#36c" stroke-width="3" stroke-linejoin="round" stroke-linecap="round" d="M899.37 114.5h-1.078v-7.219l-2.188.797v-.984l3.11-1.172h.156v8.578zm8.016-2.86h1.187v.876h-1.187v1.984h-1.078v-1.984h-3.891v-.641l3.812-5.906h1.157v5.672zm-3.735 0h2.657v-4.187l-.141.234-2.516 3.954zm11.75 2.86h-5.593v-.781l2.953-3.281q.656-.75.906-1.204.25-.468.25-.968 0-.672-.406-1.094-.39-.438-1.078-.438-.797 0-1.25.47-.454.452-.454 1.28h-1.078q0-1.187.75-1.906.766-.734 2.032-.734 1.203 0 1.89.625.688.625.688 1.672 0 1.25-1.61 3l-2.28 2.468h4.28v.891zm5.563-3.75q-.328.406-.813.656-.468.235-1.03.235-.735 0-1.282-.36t-.844-1.015q-.297-.672-.297-1.47 0-.843.313-1.53.328-.688.922-1.047.609-.375 1.406-.375 1.265 0 1.984.953.735.953.735 2.578v.313q0 2.5-.985 3.64-.984 1.14-2.969 1.172h-.218v-.906h.234q1.344-.031 2.063-.703.718-.672.78-2.141zm-1.672 0q.547 0 1-.328.469-.344.687-.828v-.438q0-1.062-.468-1.734-.47-.672-1.172-.672-.719 0-1.156.547-.422.547-.422 1.453 0 .875.406 1.438.422.562 1.125.562z"/><path fill="#fff" d="M899.37 114.5h-1.078v-7.219l-2.188.797v-.984l3.11-1.172h.156v8.578zm8.016-2.86h1.187v.876h-1.187v1.984h-1.078v-1.984h-3.891v-.641l3.812-5.906h1.157v5.672zm-3.735 0h2.657v-4.187l-.141.234-2.516 3.954zm11.75 2.86h-5.593v-.781l2.953-3.281q.656-.75.906-1.204.25-.468.25-.968 0-.672-.406-1.094-.39-.438-1.078-.438-.797 0-1.25.47-.454.452-.454 1.28h-1.078q0-1.187.75-1.906.766-.734 2.032-.734 1.203 0 1.89.625.688.625.688 1.672 0 1.25-1.61 3l-2.28 2.468h4.28v.891zm5.563-3.75q-.328.406-.813.656-.468.235-1.03.235-.735 0-1.282-.36t-.844-1.015q-.297-.672-.297-1.47 0-.843.313-1.53.328-.688.922-1.047.609-.375 1.406-.375 1.265 0 1.984.953.735.953.735 2.578v.313q0 2.5-.985 3.64-.984 1.14-2.969 1.172h-.218v-.906h.234q1.344-.031 2.063-.703.718-.672.78-2.141zm-1.672 0q.547 0 1-.328.469-.344.687-.828v-.438q0-1.062-.468-1.734-.47-.672-1.172-.672-.719 0-1.156.547-.422.547-.422 1.453 0 .875.406 1.438.422.562 1.125.562z"/><path fill="#757575" d="M12.266 43.625l3.718 9.281 3.72-9.281h1.937V55h-1.5v-4.438l.14-4.78L16.547 55h-1.14l-3.735-9.188.156 4.75V55h-1.5V43.625h1.938zM29.313 55q-.125-.25-.204-.89-1 1.046-2.406 1.046-1.25 0-2.047-.703-.797-.719-.797-1.797 0-1.328 1-2.047 1-.734 2.828-.734h1.407v-.672q0-.75-.453-1.203-.453-.453-1.344-.453-.766 0-1.297.39-.516.391-.516.954h-1.453q0-.641.438-1.22.453-.593 1.218-.937.782-.343 1.704-.343 1.453 0 2.28.734.829.719.86 2v3.89q0 1.172.297 1.86V55h-1.515zm-2.391-1.11q.672 0 1.281-.343.61-.36.89-.922v-1.734h-1.14q-2.656 0-2.656 1.562 0 .672.453 1.063.453.375 1.172.375zm9.562.079q.782 0 1.36-.469.578-.469.64-1.172h1.36q-.032.734-.5 1.39-.453.657-1.235 1.048-.765.39-1.625.39-1.718 0-2.75-1.156-1.015-1.156-1.015-3.156v-.235q0-1.234.453-2.187.453-.969 1.297-1.5.86-.531 2.015-.531 1.422 0 2.36.859.937.844 1 2.203h-1.36q-.062-.828-.625-1.344-.562-.53-1.375-.53-1.109 0-1.718.796-.594.781-.594 2.281v.282q0 1.453.594 2.25.609.78 1.718.78zm11.766-3.11q0 1.938-.89 3.125-.891 1.172-2.391 1.172-1.594 0-2.469-1.14l-.078.984h-1.328V43h1.453v4.469q.875-1.078 2.406-1.078 1.547 0 2.422 1.172.875 1.156.875 3.171v.125zm-1.438-.156q0-1.484-.578-2.281-.562-.813-1.64-.813-1.422 0-2.047 1.328v3.657q.656 1.328 2.062 1.328 1.047 0 1.625-.797.578-.813.578-2.422zm2.907-.016q0-1.234.484-2.218.484-1 1.36-1.532.874-.546 1.984-.546 1.734 0 2.797 1.203 1.062 1.187 1.062 3.172v.093q0 1.235-.468 2.22-.47.983-1.36 1.53-.875.547-2.016.547-1.718 0-2.78-1.187-1.063-1.203-1.063-3.172v-.11zm1.453.172q0 1.407.64 2.266.657.844 1.75.844 1.11 0 1.75-.86.657-.859.657-2.422 0-1.39-.672-2.25-.656-.859-1.75-.859-1.063 0-1.719.86-.656.843-.656 2.421zm7.547-.172q0-1.234.484-2.218.484-1 1.36-1.532.874-.546 1.984-.546 1.734 0 2.797 1.203 1.062 1.187 1.062 3.172v.093q0 1.235-.469 2.22-.468.983-1.359 1.53-.875.547-2.016.547-1.718 0-2.78-1.187-1.063-1.203-1.063-3.172v-.11zm1.453.172q0 1.407.64 2.266.657.844 1.75.844 1.11 0 1.75-.86.657-.859.657-2.422 0-1.39-.672-2.25-.656-.859-1.75-.859-1.063 0-1.719.86-.656.843-.656 2.421zm10.281.22l-.906.952V55h-1.438V43h1.438v7.25l.781-.922 2.625-2.781h1.766l-3.297 3.531L75.094 55h-1.688l-2.953-3.922zm11.375-.532V55h-1.5V43.625h4.188q1.875 0 2.921.953 1.063.953 1.063 2.516 0 1.656-1.031 2.562-1.031.89-2.969.89h-2.672zm0-1.234h2.688q1.203 0 1.843-.563.641-.563.641-1.64 0-1.016-.64-1.626-.641-.609-1.75-.625h-2.782v4.453zm12.36-1.47q-.329-.062-.72-.062-1.421 0-1.921 1.219v6h-1.453v-8.453H91.5l.031.969q.703-1.125 2.016-1.125.422 0 .64.109v1.344zm.53 2.844q0-1.234.485-2.218.484-1 1.36-1.532.874-.546 1.984-.546 1.734 0 2.797 1.203 1.062 1.187 1.062 3.172v.093q0 1.235-.469 2.22-.468.983-1.359 1.53-.875.547-2.016.547-1.718 0-2.78-1.187-1.063-1.203-1.063-3.172v-.11zm1.454.172q0 1.407.64 2.266.657.844 1.75.844 1.11 0 1.75-.86.657-.859.657-2.422 0-1.39-.672-2.25-.656-.859-1.75-.859-1.063 0-1.719.86-.656.843-.656 2.421zm14.937-.109h-3.812v-1.172h3.812v1.172zm8.563-.828q-1.922-.547-2.813-1.36-.875-.812-.875-2 0-1.343 1.079-2.218 1.078-.875 2.796-.875 1.172 0 2.079.453.921.453 1.421 1.25.516.797.516 1.734h-1.516q0-1.031-.656-1.61-.656-.593-1.844-.593-1.109 0-1.734.484-.625.485-.625 1.36 0 .687.594 1.172.594.484 2 .89 1.422.391 2.219.875.812.47 1.187 1.11.39.64.39 1.515 0 1.375-1.078 2.22-1.078.827-2.874.827-1.172 0-2.188-.453-1.016-.453-1.578-1.234-.547-.782-.547-1.766h1.516q0 1.031.75 1.625.765.594 2.046.594 1.188 0 1.813-.484.64-.485.64-1.313 0-.844-.593-1.297-.578-.453-2.125-.906zM131.312 55q-.125-.25-.203-.89-1 1.046-2.406 1.046-1.25 0-2.047-.703-.797-.719-.797-1.797 0-1.328 1-2.047 1-.734 2.829-.734h1.406v-.672q0-.75-.453-1.203-.453-.453-1.344-.453-.766 0-1.297.39-.516.391-.516.954h-1.453q0-.641.438-1.22.453-.593 1.219-.937.78-.343 1.703-.343 1.453 0 2.28.734.829.719.86 2v3.89q0 1.172.297 1.86V55h-1.516zm-2.39-1.11q.672 0 1.281-.343.61-.36.89-.922v-1.734h-1.14q-2.656 0-2.656 1.562 0 .672.453 1.063.453.375 1.172.375zm6.89 1.11v-7.344h-1.343v-1.11h1.344v-.874q0-1.36.718-2.094.735-.75 2.063-.75.5 0 .984.14l-.078 1.173q-.36-.078-.781-.078-.703 0-1.094.421-.375.407-.375 1.172v.89h1.813v1.11h-1.813V55h-1.438zm10.5 0q-.125-.25-.203-.89-1 1.046-2.406 1.046-1.25 0-2.047-.703-.797-.719-.797-1.797 0-1.328 1-2.047 1-.734 2.828-.734h1.407v-.672q0-.75-.453-1.203-.453-.453-1.344-.453-.766 0-1.297.39-.516.391-.516.954h-1.453q0-.641.438-1.22.453-.593 1.219-.937.78-.343 1.703-.343 1.453 0 2.28.734.829.719.86 2v3.89q0 1.172.297 1.86V55h-1.516zm-2.39-1.11q.672 0 1.281-.343.61-.36.89-.922v-1.734h-1.14q-2.656 0-2.656 1.562 0 .672.453 1.063.453.375 1.172.375zm10.266-6.046q-.329-.063-.72-.063-1.421 0-1.921 1.219v6h-1.453v-8.453h1.406l.031.969q.703-1.125 2.016-1.125.422 0 .64.109v1.344zM156.672 55h-1.453v-8.453h1.453V55zm-1.563-10.703q0-.344.203-.578.22-.25.641-.25.422 0 .64.25.22.234.22.593 0 .344-.22.579-.218.234-.64.234-.422 0-.64-.234-.204-.235-.204-.594zM167.703 55h-1.453v-9.64l-2.922 1.078v-1.313l4.14-1.563h.235V55zm11.375-4.86q0 2.547-.875 3.782-.86 1.234-2.703 1.234-1.813 0-2.688-1.203-.875-1.219-.906-3.61v-1.937q0-2.5.86-3.718.875-1.22 2.718-1.22 1.844 0 2.703 1.173.875 1.172.891 3.625v1.875zm-1.437-1.968q0-1.844-.516-2.672-.516-.844-1.64-.844-1.11 0-1.626.844-.5.828-.515 2.563v2.312q0 1.844.531 2.719.547.875 1.625.875 1.078 0 1.594-.828.515-.828.547-2.61v-2.36zM33.266 103.625l3.718 9.281 3.72-9.281h1.937V115h-1.5v-4.438l.14-4.78L37.547 115h-1.14l-3.735-9.188.156 4.75V115h-1.5v-11.375h1.938zm11.453 7.063q0-1.235.484-2.22.484-1 1.36-1.53.874-.547 1.984-.547 1.734 0 2.797 1.203 1.062 1.187 1.062 3.172v.093q0 1.235-.468 2.22-.47.984-1.36 1.53-.875.547-2.016.547-1.718 0-2.78-1.187-1.063-1.203-1.063-3.172v-.11zm1.453.171q0 1.407.64 2.266.657.844 1.75.844 1.11 0 1.75-.86.657-.859.657-2.421 0-1.391-.672-2.25-.656-.86-1.75-.86-1.063 0-1.719.86-.656.843-.656 2.421zm9.89-6.359v2.047h1.579v1.11h-1.578v5.25q0 .5.203.765.218.25.718.25.25 0 .688-.094V115q-.563.156-1.11.156-.968 0-1.468-.578-.485-.594-.485-1.672v-5.25h-1.53v-1.11h1.53V104.5h1.453zm2.657 6.188q0-1.235.484-2.22.484-1 1.36-1.53.874-.547 1.984-.547 1.734 0 2.797 1.203 1.062 1.187 1.062 3.172v.093q0 1.235-.469 2.22-.468.984-1.359 1.53-.875.547-2.016.547-1.718 0-2.78-1.187-1.063-1.203-1.063-3.172v-.11zm1.453.171q0 1.407.64 2.266.657.844 1.75.844 1.11 0 1.75-.86.657-.859.657-2.421 0-1.391-.672-2.25-.656-.86-1.75-.86-1.063 0-1.719.86-.656.843-.656 2.421zm20.547 2.641q-.578.828-1.61 1.25-1.03.406-2.406.406-1.39 0-2.469-.656-1.078-.656-1.671-1.86-.594-1.203-.61-2.78v-1q0-2.563 1.203-3.97 1.203-1.421 3.375-1.421 1.781 0 2.86.906 1.093.906 1.328 2.578h-1.5q-.422-2.25-2.688-2.25-1.5 0-2.281 1.063-.781 1.046-.781 3.062v.922q0 1.922.875 3.047.875 1.125 2.36 1.125.843 0 1.468-.188.64-.187 1.062-.625v-2.562h-2.64v-1.219h4.125v4.172zm8.328-2.328h1.578v1.187h-1.578V115h-1.453v-2.64h-5.172v-.86l5.094-7.875h1.53v7.547zm-4.984 0h3.53v-5.578l-.171.312-3.36 5.266zm15.046-.422h-3.812v-1.172h3.812v1.172zm13.579.64q-.204 1.797-1.329 2.782-1.125.984-2.984.984-2.016 0-3.234-1.437-1.204-1.453-1.204-3.875v-1.094q0-1.594.563-2.797t1.594-1.844q1.047-.64 2.422-.64 1.812 0 2.906 1.015 1.094 1 1.266 2.797h-1.5q-.204-1.36-.86-1.969-.64-.609-1.812-.609-1.438 0-2.266 1.063-.813 1.062-.813 3.015v1.11q0 1.843.766 2.937.781 1.094 2.172 1.094 1.25 0 1.922-.563.672-.562.89-1.968h1.5zm2.859-3.828q.953-1.171 2.5-1.171 2.672 0 2.703 3.015V115h-1.453v-5.594q0-.922-.422-1.36-.406-.437-1.266-.437-.703 0-1.234.375t-.828.985V115h-1.453v-12h1.453v4.563zm11.64.282q-.328-.063-.718-.063-1.422 0-1.922 1.219v6h-1.453v-8.453h1.406l.031.969q.703-1.125 2.016-1.125.422 0 .64.109v1.344zm.532 2.844q0-1.235.484-2.22.484-1 1.36-1.53.875-.547 1.984-.547 1.734 0 2.797 1.203 1.062 1.187 1.062 3.172v.093q0 1.235-.469 2.22-.468.984-1.359 1.53-.875.547-2.016.547-1.718 0-2.78-1.187-1.063-1.203-1.063-3.172v-.11zm1.453.171q0 1.407.64 2.266.657.844 1.75.844 1.11 0 1.75-.86.657-.859.657-2.421 0-1.391-.672-2.25-.656-.86-1.75-.86-1.063 0-1.719.86-.656.843-.656 2.421zm9.281-4.312l.047.937q.922-1.093 2.5-1.093 1.781 0 2.422 1.359.422-.61 1.094-.984.672-.375 1.593-.375 2.782 0 2.828 2.937V115H147.5v-5.578q0-.906-.422-1.36-.406-.453-1.39-.453-.797 0-1.329.485-.53.484-.625 1.297V115h-1.453v-5.547q0-1.844-1.797-1.844-1.422 0-1.953 1.22V115h-1.437v-8.453h1.36zm16.156 8.61q-1.718 0-2.797-1.126-1.078-1.14-1.078-3.031v-.266q0-1.25.47-2.234.483-1 1.343-1.547.875-.562 1.875-.562 1.656 0 2.562 1.093.922 1.079.922 3.094v.61h-5.734q.031 1.25.734 2.015.703.766 1.781.766.766 0 1.297-.313.532-.312.922-.828l.89.688q-1.062 1.64-3.187 1.64zm-.187-7.579q-.875 0-1.469.64-.594.626-.734 1.782h4.234v-.11q-.062-1.109-.594-1.703-.53-.609-1.437-.609zm9.187 1.719l.578-5.672h5.829v1.328h-4.594l-.344 3.11q.828-.5 1.89-.5 1.563 0 2.47 1.03.921 1.032.921 2.782t-.953 2.766q-.953 1.015-2.656 1.015-1.5 0-2.453-.828-.953-.844-1.094-2.328h1.375q.125.984.688 1.484.562.485 1.484.485 1.016 0 1.578-.688.578-.687.578-1.89 0-1.141-.625-1.829-.61-.703-1.64-.703-.953 0-1.485.422l-.39.313-1.157-.297zm9 0l.578-5.672h5.829v1.328h-4.594l-.344 3.11q.828-.5 1.89-.5 1.563 0 2.47 1.03.921 1.032.921 2.782t-.953 2.766q-.953 1.015-2.656 1.015-1.5 0-2.453-.828-.953-.844-1.094-2.328h1.375q.125.984.688 1.484.562.485 1.484.485 1.016 0 1.578-.688.578-.687.578-1.89 0-1.141-.625-1.829-.61-.703-1.64-.703-.953 0-1.485.422l-.39.313-1.157-.297zm17.953 55.062q0 1.907-.656 2.844-.64.922-2.031.922-1.36 0-2.016-.906-.656-.906-.687-2.719v-1.438q0-1.89.64-2.796.657-.922 2.047-.922 1.375 0 2.032.89.656.875.672 2.72v1.405zm-1.093-1.484q0-1.375-.39-2-.376-.64-1.22-.64-.828 0-1.218.64-.375.625-.375 1.922v1.734q0 1.375.39 2.047.406.656 1.219.656.797 0 1.188-.625.39-.625.406-1.953v-1.781zM287.352 168h-5.593v-.781l2.953-3.281q.656-.75.906-1.204.25-.468.25-.968 0-.672-.406-1.094-.39-.438-1.078-.438-.797 0-1.25.47-.453.452-.453 1.28h-1.079q0-1.187.75-1.906.766-.734 2.032-.734 1.203 0 1.89.625.688.625.688 1.672 0 1.25-1.61 3l-2.28 2.468h4.28V168zm6.766-3.64q0 1.906-.656 2.843-.64.922-2.031.922-1.36 0-2.016-.906-.656-.906-.688-2.719v-1.438q0-1.89.641-2.796.656-.922 2.047-.922 1.375 0 2.031.89.656.875.672 2.72v1.405zm-1.094-1.485q0-1.375-.39-2-.375-.64-1.22-.64-.827 0-1.218.64-.375.625-.375 1.922v1.734q0 1.375.39 2.047.407.656 1.22.656.796 0 1.187-.625.39-.625.406-1.953v-1.781zm8.094 1.484q0 1.907-.656 2.844-.64.922-2.031.922-1.36 0-2.016-.906-.656-.906-.688-2.719v-1.438q0-1.89.641-2.796.656-.922 2.047-.922 1.375 0 2.031.89.656.875.672 2.72v1.405zm-1.094-1.484q0-1.375-.39-2-.375-.64-1.22-.64-.827 0-1.218.64-.375.625-.375 1.922v1.734q0 1.375.39 2.047.407.656 1.22.656.796 0 1.187-.625.39-.625.406-1.953v-1.781zm89.868 2.266h1.188v.875h-1.188V168h-1.078v-1.984h-3.89v-.641l3.812-5.906h1.156v5.672zm-3.734 0h2.656v-4.188l-.14.234-2.516 3.954zm11.516-.782q0 1.907-.657 2.844-.64.922-2.03.922-1.36 0-2.017-.906-.656-.906-.687-2.719v-1.438q0-1.89.64-2.796.657-.922 2.048-.922 1.375 0 2.03.89.657.875.673 2.72v1.405zm-1.094-1.484q0-1.375-.39-2-.376-.64-1.22-.64-.828 0-1.218.64-.375.625-.375 1.922v1.734q0 1.375.39 2.047.407.656 1.22.656.796 0 1.187-.625.39-.625.406-1.953v-1.781zm8.094 1.484q0 1.907-.657 2.844-.64.922-2.03.922-1.36 0-2.017-.906-.656-.906-.687-2.719v-1.438q0-1.89.64-2.796.657-.922 2.048-.922 1.375 0 2.03.89.657.875.673 2.72v1.405zm-1.094-1.484q0-1.375-.39-2-.376-.64-1.22-.64-.828 0-1.218.64-.375.625-.375 1.922v1.734q0 1.375.39 2.047.407.656 1.22.656.796 0 1.187-.625.39-.625.406-1.953v-1.781zm89.555-3.406v.906h-.203q-1.265.031-2.015.766-.75.718-.875 2.03.687-.765 1.843-.765 1.11 0 1.782.781.672.782.672 2.032 0 1.312-.72 2.11-.718.796-1.937.796-1.218 0-1.984-.938-.75-.953-.75-2.437v-.406q0-2.36 1-3.61t2.984-1.265h.203zm-1.421 3.844q-.563 0-1.032.328-.468.328-.656.843v.391q0 1.063.469 1.703.484.64 1.187.64.735 0 1.157-.53.421-.547.421-1.422 0-.875-.421-1.407-.422-.547-1.125-.547zm9.515 1.046q0 1.907-.656 2.844-.64.922-2.031.922-1.36 0-2.016-.906-.656-.906-.687-2.719v-1.438q0-1.89.64-2.796.656-.922 2.047-.922 1.375 0 2.031.89.657.875.672 2.72v1.405zm-1.094-1.484q0-1.375-.39-2-.375-.64-1.219-.64-.828 0-1.219.64-.375.625-.375 1.922v1.734q0 1.375.39 2.047.407.656 1.22.656.797 0 1.187-.625t.406-1.953v-1.781zm8.094 1.484q0 1.907-.656 2.844-.64.922-2.031.922-1.36 0-2.016-.906-.656-.906-.687-2.719v-1.438q0-1.89.64-2.796.656-.922 2.047-.922 1.375 0 2.031.89.657.875.672 2.72v1.405zm-1.094-1.484q0-1.375-.39-2-.375-.64-1.219-.64-.828 0-1.219.64-.375.625-.375 1.922v1.734q0 1.375.39 2.047.407.656 1.22.656.797 0 1.187-.625t.406-1.953v-1.781zm90.478-1.188q0 .641-.344 1.141t-.906.781q.656.282 1.047.844.39.547.39 1.25 0 1.094-.75 1.766-.734.656-1.953.656-1.234 0-1.984-.656-.735-.672-.735-1.766 0-.703.375-1.25.375-.562 1.047-.844-.562-.28-.89-.78-.328-.5-.328-1.142 0-1.078.687-1.703.688-.64 1.828-.64 1.125 0 1.813.64.703.625.703 1.703zm-.89 3.985q0-.719-.454-1.156-.453-.453-1.187-.453-.735 0-1.188.453-.437.437-.437 1.172 0 .718.437 1.14.438.406 1.203.406.75 0 1.188-.422.437-.421.437-1.14zm-1.626-5.438q-.64 0-1.047.407-.39.39-.39 1.078 0 .64.39 1.047.391.406 1.032.406.656 0 1.047-.406.39-.407.39-1.047 0-.656-.406-1.063-.406-.422-1.016-.422zm9.688 4.125q0 1.907-.656 2.844-.641.922-2.032.922-1.36 0-2.015-.906-.657-.906-.688-2.719v-1.438q0-1.89.64-2.796.657-.922 2.048-.922 1.375 0 2.03.89.657.875.673 2.72v1.405zm-1.094-1.484q0-1.375-.39-2-.376-.64-1.22-.64-.827 0-1.218.64-.375.625-.375 1.922v1.734q0 1.375.39 2.047.407.656 1.22.656.796 0 1.187-.625.39-.625.406-1.953v-1.781zm8.094 1.484q0 1.907-.656 2.844-.641.922-2.032.922-1.36 0-2.015-.906-.657-.906-.688-2.719v-1.438q0-1.89.64-2.796.657-.922 2.048-.922 1.375 0 2.03.89.657.875.673 2.72v1.405zm-1.094-1.484q0-1.375-.39-2-.376-.64-1.22-.64-.827 0-1.218.64-.375.625-.375 1.922v1.734q0 1.375.39 2.047.407.656 1.22.656.796 0 1.187-.625.39-.625.406-1.953v-1.781zM696.043 168h-1.078v-7.219l-2.187.797v-.984l3.11-1.172h.155V168zm8.797-3.64q0 1.906-.656 2.843-.64.922-2.031.922-1.36 0-2.016-.906-.656-.906-.687-2.719v-1.438q0-1.89.64-2.796.656-.922 2.047-.922 1.375 0 2.031.89.657.875.672 2.72v1.405zm-1.094-1.485q0-1.375-.39-2-.375-.64-1.219-.64-.828 0-1.219.64-.375.625-.375 1.922v1.734q0 1.375.391 2.047.406.656 1.219.656.797 0 1.187-.625t.406-1.953v-1.781zm8.094 1.484q0 1.907-.656 2.844-.64.922-2.031.922-1.36 0-2.016-.906-.656-.906-.687-2.719v-1.438q0-1.89.64-2.796.656-.922 2.047-.922 1.375 0 2.031.89.657.875.672 2.72v1.405zm-1.094-1.484q0-1.375-.39-2-.375-.64-1.219-.64-.828 0-1.219.64-.375.625-.375 1.922v1.734q0 1.375.391 2.047.406.656 1.219.656.797 0 1.187-.625t.406-1.953v-1.781zm8.094 1.484q0 1.907-.656 2.844-.64.922-2.031.922-1.36 0-2.016-.906-.656-.906-.687-2.719v-1.438q0-1.89.64-2.796.656-.922 2.047-.922 1.375 0 2.031.89.657.875.672 2.72v1.405zm-1.094-1.484q0-1.375-.39-2-.375-.64-1.219-.64-.828 0-1.219.64-.375.625-.375 1.922v1.734q0 1.375.391 2.047.406.656 1.219.656.797 0 1.187-.625t.406-1.953v-1.781zM799.6 168h-1.078v-7.219l-2.188.797v-.984l3.11-1.172h.156V168zm9.031 0h-5.594v-.781l2.954-3.281q.656-.75.906-1.204.25-.468.25-.968 0-.672-.406-1.094-.391-.438-1.079-.438-.796 0-1.25.47-.453.452-.453 1.28h-1.078q0-1.187.75-1.906.766-.734 2.031-.734 1.204 0 1.891.625.688.625.688 1.672 0 1.25-1.61 3l-2.281 2.468h4.281V168zm6.766-3.64q0 1.906-.656 2.843-.641.922-2.032.922-1.36 0-2.015-.906-.657-.906-.688-2.719v-1.438q0-1.89.64-2.796.657-.922 2.048-.922 1.375 0 2.03.89.657.875.673 2.72v1.405zm-1.094-1.485q0-1.375-.39-2-.376-.64-1.22-.64-.827 0-1.218.64-.375.625-.375 1.922v1.734q0 1.375.39 2.047.407.656 1.22.656.796 0 1.187-.625.39-.625.406-1.953v-1.781zm8.094 1.484q0 1.907-.656 2.844-.641.922-2.032.922-1.36 0-2.015-.906-.657-.906-.688-2.719v-1.438q0-1.89.64-2.796.657-.922 2.048-.922 1.375 0 2.03.89.657.875.673 2.72v1.405zm-1.094-1.484q0-1.375-.39-2-.376-.64-1.22-.64-.827 0-1.218.64-.375.625-.375 1.922v1.734q0 1.375.39 2.047.407.656 1.22.656.796 0 1.187-.625.39-.625.406-1.953v-1.781zM903.155 168h-1.079v-7.219l-2.187.797v-.984l3.11-1.172h.156V168zm8.015-2.86h1.188v.876h-1.188V168h-1.078v-1.984h-3.89v-.641l3.812-5.906h1.156v5.672zm-3.734 0h2.656v-4.187l-.14.234-2.516 3.954zm11.515-.78q0 1.906-.656 2.843-.64.922-2.031.922-1.36 0-2.016-.906-.656-.906-.687-2.719v-1.438q0-1.89.64-2.796.657-.922 2.047-.922 1.375 0 2.032.89.656.875.671 2.72v1.405zm-1.093-1.485q0-1.375-.391-2-.375-.64-1.219-.64-.828 0-1.218.64-.375.625-.375 1.922v1.734q0 1.375.39 2.047.406.656 1.219.656.797 0 1.187-.625.391-.625.407-1.953v-1.781zm8.093 1.484q0 1.907-.656 2.844-.64.922-2.031.922-1.36 0-2.016-.906-.656-.906-.687-2.719v-1.438q0-1.89.64-2.796.657-.922 2.047-.922 1.375 0 2.032.89.656.875.671 2.72v1.405zm-1.093-1.484q0-1.375-.391-2-.375-.64-1.219-.64-.828 0-1.218.64-.375.625-.375 1.922v1.734q0 1.375.39 2.047.406.656 1.219.656.797 0 1.187-.625.391-.625.407-1.953v-1.781zM1006.71 168h-1.078v-7.219l-2.188.797v-.984l3.11-1.172h.156V168zm7.703-8.531v.906h-.203q-1.266.031-2.016.766-.75.718-.875 2.03.688-.765 1.844-.765 1.11 0 1.781.781.672.782.672 2.032 0 1.312-.718 2.11-.72.796-1.938.796-1.219 0-1.984-.938-.75-.953-.75-2.437v-.406q0-2.36 1-3.61t2.984-1.265h.203zm-1.422 3.844q-.562 0-1.03.328-.47.328-.657.843v.391q0 1.063.469 1.703.484.64 1.187.64.734 0 1.156-.53.422-.547.422-1.422 0-.875-.422-1.407-.422-.547-1.125-.547zm9.516 1.046q0 1.907-.656 2.844-.64.922-2.032.922-1.359 0-2.015-.906-.656-.906-.688-2.719v-1.438q0-1.89.641-2.796.656-.922 2.047-.922 1.375 0 2.031.89.656.875.672 2.72v1.405zm-1.094-1.484q0-1.375-.39-2-.375-.64-1.22-.64-.827 0-1.218.64-.375.625-.375 1.922v1.734q0 1.375.39 2.047.407.656 1.22.656.796 0 1.187-.625.39-.625.406-1.953v-1.781zm8.094 1.484q0 1.907-.656 2.844-.64.922-2.032.922-1.359 0-2.015-.906-.656-.906-.688-2.719v-1.438q0-1.89.641-2.796.656-.922 2.047-.922 1.375 0 2.031.89.656.875.672 2.72v1.405zm-1.094-1.484q0-1.375-.39-2-.375-.64-1.22-.64-.827 0-1.218.64-.375.625-.375 1.922v1.734q0 1.375.39 2.047.407.656 1.22.656.796 0 1.187-.625.39-.625.406-1.953v-1.781z"/></svg>