<svg height="444" width="463" xmlns="http://www.w3.org/2000/svg"><defs><style>.cls-1{isolation:isolate}.cls-2{fill:#337361}.cls-3{fill:#194041;opacity:.58}.cls-4{fill:#295f4f}.cls-5{fill:#e63d31}.cls-6{fill:#d6aa75}.cls-7{fill:#592f26}.cls-8{fill:#fff2e3}.cls-20,.cls-9{fill:#754c28}.cls-14,.cls-16,.cls-19,.cls-9{opacity:.2}.cls-10,.cls-14,.cls-19,.cls-25,.cls-9{mix-blend-mode:multiply}.cls-10{fill:#68634d;opacity:.51}.cls-11{fill:#723d2e}.cls-12{fill:#7c4c1f}.cls-13{fill:#929497}.cls-14,.cls-16{fill:#231f20}.cls-15{fill:#fff}.cls-17{fill:#37b34a}.cls-18{fill:#2d4c42}.cls-21{fill:#f6921e}.cls-22{fill:#ffdd15}.cls-23,.cls-24{fill:#f05a28}.cls-23{opacity:.5}.cls-24{opacity:.72}.cls-25{opacity:.1}.cls-26{fill:#e53e31}</style></defs><g class="cls-1"><g id="Layer_1" data-name="Layer 1"><path class="cls-2" d="M458 240.91c0 1.48 0 3-.05 4.41 0 .8 0 1.6-.06 2.38v.65c0 1.38-.1 2.76-.16 4.13q-.15 2.9-.37 5.79c0 .45-.07.92-.11 1.36-.19 2.26-.41 4.53-.66 6.77-.11 1-.24 2.05-.37 3.06-.09.73-.19 1.45-.29 2.17a3.56 3.56 0 0 1-.06.44c-.09.74-.2 1.47-.31 2.21-.14 1-.29 1.93-.45 2.9-.21 1.31-.44 2.63-.68 3.94l-.36 2c-.17.89-.34 1.77-.52 2.66l-.21 1c-.13.7-.28 1.39-.43 2.09q-1.33 6.14-3 12.16c-.61 2.25-1.27 4.49-2 6.71-.35 1.13-.71 2.25-1.08 3.38-.07.21-.14.43-.22.64a224.72 224.72 0 0 1-5.23 14.19c-.26.62-.5 1.23-.76 1.84-.45 1.07-.9 2.13-1.37 3.19q-4 9.26-8.87 18.06H31.63q-4.85-8.79-8.87-18.06c-.47-1.07-.93-2.15-1.39-3.24q-2.59-6.19-4.81-12.56c-.31-.88-.62-1.75-.9-2.64-.23-.65-.45-1.31-.66-2-.28-.88-.57-1.78-.85-2.67l-.58-1.87c-.24-.8-.47-1.6-.71-2.4s-.46-1.57-.66-2.36-.46-1.64-.68-2.47-.41-1.56-.6-2.34c-.29-1.07-.54-2.14-.8-3.22-.22-.93-.43-1.85-.65-2.79-.21-.88-.4-1.78-.59-2.68-.14-.66-.28-1.32-.41-2s-.31-1.54-.46-2.32c-.11-.61-.23-1.23-.34-1.84-.27-1.45-.53-2.92-.76-4.39-.15-.91-.29-1.83-.43-2.74s-.25-1.67-.35-2.52-.2-1.43-.29-2.15c-.14-1.07-.27-2.13-.39-3.19-.06-.47-.11-.95-.15-1.43-.13-1.15-.24-2.3-.35-3.45-.06-.65-.12-1.3-.17-1.95 0-.49-.09-1-.12-1.48-.13-1.59-.23-3.2-.31-4.8 0-.61-.06-1.22-.09-1.83-.07-1.3-.12-2.61-.15-3.92 0-.78-.05-1.58-.06-2.38v-4.41-4c0-1.11 0-2.22.08-3.34a1.55 1.55 0 0 1 0-.22c0-.59 0-1.18.07-1.76 0-.78.06-1.56.11-2.34 0-1 .11-2.06.17-3.1q.06-1 .15-2.1c.06-.88.13-1.74.21-2.61 0-.37.06-.74.1-1.1q.28-3.36.7-6.66l.09-.74c.29-2.32.6-4.64 1-6.94.1-.6.19-1.19.29-1.78s.18-1.13.28-1.7l.3-1.7c.2-1.12.4-2.25.63-3.37s.44-2.19.66-3.27.51-2.36.79-3.53c.09-.42.19-.86.29-1.28.17-.75.35-1.49.54-2.23.13-.59.28-1.18.44-1.77q.64-2.56 1.36-5.08c.21-.8.44-1.6.68-2.38.28-1 .59-2.05.91-3.06.11-.38.22-.74.34-1.11.27-.88.56-1.76.84-2.64.37-1.12.75-2.25 1.13-3.37.45-1.32.92-2.63 1.4-3.93.34-1 .69-1.9 1.05-2.84s.73-1.92 1.12-2.87c.24-.62.49-1.23.74-1.84.39-1 .79-1.93 1.2-2.9.19-.46.38-.92.6-1.38.27-.67.57-1.33.86-2q1.5-3.41 3.12-6.75c.39-.83.8-1.65 1.22-2.48q.29-.62.63-1.23c.36-.76.75-1.52 1.14-2.26.64-1.23 1.29-2.46 2-3.68.1-.19.2-.38.31-.56l.32-.61c.41-.73.81-1.46 1.23-2.19q1.14-2 2.34-4c.48-.82 1-1.64 1.47-2.44.26-.44.53-.87.81-1.3.32-.54.66-1.08 1-1.61a.18.18 0 0 1 0-.07c.31-.5.63-1 1-1.49.64-1 1.28-2 1.94-3s1.32-2 2-2.94l1.31-1.89q2.54-3.61 5.21-7.11c.59-.78 1.19-1.54 1.79-2.31a7 7 0 0 1 .48-.6q.48-.63 1-1.23a4 4 0 0 1 .33-.42c.37-.47.74-.93 1.14-1.4l.64-.78c.85-1 1.71-2.07 2.59-3.09l.12-.14c.88-1 1.77-2 2.67-3s1.69-1.89 2.56-2.82c.37-.42.75-.83 1.15-1.24l.17-.19c.77-.84 1.56-1.66 2.35-2.48 1.09-1.13 2.2-2.26 3.32-3.37.33-.33.65-.63 1-1 .58-.57 1.15-1.13 1.73-1.68l.78-.75c.91-.87 1.83-1.74 2.76-2.59l.81-.73A6.39 6.39 0 0 1 78 74c.79-.73 1.58-1.44 2.38-2.14l.07-.06c1.14-1 2.27-2 3.43-3l1.12-.86a1 1 0 0 1 .16-.14c.23-.2.48-.4.72-.59l2-1.63c1-.79 1.92-1.56 2.89-2.31.36-.29.72-.56 1.08-.83.8-.64 1.61-1.25 2.42-1.86l2.06-1.52c.34-.27.71-.53 1.07-.78s.9-.65 1.35-1a235.831 235.831 0 0 1 10.75-7.23c1.29-.81 2.58-1.6 3.87-2.39h.14l.87-.51c.65-.39 1.3-.78 2-1.15l2.84-1.64 2.5-1.39 3.16-1.71c1.06-.56 2.13-1.11 3.2-1.65 1.38-.7 2.78-1.39 4.17-2.06s2.68-1.27 4-1.89l2.26-1c.61-.27 1.23-.55 1.85-.81q3.69-1.62 7.47-3.09c1.13-.45 2.26-.88 3.39-1.3l1.14-.43c.76-.28 1.52-.56 2.28-.82 1.13-.41 2.27-.8 3.41-1.18 1-.34 2-.66 2.94-1l2.55-.8q1.33-.42 2.67-.81c1.79-.53 3.58-1 5.39-1.53l2.71-.71c.91-.23 1.82-.46 2.73-.67s1.82-.45 2.74-.65 2-.48 3.07-.69l1-.21 1.41-.3L188 19l2.79-.51q.81-.15 1.62-.27c1.15-.21 2.31-.4 3.46-.56 1.39-.22 2.78-.43 4.18-.61q1.37-.19 2.73-.36l2.1-.25q5.9-.67 11.87-1c.48 0 1-.06 1.46-.09.91 0 1.82-.09 2.74-.12l3.08-.12h11.6c1.19 0 2.38.06 3.56.1h.61l3.59.16 2.18.13 2.19.15 2.73.22c1 .08 2 .17 3 .27h.19c1 .1 2 .2 3 .32 1.22.13 2.43.28 3.64.44s2.58.34 3.86.53l2.53.38c.88.13 1.77.28 2.65.43l2.21.39 1.56.29c.57.1 1.13.2 1.69.32l1.39.28c1.91.38 3.82.78 5.71 1.22l1 .23c3 .7 5.95 1.45 8.88 2.27l2.12.59c.93.26 1.85.53 2.78.81s1.88.57 2.81.87 1.68.53 2.52.82c.52.16 1 .33 1.57.52 2.11.7 4.22 1.44 6.31 2.21.69.26 1.37.51 2.05.78.49.18 1 .36 1.47.56l2.58 1c1.44.58 2.86 1.17 4.29 1.79l2.12.92 2.13.94.65.3q2.91 1.32 5.79 2.73c.68.33 1.35.66 2 1 1.08.53 2.16 1.08 3.24 1.64 1.47.78 2.93 1.56 4.39 2.36 1.13.63 2.27 1.26 3.39 1.9.31.19.63.37.95.55 1 .58 2 1.19 3 1.79s2.17 1.3 3.24 2c1.31.82 2.63 1.66 3.93 2.51l.4.26c1.33.88 2.66 1.77 4 2.66 1 .69 2 1.39 3 2.08.79.56 1.57 1.13 2.35 1.7.46.34.92.67 1.37 1q2.75 2 5.42 4.13l1.39 1.09 1.93 1.57.95.78c.74.6 1.46 1.2 2.18 1.82 1 .81 1.91 1.64 2.85 2.46s2.1 1.86 3.14 2.81 2.36 2.17 3.53 3.28a218.698 218.698 0 0 1 5.99 5.91c.84.86 1.68 1.73 2.51 2.61s1.46 1.54 2.18 2.33c.91 1 1.81 2 2.71 3q1.59 1.8 3.15 3.63 3.11 3.64 6 7.41c.52.65 1 1.31 1.53 2 .71.93 1.4 1.85 2.09 2.79s1.51 1.85 2.2 2.85 1.23 1.72 1.84 2.6q1.33 1.9 2.61 3.84c.78 1.18 1.55 2.36 2.3 3.55.46.71.9 1.41 1.35 2.12s.76 1.21 1.12 1.83c.76 1.21 1.48 2.44 2.2 3.67.54.93 1.08 1.86 1.6 2.8s1.2 2.13 1.78 3.21c1.59 2.91 3.11 5.87 4.56 8.85.49 1 1 2 1.45 3 .31.65.6 1.3.9 1.95.71 1.55 1.41 3.1 2.07 4.66.23.51.44 1 .66 1.55.36.83.7 1.66 1 2.49s.65 1.6 1 2.41c.24.62.49 1.25.73 1.88q2.79 7.26 5.07 14.74a1 1 0 0 1 0 .14c.18.57.35 1.13.52 1.7.29 1 .57 2 .85 3 .12.45.25.9.37 1.35q.83 3 1.55 6c.21.79.4 1.59.58 2.38.1.43.2.86.29 1.29s.25 1.11.37 1.65c.05.2.09.4.13.61.23 1 .44 2 .65 3.09s.4 2 .57 3c.11.53.21 1.07.3 1.61.36 1.94.67 3.89 1 5.86.12.78.24 1.56.35 2.35.14 1 .29 2.08.42 3.12s.26 2.05.37 3.08a1.5 1.5 0 0 1 0 .22c.07.55.12 1.11.17 1.67.14 1.19.26 2.39.36 3.59a88 88 0 0 1 .23 2.8c.05.52.08 1 .12 1.54.07 1 .12 1.94.17 2.9 0 .32 0 .64.05 1 .08 1.39.14 2.8.19 4.21 0 1.13.07 2.28.09 3.42v.12c.06 1.29.06 2.68.06 4.06z"/><path class="cls-2" d="M451.34 242.72v4.29c0 .78 0 1.56-.05 2.32v.63c0 1.34-.09 2.69-.15 4-.1 1.88-.23 3.76-.36 5.64 0 .44-.07.89-.12 1.32-.18 2.2-.38 4.4-.63 6.59-.11 1-.22 2-.36 3-.08.71-.17 1.41-.27 2.11 0 .14 0 .29-.06.43-.09.72-.2 1.44-.31 2.16-.13.93-.27 1.87-.44 2.81-.2 1.28-.43 2.57-.65 3.84-.11.64-.23 1.28-.35 1.92-.17.86-.33 1.72-.5 2.58-.07.33-.13.65-.2 1-.13.68-.29 1.35-.42 2-.87 4-1.83 7.93-2.91 11.83-.6 2.2-1.24 4.37-1.91 6.54a96.1 96.1 0 0 1-1.05 3.28l-.2.63c-.37 1.11-.74 2.22-1.12 3.32q-1.86 5.31-3.95 10.49c-.25.6-.49 1.2-.74 1.79-.43 1-.87 2.07-1.32 3.1H29.82c-.45-1-.91-2.09-1.35-3.16q-2.52-6-4.66-12.22c-.29-.85-.6-1.7-.87-2.56-.23-.63-.43-1.28-.63-1.92-.29-.86-.55-1.73-.82-2.6-.2-.6-.39-1.21-.56-1.81-.23-.78-.47-1.55-.69-2.34s-.45-1.52-.65-2.29-.44-1.6-.64-2.4-.41-1.52-.58-2.28c-.28-1-.53-2.09-.78-3.14s-.43-1.8-.63-2.71c-.2-.86-.38-1.73-.57-2.6-.14-.65-.27-1.3-.4-1.95l-.45-2.25c-.1-.59-.22-1.19-.33-1.79-.25-1.41-.5-2.84-.74-4.28-.14-.88-.27-1.78-.4-2.66l-.36-2.45c-.12-.82-.19-1.39-.27-2.1-.13-1-.25-2.07-.37-3.1-.06-.46-.11-.92-.16-1.39-.13-1.12-.22-2.24-.33-3.36-.06-.63-.12-1.26-.17-1.9 0-.48-.08-.95-.12-1.43-.11-1.55-.21-3.11-.29-4.68 0-.59-.06-1.18-.1-1.78-.06-1.26-.11-2.53-.13-3.81 0-.76-.06-1.54-.06-2.32-.05-1.42-.06-2.85-.06-4.29v-3.9c0-1.08 0-2.17.07-3.25a1.62 1.62 0 0 1 0-.22c0-.57.05-1.15.06-1.71 0-.76.06-1.52.12-2.27 0-1 .11-2 .17-3 0-.68.08-1.37.14-2 .06-.85.13-1.69.2-2.54 0-.36 0-.71.1-1.07.18-2.17.4-4.34.68-6.48 0-.24.06-.48.09-.72.28-2.26.57-4.51.93-6.75.1-.58.19-1.16.27-1.73s.2-1.1.29-1.66.19-1.1.29-1.65c.19-1.09.39-2.19.6-3.28s.43-2.13.65-3.18.48-2.3.76-3.44c.09-.41.19-.83.28-1.24.17-.73.34-1.45.52-2.18.14-.57.28-1.15.44-1.72.4-1.66.84-3.3 1.31-4.94.21-.78.42-1.55.66-2.32.28-1 .56-2 .87-3 .11-.36.23-.71.33-1.07.27-.86.55-1.71.83-2.57.34-1.1.72-2.19 1.09-3.28.43-1.28.88-2.56 1.35-3.83.34-.93.66-1.85 1-2.76s.7-1.86 1.08-2.79c.24-.61.48-1.2.73-1.79.37-.94.76-1.88 1.14-2.82.19-.45.38-.9.6-1.35.26-.65.53-1.29.83-1.93 1-2.22 2-4.4 3-6.57.38-.81.78-1.61 1.18-2.42.19-.4.39-.79.62-1.19.35-.74.73-1.48 1.11-2.21.61-1.19 1.24-2.39 1.89-3.58l.3-.54c.11-.19.2-.39.32-.59.38-.71.77-1.42 1.19-2.13.73-1.32 1.49-2.63 2.26-3.93.45-.79.93-1.59 1.42-2.37.26-.42.51-.85.78-1.27.31-.52.65-1 1-1.56v-.06c.3-.49.59-1 .92-1.46.6-1 1.23-1.92 1.88-2.88s1.27-1.91 1.91-2.85c.43-.62.85-1.23 1.29-1.84q2.45-3.53 5-6.93l1.74-2.25c.15-.2.3-.39.47-.58.31-.4.63-.81.95-1.2s0 0 0-.05.21-.26.34-.4c.34-.46.71-.91 1.09-1.37l.62-.75c.82-1 1.67-2 2.51-3l.11-.13c.87-1 1.73-2 2.6-3s1.64-1.84 2.47-2.75c.36-.4.74-.81 1.12-1.21l.16-.18c.75-.81 1.52-1.62 2.28-2.41 1.06-1.1 2.12-2.21 3.22-3.29l.94-.93c.54-.55 1.1-1.1 1.66-1.63l.77-.73c.88-.85 1.77-1.7 2.66-2.52l.8-.72a5.89 5.89 0 0 1 .45-.42c.76-.71 1.54-1.41 2.31-2.09h.06c1.11-1 2.2-2 3.32-2.9.37-.29.71-.59 1.06-.88l.16-.13c.22-.2.46-.39.7-.58.64-.53 1.27-1.06 1.92-1.58.92-.77 1.87-1.52 2.81-2.26l1-.8c.79-.62 1.56-1.22 2.36-1.81s1.33-1 2-1.47c.34-.27.69-.52 1-.77l1.31-1q3.3-2.38 6.72-4.63 1.83-1.23 3.7-2.41c1.24-.78 2.5-1.56 3.75-2.32h.13l.84-.5c.62-.38 1.25-.75 1.89-1.12.91-.53 1.83-1.07 2.75-1.59l2.64-1.59 3.07-1.65c1-.55 2.06-1.09 3.1-1.61 1.33-.68 2.69-1.35 4-2s2.61-1.24 3.92-1.84l2.18-1 1.79-.79c2.39-1 4.79-2 7.23-3 1.1-.43 2.19-.85 3.3-1.26.36-.15.73-.28 1.1-.42.73-.27 1.46-.54 2.21-.8 1.08-.39 2.19-.78 3.29-1.15l2.85-1 2.48-.78 2.57-.79c1.75-.51 3.48-1 5.23-1.48.87-.24 1.74-.47 2.63-.69s1.76-.45 2.64-.66 1.75-.43 2.64-.63 2-.46 3-.67c.32-.08.66-.15 1-.21l1.36-.29 2.69-.53 2.7-.5c.51-.09 1-.19 1.57-.26 1.11-.21 2.23-.39 3.35-.55 1.34-.21 2.69-.41 4-.59.88-.13 1.76-.24 2.65-.35l2-.25c3.81-.43 7.63-.77 11.5-1 .47 0 .94-.06 1.42-.09.88-.05 1.76-.1 2.64-.12s2-.09 3-.12h11.28c1.15 0 2.29.06 3.45.1h.58l3.49.16 2.11.13c.7 0 1.4.08 2.12.14.88.07 1.76.13 2.64.21s2 .17 2.93.27h.18c1 .09 1.94.19 2.9.3l3.53.43 3.73.52c.83.12 1.63.24 2.46.38s1.71.26 2.56.41l2.15.38 1.51.28L274 27l1.36.27c1.84.38 3.7.77 5.52 1.19l1 .23q4.32 1 8.6 2.2l2.05.58c.9.25 1.78.51 2.69.79l2.72.84c.81.26 1.62.52 2.44.8.5.16 1 .32 1.51.51 2 .68 4.1 1.4 6.11 2.15l2 .76 1.42.54c.83.32 1.68.65 2.5 1 1.39.56 2.77 1.15 4.15 1.73l2.06.9 2.06.92.63.29c1.87.85 3.74 1.74 5.61 2.65.65.33 1.31.65 1.95 1 1.06.51 2.1 1 3.13 1.6 1.43.74 2.86 1.51 4.25 2.3 1.12.61 2.22 1.22 3.3 1.84l.92.54c1 .56 1.95 1.15 2.91 1.73s2.11 1.25 3.11 1.9c1.27.79 2.54 1.61 3.8 2.44.14.09.27.16.39.25 1.31.86 2.58 1.72 3.86 2.59l2.89 2c.76.55 1.53 1.1 2.28 1.66.45.32.89.65 1.33 1 1.77 1.3 3.52 2.65 5.25 4l1.33 1.06 1.87 1.57.93.77c.7.58 1.41 1.17 2.1 1.77.93.79 1.84 1.59 2.76 2.39s2 1.81 3.05 2.73 2.28 2.12 3.41 3.19 2.24 2.17 3.35 3.27c.83.82 1.64 1.65 2.46 2.49l2.46 2.56 2.11 2.27c.88 1 1.75 1.94 2.62 2.92 1 1.16 2 2.34 3.06 3.53q3 3.54 5.84 7.21c.5.63 1 1.27 1.48 1.91.69.9 1.36 1.8 2 2.72s1.35 1.83 2 2.75 1.19 1.68 1.78 2.53c.85 1.24 1.71 2.49 2.53 3.74s1.5 2.29 2.23 3.45l1.31 2.07c.35.59.72 1.18 1.09 1.78.73 1.18 1.42 2.38 2.12 3.57.53.9 1.05 1.81 1.55 2.72l1.73 3.12c1.53 2.84 3 5.72 4.41 8.62.48 1 .94 2 1.41 2.94l.87 1.9c.69 1.5 1.35 3 2 4.53.22.49.42 1 .64 1.51.34.8.68 1.62 1 2.42s.63 1.56.94 2.35c.24.6.48 1.21.7 1.83q2.71 7.06 4.92 14.34a.89.89 0 0 1 0 .14c.16.56.33 1.11.5 1.66.28 1 .54 1.92.82 2.88.12.43.25.87.35 1.31.55 1.95 1 3.89 1.52 5.85.2.76.38 1.54.54 2.3.11.43.21.85.3 1.27s.24 1.07.35 1.6c0 .2.09.39.13.59.21 1 .43 2 .63 3s.38 1.93.56 2.9c.09.52.2 1 .27 1.57.36 1.89.66 3.78.94 5.7.12.75.24 1.52.35 2.29.14 1 .27 2 .4 3s.25 2 .36 3a1.34 1.34 0 0 1 0 .21c.07.53.13 1.08.18 1.63.13 1.16.25 2.32.35 3.49.08.91.16 1.82.22 2.73.05.5.07 1 .11 1.49.07.94.13 1.89.18 2.83v.93c.09 1.36.15 2.73.19 4.1 0 1.1.06 2.22.09 3.33v.11c.14 1.36.14 2.73.14 4.08z"/><path class="cls-3" d="M183.83 19.88l-16.41 311.06-1 18.06h-51l-.12-18.06-1.81-283.34.87-.51c.65-.39 1.3-.78 2-1.15l2.84-1.64 2.5-1.39 3.16-1.71c1.06-.56 2.13-1.11 3.2-1.65 1.38-.7 2.78-1.39 4.17-2.06s2.68-1.27 4-1.89l2.26-1c.61-.27 1.23-.55 1.85-.81q3.69-1.62 7.47-3.09c1.13-.45 2.26-.88 3.39-1.3l1.14-.43c.76-.28 1.52-.56 2.28-.82 1.13-.41 2.27-.8 3.41-1.18 1-.34 2-.66 2.94-1l2.55-.8q1.33-.42 2.67-.81c1.79-.53 3.58-1 5.39-1.53l2.71-.71c.91-.23 1.82-.46 2.73-.67s1.82-.45 2.74-.65 2-.48 3.07-.69z"/><path class="cls-4" d="M102.84 349H62.63l-2-18.06-22.93-208.5c.32-.54.66-1.08 1-1.61a.18.18 0 0 1 0-.07c.31-.5.63-1 1-1.49.64-1 1.28-2 1.94-3s1.32-2 2-2.94l1.31-1.89q2.54-3.61 5.21-7.11c.59-.78 1.19-1.54 1.79-2.31a7 7 0 0 1 .48-.6q.48-.63 1-1.23a4 4 0 0 1 .33-.42c.37-.47.74-.93 1.14-1.4l.64-.78c.85-1 1.71-2.07 2.59-3.09l.12-.14c.88-1 1.77-2 2.67-3s1.69-1.89 2.56-2.82c.37-.42.75-.83 1.15-1.24l.17-.19c.77-.84 1.56-1.66 2.35-2.48 1.09-1.13 2.2-2.26 3.32-3.37.33-.33.65-.63 1-1 .58-.57 1.15-1.13 1.73-1.68l.78-.75c.91-.87 1.83-1.74 2.76-2.59l.81-.73A6.39 6.39 0 0 1 78 74c.79-.73 1.58-1.44 2.38-2.14l.07-.06c1.14-1 2.27-2 3.43-3l1.12-.86 16.71 263zm345.95-171.7l-30.68 153.64-3.6 18.06H372.9l2.74-18.06 34.66-228.58c.52.65 1 1.31 1.53 2 .71.93 1.4 1.85 2.09 2.79S415.31 109 416 110s1.23 1.72 1.84 2.6q1.33 1.9 2.61 3.84c.78 1.18 1.55 2.36 2.3 3.55.46.71.9 1.41 1.35 2.12s.76 1.21 1.12 1.83c.76 1.21 1.48 2.44 2.2 3.67.54.93 1.08 1.86 1.6 2.8s1.2 2.13 1.78 3.21c1.59 2.91 3.11 5.87 4.56 8.85.49 1 1 2 1.45 3 .31.65.6 1.3.9 1.95.71 1.55 1.41 3.1 2.07 4.66.23.51.44 1 .66 1.55.36.83.7 1.66 1 2.49s.65 1.6 1 2.41c.24.62.49 1.25.73 1.88q2.79 7.26 5.07 14.74a1 1 0 0 1 0 .14c.21.71.38 1.34.55 2.01z"/><path class="cls-3" d="M355.21 51.8l-5.32 279.14-.35 18.06H295.7l-.7-18.06L283 21q4.48 1.05 8.88 2.26l2.12.6c.93.26 1.85.52 2.78.81l2.82.87c.83.26 1.67.53 2.5.82.53.16 1.06.33 1.57.52 2.12.7 4.23 1.44 6.31 2.21l2.06.78c.48.18 1 .36 1.46.56l2.59 1c1.44.58 2.87 1.19 4.29 1.78l2.13.93 2.11.94.67.3c1.93.87 3.86 1.79 5.78 2.72.68.34 1.35.67 2 1 1.09.53 2.16 1.08 3.23 1.65 1.48.76 2.95 1.55 4.39 2.36 1.15.63 2.28 1.25 3.4 1.89.32.2.63.37.95.56 1 .57 2 1.18 3 1.77s2.17 1.32 3.24 2c1.31.78 2.63 1.67 3.93 2.47z"/><path class="cls-5" d="M97.62 241.89c-.39 3.81-1.19 10.43-5.27 12.14-7.88 3.31-3.8-10.43-2.81-14.44a101.14 101.14 0 0 1-7.79 13.7 30.5 30.5 0 0 1-5.5 6.43c-1.6 1.28-5.73 3.93-7.55 1.62s1.25-7.13 2.5-9.11a28.07 28.07 0 0 1 16-11.83c-4.82 1.29-9.68 2.46-14.6 3.35a71.07 71.07 0 0 1-9.43 1.19c-2.45.12-6.08.43-8.09-1.35-5.67-5 10.32-8.43 12.82-9 9.81-2.1 17.53-1.35 27.37.06l.7.1c.7-4.91 2.48-20.55 9.46-20.55 9.07.29-1.88 20.34-6.66 23z"/><path class="cls-6" d="M150.06 262c-31.45 0-56-23.12-57.07-24.12l5.86-6.14-2.93 3.07 2.93-3.07c.24.22 24.2 22.7 53 21.74 15.56-.51 29.91-7.76 42.63-21.55l6.24 5.76c-14.34 15.54-30.71 23.71-48.66 24.28zm169.64 0h-2c-17.95-.57-34.32-8.74-48.66-24.28l6.24-5.76c12.73 13.79 27.07 21 42.63 21.55 28.82 1 52.77-21.52 53-21.74l5.86 6.14c-1.05.94-25.62 24.09-57.07 24.09z"/><path class="cls-7" d="M195.71 306.39H247.09V349H195.71z"/><path class="cls-8" d="M247.09 249L246.14 310.71 201.19 305.97 203.95 247.12 247.09 249z"/><path class="cls-9" d="M214.2 257.35L208.75 306.3 203.16 305.64 208.42 256.23 214.2 257.35z"/><path class="cls-10" d="M214.05 255.32L213.76 272.48 222.81 259.81 229.41 273.22 232.96 258.46 233.87 258.72 229.71 276 223.12 262.61 220.91 308.07 219.97 308.02 222.19 262.35 212.77 275.54 213.11 255.3 214.05 255.32z"/><path class="cls-10" d="M214.27 279.82A3 3 0 0 0 217 283a2.92 2.92 0 0 0 2.9-3 3 3 0 0 0-2.71-3.18 2.93 2.93 0 0 0-2.92 3zm.94 0a2 2 0 0 1 1.93-2 2.06 2.06 0 1 1-1.93 2zm-1.21 9.49a3 3 0 0 0 2.72 3.19 2.94 2.94 0 0 0 2.9-3 3 3 0 0 0-2.72-3.18 2.93 2.93 0 0 0-2.9 2.99zm.94 0a1.88 1.88 0 1 1 1.81 2.12 2 2 0 0 1-1.83-2.08zm-1.28 10.52a3 3 0 0 0 2.71 3.19 3 3 0 0 0 2.91-3 3 3 0 0 0-2.72-3.18 2.92 2.92 0 0 0-2.9 2.99zm.93 0a1.88 1.88 0 1 1 3.75.13 2 2 0 0 1-1.94 2 2 2 0 0 1-1.81-2.09zm31.81-24.61l-8.72.27-.14 4.6 9.24.07v1l-9.28-.07-.25 8.23a8.05 8.05 0 0 0 1.39 3.59c1.62 2.28 4.29 3.25 7.9 2.89l.09 1a14.76 14.76 0 0 1-2 .07 8.6 8.6 0 0 1-5.69-2.13 8.82 8.82 0 0 1-2.66-5.41l.46-14.89 9.61-.3z"/><path class="cls-9" d="M239.74 309.84L234.67 310 239.38 259.59 245.1 258.76 239.74 309.84z"/><path class="cls-11" d="M241.37 307.09L201.47 302.78 200.31 312.52 241.4 315.6 241.37 307.09z"/><path class="cls-6" d="M264.2 313.36c-.07 1.55-.16 3-.25 4.4l-6.94-.58-18-1.5.65-10.29.54-8.5 3.06-48 21-1.11s1.05 42.06-.06 65.58z"/><path class="cls-12" d="M261.73 311.69l-19.64-.53.89-17.05 18 1.05zm-18.6-1.48l17.57.47-.7-14.59-16.11-.94z"/><path class="cls-12" d="M251.66 300.2h-.07a1.89 1.89 0 0 1-1.72-2 2 2 0 0 1 .62-1.4 1.71 1.71 0 0 1 1.23-.47 1.88 1.88 0 0 1 1.72 2 2 2 0 0 1-.62 1.4 1.71 1.71 0 0 1-1.16.47zm-1.3-2a1.39 1.39 0 0 0 1.25 1.5 1.24 1.24 0 0 0 .88-.34 1.52 1.52 0 0 0 .46-1.06 1.4 1.4 0 0 0-1.25-1.49 1.18 1.18 0 0 0-.88.34 1.5 1.5 0 0 0-.46 1z"/><path class="cls-12" d="M251.19 276.26L241.92 261.22 242.34 260.97 251.2 275.35 264.24 255.71 264.65 255.99 251.19 276.26z"/><path class="cls-12" d="M260.71 302.26c-.49-.1-10.71-.37-17.46-.53v-.49c17.52.4 17.62.52 17.71.62l-.19.16z"/><path class="cls-12" d="M251.39 301.58H251.88V310.91999999999996H251.39z"/><path class="cls-6" d="M191.39 241.69s-8.89 47.31-11.25 69.36l24.06 1.89 7.59-65.79z"/><path class="cls-12" d="M202.18 308.57L182.82 305l3.61-16.07 17.84 2.7zM184 304.23l17.34 3.19 1.84-14.95-16-2.42z"/><path class="cls-12" d="M195 295.85h-.28a1.93 1.93 0 0 1-1.49-2.21 2 2 0 0 1 .77-1.31 1.69 1.69 0 0 1 1.28-.3 2 2 0 0 1 .71 3.51 1.64 1.64 0 0 1-.99.31zm0-3.38a1.17 1.17 0 0 0-.71.24 1.49 1.49 0 0 0-.57 1 1.43 1.43 0 0 0 1.08 1.65 1.19 1.19 0 0 0 .91-.21 1.52 1.52 0 0 0 .57-1 1.44 1.44 0 0 0-1.08-1.66z"/><path class="cls-12" d="M199.3 272.41L189.59 249.71 190.04 249.52 199.45 271.51 210.63 259.24 211 259.57 199.3 272.41z"/><path class="cls-12" d="M202.67 299.07c-6.67-1.25-16.73-3.07-17.23-3.07v-.22l-.18-.22c.12-.09.22-.18 17.5 3.07z"/><path class="cls-12" transform="rotate(-79.9 193.674 301.767)" d="M189.01 301.52H198.32V302.01H189.01z"/><path class="cls-13" d="M212.7 314.31L227.07 315.92 228.09 304.95 213.72 303.34 212.7 314.31z"/><path class="cls-14" d="M223.38 312.74c1.19.89 2.44 1.83 3.73 2.77v.41l-14.37-1.6.88-9.45c3.12 2.75 6.38 5.35 9.76 7.87z"/><path class="cls-15" d="M321.46 190.17c-.56-2.25-3.81-57.51-3.81-57.51L188.9 93.92s-38.41 33.13-38.83 36.31-4.84 58.48-4.58 60.41 32.7 32.36 32.7 32.36l84.89 15.69 37.72-21.77z"/><ellipse class="cls-5" cx="238.61" cy="154.37" rx="10.91" ry="7.33" transform="rotate(-71.05 238.62 154.376)"/><path class="cls-11" d="M264.2 313.36c-.07 1.55-.16 3-.25 4.4l-6.94-.58a152.28 152.28 0 0 1-17.31-11.79c-30.77-24.17-43.35-52.93-44-54.42l6.31-2.71c.13.29 4.94 11.2 15.64 25a156 156 0 0 0 22.58 23.61 145 145 0 0 0 23.97 16.49z"/><path class="cls-5" d="M352.89 187.62c-.78-21.07-21-44-21-44 1-1 1.86-2 2.76-3-2.15-.31-4.32-.65-6.47-1a499.07 499.07 0 0 1-67.48-16.32 75.44 75.44 0 0 1 .06 8.77 72.14 72.14 0 0 1-1.27 10.49 55.41 55.41 0 0 1-2.14 7.82c-6.91 19.3-25.46 30.3-41.42 24.58s-23.29-26-16.37-45.3c.53-1.49 1.17-3 1.88-4.55a72.31 72.31 0 0 1 9.56-14.86c1-1.27 2.11-2.49 3.21-3.67a121.92 121.92 0 0 1-26.11-15.67 45 45 0 0 1-20.68.23l-4 9.43a52.68 52.68 0 0 0-21.94 6.51 38.78 38.78 0 0 0-6.14 4.09c3.17-1.2 12.44 1.3 12.44 1.3-25.8 8.69-33.68 29.75-33.68 29.75a13.89 13.89 0 0 1 10.18-4c-20.43 26.19-1.33 41.11-1.33 41.11-.58-1.75 1.22-9.93 1.22-9.93.79 23.84 16.24 45 16.72 45.62-.67-3 .17-17.44.17-17.44.63 16.18 15.5 31.77 16 32.25-1.66-2.59-1.6-17-1.6-17 4.53 13.55 11.42 21.8 16.35 26.31l1 .87c40.67 36.2 108.11 15 109.25 14.63a59.18 59.18 0 0 1-25.62 14.09c49.54-.08 64.24-30.7 64.69-31.65-1.77 7.9-11.21 23.79-11.51 24.29 22.05-13.45 29.76-50.65 30.76-56 2.52 7-1.14 21.48-1.14 21.48 20.77-23.1-2.05-66.52-2.05-66.52 6.91 6.15 15.7 27.29 15.7 27.29zm-166.14-70.78a6.53 6.53 0 0 1 3.8 5 14.15 14.15 0 0 1-.71 7.78c-2.08 5.65-6.86 9.09-10.65 7.69s-5.19-7.12-3.1-12.78a14.38 14.38 0 0 1 3.91-5.85c2.11-1.86 4.59-2.68 6.75-1.84zM167 165.75s-5-10.69-5.28-19.29 13.29.06 25.41 8.13S167 165.75 167 165.75zm134.1 1.95c-.14.38-13.87 38.32-47.6 50.75a62.76 62.76 0 0 1-12.31 3.19c-18.71 2.91-39.58-2.23-62.22-15.35a1.12 1.12 0 0 1-.41-1.52 1.11 1.11 0 0 1 1.53-.41c27.13 15.71 51.56 19.76 72.61 12 32.75-12.05 46.16-49 46.29-49.41a1.12 1.12 0 0 1 2.11.75zm11.07 10.13c-4.39-29.4-22.66-16.81-23.2-16.42 4.62-4.19 8.34-6.12 11.35-6.57a7.67 7.67 0 0 1 6.6 2c5.24 4.79 5.8 16.19 5.8 16.19zm27.73 26.91l-.44-.08c.06-.42.08-.66.08-.66a7.26 7.26 0 0 1 .4.74z"/><path class="cls-14" d="M344.19 140.67s-137.63 5.57-176.77-64.61l168.9 51.4s6.68 8.08 7.87 13.21z"/><path class="cls-6" d="M343.84 126.88c-.42 1.11-.87 2.2-1.33 3.27-.61 1.42-1.25 2.82-1.94 4.19a88.75 88.75 0 0 1-5.37 9.43L173.14 81.56A88.66 88.66 0 0 1 175.46 71c.41-1.48.87-3 1.37-4.41.37-1.11.77-2.22 1.19-3.32a88.71 88.71 0 0 1 66.48-55.5 88.82 88.82 0 0 1 101 114.29 74.24 74.24 0 0 1-1.66 4.82z"/><path class="cls-11" d="M204.13 66.67l-.82-.27a85.35 85.35 0 0 1 18.42-28.72c12.4-12.89 34.8-27.86 71.06-26l-.05.86c-35.91-1.88-58.09 12.93-70.37 25.68a84.47 84.47 0 0 0-18.24 28.45z"/><circle class="cls-6" cx="292.76" cy="12.14" r="9.14"/><path class="cls-16" d="M320.06 66.24c3-2 6-4.41 7.48-7.71 3.48-7.74-4.17-13.4-11.15-9.61-2.79 1.52-4.89 4-6.79 6.59 1.81-2.78-.44-6.89-3.66-7.66s-6.62 1.1-8.59 3.77-2.78 6-3.46 9.23c-.16-2.26-.56-4.9-2.55-6a4.47 4.47 0 0 0-4.61.54 10.32 10.32 0 0 0-3 3.85c-4 8-5.34 21 1 28.3-2.85 3-5.55 5.88-8 8.5a1 1 0 0 0 .7 1.62.93.93 0 0 0 .7-.31c2.43-2.6 5.11-5.47 7.94-8.44l.46.4c7.32 6 21.39 6.11 29.81 3.16a13 13 0 0 0 5.43-3.24 6.16 6.16 0 0 0 1.56-5.9 4.2 4.2 0 0 0-4.6-2.82 15.11 15.11 0 0 0 7.85-5.32C328 73.44 328.93 71 328 69c-1.28-2.67-5-3-7.94-2.76z"/><path class="cls-17" d="M285.42 87.13a6.54 6.54 0 0 1-.59-.3c-9.24-4.88-11.47-18.93-9.35-28.21a10.28 10.28 0 0 1 1.94-4.44 4.47 4.47 0 0 1 4.35-1.64c2.19.57 3.21 3 3.91 5.2-.12-3.31-.12-6.73 1.14-9.79s4.12-5.7 7.43-5.73 6.48 3.43 5.4 6.56c1.22-2.94 2.66-5.89 5-8 5.86-5.35 14.65-1.69 13.12 6.65-.65 3.57-3 6.59-5.4 9.28 2.84-.91 6.48-1.51 8.36.81 1.4 1.72 1.05 4.28.17 6.32a15.16 15.16 0 0 1-6.74 7.29c1.74-1.23 4.41-.41 5.54 1.4a6.2 6.2 0 0 1-.09 6.1 13.13 13.13 0 0 1-4.5 4.45c-7.45 4.85-21.11 8.09-29.69 4.05z"/><path class="cls-18" d="M278.36 97.45a.93.93 0 0 1-.46-.12 1 1 0 0 1-.38-1.3c6.42-11.53 15.21-27.32 24.37-38.9a1 1 0 0 1 1.34-.16 1 1 0 0 1 .16 1.35c-9.05 11.46-17.8 27.17-24.19 38.68a.94.94 0 0 1-.84.45z"/><path class="cls-18" d="M290.2 77.73a1 1 0 0 1-.17-1.91l13.33-2.4a1 1 0 0 1 1.12.77 1 1 0 0 1-.78 1.12l-13.33 2.4zm4.41-7.99h-.08a1 1 0 0 1-.88-1l.92-12.57a.94.94 0 0 1 1-.88 1 1 0 0 1 .88 1l-.92 12.57a1 1 0 0 1-.92.88z"/><path class="cls-11" d="M343.84 126.88c-1 2.57-2.07 5.05-3.27 7.46L175.46 71q1.09-3.89 2.56-7.73a89.46 89.46 0 0 1 4.55-10l163 68.82c-.57 1.58-1.11 3.19-1.73 4.79z"/><path class="cls-9" d="M339.5 166.59l-32.5-9.77-6.6-2-40.87-12.28-58.05-17.45-10.89-3.27-10.59-3.14-38.58-11.6a52.68 52.68 0 0 1 21.94-6.51l4-9.43L211 110.25l49.78 21.82z"/><path class="cls-6" d="M369.7 178.19L124.48 84c12.07-10.2 30.44-16.14 52.35-17.5h.08l165.54 63.55.06.06c15.36 15.71 25.04 32.42 27.19 48.08z"/><path class="cls-9" d="M326.41 161.57L124.48 84c12.07-10.2 30.44-16.14 52.35-17.5.37-1.11.77-2.22 1.19-3.32A88.71 88.71 0 0 1 244.5 7.77c14.35 13.38 33.72 42.12 9.32 88.29 0 0 1.91.63 5.12 2 10.22 4.23 33.66 15.55 51.17 36.11a90.46 90.46 0 0 1 16.3 27.4z"/><path class="cls-11" d="M95.58 215.47a283.96 283.96 0 0 0-5-12.4c-3.95-9.26-8.41-18.47-11.14-28.09l-11.38 3.68 14.7 41c1 2.78 2 5.55 3 8.33.6 1.65 1.18 3.32 1.78 5 1.62 4.61 3.18 9.25 4.45 14 .24.91.47 1.81.69 2.72 1 4.2 1.89 8.44 2.61 12.7 2 11.73 3.3 23.64 5.94 35.26a7 7 0 0 0 1.48 3.44c3.6 3.78 14.88-.9 14.88-.9.84-12.33-2.74-24.48-6.28-36.32-.9-3-1.82-6-2.74-9.07q-1.56-5.22-3.19-10.41-2.43-7.82-5-15.55c-1.56-4.54-3.13-8.98-4.8-13.39z"/><path class="cls-8" d="M105.39 244.33q1.62 5.19 3.19 10.41l-13.28 7.59c-.72-4.26-1.57-8.5-2.61-12.7-.22-.91-.45-1.81-.69-2.72-1.27-4.73-2.83-9.37-4.45-14-.6-1.67-1.18-3.34-1.78-5-1-2.78-2-5.55-3-8.33l12.8-4.14c1.67 4.41 3.24 8.85 4.77 13.31q2.66 7.76 5.05 15.58z"/><path class="cls-9" d="M105.39 244.33l-12.7 5.3c-.22-.91-.45-1.81-.69-2.72-1.27-4.73-2.83-9.37-4.45-14l12.8-4.15q2.65 7.75 5.04 15.57z"/><g class="cls-19"><path class="cls-20" d="M103.22 289.4c-3.32-5-3.58-11-4.2-16.77-.69-6.37-1.52-12.74-2.59-19.07A171.68 171.68 0 0 0 85.1 215.2c-5.27-12.5-10.38-24.68-12.1-38.13l-4.9 1.59 14.7 41c1 2.78 2 5.55 3 8.33.6 1.65 1.18 3.32 1.78 5 1.62 4.61 3.18 9.25 4.45 14 .24.91.47 1.81.69 2.72 1 4.2 1.89 8.44 2.61 12.7 2 11.73 3.3 23.64 5.94 35.26a7 7 0 0 0 1.48 3.44c3.6 3.78 14.88-.9 14.88-.9.08-1.19.11-2.38.11-3.57-5.83-.31-11.27-2.38-14.52-7.24z"/></g><path class="cls-21" d="M72 197.52S40.29 193.17 36 168c0 0 8.7-2.57 15 7 0 0-8.9-22.7-4.08-35.08 0 0 7.08 9.51 10.17 13.43-3.33-4.23-.28-9.9.56-14.37a23.17 23.17 0 0 0 .07-7.66c-.24-1.63-1-7-2.74-7.78 0 0 15.55 7.51 17.86 22.75a10.35 10.35 0 0 1 .88-4.32c.74-2.09 2.13-3.8 3.12-5.75a11.49 11.49 0 0 0 .91-6.06 28.35 28.35 0 0 0-.88-5.34s24.13 23.11 17.7 38.49c0 0 4.39 1 6.77-1.21 0 0 9.61 29.69-19.37 36.59z"/><path class="cls-22" d="M87.69 167.25a15.72 15.72 0 0 1 .65 3.05l.06 1 .58 14 .38 9.21S83 202.05 72 197.52l-4.54-7.11L60.74 180a13.4 13.4 0 0 1-1-1.82 15 15 0 0 1 9-20.54 14.89 14.89 0 0 1 10 .28 15 15 0 0 1 8.95 9.33z"/><path class="cls-21" d="M75.21 193.24q-2.82.42-5.57.65l2.36 3.63c11 4.53 17.41-3.05 17.41-3.05l-.22-5.28a53.81 53.81 0 0 1-13.98 4.05z"/><path class="cls-23" d="M88.34 170.3l.06 1 .58 14c-5.84 2.59-13.73 5.2-21.57 5.15L60.74 180a13.4 13.4 0 0 1-1-1.82 36.89 36.89 0 0 0 28.6-7.88z"/><path class="cls-24" d="M78.83 157.89c-7.08 6.52-13.45 5.74-17 4.43a15 15 0 0 1 17-4.43z"/><path class="cls-21" d="M43 151.7s-12-5.19-2.64-13.14c-.05 0-2.15 7.36 2.64 13.14zm33.88-33.79s11.21-1.72 8.51 11.56a17.51 17.51 0 0 0-8.51-11.56zM106.29 170s5.63-1.51 2.39-5.87c0-.05-.1 3.8-2.39 5.87z"/><path class="cls-5" d="M372.14 241.89c.4 3.81 1.19 10.43 5.28 12.14 7.87 3.31 3.79-10.43 2.8-14.44a102.22 102.22 0 0 0 7.79 13.7 30.5 30.5 0 0 0 5.5 6.43c1.6 1.28 5.74 3.93 7.55 1.62s-1.25-7.13-2.49-9.11a28.09 28.09 0 0 0-16-11.83c4.83 1.29 9.68 2.46 14.6 3.35a71.28 71.28 0 0 0 9.43 1.19c2.45.12 6.08.43 8.09-1.35 5.68-5-10.32-8.43-12.82-9-9.8-2.1-17.52-1.35-27.37.06l-.7.1c-.69-4.91-2.47-20.55-9.45-20.55-9.08.29 1.87 20.34 6.66 23z"/><path class="cls-2" d="M387.32 79.44a43.28 43.28 0 0 1-13-23.74c-.53-2.88-.74-6 .54-8.62s4.5-4.51 7.22-3.42c1.92.77 3.08 2.72 3.86 4.63 3.58 8.76 2 18.67.37 28 1-6.5 3.21-13 7.58-18a20.43 20.43 0 0 1 10.45-6.38c3.92-.93 10.76-.94 10.13 4.71-.6 5.22-6.47 10.08-10.47 12.75-4.67 3-10 4.91-15.28 6.73a31.64 31.64 0 0 1 18-5.34c3.31 0 7.23 1.13 8.19 4.29.88 2.89-1.46 6-4.29 7s-6 .59-9 .13l-13.56-2.08M93.33 62.71a32.18 32.18 0 0 0 11.56-16.38 10.34 10.34 0 0 0 .31-6.4c-.73-2-2.93-3.69-5-3.12a5.88 5.88 0 0 0-3.23 3.09c-3.35 6.15-3 13.58-2.59 20.58-.24-4.88-1.28-9.87-4.09-13.86a15.09 15.09 0 0 0-7.16-5.57c-2.81-1-7.84-1.59-7.85 2.62 0 3.88 3.89 7.94 6.66 10.24a50.47 50.47 0 0 0 10.66 6.23 23.49 23.49 0 0 0-12.81-5.43c-2.44-.24-5.41.23-6.39 2.48-.88 2.05.6 4.51 2.6 5.51s4.35.94 6.59.85l10.15-.41"/><path class="cls-25" d="M390.59 420.62a12 12 0 0 0-3.12-5l-.14-.14a7 7 0 0 0 1.9-1.7 8.89 8.89 0 0 0 1.81-5.46 13.36 13.36 0 0 0-1.12-5.17 14 14 0 0 0-3.64-4.95 18.37 18.37 0 0 0-5.86-3.37 23.64 23.64 0 0 0-8.18-1.26 27 27 0 0 0-6.67.8 17.06 17.06 0 0 0-6.13 2.91 14.27 14.27 0 0 0-2.93 3 16.71 16.71 0 0 0-2-2 19.51 19.51 0 0 0-6.83-3.59 25.69 25.69 0 0 0-4.64-.95H350.68a7.45 7.45 0 0 0 6.68-3.35 11 11 0 0 0 1.41-6c0-3.14-.49-5.26-1.58-6.88a7.78 7.78 0 0 0-6.81-3.24h-18.93v-.77H349a7.29 7.29 0 0 0 6.59-3.35 10.47 10.47 0 0 0 1.35-5.64 9.84 9.84 0 0 0-1.87-6.38 7.77 7.77 0 0 0-6.3-2.68h-16.9v-3.21h3.51c1.28 0 2.64 0 4 .08s2.92.07 4.28.07h4.86a8.49 8.49 0 0 0 7-3 10.43 10.43 0 0 0 2-6.74c0-2-.21-4.86-2-7a8.09 8.09 0 0 0-6.29-2.74h-3.55l-6.79-.11q-4-.08-9-.12h-10c-1.21 0-4.9 0-7.12 2.8a8.15 8.15 0 0 0-.8 1.26 7.18 7.18 0 0 0-1.53-1.73 9.22 9.22 0 0 0-6-1.95h-2a8.77 8.77 0 0 0-6.62 2.48 8.56 8.56 0 0 0-2.3 6.13c0 1.05 0 1.89.05 2.52s0 1.27.07 2.14.05 2.13.07 3.7v5.7c-.18-.29-.35-.58-.53-.86l-3.78-6.21c-1.2-2-2.26-3.72-3.18-5.18-1.1-1.74-1.5-2.44-1.64-2.7l-.1-.18c-.51-.83-1-1.63-1.54-2.38a13.28 13.28 0 0 0-2.47-2.7 11.52 11.52 0 0 0-3.63-2 14.14 14.14 0 0 0-4.63-.69c-4.14 0-7.19 1.25-9.06 3.71q-.25.33-.48.69a7.55 7.55 0 0 0-1.24-1.91 8.3 8.3 0 0 0-6.53-2.64h-2.86c-5.6 0-9.22 3.41-9.22 8.69v8.58q0 5.86-.07 16.12-.07 5.16-.11 8.58a9.33 9.33 0 0 0-2.2-.26h-13.5v-1.22-6.24c0-2.38 0-4.93.08-7.59s.07-5.41.07-7.84v-6.29-3.61c0-4.16-1.83-6.3-3.37-7.36-1.72-1.18-4-1.71-7.5-1.71s-5.93.64-7.67 2a7.55 7.55 0 0 0-1.77 2 7.45 7.45 0 0 0-1.37-1.49 9.22 9.22 0 0 0-6-1.95h-2a8.77 8.77 0 0 0-6.62 2.48 8.56 8.56 0 0 0-2.3 6.13v2.51c0 .62 0 1.28.07 2.15s.05 2.12.07 3.7v5.7c-.17-.29-.35-.58-.53-.86l-3.78-6.21c-1.2-2-2.26-3.72-3.18-5.18-1.1-1.75-1.5-2.44-1.64-2.69 0-.07-.07-.13-.1-.19-.51-.83-1-1.63-1.54-2.38a13.8 13.8 0 0 0-2.46-2.7 11.68 11.68 0 0 0-3.64-2 14.14 14.14 0 0 0-4.63-.69c-4.14 0-7.19 1.25-9.06 3.71a12.8 12.8 0 0 0-2.34 7.92v1.66a25.38 25.38 0 0 0-13.82-12.14 34.16 34.16 0 0 0-12.07-2.05 41.48 41.48 0 0 0-8.36.78 27.07 27.07 0 0 0-7.29 2.6 24.06 24.06 0 0 0-6 4.55 34.86 34.86 0 0 0-4.56 6 27.27 27.27 0 0 0-3.54 8.57 40.4 40.4 0 0 0-.9 8.6 39.45 39.45 0 0 0 1.82 12.1 30 30 0 0 0 5.65 10.33 26.72 26.72 0 0 0 9.6 7.12 28.81 28.81 0 0 0 8.07 2.23 19 19 0 0 0-2.88 1.23 17.8 17.8 0 0 0-3.57 2.51 6.87 6.87 0 0 0-2.11-2.9 8.94 8.94 0 0 0-5.79-1.7 10 10 0 0 0-6.12 1.66 8.1 8.1 0 0 0-3.09 5v.16c0 .28-.12.7-.23 1.26a16.09 16.09 0 0 0-.65-2.32 8.34 8.34 0 0 0-2-3.11 7.88 7.88 0 0 0-3.45-2 12.3 12.3 0 0 0-3.45-.44 9.15 9.15 0 0 0-6.53 2.34 10.78 10.78 0 0 0-2.9 6.35v.12c-.28-1.24-.49-2.11-.65-2.66a8.17 8.17 0 0 0-2.91-4.75 9.24 9.24 0 0 0-5.56-1.53 10.42 10.42 0 0 0-5.44 1.19 6.56 6.56 0 0 0-3.3 5.75 12 12 0 0 0 .21 2.17c.11.59.3 1.4.59 2.56s.63 2.44 1.1 4.22 1.08 4.11 1.84 7q.93 3.57 1.55 6l1 4.06.66 2.65c.18.74.36 1.43.54 2.08a13.16 13.16 0 0 0 1.18 3.2 8.21 8.21 0 0 0 6 4.24 16.93 16.93 0 0 0 2.69.19c3.11 0 5.48-.75 7.25-2.3a10.36 10.36 0 0 0 3-5 9.49 9.49 0 0 0 3 5.17c1.62 1.38 3.86 2 6.83 2a19.27 19.27 0 0 0 3-.19 8.29 8.29 0 0 0 3.31-1.21 7.13 7.13 0 0 0 2.64-3.13 20.82 20.82 0 0 0 .73-2.06 1.6 1.6 0 0 0 .05-.21l.39-1.55c.12-.47.27-1.07.47-1.82s.37-1.36.61-2.27a21.94 21.94 0 0 0 3.64 6.16 19.94 19.94 0 0 0 7.17 5.33 23.35 23.35 0 0 0 9.59 1.89 23.71 23.71 0 0 0 10.07-2 20.22 20.22 0 0 0 6.47-4.72c0 .24.08.48.14.71a6.55 6.55 0 0 0 2.21 3.35 7.73 7.73 0 0 0 3.28 1.53 12.68 12.68 0 0 0 2.68.26h.81a14.24 14.24 0 0 0 5-.95 6.58 6.58 0 0 0 4-6.22v-3a22.1 22.1 0 0 0 1.4 3.51 13.23 13.23 0 0 0 3 3.88 10.91 10.91 0 0 0 4.48 2.35 18.22 18.22 0 0 0 4.47.52 10.68 10.68 0 0 0 5.57-1.28 9.42 9.42 0 0 0 4.7 1.07h2c2.75 0 4.81-.88 6.13-2.62a7.81 7.81 0 0 0 1.52-4.87v-1.24-1.85a17 17 0 0 0 4.51 7.65 13.27 13.27 0 0 0 9.24 3.3c2.92 0 5.09-.67 6.63-2a8.13 8.13 0 0 0 1-1.11 22.42 22.42 0 0 0 4.82 2.44 24.12 24.12 0 0 0 8.27 1.32 27.22 27.22 0 0 0 7.63-1 18.94 18.94 0 0 0 6-2.9c.31-.24.6-.49.88-.74a6.8 6.8 0 0 0 1.78 2 9 9 0 0 0 5.6 1.59 11.27 11.27 0 0 0 5.26-1 6.74 6.74 0 0 0 3.71-6.06v-2.69-1.59-2.13h4.42v6.41a6.9 6.9 0 0 0 2.64 5.5 9.19 9.19 0 0 0 5.84 1.68 11.25 11.25 0 0 0 4.89-.95 6.67 6.67 0 0 0 3.8-5.71c.12.14.22.29.33.43a19.94 19.94 0 0 0 7.17 5.33 23.38 23.38 0 0 0 9.59 1.89 23.71 23.71 0 0 0 10.07-2 20 20 0 0 0 6.72-5 7.25 7.25 0 0 0 2.37 4.08c2 1.72 4.67 1.92 6.52 1.92a9.69 9.69 0 0 0 6.09-1.7 7.16 7.16 0 0 0 2.85-5.84v-2-3h1.9a23.44 23.44 0 0 0 11.4-2.55 10.42 10.42 0 0 0-.06 1.13 12.1 12.1 0 0 0 1.42 5.45 15 15 0 0 0 4 4.83 20.72 20.72 0 0 0 6 3.31 24 24 0 0 0 8.26 1.32 27.34 27.34 0 0 0 7.64-1 18.83 18.83 0 0 0 6-2.9 13.42 13.42 0 0 0 4.13-5 13.75 13.75 0 0 0 1.34-6 16.67 16.67 0 0 0-.74-4.7z"/><path class="cls-15" d="M394.59 417.62a12 12 0 0 0-3.12-5l-.14-.14a7 7 0 0 0 1.9-1.7 8.89 8.89 0 0 0 1.81-5.46 13.36 13.36 0 0 0-1.12-5.17 14 14 0 0 0-3.64-4.95 18.37 18.37 0 0 0-5.86-3.37 23.64 23.64 0 0 0-8.18-1.26 27 27 0 0 0-6.67.8 17.06 17.06 0 0 0-6.13 2.91 14.27 14.27 0 0 0-2.93 3 16.71 16.71 0 0 0-2-2 19.51 19.51 0 0 0-6.83-3.59 25.69 25.69 0 0 0-4.64-.95H354.68a7.45 7.45 0 0 0 6.68-3.35 11 11 0 0 0 1.41-6c0-3.14-.49-5.26-1.58-6.88a7.78 7.78 0 0 0-6.81-3.24h-18.93v-.77H353a7.29 7.29 0 0 0 6.59-3.35 10.47 10.47 0 0 0 1.35-5.64 9.84 9.84 0 0 0-1.87-6.38 7.77 7.77 0 0 0-6.3-2.68h-16.9v-3.21h3.51c1.28 0 2.64 0 4 .08s2.92.07 4.28.07h4.86a8.49 8.49 0 0 0 7-3 10.37 10.37 0 0 0 2-6.74c0-2-.21-4.86-2-7a8.09 8.09 0 0 0-6.29-2.74h-3.55l-6.79-.11q-4-.08-9-.12h-10c-1.21 0-4.9 0-7.12 2.8a8.15 8.15 0 0 0-.8 1.26 7.18 7.18 0 0 0-1.53-1.73 9.22 9.22 0 0 0-6-1.95h-2a8.77 8.77 0 0 0-6.62 2.48 8.56 8.56 0 0 0-2.3 6.13c0 1.05 0 1.89.05 2.52s0 1.27.07 2.14.05 2.13.07 3.7v5.7c-.18-.29-.35-.58-.53-.86l-3.78-6.21c-1.2-2-2.26-3.72-3.18-5.18-1.1-1.74-1.5-2.44-1.64-2.7l-.1-.18c-.51-.83-1-1.63-1.54-2.38a13.28 13.28 0 0 0-2.47-2.7 11.52 11.52 0 0 0-3.63-2 14.14 14.14 0 0 0-4.63-.69c-4.14 0-7.19 1.25-9.06 3.71q-.25.33-.48.69a7.55 7.55 0 0 0-1.24-1.91 8.3 8.3 0 0 0-6.53-2.64h-2.86c-5.6 0-9.22 3.41-9.22 8.69v8.58q0 5.86-.07 16.12-.07 5.16-.11 8.58a9.33 9.33 0 0 0-2.2-.26h-13.5v-1.22-6.24c0-2.38 0-4.93.08-7.59s.07-5.41.07-7.84v-6.29-3.61c0-4.16-1.83-6.3-3.37-7.36-1.72-1.18-4-1.71-7.5-1.71s-5.93.64-7.67 2a7.55 7.55 0 0 0-1.77 2 7.45 7.45 0 0 0-1.37-1.49 9.22 9.22 0 0 0-6-1.95h-2a8.77 8.77 0 0 0-6.62 2.48 8.56 8.56 0 0 0-2.3 6.13v2.51c0 .62 0 1.28.07 2.15s.05 2.12.07 3.7v5.7c-.17-.29-.35-.58-.53-.86l-3.78-6.21c-1.2-2-2.26-3.72-3.18-5.18-1.1-1.75-1.5-2.44-1.64-2.69 0-.07-.07-.13-.1-.19-.51-.83-1-1.63-1.54-2.38a13.8 13.8 0 0 0-2.46-2.7 11.68 11.68 0 0 0-3.64-2 14.14 14.14 0 0 0-4.63-.69c-4.14 0-7.19 1.25-9.06 3.71a12.8 12.8 0 0 0-2.34 7.92v1.66a25.38 25.38 0 0 0-13.82-12.14 34.16 34.16 0 0 0-12.07-2.05 41.48 41.48 0 0 0-8.36.78 27.07 27.07 0 0 0-7.29 2.6 24.06 24.06 0 0 0-6 4.55 34.86 34.86 0 0 0-4.56 6 27.27 27.27 0 0 0-3.54 8.57 40.4 40.4 0 0 0-.9 8.6 39.45 39.45 0 0 0 1.82 12.1 30 30 0 0 0 5.65 10.33 26.72 26.72 0 0 0 9.6 7.12 28.81 28.81 0 0 0 8.07 2.23 19 19 0 0 0-2.88 1.23 17.8 17.8 0 0 0-3.57 2.51 6.87 6.87 0 0 0-2.11-2.9 8.92 8.92 0 0 0-5.79-1.7 10 10 0 0 0-6.12 1.66 8.1 8.1 0 0 0-3.09 5v.16c0 .28-.12.7-.23 1.26a16.09 16.09 0 0 0-.65-2.32 8.34 8.34 0 0 0-2-3.11 7.88 7.88 0 0 0-3.45-2 12.3 12.3 0 0 0-3.45-.44 9.15 9.15 0 0 0-6.53 2.34 10.78 10.78 0 0 0-2.9 6.35v.12c-.28-1.24-.49-2.11-.65-2.66a8.17 8.17 0 0 0-2.91-4.75 9.24 9.24 0 0 0-5.56-1.53 10.42 10.42 0 0 0-5.44 1.19 6.56 6.56 0 0 0-3.3 5.75 12 12 0 0 0 .21 2.17c.11.59.3 1.4.59 2.56s.63 2.44 1.1 4.22 1.08 4.11 1.84 7q.93 3.57 1.55 6l1 4.06.66 2.65c.18.74.36 1.43.54 2.08a13.16 13.16 0 0 0 1.18 3.2 8.21 8.21 0 0 0 6 4.24 16.93 16.93 0 0 0 2.69.19c3.11 0 5.48-.75 7.25-2.3a10.36 10.36 0 0 0 3-5 9.49 9.49 0 0 0 3 5.17c1.62 1.38 3.86 2 6.83 2a19.27 19.27 0 0 0 3-.19 8.29 8.29 0 0 0 3.31-1.21 7.13 7.13 0 0 0 2.64-3.13 18.53 18.53 0 0 0 .73-2.06 1.6 1.6 0 0 0 .05-.21l.39-1.55c.12-.47.27-1.07.47-1.82s.37-1.36.61-2.27a21.94 21.94 0 0 0 3.64 6.16 19.94 19.94 0 0 0 7.17 5.33 23.35 23.35 0 0 0 9.59 1.89 23.71 23.71 0 0 0 10.07-2 20.22 20.22 0 0 0 6.47-4.72c0 .24.08.48.14.71a6.55 6.55 0 0 0 2.21 3.35 7.73 7.73 0 0 0 3.28 1.53 12.68 12.68 0 0 0 2.68.26h.81a14.24 14.24 0 0 0 5-.95 6.58 6.58 0 0 0 4-6.22v-3a22.1 22.1 0 0 0 1.4 3.51 13.23 13.23 0 0 0 3 3.88 10.91 10.91 0 0 0 4.48 2.35 18.22 18.22 0 0 0 4.47.52 10.68 10.68 0 0 0 5.57-1.28 9.42 9.42 0 0 0 4.7 1.07h2c2.75 0 4.81-.88 6.13-2.62a7.81 7.81 0 0 0 1.52-4.87v-1.24-1.85a17 17 0 0 0 4.51 7.65 13.27 13.27 0 0 0 9.24 3.3c2.92 0 5.09-.67 6.63-2a8.13 8.13 0 0 0 1-1.11 22.42 22.42 0 0 0 4.82 2.44 24.12 24.12 0 0 0 8.27 1.32 27.22 27.22 0 0 0 7.63-1 18.94 18.94 0 0 0 6-2.9c.31-.24.6-.49.88-.74a6.8 6.8 0 0 0 1.78 2 9 9 0 0 0 5.6 1.59 11.27 11.27 0 0 0 5.26-1 6.74 6.74 0 0 0 3.71-6.06v-2.69-1.59-2.13h4.42v6.41a6.9 6.9 0 0 0 2.64 5.5 9.19 9.19 0 0 0 5.84 1.68 11.25 11.25 0 0 0 4.89-.95 6.67 6.67 0 0 0 3.8-5.71c.12.14.22.29.33.43a19.94 19.94 0 0 0 7.17 5.33 23.38 23.38 0 0 0 9.59 1.89 23.71 23.71 0 0 0 10.07-2 20 20 0 0 0 6.72-5 7.25 7.25 0 0 0 2.37 4.08c2 1.72 4.67 1.92 6.52 1.92a9.69 9.69 0 0 0 6.09-1.7 7.16 7.16 0 0 0 2.85-5.84v-2-3h1.9a23.44 23.44 0 0 0 11.4-2.55 10.42 10.42 0 0 0-.06 1.13 12.1 12.1 0 0 0 1.42 5.45 15 15 0 0 0 4 4.83 20.72 20.72 0 0 0 6 3.31 24 24 0 0 0 8.26 1.32 27.34 27.34 0 0 0 7.64-1 18.83 18.83 0 0 0 6-2.9 13.42 13.42 0 0 0 4.13-5 13.75 13.75 0 0 0 1.34-6 16.67 16.67 0 0 0-.74-4.7z"/><path class="cls-26" d="M133.47 387.24a26.51 26.51 0 0 1-11-2.11 21.62 21.62 0 0 1-7.83-5.8 24.83 24.83 0 0 1-4.7-8.62 34.21 34.21 0 0 1-1.58-10.57 35 35 0 0 1 .79-7.53 22.11 22.11 0 0 1 2.89-7 29.62 29.62 0 0 1 3.92-5.12 18.92 18.92 0 0 1 4.78-3.61 21.61 21.61 0 0 1 5.95-2.11 36.45 36.45 0 0 1 7.34-.68 29.14 29.14 0 0 1 10.31 1.73 20.79 20.79 0 0 1 7.79 5.08 22.39 22.39 0 0 1 4.9 8.25 34.69 34.69 0 0 1 1.69 11.29 35.54 35.54 0 0 1-1.43 10.05 24.26 24.26 0 0 1-4.48 8.58A21.68 21.68 0 0 1 145 385a27.31 27.31 0 0 1-11.53 2.24zm.46-9.64q7 0 10.42-4.55t3.43-12.39a23.21 23.21 0 0 0-.83-6.21 15.29 15.29 0 0 0-2.56-5.23 12.74 12.74 0 0 0-4.37-3.61 13.21 13.21 0 0 0-6.17-1.36 14.54 14.54 0 0 0-6.25 1.28 10.88 10.88 0 0 0-4.36 3.69 20 20 0 0 0-1.21 2 14.11 14.11 0 0 0-.94 2.26 16.55 16.55 0 0 0-.64 3.05 34.16 34.16 0 0 0-.23 4.25q0 8.13 3.58 12.5t10.13 4.32zm34.85 8.21a3.93 3.93 0 0 1-2.78-1 3.31 3.31 0 0 1-1.06-2.56v-1.84-3.54-4.6-5-8.58-5.2-5.38-4.33-2.18a8 8 0 0 1 1.32-4.9q1.32-1.73 5.08-1.73a9.25 9.25 0 0 1 3 .42 6.45 6.45 0 0 1 2.07 1.13 8.38 8.38 0 0 1 1.55 1.69c.45.65.9 1.36 1.35 2.11.3.55.9 1.54 1.81 3s1.94 3.13 3.12 5.08 2.45 4 3.8 6.25 2.64 4.37 3.84 6.48l2.71 4.66c.7 1.21 1.24 2.15 1.62 2.83a12.23 12.23 0 0 0 .87 1.39c.2.25.37.38.52.38.35 0 .53-.31.53-.91s0-2.37-.15-5.16-.15-6.2-.15-10.27v-6.93c0-1.6-.05-2.86-.07-3.76s0-1.64-.08-2.22 0-1.34 0-2.3a3.72 3.72 0 0 1 .91-2.67 4 4 0 0 1 3-.94h2a4.33 4.33 0 0 1 2.82.83 3.49 3.49 0 0 1 1 2.86v40a7.59 7.59 0 0 1-1.51 5.08q-1.5 1.77-5.64 1.77a7.36 7.36 0 0 1-5.12-1.7 17.71 17.71 0 0 1-3.46-4.4c-.41-.65-1.08-1.78-2-3.39l-3.21-5.28-3.5-6q-1.77-3-3-5.19-1.74-3.09-2.67-5c-.63-1.26-1.11-2.22-1.43-2.9a14.5 14.5 0 0 0-.72-1.36.65.65 0 0 0-.53-.33c-.25 0-.37.25-.37.75s0 2.11.11 4.67.11 5.79.11 9.71v16.89a3 3 0 0 1-1.17 2.76 5.74 5.74 0 0 1-3.16.83zm75.73-9.26a3.66 3.66 0 0 1 2.49.86c.65.58 1 1.88 1 3.88a10.61 10.61 0 0 1-.27 2.71 2.76 2.76 0 0 1-.79 1.43 2.49 2.49 0 0 1-1.24.57 11.77 11.77 0 0 1-1.69.11H219a4.73 4.73 0 0 1-3.46-1.06 4.52 4.52 0 0 1-1.05-3.31c0-.45 0-1.55.07-3.31s.09-3.76.11-6 .07-4.61.12-7 .07-4.55.07-6.36v-5.91c0-2.13-.06-4.18-.11-6.14s-.09-3.68-.11-5.19 0-2.56 0-3.16a3.53 3.53 0 0 1 1.21-3c.8-.62 2.33-.94 4.59-.94s3.86.28 4.67.83 1.2 1.63 1.2 3.24v9.9c0 2.44 0 5-.07 7.75s-.08 5.3-.08 7.68V373.5a3.82 3.82 0 0 0 .56 2.52c.38.38 1.32.57 2.83.57zm10.92 9.18a3.68 3.68 0 0 1-3.05-1.09 4.39 4.39 0 0 1-.87-2.82v-1.13c0-.6 0-1.58.08-2.94s.05-3.2.07-5.53.06-5.31.12-8.92q.06-10.32.07-16.19v-8.58c0-2.46 1.4-3.69 4.22-3.69H259a3.57 3.57 0 0 1 2.78.94 4.07 4.07 0 0 1 .83 2.75v42.91a4.44 4.44 0 0 1-1 3.31 4 4 0 0 1-2.9 1zm18.29.08a3.93 3.93 0 0 1-2.78-1 3.31 3.31 0 0 1-1.06-2.56v-1.84-3.54-4.6-5-8.58-5.2-5.38-4.33-2.18a8 8 0 0 1 1.32-4.9q1.32-1.73 5.08-1.73a9.25 9.25 0 0 1 3 .42 6.45 6.45 0 0 1 2.07 1.13 8.06 8.06 0 0 1 1.54 1.69c.46.65.91 1.36 1.36 2.11.3.55.9 1.54 1.81 3s1.94 3.13 3.12 5.08 2.45 4 3.8 6.25 2.64 4.37 3.84 6.48l2.71 4.66c.7 1.21 1.24 2.15 1.62 2.83A12.23 12.23 0 0 0 302 370c.2.25.37.38.52.38.35 0 .53-.31.53-.91s-.05-2.37-.15-5.16-.15-6.2-.15-10.27v-6.93c0-1.6-.05-2.86-.07-3.76s-.05-1.64-.08-2.22 0-1.34 0-2.3a3.68 3.68 0 0 1 .91-2.67 4 4 0 0 1 3-.94h2a4.35 4.35 0 0 1 2.82.83 3.49 3.49 0 0 1 1 2.86v40a7.59 7.59 0 0 1-1.51 5.08q-1.5 1.77-5.64 1.77a7.36 7.36 0 0 1-5.12-1.7 17.71 17.71 0 0 1-3.46-4.4c-.41-.65-1.08-1.78-2-3.39l-3.19-5.27-3.5-6q-1.77-3-3-5.19-1.74-3.09-2.67-5c-.63-1.26-1.11-2.22-1.43-2.9a14.5 14.5 0 0 0-.72-1.36.65.65 0 0 0-.53-.33c-.25 0-.37.25-.37.75s0 2.11.11 4.67.11 5.79.11 9.71v16.89a3 3 0 0 1-1.28 2.71 5.74 5.74 0 0 1-3.16.83zm58.57-20.18a1.48 1.48 0 0 0-1.39.57 2.44 2.44 0 0 0-.34 1.31v5.8a2.77 2.77 0 0 0 .94 2.49 5.34 5.34 0 0 0 2.83.6h20.05a3 3 0 0 1 2.67 1.06 7.86 7.86 0 0 1 .72 4.06 6.63 6.63 0 0 1-.64 3.35 2.67 2.67 0 0 1-2.45 1h-31.24a6.18 6.18 0 0 1-1.88-.23 2.27 2.27 0 0 1-1.06-.68 2.2 2.2 0 0 1-.48-1 6.55 6.55 0 0 1-.12-1.28v-3.42c0-1.83 0-3.94.08-6.33s0-4.82.07-7.3 0-4.63 0-6.44v-5.94-6.21-5.31-3.24a4.21 4.21 0 0 1 .71-2.63c.48-.61 1.55-.91 3.2-.91h9.94c3.26 0 6.24.06 8.92.11l6.81.12h3.62a3.07 3.07 0 0 1 2.48 1c.55.66.83 1.91.83 3.77a5.8 5.8 0 0 1-.9 3.61 3.77 3.77 0 0 1-3.09 1.13h-4.86c-1.24 0-2.64 0-4.1-.07s-2.86-.08-4.21-.08H333.37a2.19 2.19 0 0 0-2.48 2.48v8.28a3 3 0 0 0 .49 1.89 2.51 2.51 0 0 0 2 .6h19.43a3 3 0 0 1 2.44.86 5.21 5.21 0 0 1 .72 3.2 5.77 5.77 0 0 1-.61 3 2.49 2.49 0 0 1-2.33 1zm-225.92 50.61c0-.28.14-.85.31-1.72s.38-1.87.62-3l.78-3.74q.42-2 .78-3.78c.24-1.2.46-2.27.65-3.22s.32-1.63.39-2.05a3.11 3.11 0 0 1 1.16-2 5.46 5.46 0 0 1 3.14-.67 4.35 4.35 0 0 1 2.62.57 1.69 1.69 0 0 1 .7 1.35 6.9 6.9 0 0 1-.23 1.81c-.16.56-.29 1.07-.39 1.56s-.36 1.36-.55 2.2-.43 1.88-.72 3.09-.65 2.63-1.07 4.25-.9 3.53-1.45 5.71-1 3.91-1.35 5.19-.62 2.31-.83 3.09-.37 1.4-.49 1.89l-.39 1.56a11.07 11.07 0 0 1-.52 1.47 2.06 2.06 0 0 1-.78.94 3.35 3.35 0 0 1-1.34.46 14.79 14.79 0 0 1-2.24.13 5.68 5.68 0 0 1-3.6-.85 5.08 5.08 0 0 1-1.43-3c-.21-1.08-.47-2.39-.8-3.95s-.68-3.19-1-4.9-.72-3.42-1.06-5.14-.64-3.24-.89-4.59a10.79 10.79 0 0 0-.54-2.31.73.73 0 0 0-.65-.49.53.53 0 0 0-.44.29 3.74 3.74 0 0 0-.34 1.11q-.57 3.27-1.14 6.46c-.38 2.13-.74 4.07-1.09 5.84s-.64 3.27-.88 4.51-.4 2.08-.47 2.49a6.3 6.3 0 0 1-1.73 3.56 6.06 6.06 0 0 1-4 1.06 13 13 0 0 1-1.9-.13 3.4 3.4 0 0 1-1.4-.55 3.3 3.3 0 0 1-1-1.16 8.17 8.17 0 0 1-.72-2.05c-.18-.63-.35-1.29-.52-2s-.4-1.61-.68-2.7-.62-2.44-1-4.07-.93-3.63-1.55-6c-.76-2.94-1.38-5.29-1.84-7.05s-.83-3.16-1.09-4.18-.44-1.76-.52-2.23a6.75 6.75 0 0 1-.19-1.3 1.6 1.6 0 0 1 .83-1.48 6.08 6.08 0 0 1 2.9-.49 4.68 4.68 0 0 1 2.65.59 3.45 3.45 0 0 1 1.19 2.05c.14.49.37 1.41.68 2.78s.65 2.9 1 4.61.76 3.46 1.15 5.24.7 3.33 1 4.65.5 2.33.68 3.06a13.55 13.55 0 0 0 .46 1.63 1.33 1.33 0 0 0 .44.68 1.21 1.21 0 0 0 .55.13q.67 0 1-1.59c.19-1.05.42-2.37.7-4 0-.28.12-.78.26-1.51s.3-1.56.49-2.51.38-2 .57-3 .38-2.12.57-3.14.37-2 .52-2.83.29-1.55.39-2.07a6.37 6.37 0 0 1 1.43-3.61 4.32 4.32 0 0 1 3.08-1 7.29 7.29 0 0 1 2.05.24 3 3 0 0 1 1.33.75 3.62 3.62 0 0 1 .8 1.3 12.38 12.38 0 0 1 .49 1.86q.42 2 1.2 5.58c.51 2.41 1.14 5.42 1.86 9.05.25 1.32.44 2.41.6 3.27s.29 1.54.42 2a3.38 3.38 0 0 0 .38 1 .63.63 0 0 0 .52.28q.52 0 .78-1.5c.14-.89.39-2.19.7-3.78zm30.4 16.03a18.46 18.46 0 0 1-7.55-1.45 14.89 14.89 0 0 1-5.39-4 17.12 17.12 0 0 1-3.25-5.94 24.86 24.86 0 0 1-.58-12.48 15.19 15.19 0 0 1 2-4.82 20.34 20.34 0 0 1 2.69-3.53 13.39 13.39 0 0 1 3.3-2.49 14.84 14.84 0 0 1 4.1-1.45 25.07 25.07 0 0 1 5.05-.47 20.16 20.16 0 0 1 7.11 1.19 14.33 14.33 0 0 1 5.37 3.51A15.25 15.25 0 0 1 153 406a23.7 23.7 0 0 1 1.17 7.78 24.34 24.34 0 0 1-1 6.93 16.52 16.52 0 0 1-3.08 5.91 15 15 0 0 1-5.4 4.1 18.78 18.78 0 0 1-7.92 1.55zm.31-6.64c3.22 0 5.61-1.05 7.19-3.14s2.36-4.94 2.36-8.54a16 16 0 0 0-.57-4.28 10.63 10.63 0 0 0-1.77-3.6 8.71 8.71 0 0 0-3-2.49 9.21 9.21 0 0 0-4.25-.94 10 10 0 0 0-4.31.89 7.45 7.45 0 0 0-3 2.54 14 14 0 0 0-.83 1.35 9.77 9.77 0 0 0-.65 1.55 12.32 12.32 0 0 0-.44 2.11 24.31 24.31 0 0 0-.15 2.93q0 5.6 2.46 8.61a8.53 8.53 0 0 0 6.96 3.01zm31.85-7.58a3.63 3.63 0 0 0-2 .39 1.48 1.48 0 0 0-.52 1.27v9.46a1.61 1.61 0 0 1-1 1.63 9.66 9.66 0 0 1-3.24.55 8.88 8.88 0 0 1-2.15-.13 3 3 0 0 1-1.22-.52 1.58 1.58 0 0 1-.55-.81 3.93 3.93 0 0 1-.13-1q0-.88.06-5.16c0-2.86.05-6.7.05-11.55v-5.52-3.53-3.55a4.69 4.69 0 0 1 .38-2.05 2.79 2.79 0 0 1 1.72-1.27 15.13 15.13 0 0 1 3.86-.65q2.55-.18 6.85-.18a33.37 33.37 0 0 1 7.86.8 15.68 15.68 0 0 1 5.39 2.31 9.07 9.07 0 0 1 3.09 3.68 11.93 11.93 0 0 1 1 5 10.8 10.8 0 0 1-.63 4 7.54 7.54 0 0 1-1.58 2.57 7.4 7.4 0 0 1-2.07 1.53 19.72 19.72 0 0 1-2.08.88l-1.58.55c-.42.14-.62.33-.62.57s.19.46.57.67a11 11 0 0 1 1.35.91 11.23 11.23 0 0 1 1.6 1.58 8.3 8.3 0 0 1 1.41 2.7 6.28 6.28 0 0 0 1.27 2.52 11.31 11.31 0 0 0 1.4 1.29c.43.33.8.63 1.11.91a1.59 1.59 0 0 1 .47 1.25 2.15 2.15 0 0 1-.88 1.55 5.18 5.18 0 0 1-3.32.78 13 13 0 0 1-3.22-.36 6.06 6.06 0 0 1-2.44-1.27 8.15 8.15 0 0 1-1.81-2.42 18.77 18.77 0 0 1-1.4-3.84 14.71 14.71 0 0 0-1-2.85 4.82 4.82 0 0 0-1.38-1.69 4.63 4.63 0 0 0-1.92-.8 14.25 14.25 0 0 0-2.7-.2zm11.31-10.17a5 5 0 0 0-2.12-4.2c-1.42-1-3.76-1.55-7-1.55a20.23 20.23 0 0 0-2.28.1 4 4 0 0 0-1.37.36 1.4 1.4 0 0 0-.68.78 4.24 4.24 0 0 0-.18 1.35V411.84a2.16 2.16 0 0 0 .15.83 1.35 1.35 0 0 0 .68.62 4.53 4.53 0 0 0 1.53.39 22.23 22.23 0 0 0 2.77.13q4.41 0 6.49-1.66a5.27 5.27 0 0 0 2.01-4.27zm14.76 23.4a4.5 4.5 0 0 1-2.41-.49 2.21 2.21 0 0 1-.76-2v-2.33c0-1.21 0-2.56.05-4s0-3 .05-4.54 0-2.83 0-3.86v-4-4.8-4.28-2.41a2.08 2.08 0 0 1 .77-1.92 6.9 6.9 0 0 1 3.12-.47 5.87 5.87 0 0 1 2.75.49 2.05 2.05 0 0 1 .88 2v12.93c0 .59.24.88.72.88a1.31 1.31 0 0 0 .81-.39 8.54 8.54 0 0 0 .9-1c.32-.38.63-.77.94-1.16s.6-.76.88-1.07l2.15-2.41c.89-1 1.79-2 2.73-3l2.64-2.88 1.82-2a9.19 9.19 0 0 1 2.39-2 5.82 5.82 0 0 1 2.69-.54h2.44a1.92 1.92 0 0 1 1.43.41 1.41 1.41 0 0 1 .39 1 3.38 3.38 0 0 1-.29 1.22 6.19 6.19 0 0 1-1.11 1.63c-.42.48-1.12 1.23-2.1 2.23l-3.22 3.27-3.45 3.48c-1.14 1.14-2.08 2.09-2.8 2.85a1.25 1.25 0 0 0-.34.49 1.52 1.52 0 0 0-.08.44c0 .31.19.54.57.68a14 14 0 0 0 1.43.41c.57.14 1.2.31 1.89.52a7.26 7.26 0 0 1 2 1 6.86 6.86 0 0 1 1.76 1.95 8.66 8.66 0 0 1 1.09 3.27 10.88 10.88 0 0 0 1.25 4 9 9 0 0 0 1.63 2 15.83 15.83 0 0 0 1.4 1.12 1.4 1.4 0 0 1 .6 1.24 2.17 2.17 0 0 1-.89 1.56 5.14 5.14 0 0 1-3.32.78 8.43 8.43 0 0 1-5.88-2c-1.47-1.33-2.62-3.56-3.45-6.67a17.17 17.17 0 0 0-1.87-4.77 2.56 2.56 0 0 0-2-1.35 3.53 3.53 0 0 0-1.22.18 4.14 4.14 0 0 0-1.17.75c-.59.52-1.08 1-1.48 1.33a7.91 7.91 0 0 0-1 1 3.73 3.73 0 0 0-.54.93 2.83 2.83 0 0 0-.19 1.09v6.67a3 3 0 0 1-.5 1.84c-.33.44-1 .65-2.15.65zm32.45-12.34a3.26 3.26 0 0 1 1.92.51 6.28 6.28 0 0 1 1.35 1.33c.42.53.84 1.1 1.27 1.71a8.76 8.76 0 0 0 1.64 1.71 7.7 7.7 0 0 0 2.49 1.32 11.83 11.83 0 0 0 3.88.48 7.86 7.86 0 0 0 4.35-.88 2.78 2.78 0 0 0 1.25-2.39 4 4 0 0 0-.34-1.71 3.34 3.34 0 0 0-1.37-1.35 15.29 15.29 0 0 0-2.91-1.24q-1.86-.63-5-1.35a22.43 22.43 0 0 1-5.13-1.76 12 12 0 0 1-3.25-2.34 7.18 7.18 0 0 1-1.68-2.8 10.85 10.85 0 0 1-.47-3.22 11.68 11.68 0 0 1 1.06-5.18 9.75 9.75 0 0 1 2.91-3.58 12 12 0 0 1 4.36-2.05 21.25 21.25 0 0 1 5.42-.65 18.92 18.92 0 0 1 6.46 1 13.16 13.16 0 0 1 4.25 2.41 8.88 8.88 0 0 1 2.36 3.16 8.23 8.23 0 0 1 .73 3.22 3.83 3.83 0 0 1-.78 2.41 3.54 3.54 0 0 1-3 1 3.37 3.37 0 0 1-2.44-.81 5.39 5.39 0 0 1-1.24-1.84 11.63 11.63 0 0 0-1-2 5.15 5.15 0 0 0-1.33-1.38 5.34 5.34 0 0 0-1.89-.8 12.65 12.65 0 0 0-2.77-.26 6.34 6.34 0 0 0-4.18 1.17A4 4 0 0 0 233 406a6.14 6.14 0 0 0 .26 1.81 3.71 3.71 0 0 0 1.07 1.58 7.23 7.23 0 0 0 2.36 1.38 24.36 24.36 0 0 0 4.2 1.14 31.18 31.18 0 0 1 6.25 1.84 12.63 12.63 0 0 1 3.76 2.39 6.84 6.84 0 0 1 1.84 2.93 11.41 11.41 0 0 1 .5 3.37 8.79 8.79 0 0 1-.86 3.82 8.39 8.39 0 0 1-2.62 3.11 13.7 13.7 0 0 1-4.41 2.1 22.1 22.1 0 0 1-6.22.78 19 19 0 0 1-6.54-1 16.17 16.17 0 0 1-4.57-2.49 10 10 0 0 1-2.69-3.22 7.12 7.12 0 0 1-.89-3.19c0-2.27 1.01-3.41 3.01-3.41zm51.88.62c0-.9-.12-1.44-.36-1.61a2.78 2.78 0 0 0-1.45-.26H266.1a1.09 1.09 0 0 0-.83.29 1.84 1.84 0 0 0-.26 1.16v1.51c0 .38 0 .69-.05.93s0 .46 0 .65V429.1a1.74 1.74 0 0 1-1 1.69 6.81 6.81 0 0 1-3 .49 4.37 4.37 0 0 1-2.57-.57 2.07 2.07 0 0 1-.75-1.76c0-.59 0-1.64.05-3.14s.05-3.78.05-6.82l.21-20.5c0-1 .32-1.69 1-2a7.77 7.77 0 0 1 2.88-.41 5.29 5.29 0 0 1 2.85.52 2.06 2.06 0 0 1 .73 1.81v1.79c0 .84 0 1.84-.08 3s-.06 2.35-.07 3.68-.05 2.66-.08 4a1.78 1.78 0 0 0 .21 1.07c.13.15.48.23 1 .23h10.77a8.3 8.3 0 0 0 1.24-.07 1.27 1.27 0 0 0 .7-.32 1.06 1.06 0 0 0 .29-.65 10.74 10.74 0 0 0 .05-1.14v-3.24-3.55-3.06-1.77a2 2 0 0 1 1-2 6.7 6.7 0 0 1 2.8-.47 5.21 5.21 0 0 1 2.67.52 2 2 0 0 1 .81 1.82v2.52c0 1.22 0 2.63-.08 4.22s-.07 3.3-.1 5.11-.06 3.56-.08 5.22 0 3.14-.05 4.43 0 2.24 0 2.83V429a1.83 1.83 0 0 1-1 1.82 6.62 6.62 0 0 1-2.75.46 4.65 4.65 0 0 1-2.73-.59 1.93 1.93 0 0 1-.75-1.59zm29.26 12.71a18.49 18.49 0 0 1-7.55-1.45 14.89 14.89 0 0 1-5.39-4 16.94 16.94 0 0 1-3.24-5.94 23.58 23.58 0 0 1-1.09-7.29 24.43 24.43 0 0 1 .54-5.19 15.19 15.19 0 0 1 2-4.82 20.37 20.37 0 0 1 2.7-3.53 13.16 13.16 0 0 1 3.29-2.49 15 15 0 0 1 4.1-1.45 25.11 25.11 0 0 1 5.06-.47 20.2 20.2 0 0 1 7.11 1.19 14.37 14.37 0 0 1 5.36 3.51 15.4 15.4 0 0 1 3.38 5.68 24 24 0 0 1 1.14 7.78 24.69 24.69 0 0 1-1 6.93 16.7 16.7 0 0 1-3.09 5.91 15.06 15.06 0 0 1-5.39 4.1 18.82 18.82 0 0 1-7.93 1.53zm.31-6.64c3.22 0 5.61-1.05 7.19-3.14s2.36-4.94 2.36-8.54a16 16 0 0 0-.57-4.28 10.61 10.61 0 0 0-1.76-3.6 8.8 8.8 0 0 0-3-2.49 9.26 9.26 0 0 0-4.26-.94 9.92 9.92 0 0 0-4.3.89 7.38 7.38 0 0 0-3 2.54 14 14 0 0 0-.83 1.35 8.92 8.92 0 0 0-.65 1.55 11.43 11.43 0 0 0-.44 2.11 22.22 22.22 0 0 0-.16 2.93q0 5.6 2.47 8.61a8.51 8.51 0 0 0 6.95 3.01zm21.43-13.7v-12.14a4.5 4.5 0 0 1 .34-1.79 2.9 2.9 0 0 1 1.61-1.37 13.1 13.1 0 0 1 3.7-.86 60.56 60.56 0 0 1 6.64-.28 25.58 25.58 0 0 1 7.61 1 14.74 14.74 0 0 1 5.11 2.65 9.91 9.91 0 0 1 2.87 3.84 11.64 11.64 0 0 1 .91 4.56q0 5.72-3.63 8.48t-10.32 2.78h-2.23l-1.53-.11c-.44 0-.81-.06-1.12-.1s-.64 0-1 0a1 1 0 0 0-.77.23.94.94 0 0 0-.21.65v9.38a2.22 2.22 0 0 1-.89 1.87 5.16 5.16 0 0 1-3.06.67 5.22 5.22 0 0 1-3.24-.7 2.3 2.3 0 0 1-.8-1.84zm8-.21a1.76 1.76 0 0 0 1.17 1.64 11.08 11.08 0 0 0 4.17.54q4.05 0 6-1.53a4.93 4.93 0 0 0 1.92-4.07 5 5 0 0 0-2.33-4.67 12.94 12.94 0 0 0-6.59-1.4 12.14 12.14 0 0 0-2.21.16 3.12 3.12 0 0 0-1.32.49 1.57 1.57 0 0 0-.62.83 3.72 3.72 0 0 0-.16 1.17zm26.19 7.22a3.3 3.3 0 0 1 1.92.51 6.77 6.77 0 0 1 1.35 1.33c.41.53.83 1.1 1.27 1.71a8.69 8.69 0 0 0 1.63 1.71 7.92 7.92 0 0 0 2.49 1.32 11.83 11.83 0 0 0 3.82.48 7.87 7.87 0 0 0 4.36-.88 2.77 2.77 0 0 0 1.24-2.39 4.14 4.14 0 0 0-.33-1.71 3.44 3.44 0 0 0-1.38-1.35 15.15 15.15 0 0 0-2.9-1.24q-1.87-.63-5-1.35a22.53 22.53 0 0 1-5.14-1.76 11.77 11.77 0 0 1-3.24-2.34 7.09 7.09 0 0 1-1.69-2.8 10.85 10.85 0 0 1-.47-3.22 11.68 11.68 0 0 1 1.07-5.18 9.83 9.83 0 0 1 2.9-3.58 12 12 0 0 1 4.36-2.05 21.36 21.36 0 0 1 5.42-.65 18.88 18.88 0 0 1 6.46 1 13.11 13.11 0 0 1 4.26 2.41 9 9 0 0 1 2.36 3.16 8.38 8.38 0 0 1 .72 3.22 3.83 3.83 0 0 1-.78 2.41 3.52 3.52 0 0 1-2.95 1 3.36 3.36 0 0 1-2.44-.81 5.42 5.42 0 0 1-1.25-1.84 11 11 0 0 0-1-2 5 5 0 0 0-1.32-1.38 5.42 5.42 0 0 0-1.89-.8 12.75 12.75 0 0 0-2.78-.26 6.34 6.34 0 0 0-4.18 1.17 4 4 0 0 0-1.37 3.19 6.14 6.14 0 0 0 .26 1.81 3.68 3.68 0 0 0 1.06 1.58 7.34 7.34 0 0 0 2.36 1.38 24.36 24.36 0 0 0 4.2 1.14 31.3 31.3 0 0 1 6.26 1.84 12.76 12.76 0 0 1 3.76 2.39 6.94 6.94 0 0 1 1.84 2.93 11.4 11.4 0 0 1 .49 3.37 8.78 8.78 0 0 1-.85 3.82 8.49 8.49 0 0 1-2.62 3.11 13.91 13.91 0 0 1-4.41 2.1 22.18 22.18 0 0 1-6.23.78 19.12 19.12 0 0 1-6.54-1 16.11 16.11 0 0 1-4.56-2.49 10.16 10.16 0 0 1-2.7-3.22 7.1 7.1 0 0 1-.88-3.19q.03-3.38 3.04-3.38z"/></g></g></svg>