<svg xmlns="http://www.w3.org/2000/svg" viewBox="0 0 56.693 56.693">
  <circle cx="28.347" cy="28.347" r="28.347" fill="#EC2027"/>
  <path fill="#FFF" d="M27.669 30.619h1.299c-.191.727-.554 1.278-1.091 1.661-.536.399-1.211.599-2.024.599-.988 0-1.758-.321-2.312-.961-.554-.624-.831-1.517-.831-2.674 0-1.107.268-1.976.805-2.598.554-.642 1.324-.961 2.311-.961 1.04 0 1.844.312 2.416.935.31.38.536.822.673 1.325h-1.816c-.086-.173-.174-.304-.259-.39-.227-.24-.545-.364-.961-.364-.38 0-.692.124-.934.364-.311.346-.467.917-.467 1.713 0 .795.156 1.36.467 1.687.225.277.561.418 1.013.418.293 0 .546-.062.752-.183.052-.018.098-.05.143-.091.042-.045.09-.091.142-.145.034-.05.104-.12.208-.206.103-.085.257-.129.466-.129zm-13.221 2.129V25.4h2.647v-.651c0-.261-.091-.48-.271-.661-.183-.18-.404-.273-.663-.273h-6.18V25.4h2.623v7.348h1.844zm19.54-4.96c-.259-.363-.614-.545-1.064-.545-.485 0-.859.173-1.117.518-.262.347-.39.822-.39 1.429v3.557h-1.766v-8.932h.881c.245 0 .452.087.625.258.173.174.259.383.259.625v2.051c.312-.518.754-.849 1.325-.986.569-.14 1.115-.104 1.635.105.484.206.89.536 1.222.986.326.449.491 1.072.491 1.871v4.023H34.35v-3.584c0-.259-.023-.498-.065-.712-.044-.218-.141-.44-.297-.664zM20.71 30.619h1.298c-.191.727-.553 1.278-1.09 1.661-.536.399-1.211.599-2.025.599-.989 0-1.756-.321-2.312-.961-.554-.624-.83-1.517-.83-2.674 0-1.107.268-1.976.804-2.598.554-.642 1.326-.961 2.312-.961 1.038 0 1.843.312 2.415.935.555.64.832 1.533.832 2.674v.287c0 .087-.009.148-.027.182h-4.491c.018.538.146.934.389 1.193.224.277.561.418 1.013.418.293 0 .545-.062.75-.183.054-.018.1-.05.145-.091.042-.045.09-.091.142-.145.018-.05.081-.12.195-.206.112-.086.271-.13.48-.13zm-3.115-2.027h2.647c-.036-.468-.155-.812-.364-1.038-.226-.24-.544-.364-.962-.364-.377 0-.691.124-.933.364-.243.243-.371.59-.388 1.038zm27.636 4.156v-3.351c0-.672.1-1.24.3-1.7.199-.458.472-.827.817-1.104.328-.261.713-.45 1.155-.569.441-.124.896-.183 1.364-.183h.259v1.842h-.598c-.501 0-.874.124-1.117.365-.242.241-.363.622-.363 1.143v3.557h-1.817zM7.856 23.815h1.155l.001 1.582H7.129l-.002-.887c-.001-.463.243-.695.729-.695zm-3.604 7.067h1.909v1.864H4.252v-1.864zm.729-4.723h1.181v1.909h-1.91v-1.183c0-.485.243-.726.729-.726zm2.148 0h1.885v6.587H7.129v-6.587zm45.312 6.589c-.571.034-1.189.025-1.856-.028-.667-.05-1-.476-1-1.272v-7.632h.935c.225 0 .423.087.597.258.173.174.26.383.26.625v1.17h1.065v.925c0 .259-.086.471-.26.636-.173.164-.381.247-.624.247h-.182v3.091c0 .294.173.443.521.443.438 0 .545.165.545.54v.997h-.001zm-12.128-8.933h1.455l3.244 8.932h-1.944l-.6-1.843H38.99l-.571 1.843h-1.947l2.96-8.338c.155-.394.451-.594.881-.594zm.416 1.79l-1.247 3.792h2.492l-1.245-3.792z"/>
</svg>
