<svg xmlns="http://www.w3.org/2000/svg" width="250" height="250" viewBox="0 0 280 279">
    <title>MinskCSS</title>
    <rect fill="#FFFFFF" width="280" height="279.1"/>
    <path fill="#0088C5" d="M280 180c0 60.3 0 99 0 99H1V0c0 0 38.7 0 99 0"/>
    <path fill="#00ADE6" d="M160 15V0h-60v15h15v15h15V45h15V15H160zM265 135H235v15h15v15h15v15h15V120h-15V135zM205 75V60h-15v15H205zM220 90v-15H205v15H220zM235 105V90h-15v15H235zM250 120v-15h-15v15H250zM175 30h-15V45h15V30zM190 60v-15H175v15H190zM145 45v15h15v-15H145zM160 60v15h15V60H160zM175 75v15h15v-15H175zM220 120v15h15V120H220zM190 90v15h15V90H190zM205 105v15h15v-15H205zM229.1 10.5L218.5-0.1 207.9 10.5l10.6 10.6L229.1 10.5zM280 0h-15v15h15V0zM246.8 59L280 26h-22.6L224 59H246.8zM221 56l33-33.4V0l-33 33.2V56zM216 33.2L183 0v22.6l33 33.4V33.2zM224 64l33.4 33H280l-33.2-33H224zM269.5 50.9l-10.6 10.6L269.5 72.1l10.6-10.6L269.5 50.9z"/>
    <path fill="#FFFFFF" d="M53.9 134.8l0.1-3h-0.2l-1.4 2.4 -8.4 12.3H42.9l-8.8-12.4 -1.3-2.3h-0.2l0.3 2.9v18h-3.7v-27.9h3l10 14.2 1.5 2.2h0.1l1.4-2.3 9.6-14.1h3.1v27.9h-4V134.8zM66 126.8c0-0.6 0.2-1.1 0.6-1.5 0.4-0.4 0.9-0.6 1.6-0.6 0.6 0 1.2 0.2 1.5 0.6s0.6 0.9 0.6 1.5c0 0.6-0.2 1.1-0.6 1.5 -0.4 0.4-0.9 0.6-1.5 0.6 -0.7 0-1.2-0.2-1.6-0.6C66.2 127.9 66 127.4 66 126.8zM66.5 133.9h3.3v18.8h-3.3V133.9zM89.1 152.7v-10.4c0-0.9-0.1-1.7-0.2-2.4 -0.1-0.7-0.3-1.4-0.6-1.9 -0.3-0.5-0.7-0.9-1.3-1.2 -0.6-0.3-1.3-0.4-2.2-0.4 -0.7 0-1.3 0.1-1.8 0.3 -0.5 0.2-0.9 0.5-1.3 0.8 -0.4 0.4-0.7 0.8-0.9 1.3s-0.4 1-0.6 1.6v12.4h-3.3v-18.8h2.3l0.7 2.5h0.3c0.3-0.4 0.7-0.8 1-1.2 0.3-0.4 0.7-0.7 1.2-1 0.4-0.3 0.9-0.5 1.5-0.6 0.6-0.2 1.2-0.2 2-0.2 1.1 0 2 0.1 2.9 0.4s1.5 0.7 2.1 1.3c0.6 0.6 1 1.5 1.3 2.5 0.3 1.1 0.4 2.4 0.4 4v11.1H89.1zM106.6 147.5c0-0.5-0.1-0.9-0.4-1.2 -0.3-0.3-0.6-0.6-1.1-0.9 -0.4-0.2-0.9-0.5-1.5-0.6 -0.6-0.2-1.1-0.4-1.7-0.6 -0.6-0.2-1.2-0.5-1.7-0.7 -0.6-0.3-1.1-0.6-1.5-1 -0.4-0.4-0.8-0.9-1.1-1.5 -0.3-0.6-0.4-1.3-0.4-2.1 0-1.9 0.5-3.2 1.6-4.2 1-0.9 2.6-1.4 4.6-1.4 0.8 0 1.4 0 2 0.1 0.6 0.1 1.1 0.2 1.6 0.3 0.5 0.1 0.9 0.3 1.3 0.4 0.4 0.2 0.8 0.3 1.2 0.5l-0.8 2.8c-0.3-0.2-0.7-0.3-1-0.5 -0.3-0.2-0.7-0.3-1.1-0.4s-0.8-0.2-1.3-0.3 -0.9-0.1-1.5-0.1c-1.2 0-2 0.2-2.5 0.6 -0.5 0.4-0.8 1.1-0.8 2.1 0 0.5 0.1 0.9 0.4 1.2s0.6 0.6 1.1 0.8c0.4 0.2 0.9 0.4 1.5 0.6 0.6 0.2 1.1 0.4 1.7 0.6 0.6 0.2 1.2 0.5 1.7 0.7 0.6 0.3 1.1 0.6 1.5 1s0.8 0.9 1.1 1.5c0.3 0.6 0.4 1.3 0.4 2.1 0 1.1-0.2 2-0.6 2.8 -0.4 0.8-0.9 1.4-1.5 1.8 -0.6 0.5-1.3 0.8-2.1 1 -0.8 0.2-1.7 0.3-2.6 0.3 -0.8 0-1.5 0-2.1-0.1s-1.2-0.2-1.8-0.3c-0.5-0.1-1-0.3-1.5-0.5s-0.9-0.4-1.3-0.6l0.9-2.9c0.9 0.5 1.9 0.8 2.7 1.2 0.9 0.3 1.8 0.5 2.8 0.5 0.5 0 1 0 1.5-0.1 0.4-0.1 0.8-0.2 1.1-0.5 0.3-0.2 0.6-0.5 0.7-0.9S106.6 148.1 106.6 147.5zM119.9 144.3h-2v8.4h-3.3v-28.3h3.3v18l1.8-0.6 7.1-8h3.9l-7 7.3 -1.5 1.4 1.8 1.6 7.6 8.5h-4.2L119.9 144.3zM89.3 241.5c-4.3 4.8-13.5 8.2-23.1 8.2 -22 0-37.3-14.6-37.3-36.8 0-20.4 12.7-36.8 37.2-36.8 9.4 0 17.5 3.2 21.7 7.4l-7.2 12.2c-3.9-2.3-7.8-4.4-14.5-4.4 -11 0-19.9 7.5-19.9 21.5 0 12.6 8.7 21.5 21.5 21.5 5.1 0 10.7-1.6 15.4-5.2L89.3 241.5zM96.9 196.7c0-11 8.7-20.5 22.9-20.5 9.1 0 16.4 3 20.9 7.8l-8.7 12.2c-3.1-2.9-5.5-4.8-10.8-4.8 -4.5 0-7.1 2-7.1 5.3 0 11.8 29.6 8.9 29.6 32.1 0 12.4-10.7 20.9-24.4 20.9 -9.5 0-20.6-4.1-24.1-11.7l9.2-11.1c4.1 5.2 10.3 7.5 15.2 7.5 4.3 0 6.7-2.1 6.7-5.5C126.6 218.4 96.9 219.7 96.9 196.7zM153.5 196.7c0-11 8.7-20.5 22.9-20.5 9.1 0 16.4 3 20.9 7.8l-8.7 12.2c-3.1-2.9-5.5-4.8-10.8-4.8 -4.5 0-7.1 2-7.1 5.3 0 11.8 29.6 8.9 29.6 32.1 0 12.4-10.7 20.9-24.4 20.9 -9.5 0-20.6-4.1-24.1-11.7l9.2-11.1c4.1 5.2 10.3 7.5 15.2 7.5 4.3 0 6.7-2.1 6.7-5.5C183.1 218.4 153.5 219.7 153.5 196.7z"/>
</svg>
