<?xml version="1.0" encoding="utf-8"?>
<!-- Generator: Adobe Illustrator 22.1.0, SVG Export Plug-In . SVG Version: 6.00 Build 0)  -->
<svg version="1.1" id="Слой_1" xmlns="http://www.w3.org/2000/svg" xmlns:xlink="http://www.w3.org/1999/xlink" x="0px" y="0px"
	 viewBox="0 0 275.7 224.2" style="enable-background:new 0 0 275.7 224.2;" xml:space="preserve">
<style type="text/css">
	.st0{fill:#FFFFFF;}
	.st1{fill:#FC4A4A;}
</style>
<title>logo wrw</title>
<path class="st0" d="M9,59.7c2.7,2.6,6,4.6,9.5,5.8c6.7,2.1,13.9,2.3,20.7,0.6c2.7-0.6,5.2-1.7,7.4-3.3V44.5h-10v11
	c-1.9,0.4-3.9,0.6-5.8,0.5c-2.6,0-5.1-0.5-7.5-1.6c-2.2-1-4.1-2.6-5.6-4.5c-1.6-2.1-2.8-4.5-3.5-7c-0.8-2.9-1.2-6-1.2-9
	c-0.1-3.3,0.4-6.6,1.3-9.8c0.7-2.5,2-4.8,3.6-6.8c1.4-1.7,3.3-3.1,5.3-4c2.1-0.9,4.3-1.4,6.6-1.4c2,0,3.9,0.2,5.8,0.5v10.4h10v-19
	c-2-0.9-4.1-1.6-6.3-2.1c-3-0.7-6.1-1-9.2-0.9c-3.6,0-7.2,0.6-10.6,1.7c-3.6,1.1-6.9,3-9.8,5.6c-3.1,2.8-5.5,6.3-7.2,10.2
	C0.9,22.6,0,27.8,0,34c-0.1,5.2,0.7,10.4,2.5,15.4C3.9,53.3,6.1,56.8,9,59.7z"/>
<path class="st0" d="M64.3,65.3c1.8,0.6,3.6,1,5.5,1.4c2.1,0.4,4.3,0.6,6.4,0.5c3.3,0,6.5-0.4,9.7-1.2c2.8-0.7,5.4-2,7.8-3.7
	c2.2-1.6,3.9-3.8,5.1-6.2c1.3-2.7,1.9-5.6,1.8-8.6c0.1-3-0.7-5.9-2.3-8.5c-1.5-2.2-3.5-4.1-5.7-5.6c-2.4-1.5-4.9-2.8-7.5-3.8
	c-2.7-1-5.2-2.1-7.5-3.1c-2-0.9-4-2.1-5.7-3.5c-1.5-1.2-2.4-3-2.3-4.9c0-1.9,0.9-3.6,2.5-4.6c2.1-1.3,4.5-1.9,6.9-1.7
	c1.5,0,3.1,0.1,4.6,0.3s2.9,0.5,4.3,0.9c0.1,0,0.3,0,0.5,0v10.1h10V4.6c-2.7-1.3-5.6-2.3-8.6-2.7c-3.6-0.7-7.3-1-10.9-1
	c-3,0-6.1,0.4-8.9,1.4c-2.5,0.8-4.9,2.1-6.9,3.8c-1.9,1.6-3.4,3.6-4.5,5.9c-1.1,2.4-1.6,4.9-1.6,7.5c-0.1,3.1,0.7,6.1,2.3,8.8
	c1.5,2.2,3.5,4.1,5.7,5.6c2.3,1.5,4.8,2.8,7.5,3.7c2.7,1,5.2,2,7.4,2.9c2.1,0.8,4,2,5.7,3.4c1.5,1.2,2.4,3.1,2.3,5
	c0.1,2.2-1,4.3-2.8,5.5c-1.9,1.4-4.5,2-7.9,2c-1.8,0-3.6-0.1-5.3-0.5c-1.6-0.4-3.1-0.9-4.6-1.5l-0.6-0.2v-9h-10v17
	c0.8,0.4,1.8,0.9,3.1,1.5C61.4,64.3,62.8,64.9,64.3,65.3z"/>
<path class="st0" d="M119.1,65.3c1.8,0.6,3.6,1,5.5,1.4c2.1,0.4,4.3,0.6,6.4,0.5c3.3,0,6.5-0.4,9.7-1.2c2.8-0.7,5.4-2,7.8-3.7
	c2.2-1.6,3.9-3.8,5.1-6.2c1.3-2.7,1.9-5.6,1.8-8.6c0.1-3-0.7-5.9-2.3-8.5c-1.5-2.2-3.5-4.1-5.8-5.6s-4.9-2.8-7.5-3.8
	c-2.7-1-5.2-2.1-7.5-3.1c-2.1-0.9-4-2.1-5.8-3.5c-1.5-1.2-2.4-3-2.3-4.9c0-1.9,0.9-3.6,2.5-4.6c2.1-1.3,4.5-1.9,6.9-1.7
	c1.5,0,3.1,0.1,4.6,0.3s2.9,0.5,4.3,0.9c0.2,0.1,0.4,0.1,0.5,0.1v10.1h10V4.6c-2.7-1.3-5.6-2.3-8.6-2.7c-3.6-0.7-7.3-1-10.9-1
	c-3,0-6.1,0.4-8.9,1.4c-2.5,0.8-4.9,2.1-6.9,3.8c-1.9,1.6-3.4,3.6-4.5,5.9c-1.1,2.4-1.6,4.9-1.6,7.5c-0.1,3.1,0.7,6.1,2.3,8.8
	c1.5,2.2,3.5,4.1,5.7,5.6c2.3,1.5,4.9,2.8,7.5,3.7c2.7,1,5.2,1.9,7.5,2.9c2.1,0.8,4,2,5.8,3.4c1.5,1.2,2.4,3.1,2.3,5
	c0.1,2.2-1,4.3-2.8,5.5c-1.9,1.4-4.5,2-7.9,2c-1.8,0-3.6-0.2-5.3-0.6c-1.6-0.4-3.1-0.9-4.6-1.5l-0.6-0.2v-9h-10v17
	c0.8,0.4,1.8,0.9,3.1,1.5C116.1,64.3,117.6,64.8,119.1,65.3z"/>
<polygon class="st1" points="25.3,96.9 24.9,96.9 14.1,79.3 1.4,79.3 1.4,142.8 13.2,142.8 13.2,108 12.7,99.1 13.1,99.1
	23.8,115.7 25.9,115.7 36.1,99.1 36.6,99.1 36.2,109 36.2,142.8 48.6,142.8 48.6,79.3 36.1,79.3 "/>
<polygon class="st1" points="60.3,90.4 76.4,90.4 76.4,131.7 60.3,131.7 60.3,142.8 104.9,142.8 104.9,131.7 88.8,131.7 88.8,90.4
	104.9,90.4 104.9,79.3 60.3,79.3 "/>
<polygon class="st1" points="149.7,142.8 160.6,142.8 160.6,79.3 148.8,79.3 148.8,110.5 149.6,118.1 149.2,118.1 127.2,79.3
	116.3,79.3 116.3,142.8 128.1,142.8 128.1,112.8 127.6,105.2 128,105.2 "/>
<path class="st1" d="M190.5,144c3.2,0,6.5-0.4,9.6-1.2c2.8-0.7,5.4-2,7.7-3.7c2.1-1.6,3.9-3.7,5.1-6.1c1.3-2.7,1.9-5.6,1.8-8.6
	c0.1-3-0.7-5.9-2.3-8.4c-1.5-2.2-3.5-4.1-5.7-5.6c-2.3-1.5-4.8-2.8-7.4-3.8c-2.7-1-5.1-2-7.4-3.1c-2-0.9-4-2.1-5.7-3.4
	c-1.5-1.2-2.4-3-2.3-4.9c0-1.9,0.9-3.6,2.5-4.6c2.1-1.2,4.4-1.8,6.9-1.7c1.5,0,3.1,0.1,4.6,0.3c1.5,0.2,2.9,0.5,4.3,0.9
	c0.2,0.1,0.4,0.1,0.5,0.1v10.1h10V81.7c-2.7-1.4-5.6-2.3-8.6-2.8c-3.6-0.7-7.2-1-10.9-1c-3,0-6,0.4-8.9,1.4
	c-2.5,0.8-4.8,2.1-6.8,3.8c-1.9,1.6-3.4,3.6-4.5,5.9s-1.6,4.9-1.6,7.5c-0.1,3.1,0.7,6.1,2.3,8.7c1.5,2.2,3.5,4.1,5.7,5.6
	c2.3,1.5,4.8,2.7,7.4,3.7c2.7,1,5.1,1.9,7.4,2.9c2.1,0.8,4,2,5.7,3.4c1.5,1.2,2.4,3.1,2.3,5c0.1,2.2-1,4.2-2.8,5.5
	c-1.9,1.3-4.5,2-7.9,2c-1.8,0-3.6-0.2-5.3-0.6c-1.6-0.4-3.1-0.9-4.6-1.5l-0.5-0.2v-9h-10v16.9c0.8,0.4,1.8,0.9,3.1,1.6
	c1.4,0.7,2.9,1.2,4.4,1.7c1.8,0.6,3.6,1,5.4,1.4C186.2,143.7,188.3,143.9,190.5,144z"/>
<polygon class="st1" points="238.3,116.3 244.7,116.3 260.3,142.8 275.7,142.8 255.5,110 273.4,79.3 259.3,79.3 244.7,105.2
	238.3,105.2 238.3,79.3 225.9,79.3 225.9,142.8 238.3,142.8 "/>
<rect x="163.8" y="2.1" transform="matrix(0.7071 -0.7071 0.7071 0.7071 44.458 121.4187)" class="st0" width="9.9" height="9.9"/>
<rect x="262.9" y="16" transform="matrix(0.7071 -0.7071 0.7071 0.7071 63.6609 195.5315)" class="st0" width="9.9" height="9.9"/>
<rect x="262.9" y="43.9" transform="matrix(0.7071 -0.7071 0.7071 0.7071 43.9316 203.7114)" class="st0" width="9.9" height="9.9"/>
<rect x="163.8" y="30.2" transform="matrix(0.7071 -0.7071 0.7071 0.7071 24.5601 129.6199)" class="st0" width="9.9" height="9.9"/>
<rect x="221.1" y="29.6" transform="matrix(0.7071 -0.7071 0.7071 0.7071 41.7875 169.922)" class="st0" width="9.9" height="9.9"/>
<rect x="192.9" y="57.8" transform="matrix(0.7071 -0.7071 0.7071 0.7071 13.5908 158.2608)" class="st0" width="9.9" height="9.9"/>
<polygon class="st0" points="253.9,69.7 260.9,62.8 246.9,48.8 260.9,34.9 260.9,34.9 260.9,34.9 246.9,20.9 260.9,7 253.9,0
	239.9,13.9 226,0 219,7 246.9,34.9 219,62.8 226,69.7 239.9,55.8 "/>
<polygon class="st0" points="218.7,48.8 197.8,27.9 197.8,27.9 197.8,27.9 176.9,48.8 183.9,55.8 197.8,41.9 211.8,55.8 "/>
<polygon class="st0" points="183.9,27.9 197.8,14 211.8,27.9 218.7,20.9 197.8,0 197.8,0 197.8,0 176.9,20.9 "/>
<rect x="163.8" y="57.8" transform="matrix(0.7071 -0.7071 0.7071 0.7071 5.0472 137.7035)" class="st0" width="9.9" height="9.9"/>
<path class="st0" d="M181.1,168.4h25.6V198c0.2,3.5-0.9,7-3.2,9.7c-1.1,1.2-2.5,2.1-4,2.6c-1.4,0.5-2.8,0.7-4.3,0.8
	c-1.9,0-3.9-0.2-5.8-0.6c-2.1-0.6-4.1-1.5-6-2.6l-4.5,10c2.5,1.6,5.3,2.7,8.2,3.4c2.8,0.7,5.6,1,8.5,1c0.9,0,2.2,0,3.5-0.2
	c1.5-0.1,3-0.4,4.5-0.8c1.7-0.5,3.3-1.1,4.9-1.9c1.7-0.9,3.3-2.1,4.7-3.5c2.2-2.3,3.9-5.1,4.8-8.1c0.9-3.2,1.4-6.5,1.3-9.7v-40.7
	h-38.1v11H181.1z"/>
<path class="st0" d="M267.6,188.6c-2.3-1.5-4.9-2.8-7.5-3.8c-2.7-1-5.2-2.1-7.5-3.1c-2.1-0.9-4-2.1-5.7-3.5c-1.5-1.2-2.4-3-2.3-4.9
	c0-1.9,0.9-3.6,2.5-4.6c2.1-1.3,4.5-1.9,6.9-1.7c1.5,0,3.1,0.1,4.6,0.3s2.9,0.5,4.3,0.9c0.2,0,0.4,0,0.5,0v10.1h10v-18.5
	c-2.7-1.3-5.6-2.3-8.6-2.7c-3.6-0.7-7.3-1-10.9-1c-3,0-6.1,0.4-9,1.4c-2.5,0.8-4.9,2.1-6.9,3.8c-1.9,1.6-3.4,3.6-4.4,5.9
	c-1.1,2.4-1.6,4.9-1.6,7.5c-0.1,3.1,0.7,6.1,2.3,8.8c1.5,2.2,3.5,4.1,5.7,5.6c2.3,1.5,4.8,2.8,7.5,3.7c2.7,1,5.2,1.9,7.5,2.9
	c2.1,0.8,4,2,5.7,3.4c1.5,1.2,2.4,3.1,2.3,5c0.1,2.2-1,4.3-2.8,5.5c-2.4,1.5-5.1,2.2-7.9,2c-1.8,0-3.6-0.2-5.3-0.6
	c-1.6-0.4-3.1-0.9-4.6-1.5l-0.6-0.2v-9h-10v17c0.8,0.4,1.8,0.9,3.1,1.5c1.4,0.7,2.9,1.2,4.4,1.7c1.8,0.6,3.6,1,5.5,1.4
	c2.1,0.4,4.3,0.6,6.5,0.5c3.3,0,6.5-0.4,9.7-1.2c2.8-0.7,5.4-2,7.7-3.7c2.2-1.6,3.9-3.8,5.1-6.2c1.3-2.7,1.9-5.6,1.8-8.6
	c0.1-3-0.7-6-2.3-8.5C271.8,191.9,269.8,190,267.6,188.6z"/>
<rect x="2.9" y="170.5" transform="matrix(0.7071 -0.7071 0.7071 0.7071 -121.7702 56.919)" class="st0" width="9.9" height="9.9"/>
<rect x="46.5" y="156.6" transform="matrix(0.7071 -0.7071 0.7071 0.7071 -99.1465 83.6888)" class="st0" width="9.9" height="9.9"/>
<rect x="45.6" y="212.3" transform="matrix(0.7071 -0.7071 0.7071 0.7071 -138.7864 99.3904)" class="st0" width="9.9" height="9.9"/>
<rect x="31.7" y="198.1" transform="matrix(0.7071 -0.7071 0.7071 0.7071 -132.8426 85.3586)" class="st0" width="9.9" height="9.9"/>
<rect x="87.7" y="170.5" transform="matrix(0.7071 -0.7071 0.7071 0.7071 -96.9389 116.8942)" class="st0" width="9.9" height="9.9"/>
<rect x="101.4" y="156.6" transform="matrix(0.7071 -0.7071 0.7071 0.7071 -83.0551 122.5076)" class="st0" width="9.9" height="9.9"/>
<rect x="73.8" y="156.6" transform="matrix(0.7071 -0.7071 0.7071 0.7071 -91.134 102.9996)" class="st0" width="9.9" height="9.9"/>
<rect x="101.4" y="212" transform="matrix(0.7071 -0.7071 0.7071 0.7071 -122.2316 138.7428)" class="st0" width="9.9" height="9.9"/>
<path class="st0" d="M64.7,168.4l-20.8,20.8L64.7,210l20.8-20.8L64.7,168.4z M57.7,189.1l7-7l7,7l-7,7L57.7,189.1z"/>
<polygon class="st0" points="43.3,175.6 22.4,154.6 15.4,161.5 29.4,175.6 1.7,203.1 22.5,223.9 29.5,216.9 15.7,203.2 "/>
<polygon class="st0" points="120.8,168.4 113.6,175.4 113.6,175.4 106.7,182.1 71.9,216.9 79,223.9 113.7,189.1 127.7,175.3 "/>
<rect x="157.1" y="156" transform="matrix(0.7071 -0.7071 0.7071 0.7071 -66.3481 161.7354)" class="st0" width="9.9" height="9.9"/>
<rect x="129.8" y="156.6" transform="matrix(0.7071 -0.7071 0.7071 0.7071 -74.7354 142.5875)" class="st0" width="9.9" height="9.9"/>
<path class="st0" d="M148.6,168.4l-20.8,20.8l13.9,13.9l-7,7l-14-13.8l-6.8,6.8l20.8,20.8l20.9-20.7l13.9-13.9L148.6,168.4z
	 M148.7,196.3l-7-7l7-7l7,7L148.7,196.3z"/>
<rect x="183.9" y="184.1" transform="matrix(0.7071 -0.7071 0.7071 0.7071 -78.3971 188.932)" class="st0" width="9.9" height="9.9"/>
<rect x="157.1" y="212" transform="matrix(0.7071 -0.7071 0.7071 0.7071 -105.9457 178.1532)" class="st0" width="9.9" height="9.9"/>
</svg>
