<svg enable-background="new 0 0 275.7 224.2" viewBox="0 0 275.7 224.2" xmlns="http://www.w3.org/2000/svg"><path d="m9 59.7c2.7 2.6 6 4.6 9.5 5.8 6.7 2.1 13.9 2.3 20.7.6 2.7-.6 5.2-1.7 7.4-3.3v-18.3h-10v11c-1.9.4-3.9.6-5.8.5-2.6 0-5.1-.5-7.5-1.6-2.2-1-4.1-2.6-5.6-4.5-1.6-2.1-2.8-4.5-3.5-7-.8-2.9-1.2-6-1.2-9-.1-3.3.4-6.6 1.3-9.8.7-2.5 2-4.8 3.6-6.8 1.4-1.7 3.3-3.1 5.3-4 2.1-.9 4.3-1.4 6.6-1.4 2 0 3.9.2 5.8.5v10.4h10v-19c-2-.9-4.1-1.6-6.3-2.1-3-.7-6.1-1-9.2-.9-3.6 0-7.2.6-10.6 1.7-3.6 1.1-6.9 3-9.8 5.6-3.1 2.8-5.5 6.3-7.2 10.2-1.6 4.3-2.5 9.5-2.5 15.7-.1 5.2.7 10.4 2.5 15.4 1.4 3.9 3.6 7.4 6.5 10.3z" fill="#fff"/><path d="m64.3 65.3c1.8.6 3.6 1 5.5 1.4 2.1.4 4.3.6 6.4.5 3.3 0 6.5-.4 9.7-1.2 2.8-.7 5.4-2 7.8-3.7 2.2-1.6 3.9-3.8 5.1-6.2 1.3-2.7 1.9-5.6 1.8-8.6.1-3-.7-5.9-2.3-8.5-1.5-2.2-3.5-4.1-5.7-5.6-2.4-1.5-4.9-2.8-7.5-3.8-2.7-1-5.2-2.1-7.5-3.1-2-.9-4-2.1-5.7-3.5-1.5-1.2-2.4-3-2.3-4.9 0-1.9.9-3.6 2.5-4.6 2.1-1.3 4.5-1.9 6.9-1.7 1.5 0 3.1.1 4.6.3s2.9.5 4.3.9h.5v10.1h10v-18.5c-2.7-1.3-5.6-2.3-8.6-2.7-3.6-.7-7.3-1-10.9-1-3 0-6.1.4-8.9 1.4-2.5.8-4.9 2.1-6.9 3.8-1.9 1.6-3.4 3.6-4.5 5.9-1.1 2.4-1.6 4.9-1.6 7.5-.1 3.1.7 6.1 2.3 8.8 1.5 2.2 3.5 4.1 5.7 5.6 2.3 1.5 4.8 2.8 7.5 3.7 2.7 1 5.2 2 7.4 2.9 2.1.8 4 2 5.7 3.4 1.5 1.2 2.4 3.1 2.3 5 .1 2.2-1 4.3-2.8 5.5-1.9 1.4-4.5 2-7.9 2-1.8 0-3.6-.1-5.3-.5-1.6-.4-3.1-.9-4.6-1.5l-.6-.2v-9h-10v17c.8.4 1.8.9 3.1 1.5 1.6.6 3 1.2 4.5 1.6z" fill="#fff"/><path d="m119.1 65.3c1.8.6 3.6 1 5.5 1.4 2.1.4 4.3.6 6.4.5 3.3 0 6.5-.4 9.7-1.2 2.8-.7 5.4-2 7.8-3.7 2.2-1.6 3.9-3.8 5.1-6.2 1.3-2.7 1.9-5.6 1.8-8.6.1-3-.7-5.9-2.3-8.5-1.5-2.2-3.5-4.1-5.8-5.6s-4.9-2.8-7.5-3.8c-2.7-1-5.2-2.1-7.5-3.1-2.1-.9-4-2.1-5.8-3.5-1.5-1.2-2.4-3-2.3-4.9 0-1.9.9-3.6 2.5-4.6 2.1-1.3 4.5-1.9 6.9-1.7 1.5 0 3.1.1 4.6.3s2.9.5 4.3.9c.2.1.4.1.5.1v10.1h10v-18.6c-2.7-1.3-5.6-2.3-8.6-2.7-3.6-.7-7.3-1-10.9-1-3 0-6.1.4-8.9 1.4-2.5.8-4.9 2.1-6.9 3.8-1.9 1.6-3.4 3.6-4.5 5.9-1.1 2.4-1.6 4.9-1.6 7.5-.1 3.1.7 6.1 2.3 8.8 1.5 2.2 3.5 4.1 5.7 5.6 2.3 1.5 4.9 2.8 7.5 3.7 2.7 1 5.2 1.9 7.5 2.9 2.1.8 4 2 5.8 3.4 1.5 1.2 2.4 3.1 2.3 5 .1 2.2-1 4.3-2.8 5.5-1.9 1.4-4.5 2-7.9 2-1.8 0-3.6-.2-5.3-.6-1.6-.4-3.1-.9-4.6-1.5l-.6-.2v-9h-10v17c.8.4 1.8.9 3.1 1.5 1.5.7 3 1.2 4.5 1.7z" fill="#fff"/><path d="m25.3 96.9h-.4l-10.8-17.6h-12.7v63.5h11.8v-34.8l-.5-8.9h.4l10.7 16.6h2.1l10.2-16.6h.5l-.4 9.9v33.8h12.4v-63.5h-12.5z" fill="#fc4a4a"/><path d="m60.3 90.4h16.1v41.3h-16.1v11.1h44.6v-11.1h-16.1v-41.3h16.1v-11.1h-44.6z" fill="#fc4a4a"/><path d="m149.7 142.8h10.9v-63.5h-11.8v31.2l.8 7.6h-.4l-22-38.8h-10.9v63.5h11.8v-30l-.5-7.6h.4z" fill="#fc4a4a"/><path d="m190.5 144c3.2 0 6.5-.4 9.6-1.2 2.8-.7 5.4-2 7.7-3.7 2.1-1.6 3.9-3.7 5.1-6.1 1.3-2.7 1.9-5.6 1.8-8.6.1-3-.7-5.9-2.3-8.4-1.5-2.2-3.5-4.1-5.7-5.6-2.3-1.5-4.8-2.8-7.4-3.8-2.7-1-5.1-2-7.4-3.1-2-.9-4-2.1-5.7-3.4-1.5-1.2-2.4-3-2.3-4.9 0-1.9.9-3.6 2.5-4.6 2.1-1.2 4.4-1.8 6.9-1.7 1.5 0 3.1.1 4.6.3s2.9.5 4.3.9c.2.1.4.1.5.1v10.1h10v-18.6c-2.7-1.4-5.6-2.3-8.6-2.8-3.6-.7-7.2-1-10.9-1-3 0-6 .4-8.9 1.4-2.5.8-4.8 2.1-6.8 3.8-1.9 1.6-3.4 3.6-4.5 5.9s-1.6 4.9-1.6 7.5c-.1 3.1.7 6.1 2.3 8.7 1.5 2.2 3.5 4.1 5.7 5.6 2.3 1.5 4.8 2.7 7.4 3.7 2.7 1 5.1 1.9 7.4 2.9 2.1.8 4 2 5.7 3.4 1.5 1.2 2.4 3.1 2.3 5 .1 2.2-1 4.2-2.8 5.5-1.9 1.3-4.5 2-7.9 2-1.8 0-3.6-.2-5.3-.6-1.6-.4-3.1-.9-4.6-1.5l-.5-.2v-9h-10v16.9c.8.4 1.8.9 3.1 1.6 1.4.7 2.9 1.2 4.4 1.7 1.8.6 3.6 1 5.4 1.4 2.2.1 4.3.3 6.5.4z" fill="#fc4a4a"/><path d="m238.3 116.3h6.4l15.6 26.5h15.4l-20.2-32.8 17.9-30.7h-14.1l-14.6 25.9h-6.4v-25.9h-12.4v63.5h12.4z" fill="#fc4a4a"/><g fill="#fff"><path d="m163.8 2.1h9.9v9.9h-9.9z" transform="matrix(.7071 -.7071 .7071 .7071 44.458 121.4187)"/><path d="m262.9 16h9.9v9.9h-9.9z" transform="matrix(.7071 -.7071 .7071 .7071 63.6609 195.5315)"/><path d="m262.9 43.9h9.9v9.9h-9.9z" transform="matrix(.7071 -.7071 .7071 .7071 43.9316 203.7114)"/><path d="m163.8 30.2h9.9v9.9h-9.9z" transform="matrix(.7071 -.7071 .7071 .7071 24.5601 129.6199)"/><path d="m221.1 29.6h9.9v9.9h-9.9z" transform="matrix(.7071 -.7071 .7071 .7071 41.7875 169.922)"/><path d="m192.9 57.8h9.9v9.9h-9.9z" transform="matrix(.7071 -.7071 .7071 .7071 13.5908 158.2608)"/><path d="m253.9 69.7 7-6.9-14-14 14-13.9-14-14 14-13.9-7-7-14 13.9-13.9-13.9-7 7 27.9 27.9-27.9 27.9 7 6.9 13.9-13.9z"/><path d="m218.7 48.8-20.9-20.9-20.9 20.9 7 7 13.9-13.9 14 13.9z"/><path d="m183.9 27.9 13.9-13.9 14 13.9 6.9-7-20.9-20.9-20.9 20.9z"/><path d="m163.8 57.8h9.9v9.9h-9.9z" transform="matrix(.7071 -.7071 .7071 .7071 5.0472 137.7035)"/><path d="m181.1 168.4h25.6v29.6c.2 3.5-.9 7-3.2 9.7-1.1 1.2-2.5 2.1-4 2.6-1.4.5-2.8.7-4.3.8-1.9 0-3.9-.2-5.8-.6-2.1-.6-4.1-1.5-6-2.6l-4.5 10c2.5 1.6 5.3 2.7 8.2 3.4 2.8.7 5.6 1 8.5 1 .9 0 2.2 0 3.5-.2 1.5-.1 3-.4 4.5-.8 1.7-.5 3.3-1.1 4.9-1.9 1.7-.9 3.3-2.1 4.7-3.5 2.2-2.3 3.9-5.1 4.8-8.1.9-3.2 1.4-6.5 1.3-9.7v-40.7h-38.1v11z"/><path d="m267.6 188.6c-2.3-1.5-4.9-2.8-7.5-3.8-2.7-1-5.2-2.1-7.5-3.1-2.1-.9-4-2.1-5.7-3.5-1.5-1.2-2.4-3-2.3-4.9 0-1.9.9-3.6 2.5-4.6 2.1-1.3 4.5-1.9 6.9-1.7 1.5 0 3.1.1 4.6.3s2.9.5 4.3.9h.5v10.1h10v-18.5c-2.7-1.3-5.6-2.3-8.6-2.7-3.6-.7-7.3-1-10.9-1-3 0-6.1.4-9 1.4-2.5.8-4.9 2.1-6.9 3.8-1.9 1.6-3.4 3.6-4.4 5.9-1.1 2.4-1.6 4.9-1.6 7.5-.1 3.1.7 6.1 2.3 8.8 1.5 2.2 3.5 4.1 5.7 5.6 2.3 1.5 4.8 2.8 7.5 3.7 2.7 1 5.2 1.9 7.5 2.9 2.1.8 4 2 5.7 3.4 1.5 1.2 2.4 3.1 2.3 5 .1 2.2-1 4.3-2.8 5.5-2.4 1.5-5.1 2.2-7.9 2-1.8 0-3.6-.2-5.3-.6-1.6-.4-3.1-.9-4.6-1.5l-.6-.2v-9h-10v17c.8.4 1.8.9 3.1 1.5 1.4.7 2.9 1.2 4.4 1.7 1.8.6 3.6 1 5.5 1.4 2.1.4 4.3.6 6.5.5 3.3 0 6.5-.4 9.7-1.2 2.8-.7 5.4-2 7.7-3.7 2.2-1.6 3.9-3.8 5.1-6.2 1.3-2.7 1.9-5.6 1.8-8.6.1-3-.7-6-2.3-8.5-1.5-2.3-3.5-4.2-5.7-5.6z"/><path d="m2.9 170.5h9.9v9.9h-9.9z" transform="matrix(.7071 -.7071 .7071 .7071 -121.7702 56.919)"/><path d="m46.5 156.6h9.9v9.9h-9.9z" transform="matrix(.7071 -.7071 .7071 .7071 -99.1465 83.6888)"/><path d="m45.6 212.3h9.9v9.9h-9.9z" transform="matrix(.7071 -.7071 .7071 .7071 -138.7864 99.3904)"/><path d="m31.7 198.1h9.9v9.9h-9.9z" transform="matrix(.7071 -.7071 .7071 .7071 -132.8426 85.3586)"/><path d="m87.7 170.5h9.9v9.9h-9.9z" transform="matrix(.7071 -.7071 .7071 .7071 -96.9389 116.8942)"/><path d="m101.4 156.6h9.9v9.9h-9.9z" transform="matrix(.7071 -.7071 .7071 .7071 -83.0551 122.5076)"/><path d="m73.8 156.6h9.9v9.9h-9.9z" transform="matrix(.7071 -.7071 .7071 .7071 -91.134 102.9996)"/><path d="m101.4 212h9.9v9.9h-9.9z" transform="matrix(.7071 -.7071 .7071 .7071 -122.2316 138.7428)"/><path d="m64.7 168.4-20.8 20.8 20.8 20.8 20.8-20.8zm-7 20.7 7-7 7 7-7 7z"/><path d="m43.3 175.6-20.9-21-7 6.9 14 14.1-27.7 27.5 20.8 20.8 7-7-13.8-13.7z"/><path d="m120.8 168.4-7.2 7-6.9 6.7-34.8 34.8 7.1 7 34.7-34.8 14-13.8z"/><path d="m157.1 156h9.9v9.9h-9.9z" transform="matrix(.7071 -.7071 .7071 .7071 -66.3481 161.7354)"/><path d="m129.8 156.6h9.9v9.9h-9.9z" transform="matrix(.7071 -.7071 .7071 .7071 -74.7354 142.5875)"/><path d="m148.6 168.4-20.8 20.8 13.9 13.9-7 7-14-13.8-6.8 6.8 20.8 20.8 20.9-20.7 13.9-13.9zm.1 27.9-7-7 7-7 7 7z"/><path d="m183.9 184.1h9.9v9.9h-9.9z" transform="matrix(.7071 -.7071 .7071 .7071 -78.3971 188.932)"/><path d="m157.1 212h9.9v9.9h-9.9z" transform="matrix(.7071 -.7071 .7071 .7071 -105.9457 178.1532)"/></g></svg>