<svg height="250" viewBox="0 0 280 279" width="250" xmlns="http://www.w3.org/2000/svg"><path d="m0 0h280v279.1h-280z" fill="#fff"/><path d="m280 180v99h-279v-279h99" fill="#0088c5"/><path d="m160 15v-15h-60v15h15v15h15v15h15v-30zm105 120h-30v15h15v15h15v15h15v-60h-15zm-60-60v-15h-15v15zm15 15v-15h-15v15zm15 15v-15h-15v15zm15 15v-15h-15v15zm-75-90h-15v15h15zm15 30v-15h-15v15zm-45-15v15h15v-15zm15 15v15h15v-15zm15 15v15h15v-15zm45 45v15h15v-15zm-30-30v15h15v-15zm15 15v15h15v-15zm24.1-94.5-10.6-10.6-10.6 10.6 10.6 10.6zm50.9-10.5h-15v15h15zm-33.2 59 33.2-33h-22.6l-33.4 33zm-25.8-3 33-33.4v-22.6l-33 33.2zm-5-22.8-33-33.2v22.6l33 33.4zm8 30.8 33.4 33h22.6l-33.2-33zm45.5-13.1-10.6 10.6 10.6 10.6 10.6-10.6z" fill="#00ade6"/><path d="m53.9 134.8.1-3h-.2l-1.4 2.4-8.4 12.3h-1.1l-8.8-12.4-1.3-2.3h-.2l.3 2.9v18h-3.7v-27.9h3l10 14.2 1.5 2.2h.1l1.4-2.3 9.6-14.1h3.1v27.9h-4zm12.1-8c0-.6.2-1.1.6-1.5s.9-.6 1.6-.6c.6 0 1.2.2 1.5.6s.6.9.6 1.5-.2 1.1-.6 1.5-.9.6-1.5.6c-.7 0-1.2-.2-1.6-.6s-.6-.9-.6-1.5zm.5 7.1h3.3v18.8h-3.3zm22.6 18.8v-10.4c0-.9-.1-1.7-.2-2.4s-.3-1.4-.6-1.9-.7-.9-1.3-1.2-1.3-.4-2.2-.4c-.7 0-1.3.1-1.8.3s-.9.5-1.3.8c-.4.4-.7.8-.9 1.3s-.4 1-.6 1.6v12.4h-3.3v-18.8h2.3l.7 2.5h.3c.3-.4.7-.8 1-1.2s.7-.7 1.2-1c.4-.3.9-.5 1.5-.6.6-.2 1.2-.2 2-.2 1.1 0 2 .1 2.9.4s1.5.7 2.1 1.3 1 1.5 1.3 2.5c.3 1.1.4 2.4.4 4v11.1h-3.5zm17.5-5.2c0-.5-.1-.9-.4-1.2s-.6-.6-1.1-.9c-.4-.2-.9-.5-1.5-.6-.6-.2-1.1-.4-1.7-.6s-1.2-.5-1.7-.7c-.6-.3-1.1-.6-1.5-1s-.8-.9-1.1-1.5-.4-1.3-.4-2.1c0-1.9.5-3.2 1.6-4.2 1-.9 2.6-1.4 4.6-1.4.8 0 1.4 0 2 .1s1.1.2 1.6.3.9.3 1.3.4c.4.2.8.3 1.2.5l-.8 2.8c-.3-.2-.7-.3-1-.5s-.7-.3-1.1-.4-.8-.2-1.3-.3-.9-.1-1.5-.1c-1.2 0-2 .2-2.5.6s-.8 1.1-.8 2.1c0 .5.1.9.4 1.2s.6.6 1.1.8c.4.2.9.4 1.5.6s1.1.4 1.7.6 1.2.5 1.7.7c.6.3 1.1.6 1.5 1s.8.9 1.1 1.5.4 1.3.4 2.1c0 1.1-.2 2-.6 2.8s-.9 1.4-1.5 1.8c-.6.5-1.3.8-2.1 1s-1.7.3-2.6.3c-.8 0-1.5 0-2.1-.1s-1.2-.2-1.8-.3c-.5-.1-1-.3-1.5-.5s-.9-.4-1.3-.6l.9-2.9c.9.5 1.9.8 2.7 1.2.9.3 1.8.5 2.8.5.5 0 1 0 1.5-.1.4-.1.8-.2 1.1-.5.3-.2.6-.5.7-.9s.5-.9.5-1.5zm13.3-3.2h-2v8.4h-3.3v-28.3h3.3v18l1.8-.6 7.1-8h3.9l-7 7.3-1.5 1.4 1.8 1.6 7.6 8.5h-4.2zm-30.6 97.2c-4.3 4.8-13.5 8.2-23.1 8.2-22 0-37.3-14.6-37.3-36.8 0-20.4 12.7-36.8 37.2-36.8 9.4 0 17.5 3.2 21.7 7.4l-7.2 12.2c-3.9-2.3-7.8-4.4-14.5-4.4-11 0-19.9 7.5-19.9 21.5 0 12.6 8.7 21.5 21.5 21.5 5.1 0 10.7-1.6 15.4-5.2zm7.6-44.8c0-11 8.7-20.5 22.9-20.5 9.1 0 16.4 3 20.9 7.8l-8.7 12.2c-3.1-2.9-5.5-4.8-10.8-4.8-4.5 0-7.1 2-7.1 5.3 0 11.8 29.6 8.9 29.6 32.1 0 12.4-10.7 20.9-24.4 20.9-9.5 0-20.6-4.1-24.1-11.7l9.2-11.1c4.1 5.2 10.3 7.5 15.2 7.5 4.3 0 6.7-2.1 6.7-5.5.3-10.5-29.4-9.2-29.4-32.2zm56.6 0c0-11 8.7-20.5 22.9-20.5 9.1 0 16.4 3 20.9 7.8l-8.7 12.2c-3.1-2.9-5.5-4.8-10.8-4.8-4.5 0-7.1 2-7.1 5.3 0 11.8 29.6 8.9 29.6 32.1 0 12.4-10.7 20.9-24.4 20.9-9.5 0-20.6-4.1-24.1-11.7l9.2-11.1c4.1 5.2 10.3 7.5 15.2 7.5 4.3 0 6.7-2.1 6.7-5.5.2-10.5-29.4-9.2-29.4-32.2z" fill="#fff"/></svg>