<svg xmlns="http://www.w3.org/2000/svg" viewBox="0 0 225 300"><filter id="b"><feGaussianBlur stdDeviation="12" /></filter><path fill="#44693b" d="M0 0h225v300H0z"/><g filter="url(#b)" transform="translate(.6 .6) scale(1.17188)" fill-opacity=".5"><ellipse fill="#bfb67e" rx="1" ry="1" transform="matrix(65.82165 -44.64936 39.62438 58.41388 72.2 22.4)"/><ellipse fill="#002a0e" rx="1" ry="1" transform="matrix(18.29101 78.60093 -186.02941 43.2904 104 233.8)"/><path fill="#fff" d="M97 133h36v14H97z"/><ellipse fill="#ffe1c9" rx="1" ry="1" transform="matrix(11.38454 -8.93678 21.3057 27.14127 16 12.1)"/><ellipse fill="#718649" rx="1" ry="1" transform="rotate(-39.6 132.5 -183.4) scale(121.73631 32.2843)"/><ellipse fill="#00351e" cx="72" cy="242" rx="188" ry="43"/><ellipse fill="#2d6a2d" rx="1" ry="1" transform="matrix(25.18089 10.37881 -25.53087 61.94252 146.2 173.7)"/><ellipse fill="#a2a878" rx="1" ry="1" transform="rotate(151.4 18.3 42) scale(14.34376 63.8145)"/></g></svg>