<?xml version="1.0" standalone="no"?>
<svg xmlns="http://www.w3.org/2000/svg" version="1.2" baseProfile="tiny" width="192" height="256" viewBox="0 0 192 256">
<rect x="0" y="0" width="192" height="256" id="0" fill="rgb(69,105,60)" fill-opacity="1" />
<polygon points="58,135 0,0 191,0" id="1" fill="rgb(184,177,123)" fill-opacity="0.501961" />
<polygon points="48,103 0,256 192,256" id="2" fill="rgb(0,43,18)" fill-opacity="0.501961" />
<polygon points="0,255 192,256 192,119" id="3" fill="rgb(0,56,27)" fill-opacity="0.501961" />
<polygon points="143,125 94,139 119,152" id="4" fill="rgb(255,251,255)" fill-opacity="0.501961" />
<polygon points="0,0 40,10 0,70" id="5" fill="rgb(244,218,177)" fill-opacity="0.501961" />
<polygon points="63,157 0,104 192,13" id="6" fill="rgb(100,130,65)" fill-opacity="0.501961" />
<polygon points="87,99 7,64 33,9" id="7" fill="rgb(171,173,125)" fill-opacity="0.501961" />
<polygon points="93,150 122,256 165,141" id="8" fill="rgb(58,105,49)" fill-opacity="0.501961" />
<polygon points="0,19 60,102 0,121" id="9" fill="rgb(95,123,58)" fill-opacity="0.501961" />
<polygon points="128,256 192,256 192,174" id="10" fill="rgb(0,38,22)" fill-opacity="0.501961" />
<polygon points="0,256 119,209 0,176" id="11" fill="rgb(0,62,31)" fill-opacity="0.501961" />
<polygon points="192,0 192,73 32,0" id="12" fill="rgb(112,124,81)" fill-opacity="0.501961" />
<polygon points="4,28 7,-4 34,7" id="13" fill="rgb(255,221,205)" fill-opacity="0.501961" />
<polygon points="192,108 192,176 98,108" id="14" fill="rgb(37,97,37)" fill-opacity="0.501961" />
<polygon points="136,133 113,145 106,133" id="15" fill="rgb(255,255,253)" fill-opacity="0.501961" />
<polygon points="0,174 33,96 136,193" id="16" fill="rgb(51,104,49)" fill-opacity="0.501961" />
<polygon points="81,176 118,256 57,256" id="17" fill="rgb(0,32,28)" fill-opacity="0.501961" />
<polygon points="46,248 135,145 3,177" id="18" fill="rgb(25,82,41)" fill-opacity="0.501961" />
<polygon points="107,148 118,159 129,253" id="19" fill="rgb(114,123,65)" fill-opacity="0.501961" />
<polygon points="192,65 87,123 101,38" id="20" fill="rgb(81,116,53)" fill-opacity="0.501961" />
<polygon points="123,223 124,256 118,260" id="21" fill="rgb(163,141,73)" fill-opacity="0.501961" />
<polygon points="117,28 71,50 87,0" id="22" fill="rgb(152,158,107)" fill-opacity="0.501961" />
<polygon points="110,0 192,0 192,56" id="23" fill="rgb(106,123,77)" fill-opacity="0.501961" />
<polygon points="192,120 95,123 177,143" id="24" fill="rgb(41,95,42)" fill-opacity="0.501961" />
<polygon points="84,146 55,254 45,256" id="25" fill="rgb(53,103,52)" fill-opacity="0.501961" />
<polygon points="8,44 91,87 34,19" id="26" fill="rgb(161,165,122)" fill-opacity="0.501961" />
<polygon points="22,4 70,42 75,-11" id="27" fill="rgb(106,121,79)" fill-opacity="0.501961" />
<polygon points="100,147 109,148 102,133" id="28" fill="rgb(240,210,203)" fill-opacity="0.501961" />
<polygon points="192,186 133,138 134,228" id="29" fill="rgb(30,92,41)" fill-opacity="0.501961" />
<polygon points="90,124 40,89 87,58" id="30" fill="rgb(132,148,93)" fill-opacity="0.501961" />
<polygon points="0,256 -15,218 23,179" id="31" fill="rgb(5,63,29)" fill-opacity="0.501961" />
<polygon points="78,169 118,256 120,204" id="32" fill="rgb(2,56,34)" fill-opacity="0.501961" />
<polygon points="31,25 28,-15 0,12" id="33" fill="rgb(227,203,177)" fill-opacity="0.501961" />
<polygon points="99,135 0,124 0,191" id="34" fill="rgb(58,102,48)" fill-opacity="0.501961" />
<polygon points="192,106 32,150 192,57" id="35" fill="rgb(66,110,51)" fill-opacity="0.501961" />
<polygon points="125,147 137,132 100,138" id="36" fill="rgb(247,225,220)" fill-opacity="0.501961" />
<polygon points="38,60 0,69 3,22" id="37" fill="rgb(128,147,81)" fill-opacity="0.501961" />
<polygon points="79,124 64,144 10,46" id="38" fill="rgb(91,123,66)" fill-opacity="0.501961" />
<polygon points="116,151 124,159 126,148" id="39" fill="rgb(0,13,2)" fill-opacity="0.501961" />
<polygon points="122,189 171,132 90,173" id="40" fill="rgb(62,106,50)" fill-opacity="0.501961" />
<polygon points="192,221 191,256 153,209" id="41" fill="rgb(0,41,21)" fill-opacity="0.501961" />
<polygon points="160,242 139,256 149,150" id="42" fill="rgb(19,76,41)" fill-opacity="0.501961" />
<polygon points="130,2 86,56 192,33" id="43" fill="rgb(119,136,84)" fill-opacity="0.501961" />
<polygon points="50,7 192,0 26,0" id="44" fill="rgb(97,110,77)" fill-opacity="0.501961" />
<polygon points="45,17 152,34 99,0" id="45" fill="rgb(133,141,96)" fill-opacity="0.501961" />
<polygon points="81,162 0,192 106,125" id="46" fill="rgb(42,93,47)" fill-opacity="0.501961" />
<polygon points="187,125 192,207 167,211" id="47" fill="rgb(14,77,38)" fill-opacity="0.501961" />
<polygon points="174,17 141,0 192,0" id="48" fill="rgb(90,109,70)" fill-opacity="0.501961" />
<polygon points="96,144 91,138 112,148" id="49" fill="rgb(214,197,187)" fill-opacity="0.501961" />
<polygon points="115,136 96,98 114,122" id="50" fill="rgb(47,97,41)" fill-opacity="0.501961" />
<polygon points="34,63 -5,61 17,127" id="51" fill="rgb(98,124,64)" fill-opacity="0.501961" />
<polygon points="96,173 108,149 73,135" id="52" fill="rgb(40,84,51)" fill-opacity="0.501961" />
<polygon points="66,78 51,89 28,1" id="53" fill="rgb(165,166,126)" fill-opacity="0.501961" />
<polygon points="84,227 96,256 60,256" id="54" fill="rgb(0,22,17)" fill-opacity="0.501961" />
<polygon points="122,241 127,224 127,229" id="55" fill="rgb(190,177,117)" fill-opacity="0.501961" />
<polygon points="10,227 0,183 47,176" id="56" fill="rgb(29,87,41)" fill-opacity="0.501961" />
<polygon points="65,130 98,46 87,125" id="57" fill="rgb(114,137,75)" fill-opacity="0.501961" />
<polygon points="9,181 20,158 -22,160" id="58" fill="rgb(88,114,57)" fill-opacity="0.501961" />
<polygon points="112,149 106,151 186,137" id="59" fill="rgb(41,80,42)" fill-opacity="0.501961" />
<polygon points="150,71 127,139 165,89" id="60" fill="rgb(64,106,48)" fill-opacity="0.501961" />
<polygon points="149,122 175,144 166,210" id="61" fill="rgb(49,99,48)" fill-opacity="0.501961" />
<polygon points="124,232 131,256 124,256" id="62" fill="rgb(51,85,46)" fill-opacity="0.501961" />
<polygon points="192,9 78,59 192,45" id="63" fill="rgb(107,128,75)" fill-opacity="0.501961" />
<polygon points="46,25 46,0 93,80" id="64" fill="rgb(112,136,75)" fill-opacity="0.501961" />
<polygon points="28,81 17,146 59,112" id="65" fill="rgb(67,103,54)" fill-opacity="0.501961" />
<polygon points="170,145 125,162 147,105" id="66" fill="rgb(50,99,48)" fill-opacity="0.501961" />
<polygon points="74,175 121,244 121,202" id="67" fill="rgb(11,65,36)" fill-opacity="0.501961" />
<polygon points="0,256 25,217 43,256" id="68" fill="rgb(1,53,30)" fill-opacity="0.501961" />
<polygon points="154,104 177,82 169,117" id="69" fill="rgb(83,119,60)" fill-opacity="0.501961" />
<polygon points="19,134 0,118 0,153" id="70" fill="rgb(43,95,42)" fill-opacity="0.501961" />
<polygon points="75,166 57,226 33,214" id="71" fill="rgb(9,66,33)" fill-opacity="0.501961" />
<polygon points="0,13 7,27 26,24" id="72" fill="rgb(219,200,164)" fill-opacity="0.501961" />
<polygon points="192,205 151,204 156,233" id="73" fill="rgb(7,61,32)" fill-opacity="0.501961" />
<polygon points="154,87 124,135 137,99" id="74" fill="rgb(66,108,47)" fill-opacity="0.501961" />
<polygon points="164,160 148,196 136,172" id="75" fill="rgb(17,77,38)" fill-opacity="0.501961" />
<polygon points="26,39 40,36 31,9" id="76" fill="rgb(176,173,133)" fill-opacity="0.501961" />
<polygon points="120,183 180,185 128,224" id="77" fill="rgb(40,91,45)" fill-opacity="0.501961" />
<polygon points="102,135 124,141 108,132" id="78" fill="rgb(240,222,210)" fill-opacity="0.501961" />
<polygon points="11,79 0,129 0,93" id="79" fill="rgb(62,108,47)" fill-opacity="0.501961" />
<polygon points="63,145 114,112 87,147" id="80" fill="rgb(52,93,52)" fill-opacity="0.501961" />
<polygon points="16,59 0,19 22,34" id="81" fill="rgb(143,152,100)" fill-opacity="0.501961" />
<polygon points="98,139 101,135 128,143" id="82" fill="rgb(233,223,212)" fill-opacity="0.501961" />
<polygon points="0,200 -24,247 12,256" id="83" fill="rgb(4,51,30)" fill-opacity="0.501961" />
<polygon points="130,239 188,256 192,230" id="84" fill="rgb(3,41,25)" fill-opacity="0.501961" />
<polygon points="77,189 57,248 115,214" id="85" fill="rgb(3,49,33)" fill-opacity="0.501961" />
<polygon points="139,245 148,256 147,246" id="86" fill="rgb(58,94,70)" fill-opacity="0.501961" />
<polygon points="129,126 192,111 130,133" id="87" fill="rgb(50,99,44)" fill-opacity="0.501961" />
<polygon points="59,157 117,209 119,195" id="88" fill="rgb(27,86,42)" fill-opacity="0.501961" />
<polygon points="151,38 107,71 192,60" id="89" fill="rgb(90,118,67)" fill-opacity="0.501961" />
<polygon points="74,120 90,39 57,113" id="90" fill="rgb(128,147,90)" fill-opacity="0.501961" />
<polygon points="118,84 95,58 84,119" id="91" fill="rgb(101,128,62)" fill-opacity="0.501961" />
<polygon points="72,73 22,-5 32,0" id="92" fill="rgb(141,149,108)" fill-opacity="0.501961" />
<polygon points="0,11 3,0 19,0" id="93" fill="rgb(198,182,150)" fill-opacity="0.501961" />
<polygon points="130,220 123,208 119,160" id="94" fill="rgb(16,64,31)" fill-opacity="0.501961" />
<polygon points="130,252 179,232 124,234" id="95" fill="rgb(9,59,35)" fill-opacity="0.501961" />
<polygon points="86,141 104,148 60,194" id="96" fill="rgb(34,85,44)" fill-opacity="0.501961" />
<polygon points="50,254 53,256 62,256" id="97" fill="rgb(94,125,93)" fill-opacity="0.501961" />
<polygon points="149,41 101,30 134,0" id="98" fill="rgb(125,138,92)" fill-opacity="0.501961" />
<polygon points="156,147 135,183 137,136" id="99" fill="rgb(38,94,44)" fill-opacity="0.501961" />
<polygon points="115,162 94,141 111,198" id="100" fill="rgb(58,95,52)" fill-opacity="0.501961" />
<polygon points="50,173 0,182 107,127" id="101" fill="rgb(45,95,46)" fill-opacity="0.501961" />
<polygon points="41,81 79,100 72,77" id="102" fill="rgb(142,151,104)" fill-opacity="0.501961" />
<polygon points="130,46 192,29 164,3" id="103" fill="rgb(110,127,80)" fill-opacity="0.501961" />
<polygon points="84,21 77,56 113,15" id="104" fill="rgb(146,155,102)" fill-opacity="0.501961" />
<polygon points="117,174 127,256 127,244" id="105" fill="rgb(120,124,64)" fill-opacity="0.501961" />
<polygon points="11,91 11,121 30,105" id="106" fill="rgb(108,125,72)" fill-opacity="0.501961" />
<polygon points="117,216 99,210 95,268" id="107" fill="rgb(7,56,34)" fill-opacity="0.501961" />
<polygon points="121,207 125,218 119,187" id="108" fill="rgb(147,130,66)" fill-opacity="0.501961" />
<polygon points="164,95 137,78 114,132" id="109" fill="rgb(63,107,49)" fill-opacity="0.501961" />
<polygon points="59,161 36,114 27,161" id="110" fill="rgb(49,97,48)" fill-opacity="0.501961" />
<polygon points="22,28 26,6 4,16" id="111" fill="rgb(229,207,178)" fill-opacity="0.501961" />
<polygon points="30,60 0,60 0,24" id="112" fill="rgb(127,145,83)" fill-opacity="0.501961" />
<polygon points="192,118 178,115 170,204" id="113" fill="rgb(30,88,42)" fill-opacity="0.501961" />
<polygon points="95,117 107,137 94,102" id="114" fill="rgb(52,95,54)" fill-opacity="0.501961" />
<polygon points="74,85 71,54 41,68" id="115" fill="rgb(154,160,117)" fill-opacity="0.501961" />
<polygon points="192,57 141,66 161,121" id="116" fill="rgb(75,112,58)" fill-opacity="0.501961" />
<polygon points="94,115 148,116 140,65" id="117" fill="rgb(70,111,51)" fill-opacity="0.501961" />
<polygon points="192,256 141,256 186,233" id="118" fill="rgb(4,40,23)" fill-opacity="0.501961" />
<polygon points="143,191 130,171 97,129" id="119" fill="rgb(54,92,51)" fill-opacity="0.501961" />
<polygon points="123,248 121,256 123,243" id="120" fill="rgb(179,160,88)" fill-opacity="0.501961" />
<polygon points="174,195 152,190 167,174" id="121" fill="rgb(55,99,49)" fill-opacity="0.501961" />
<polygon points="71,148 52,142 39,93" id="122" fill="rgb(69,109,56)" fill-opacity="0.501961" />
<polygon points="122,143 98,145 111,150" id="123" fill="rgb(174,161,151)" fill-opacity="0.501961" />
<polygon points="65,34 73,4 81,7" id="124" fill="rgb(110,124,77)" fill-opacity="0.501961" />
<polygon points="117,189 120,201 106,201" id="125" fill="rgb(28,86,39)" fill-opacity="0.501961" />
<polygon points="172,149 161,134 126,146" id="126" fill="rgb(55,101,51)" fill-opacity="0.501961" />
<polygon points="2,229 20,177 16,247" id="127" fill="rgb(21,76,41)" fill-opacity="0.501961" />
<polygon points="37,115 0,77 36,70" id="128" fill="rgb(82,113,60)" fill-opacity="0.501961" />
<polygon points="100,146 85,152 85,137" id="129" fill="rgb(45,89,50)" fill-opacity="0.501961" />
<polygon points="7,0 0,0 0,8" id="130" fill="rgb(164,155,124)" fill-opacity="0.501961" />
<polygon points="192,106 192,84 150,141" id="131" fill="rgb(52,101,47)" fill-opacity="0.501961" />
<polygon points="78,131 99,112 100,91" id="132" fill="rgb(86,117,66)" fill-opacity="0.501961" />
<polygon points="96,241 96,227 111,245" id="133" fill="rgb(16,68,41)" fill-opacity="0.501961" />
<polygon points="37,0 79,0 38,10" id="134" fill="rgb(94,111,75)" fill-opacity="0.501961" />
<polygon points="53,98 59,127 72,128" id="135" fill="rgb(102,131,70)" fill-opacity="0.501961" />
<polygon points="132,142 120,163 134,180" id="136" fill="rgb(69,112,49)" fill-opacity="0.501961" />
<polygon points="127,140 128,132 114,141" id="137" fill="rgb(251,246,245)" fill-opacity="0.501961" />
<polygon points="124,256 126,236 133,242" id="138" fill="rgb(30,80,50)" fill-opacity="0.501961" />
<polygon points="135,45 103,37 110,18" id="139" fill="rgb(121,140,82)" fill-opacity="0.501961" />
<polygon points="110,150 101,183 99,161" id="140" fill="rgb(60,96,55)" fill-opacity="0.501961" />
<polygon points="159,219 146,264 192,215" id="141" fill="rgb(4,52,30)" fill-opacity="0.501961" />
<polygon points="88,103 80,55 97,46" id="142" fill="rgb(122,142,76)" fill-opacity="0.501961" />
<polygon points="121,130 100,111 106,130" id="143" fill="rgb(41,94,44)" fill-opacity="0.501961" />
<polygon points="46,90 33,60 63,108" id="144" fill="rgb(127,141,89)" fill-opacity="0.501961" />
<polygon points="49,29 66,25 56,45" id="145" fill="rgb(107,133,74)" fill-opacity="0.501961" />
<polygon points="117,57 103,110 132,87" id="146" fill="rgb(85,119,57)" fill-opacity="0.501961" />
<polygon points="112,202 63,233 79,194" id="147" fill="rgb(5,57,35)" fill-opacity="0.501961" />
<polygon points="147,0 109,16 106,0" id="148" fill="rgb(109,122,83)" fill-opacity="0.501961" />
<polygon points="34,13 26,16 24,0" id="149" fill="rgb(193,183,145)" fill-opacity="0.501961" />
<polygon points="100,12 115,-15 76,5" id="150" fill="rgb(129,131,94)" fill-opacity="0.501961" />
<polygon points="135,191 127,235 146,191" id="151" fill="rgb(48,97,49)" fill-opacity="0.501961" />
<polygon points="51,244 61,256 52,253" id="152" fill="rgb(47,96,58)" fill-opacity="0.501961" />
<polygon points="35,249 47,219 28,185" id="153" fill="rgb(21,80,37)" fill-opacity="0.501961" />
<polygon points="49,75 29,43 2,22" id="154" fill="rgb(155,161,114)" fill-opacity="0.501961" />
<polygon points="87,167 114,202 93,202" id="155" fill="rgb(19,76,40)" fill-opacity="0.501961" />
<polygon points="125,147 118,148 108,160" id="156" fill="rgb(3,34,17)" fill-opacity="0.501961" />
<polygon points="81,134 110,152 75,137" id="157" fill="rgb(54,95,53)" fill-opacity="0.501961" />
<polygon points="107,149 126,170 128,180" id="158" fill="rgb(87,125,61)" fill-opacity="0.501961" />
<polygon points="188,189 182,128 215,161" id="159" fill="rgb(21,80,40)" fill-opacity="0.501961" />
<polygon points="53,120 80,137 64,146" id="160" fill="rgb(77,113,60)" fill-opacity="0.501961" />
<polygon points="19,54 0,72 25,72" id="161" fill="rgb(105,132,67)" fill-opacity="0.501961" />
<polygon points="126,10 142,14 126,35" id="162" fill="rgb(131,141,98)" fill-opacity="0.501961" />
<polygon points="188,194 150,205 164,217" id="163" fill="rgb(16,72,34)" fill-opacity="0.501961" />
<polygon points="69,181 4,220 52,173" id="164" fill="rgb(20,79,39)" fill-opacity="0.501961" />
<polygon points="130,249 106,279 124,271" id="165" fill="rgb(68,101,71)" fill-opacity="0.501961" />
<polygon points="85,124 57,127 70,136" id="166" fill="rgb(89,119,66)" fill-opacity="0.501961" />
<polygon points="118,159 118,185 121,201" id="167" fill="rgb(145,143,79)" fill-opacity="0.501961" />
<polygon points="192,62 128,55 184,43" id="168" fill="rgb(92,119,66)" fill-opacity="0.501961" />
<polygon points="99,104 122,130 114,134" id="169" fill="rgb(58,104,48)" fill-opacity="0.501961" />
<polygon points="86,71 78,48 73,111" id="170" fill="rgb(129,146,89)" fill-opacity="0.501961" />
<polygon points="122,135 101,143 93,141" id="171" fill="rgb(231,213,204)" fill-opacity="0.501961" />
<polygon points="11,30 2,20 34,38" id="172" fill="rgb(178,175,132)" fill-opacity="0.501961" />
<polygon points="112,234 71,223 111,208" id="173" fill="rgb(6,46,31)" fill-opacity="0.501961" />
<polygon points="165,77 136,56 170,60" id="174" fill="rgb(86,114,64)" fill-opacity="0.501961" />
<polygon points="124,130 102,113 175,122" id="175" fill="rgb(57,104,46)" fill-opacity="0.501961" />
<polygon points="118,155 117,156 39,183" id="176" fill="rgb(29,82,42)" fill-opacity="0.501961" />
<polygon points="137,194 121,187 136,158" id="177" fill="rgb(46,100,43)" fill-opacity="0.501961" />
<polygon points="32,19 18,34 50,60" id="178" fill="rgb(166,168,124)" fill-opacity="0.501961" />
<polygon points="160,200 142,207 143,226" id="179" fill="rgb(29,86,39)" fill-opacity="0.501961" />
<polygon points="103,103 73,183 99,121" id="180" fill="rgb(60,98,54)" fill-opacity="0.501961" />
<polygon points="186,10 206,-15 175,3" id="181" fill="rgb(85,108,67)" fill-opacity="0.501961" />
<polygon points="11,178 43,179 6,229" id="182" fill="rgb(26,82,41)" fill-opacity="0.501961" />
<polygon points="32,60 37,73 30,69" id="183" fill="rgb(105,129,73)" fill-opacity="0.501961" />
<polygon points="20,167 94,138 23,185" id="184" fill="rgb(47,96,46)" fill-opacity="0.501961" />
<polygon points="119,246 121,266 123,256" id="185" fill="rgb(123,141,67)" fill-opacity="0.501961" />
<polygon points="134,75 130,135 166,87" id="186" fill="rgb(62,105,50)" fill-opacity="0.501961" />
<polygon points="100,158 95,142 73,190" id="187" fill="rgb(21,78,43)" fill-opacity="0.501961" />
<polygon points="6,26 1,16 15,26" id="188" fill="rgb(190,182,137)" fill-opacity="0.501961" />
<polygon points="82,109 70,89 73,61" id="189" fill="rgb(134,148,96)" fill-opacity="0.501961" />
<polygon points="9,195 0,171 0,193" id="190" fill="rgb(48,94,39)" fill-opacity="0.501961" />
<polygon points="159,97 177,103 170,115" id="191" fill="rgb(83,118,62)" fill-opacity="0.501961" />
<polygon points="141,218 125,275 143,245" id="192" fill="rgb(4,54,30)" fill-opacity="0.501961" />
<polygon points="56,115 44,101 48,162" id="193" fill="rgb(65,107,53)" fill-opacity="0.501961" />
<polygon points="95,178 115,149 103,185" id="194" fill="rgb(55,96,50)" fill-opacity="0.501961" />
<polygon points="78,9 36,13 34,0" id="195" fill="rgb(114,126,87)" fill-opacity="0.501961" />
<polygon points="180,256 167,219 155,250" id="196" fill="rgb(10,45,27)" fill-opacity="0.501961" />
<polygon points="192,21 129,47 192,45" id="197" fill="rgb(107,127,75)" fill-opacity="0.501961" />
<polygon points="122,216 122,214 124,244" id="198" fill="rgb(166,133,64)" fill-opacity="0.501961" />
<polygon points="0,158 17,123 30,162" id="199" fill="rgb(62,104,47)" fill-opacity="0.501961" />
<polygon points="156,126 180,131 176,146" id="200" fill="rgb(38,95,44)" fill-opacity="0.501961" />
<polygon points="105,32 112,11 93,0" id="201" fill="rgb(134,143,96)" fill-opacity="0.501961" />
<polygon points="76,65 56,55 66,46" id="202" fill="rgb(137,149,102)" fill-opacity="0.501961" />
<polygon points="158,217 192,225 192,210" id="203" fill="rgb(3,60,29)" fill-opacity="0.501961" />
<polygon points="59,28 69,19 72,52" id="204" fill="rgb(111,129,74)" fill-opacity="0.501961" />
<polygon points="59,239 67,256 57,269" id="205" fill="rgb(2,60,31)" fill-opacity="0.501961" />
<polygon points="97,175 105,155 120,198" id="206" fill="rgb(55,100,49)" fill-opacity="0.501961" />
<polygon points="147,19 143,0 191,17" id="207" fill="rgb(107,122,79)" fill-opacity="0.501961" />
<polygon points="124,235 154,228 168,208" id="208" fill="rgb(15,68,35)" fill-opacity="0.501961" />
<polygon points="72,111 84,76 87,115" id="209" fill="rgb(122,143,86)" fill-opacity="0.501961" />
<polygon points="174,177 175,154 151,162" id="210" fill="rgb(30,87,40)" fill-opacity="0.501961" />
<polygon points="106,149 104,139 96,142" id="211" fill="rgb(214,201,184)" fill-opacity="0.501961" />
<polygon points="16,167 0,159 11,175" id="212" fill="rgb(87,116,60)" fill-opacity="0.501961" />
<polygon points="48,256 74,191 59,238" id="213" fill="rgb(38,92,45)" fill-opacity="0.501961" />
<polygon points="62,215 41,251 51,202" id="214" fill="rgb(11,66,34)" fill-opacity="0.501961" />
<polygon points="95,128 105,96 87,128" id="215" fill="rgb(71,108,61)" fill-opacity="0.501961" />
<polygon points="20,50 44,78 31,46" id="216" fill="rgb(140,151,101)" fill-opacity="0.501961" />
<polygon points="149,242 147,254 140,256" id="217" fill="rgb(47,91,60)" fill-opacity="0.501961" />
<polygon points="117,169 118,185 111,163" id="218" fill="rgb(73,115,58)" fill-opacity="0.501961" />
<polygon points="45,253 30,219 24,256" id="219" fill="rgb(11,63,31)" fill-opacity="0.501961" />
<polygon points="137,33 128,0 159,17" id="220" fill="rgb(118,130,89)" fill-opacity="0.501961" />
<polygon points="159,236 134,224 156,260" id="221" fill="rgb(7,59,32)" fill-opacity="0.501961" />
<polygon points="160,152 151,122 132,128" id="222" fill="rgb(48,98,49)" fill-opacity="0.501961" />
<polygon points="18,187 83,152 70,170" id="223" fill="rgb(35,89,41)" fill-opacity="0.501961" />
<polygon points="81,38 103,32 96,47" id="224" fill="rgb(135,148,92)" fill-opacity="0.501961" />
<polygon points="0,65 32,62 0,55" id="225" fill="rgb(115,137,73)" fill-opacity="0.501961" />
<polygon points="94,169 105,189 95,189" id="226" fill="rgb(33,89,45)" fill-opacity="0.501961" />
<polygon points="28,197 33,172 42,243" id="227" fill="rgb(23,81,39)" fill-opacity="0.501961" />
<polygon points="69,192 67,201 79,180" id="228" fill="rgb(57,104,50)" fill-opacity="0.501961" />
<polygon points="23,134 26,97 38,89" id="229" fill="rgb(79,109,59)" fill-opacity="0.501961" />
<polygon points="125,70 93,88 92,111" id="230" fill="rgb(93,124,59)" fill-opacity="0.501961" />
<polygon points="12,98 0,74 34,68" id="231" fill="rgb(88,120,60)" fill-opacity="0.501961" />
<polygon points="93,65 105,45 131,68" id="232" fill="rgb(94,122,65)" fill-opacity="0.501961" />
<polygon points="124,221 125,206 118,152" id="233" fill="rgb(30,67,26)" fill-opacity="0.501961" />
<polygon points="67,198 71,180 73,196" id="234" fill="rgb(62,106,52)" fill-opacity="0.501961" />
<polygon points="27,217 27,256 15,256" id="235" fill="rgb(1,52,31)" fill-opacity="0.501961" />
<polygon points="73,27 76,48 105,21" id="236" fill="rgb(146,154,102)" fill-opacity="0.501961" />
<polygon points="65,85 79,105 45,85" id="237" fill="rgb(131,146,94)" fill-opacity="0.501961" />
<polygon points="121,239 121,230 118,208" id="238" fill="rgb(7,67,36)" fill-opacity="0.501961" />
<polygon points="47,217 38,186 64,190" id="239" fill="rgb(13,68,36)" fill-opacity="0.501961" />
<polygon points="10,128 0,102 0,124" id="240" fill="rgb(65,107,51)" fill-opacity="0.501961" />
<polygon points="79,178 74,198 118,214" id="241" fill="rgb(9,63,35)" fill-opacity="0.501961" />
<polygon points="109,81 85,60 97,55" id="242" fill="rgb(104,128,67)" fill-opacity="0.501961" />
<polygon points="162,205 150,190 150,223" id="243" fill="rgb(20,77,41)" fill-opacity="0.501961" />
<polygon points="113,7 125,0 111,0" id="244" fill="rgb(95,111,74)" fill-opacity="0.501961" />
<polygon points="14,29 32,17 28,28" id="245" fill="rgb(189,182,145)" fill-opacity="0.501961" />
<polygon points="4,182 41,151 85,142" id="246" fill="rgb(51,99,48)" fill-opacity="0.501961" />
<polygon points="49,254 23,246 48,239" id="247" fill="rgb(11,67,32)" fill-opacity="0.501961" />
<polygon points="125,233 123,234 121,196" id="248" fill="rgb(148,129,63)" fill-opacity="0.501961" />
<polygon points="0,208 0,193 5,201" id="249" fill="rgb(16,77,30)" fill-opacity="0.501961" />
</svg>