<?xml version="1.0" standalone="no"?>
<svg xmlns="http://www.w3.org/2000/svg" version="1.2" baseProfile="tiny" width="192" height="256" viewBox="0 0 192 256">
<rect x="0" y="0" width="192" height="256" id="0" fill="rgb(69,105,60)" fill-opacity="1" />
<g transform="translate(71 22) rotate(82) scale(74 79)"><ellipse cx="0" cy="0" rx="1" ry="1" id="1" fill="rgb(191,181,126)" fill-opacity="0.501961" /></g>
<g transform="translate(107 216) rotate(260) scale(65 169)"><ellipse cx="0" cy="0" rx="1" ry="1" id="2" fill="rgb(0,43,16)" fill-opacity="0.501961" /></g>
<g transform="translate(117 143) rotate(67) scale(8 18)"><ellipse cx="0" cy="0" rx="1" ry="1" id="3" fill="rgb(255,246,255)" fill-opacity="0.501961" /></g>
<g transform="translate(15 10) rotate(327) scale(15 39)"><ellipse cx="0" cy="0" rx="1" ry="1" id="4" fill="rgb(255,224,200)" fill-opacity="0.501961" /></g>
<g transform="translate(135 51) rotate(140) scale(108 31)"><ellipse cx="0" cy="0" rx="1" ry="1" id="5" fill="rgb(113,133,72)" fill-opacity="0.501961" /></g>
<g transform="translate(90 239) rotate(277) scale(49 29)"><ellipse cx="0" cy="0" rx="1" ry="1" id="6" fill="rgb(0,29,25)" fill-opacity="0.501961" /></g>
<g transform="translate(132 156) rotate(83) scale(11 162)"><ellipse cx="0" cy="0" rx="1" ry="1" id="7" fill="rgb(44,102,45)" fill-opacity="0.501961" /></g>
<g transform="translate(54 66) rotate(62) scale(58 17)"><ellipse cx="0" cy="0" rx="1" ry="1" id="8" fill="rgb(161,167,119)" fill-opacity="0.501961" /></g>
<g transform="translate(170 250) rotate(120) scale(50 37)"><ellipse cx="0" cy="0" rx="1" ry="1" id="9" fill="rgb(0,36,22)" fill-opacity="0.501961" /></g>
<g transform="translate(127 85) rotate(66) scale(41 34)"><ellipse cx="0" cy="0" rx="1" ry="1" id="10" fill="rgb(67,111,45)" fill-opacity="0.501961" /></g>
<g transform="translate(10 89) rotate(291) scale(31 41)"><ellipse cx="0" cy="0" rx="1" ry="1" id="11" fill="rgb(93,123,56)" fill-opacity="0.501961" /></g>
<g transform="translate(133 181) rotate(297) scale(32 41)"><ellipse cx="0" cy="0" rx="1" ry="1" id="12" fill="rgb(49,104,50)" fill-opacity="0.501961" /></g>
<g transform="translate(107 140) rotate(72) scale(6 11)"><ellipse cx="0" cy="0" rx="1" ry="1" id="13" fill="rgb(255,246,247)" fill-opacity="0.501961" /></g>
<g transform="translate(33 223) rotate(70) scale(34 82)"><ellipse cx="0" cy="0" rx="1" ry="1" id="14" fill="rgb(0,66,35)" fill-opacity="0.501961" /></g>
<g transform="translate(175 144) rotate(169) scale(44 33)"><ellipse cx="0" cy="0" rx="1" ry="1" id="15" fill="rgb(28,90,39)" fill-opacity="0.501961" /></g>
<g transform="translate(146 9) rotate(311) scale(29 72)"><ellipse cx="0" cy="0" rx="1" ry="1" id="16" fill="rgb(115,126,85)" fill-opacity="0.501961" /></g>
<g transform="translate(60 7) rotate(1) scale(19 34)"><ellipse cx="0" cy="0" rx="1" ry="1" id="17" fill="rgb(97,116,71)" fill-opacity="0.501961" /></g>
<g transform="translate(15 2) rotate(171) scale(10 25)"><ellipse cx="0" cy="0" rx="1" ry="1" id="18" fill="rgb(246,215,192)" fill-opacity="0.501961" /></g>
<g transform="translate(62 165) rotate(97) scale(29 59)"><ellipse cx="0" cy="0" rx="1" ry="1" id="19" fill="rgb(42,93,45)" fill-opacity="0.501961" /></g>
<g transform="translate(124 176) rotate(112) scale(23 13)"><ellipse cx="0" cy="0" rx="1" ry="1" id="20" fill="rgb(76,114,52)" fill-opacity="0.501961" /></g>
<g transform="translate(73 99) rotate(353) scale(19 29)"><ellipse cx="0" cy="0" rx="1" ry="1" id="21" fill="rgb(124,145,86)" fill-opacity="0.501961" /></g>
<g transform="translate(126 229) rotate(98) scale(29 5)"><ellipse cx="0" cy="0" rx="1" ry="1" id="22" fill="rgb(91,117,64)" fill-opacity="0.501961" /></g>
<g transform="translate(152 199) rotate(296) scale(33 28)"><ellipse cx="0" cy="0" rx="1" ry="1" id="23" fill="rgb(21,82,40)" fill-opacity="0.501961" /></g>
<g transform="translate(16 149) rotate(315) scale(55 22)"><ellipse cx="0" cy="0" rx="1" ry="1" id="24" fill="rgb(60,104,46)" fill-opacity="0.501961" /></g>
<g transform="translate(85 240) rotate(220) scale(20 34)"><ellipse cx="0" cy="0" rx="1" ry="1" id="25" fill="rgb(0,37,27)" fill-opacity="0.501961" /></g>
<g transform="translate(34 41) rotate(357) scale(18 17)"><ellipse cx="0" cy="0" rx="1" ry="1" id="26" fill="rgb(160,165,118)" fill-opacity="0.501961" /></g>
<g transform="translate(182 241) rotate(289) scale(55 30)"><ellipse cx="0" cy="0" rx="1" ry="1" id="27" fill="rgb(0,48,26)" fill-opacity="0.501961" /></g>
<g transform="translate(120 190) rotate(84) scale(33 1)"><ellipse cx="0" cy="0" rx="1" ry="1" id="28" fill="rgb(167,148,82)" fill-opacity="0.501961" /></g>
<g transform="translate(55 65) rotate(50) scale(23 12)"><ellipse cx="0" cy="0" rx="1" ry="1" id="29" fill="rgb(166,167,128)" fill-opacity="0.501961" /></g>
<g transform="translate(14 82) rotate(285) scale(19 28)"><ellipse cx="0" cy="0" rx="1" ry="1" id="30" fill="rgb(87,118,60)" fill-opacity="0.501961" /></g>
<g transform="translate(88 31) rotate(41) scale(11 18)"><ellipse cx="0" cy="0" rx="1" ry="1" id="31" fill="rgb(153,158,107)" fill-opacity="0.501961" /></g>
<g transform="translate(117 139) rotate(265) scale(6 15)"><ellipse cx="0" cy="0" rx="1" ry="1" id="32" fill="rgb(255,232,227)" fill-opacity="0.501961" /></g>
<g transform="translate(43 190) rotate(344) scale(58 16)"><ellipse cx="0" cy="0" rx="1" ry="1" id="33" fill="rgb(22,82,41)" fill-opacity="0.501961" /></g>
<g transform="translate(128 117) rotate(252) scale(11 34)"><ellipse cx="0" cy="0" rx="1" ry="1" id="34" fill="rgb(50,102,43)" fill-opacity="0.501961" /></g>
<g transform="translate(20 250) rotate(222) scale(20 22)"><ellipse cx="0" cy="0" rx="1" ry="1" id="35" fill="rgb(1,50,29)" fill-opacity="0.501961" /></g>
<g transform="translate(121 135) rotate(360) scale(17 2)"><ellipse cx="0" cy="0" rx="1" ry="1" id="36" fill="rgb(213,211,194)" fill-opacity="0.501961" /></g>
<g transform="translate(123 138) rotate(338) scale(7 6)"><ellipse cx="0" cy="0" rx="1" ry="1" id="37" fill="rgb(242,234,229)" fill-opacity="0.501961" /></g>
<g transform="translate(8 52) rotate(197) scale(11 23)"><ellipse cx="0" cy="0" rx="1" ry="1" id="38" fill="rgb(129,149,81)" fill-opacity="0.501961" /></g>
<g transform="translate(110 148) rotate(243) scale(8 2)"><ellipse cx="0" cy="0" rx="1" ry="1" id="39" fill="rgb(110,105,77)" fill-opacity="0.501961" /></g>
<g transform="translate(60 225) rotate(288) scale(70 4)"><ellipse cx="0" cy="0" rx="1" ry="1" id="40" fill="rgb(51,101,50)" fill-opacity="0.501961" /></g>
<g transform="translate(157 138) rotate(234) scale(24 19)"><ellipse cx="0" cy="0" rx="1" ry="1" id="41" fill="rgb(51,101,47)" fill-opacity="0.501961" /></g>
<g transform="translate(4 169) rotate(336) scale(14 9)"><ellipse cx="0" cy="0" rx="1" ry="1" id="42" fill="rgb(92,115,61)" fill-opacity="0.501961" /></g>
<g transform="translate(129 153) rotate(3) scale(18 4)"><ellipse cx="0" cy="0" rx="1" ry="1" id="43" fill="rgb(27,63,28)" fill-opacity="0.501961" /></g>
<g transform="translate(191 140) rotate(58) scale(22 18)"><ellipse cx="0" cy="0" rx="1" ry="1" id="44" fill="rgb(21,81,37)" fill-opacity="0.501961" /></g>
<g transform="translate(17 88) rotate(91) scale(36 8)"><ellipse cx="0" cy="0" rx="1" ry="1" id="45" fill="rgb(103,126,67)" fill-opacity="0.501961" /></g>
<g transform="translate(172 59) rotate(14) scale(48 12)"><ellipse cx="0" cy="0" rx="1" ry="1" id="46" fill="rgb(88,117,65)" fill-opacity="0.501961" /></g>
<g transform="translate(159 89) rotate(159) scale(36 28)"><ellipse cx="0" cy="0" rx="1" ry="1" id="47" fill="rgb(69,110,53)" fill-opacity="0.501961" /></g>
<g transform="translate(155 20) rotate(294) scale(13 55)"><ellipse cx="0" cy="0" rx="1" ry="1" id="48" fill="rgb(113,128,83)" fill-opacity="0.501961" /></g>
<g transform="translate(80 107) rotate(25) scale(6 39)"><ellipse cx="0" cy="0" rx="1" ry="1" id="49" fill="rgb(112,137,73)" fill-opacity="0.501961" /></g>
<g transform="translate(104 238) rotate(270) scale(11 18)"><ellipse cx="0" cy="0" rx="1" ry="1" id="50" fill="rgb(4,62,34)" fill-opacity="0.501961" /></g>
<g transform="translate(167 181) rotate(287) scale(21 7)"><ellipse cx="0" cy="0" rx="1" ry="1" id="51" fill="rgb(53,99,48)" fill-opacity="0.501961" /></g>
<g transform="translate(146 152) rotate(100) scale(24 16)"><ellipse cx="0" cy="0" rx="1" ry="1" id="52" fill="rgb(46,98,48)" fill-opacity="0.501961" /></g>
<g transform="translate(43 0) rotate(286) scale(9 27)"><ellipse cx="0" cy="0" rx="1" ry="1" id="53" fill="rgb(101,112,81)" fill-opacity="0.501961" /></g>
<g transform="translate(109 168) rotate(242) scale(13 10)"><ellipse cx="0" cy="0" rx="1" ry="1" id="54" fill="rgb(72,103,58)" fill-opacity="0.501961" /></g>
<g transform="translate(125 34) rotate(118) scale(21 16)"><ellipse cx="0" cy="0" rx="1" ry="1" id="55" fill="rgb(123,139,89)" fill-opacity="0.501961" /></g>
<g transform="translate(92 1) rotate(359) scale(58 4)"><ellipse cx="0" cy="0" rx="1" ry="1" id="56" fill="rgb(97,108,76)" fill-opacity="0.501961" /></g>
<g transform="translate(144 250) rotate(329) scale(12 26)"><ellipse cx="0" cy="0" rx="1" ry="1" id="57" fill="rgb(7,65,40)" fill-opacity="0.501961" /></g>
<g transform="translate(96 162) rotate(156) scale(11 24)"><ellipse cx="0" cy="0" rx="1" ry="1" id="58" fill="rgb(38,85,48)" fill-opacity="0.501961" /></g>
<g transform="translate(114 118) rotate(174) scale(4 17)"><ellipse cx="0" cy="0" rx="1" ry="1" id="59" fill="rgb(56,103,44)" fill-opacity="0.501961" /></g>
<g transform="translate(191 186) rotate(355) scale(17 38)"><ellipse cx="0" cy="0" rx="1" ry="1" id="60" fill="rgb(15,78,40)" fill-opacity="0.501961" /></g>
<g transform="translate(7 0) rotate(61) scale(3 47)"><ellipse cx="0" cy="0" rx="1" ry="1" id="61" fill="rgb(153,149,111)" fill-opacity="0.501961" /></g>
<g transform="translate(15 4) rotate(193) scale(8 21)"><ellipse cx="0" cy="0" rx="1" ry="1" id="62" fill="rgb(227,204,176)" fill-opacity="0.501961" /></g>
<g transform="translate(64 31) rotate(261) scale(26 13)"><ellipse cx="0" cy="0" rx="1" ry="1" id="63" fill="rgb(121,138,83)" fill-opacity="0.501961" /></g>
<g transform="translate(115 219) rotate(3) scale(6 25)"><ellipse cx="0" cy="0" rx="1" ry="1" id="64" fill="rgb(5,68,35)" fill-opacity="0.501961" /></g>
<g transform="translate(84 248) rotate(86) scale(15 11)"><ellipse cx="0" cy="0" rx="1" ry="1" id="65" fill="rgb(0,24,17)" fill-opacity="0.501961" /></g>
<g transform="translate(55 99) rotate(314) scale(6 17)"><ellipse cx="0" cy="0" rx="1" ry="1" id="66" fill="rgb(110,134,75)" fill-opacity="0.501961" /></g>
<g transform="translate(28 87) rotate(144) scale(10 20)"><ellipse cx="0" cy="0" rx="1" ry="1" id="67" fill="rgb(76,110,58)" fill-opacity="0.501961" /></g>
<g transform="translate(104 84) rotate(291) scale(16 13)"><ellipse cx="0" cy="0" rx="1" ry="1" id="68" fill="rgb(102,129,60)" fill-opacity="0.501961" /></g>
<g transform="translate(136 203) rotate(280) scale(21 7)"><ellipse cx="0" cy="0" rx="1" ry="1" id="69" fill="rgb(47,97,47)" fill-opacity="0.501961" /></g>
<g transform="translate(3 136) rotate(67) scale(15 15)"><ellipse cx="0" cy="0" rx="1" ry="1" id="70" fill="rgb(45,95,43)" fill-opacity="0.501961" /></g>
<g transform="translate(107 54) rotate(308) scale(22 10)"><ellipse cx="0" cy="0" rx="1" ry="1" id="71" fill="rgb(103,127,69)" fill-opacity="0.501961" /></g>
<g transform="translate(86 194) rotate(230) scale(12 10)"><ellipse cx="0" cy="0" rx="1" ry="1" id="72" fill="rgb(4,57,34)" fill-opacity="0.501961" /></g>
<g transform="translate(74 129) rotate(233) scale(8 24)"><ellipse cx="0" cy="0" rx="1" ry="1" id="73" fill="rgb(87,120,63)" fill-opacity="0.501961" /></g>
<g transform="translate(122 247) rotate(275) scale(20 1)"><ellipse cx="0" cy="0" rx="1" ry="1" id="74" fill="rgb(158,143,76)" fill-opacity="0.501961" /></g>
<g transform="translate(85 140) rotate(52) scale(5 38)"><ellipse cx="0" cy="0" rx="1" ry="1" id="75" fill="rgb(43,90,46)" fill-opacity="0.501961" /></g>
<g transform="translate(149 176) rotate(28) scale(8 14)"><ellipse cx="0" cy="0" rx="1" ry="1" id="76" fill="rgb(15,75,37)" fill-opacity="0.501961" /></g>
<g transform="translate(135 151) rotate(132) scale(11 6)"><ellipse cx="0" cy="0" rx="1" ry="1" id="77" fill="rgb(65,109,52)" fill-opacity="0.501961" /></g>
<g transform="translate(190 97) rotate(309) scale(18 12)"><ellipse cx="0" cy="0" rx="1" ry="1" id="78" fill="rgb(52,102,45)" fill-opacity="0.501961" /></g>
<g transform="translate(92 166) rotate(196) scale(8 22)"><ellipse cx="0" cy="0" rx="1" ry="1" id="79" fill="rgb(26,79,44)" fill-opacity="0.501961" /></g>
<g transform="translate(27 37) rotate(203) scale(21 8)"><ellipse cx="0" cy="0" rx="1" ry="1" id="80" fill="rgb(164,167,122)" fill-opacity="0.501961" /></g>
<g transform="translate(11 193) rotate(30) scale(28 14)"><ellipse cx="0" cy="0" rx="1" ry="1" id="81" fill="rgb(31,88,42)" fill-opacity="0.501961" /></g>
<g transform="translate(171 255) rotate(325) scale(32 13)"><ellipse cx="0" cy="0" rx="1" ry="1" id="82" fill="rgb(3,36,20)" fill-opacity="0.501961" /></g>
<g transform="translate(56 202) rotate(11) scale(9 24)"><ellipse cx="0" cy="0" rx="1" ry="1" id="83" fill="rgb(9,63,33)" fill-opacity="0.501961" /></g>
<g transform="translate(166 98) rotate(94) scale(21 11)"><ellipse cx="0" cy="0" rx="1" ry="1" id="84" fill="rgb(75,115,57)" fill-opacity="0.501961" /></g>
<g transform="translate(3 22) rotate(49) scale(13 2)"><ellipse cx="0" cy="0" rx="1" ry="1" id="85" fill="rgb(175,172,129)" fill-opacity="0.501961" /></g>
<g transform="translate(25 2) rotate(230) scale(24 4)"><ellipse cx="0" cy="0" rx="1" ry="1" id="86" fill="rgb(174,167,133)" fill-opacity="0.501961" /></g>
<g transform="translate(15 107) rotate(199) scale(8 11)"><ellipse cx="0" cy="0" rx="1" ry="1" id="87" fill="rgb(110,128,73)" fill-opacity="0.501961" /></g>
<g transform="translate(26 15) rotate(323) scale(5 7)"><ellipse cx="0" cy="0" rx="1" ry="1" id="88" fill="rgb(225,204,174)" fill-opacity="0.501961" /></g>
<g transform="translate(142 247) rotate(300) scale(2 9)"><ellipse cx="0" cy="0" rx="1" ry="1" id="89" fill="rgb(44,82,56)" fill-opacity="0.501961" /></g>
<g transform="translate(40 147) rotate(271) scale(29 8)"><ellipse cx="0" cy="0" rx="1" ry="1" id="90" fill="rgb(46,96,46)" fill-opacity="0.501961" /></g>
<g transform="translate(100 223) rotate(284) scale(17 22)"><ellipse cx="0" cy="0" rx="1" ry="1" id="91" fill="rgb(8,53,34)" fill-opacity="0.501961" /></g>
<g transform="translate(103 169) rotate(11) scale(8 13)"><ellipse cx="0" cy="0" rx="1" ry="1" id="92" fill="rgb(60,99,52)" fill-opacity="0.501961" /></g>
<g transform="translate(132 22) rotate(293) scale(15 10)"><ellipse cx="0" cy="0" rx="1" ry="1" id="93" fill="rgb(131,141,97)" fill-opacity="0.501961" /></g>
<g transform="translate(84 92) rotate(274) scale(28 6)"><ellipse cx="0" cy="0" rx="1" ry="1" id="94" fill="rgb(126,145,85)" fill-opacity="0.501961" /></g>
<g transform="translate(130 207) rotate(69) scale(23 4)"><ellipse cx="0" cy="0" rx="1" ry="1" id="95" fill="rgb(25,77,39)" fill-opacity="0.501961" /></g>
<g transform="translate(112 110) rotate(360) scale(22 7)"><ellipse cx="0" cy="0" rx="1" ry="1" id="96" fill="rgb(70,111,52)" fill-opacity="0.501961" /></g>
<g transform="translate(101 0) rotate(315) scale(43 7)"><ellipse cx="0" cy="0" rx="1" ry="1" id="97" fill="rgb(133,137,97)" fill-opacity="0.501961" /></g>
<g transform="translate(163 210) rotate(341) scale(15 7)"><ellipse cx="0" cy="0" rx="1" ry="1" id="98" fill="rgb(14,70,35)" fill-opacity="0.501961" /></g>
<g transform="translate(54 17) rotate(75) scale(6 20)"><ellipse cx="0" cy="0" rx="1" ry="1" id="99" fill="rgb(129,139,95)" fill-opacity="0.501961" /></g>
<g transform="translate(153 65) rotate(260) scale(10 45)"><ellipse cx="0" cy="0" rx="1" ry="1" id="100" fill="rgb(84,115,62)" fill-opacity="0.501961" /></g>
<g transform="translate(26 231) rotate(85) scale(13 5)"><ellipse cx="0" cy="0" rx="1" ry="1" id="101" fill="rgb(0,50,29)" fill-opacity="0.501961" /></g>
<g transform="translate(120 111) rotate(165) scale(1 24)"><ellipse cx="0" cy="0" rx="1" ry="1" id="102" fill="rgb(74,116,48)" fill-opacity="0.501961" /></g>
<g transform="translate(78 69) rotate(21) scale(4 36)"><ellipse cx="0" cy="0" rx="1" ry="1" id="103" fill="rgb(133,149,93)" fill-opacity="0.501961" /></g>
<g transform="translate(1 105) rotate(178) scale(6 23)"><ellipse cx="0" cy="0" rx="1" ry="1" id="104" fill="rgb(64,109,49)" fill-opacity="0.501961" /></g>
<g transform="translate(126 227) rotate(268) scale(6 1)"><ellipse cx="0" cy="0" rx="1" ry="1" id="105" fill="rgb(181,183,120)" fill-opacity="0.501961" /></g>
<g transform="translate(123 255) rotate(179) scale(1 11)"><ellipse cx="0" cy="0" rx="1" ry="1" id="106" fill="rgb(180,158,86)" fill-opacity="0.501961" /></g>
<g transform="translate(107 255) rotate(299) scale(14 10)"><ellipse cx="0" cy="0" rx="1" ry="1" id="107" fill="rgb(0,52,29)" fill-opacity="0.501961" /></g>
<g transform="translate(130 135) rotate(289) scale(2 1)"><ellipse cx="0" cy="0" rx="1" ry="1" id="108" fill="rgb(47,83,35)" fill-opacity="0.501961" /></g>
<g transform="translate(158 143) rotate(197) scale(24 10)"><ellipse cx="0" cy="0" rx="1" ry="1" id="109" fill="rgb(50,99,48)" fill-opacity="0.501961" /></g>
<g transform="translate(153 44) rotate(170) scale(56 8)"><ellipse cx="0" cy="0" rx="1" ry="1" id="110" fill="rgb(104,127,73)" fill-opacity="0.501961" /></g>
<g transform="translate(148 88) rotate(360) scale(17 15)"><ellipse cx="0" cy="0" rx="1" ry="1" id="111" fill="rgb(63,105,52)" fill-opacity="0.501961" /></g>
<g transform="translate(36 211) rotate(346) scale(7 25)"><ellipse cx="0" cy="0" rx="1" ry="1" id="112" fill="rgb(22,82,38)" fill-opacity="0.501961" /></g>
<g transform="translate(1 226) rotate(174) scale(2 30)"><ellipse cx="0" cy="0" rx="1" ry="1" id="113" fill="rgb(2,47,26)" fill-opacity="0.501961" /></g>
<g transform="translate(136 200) rotate(282) scale(31 4)"><ellipse cx="0" cy="0" rx="1" ry="1" id="114" fill="rgb(43,95,46)" fill-opacity="0.501961" /></g>
<g transform="translate(59 106) rotate(144) scale(2 25)"><ellipse cx="0" cy="0" rx="1" ry="1" id="115" fill="rgb(112,135,78)" fill-opacity="0.501961" /></g>
<g transform="translate(173 160) rotate(302) scale(18 7)"><ellipse cx="0" cy="0" rx="1" ry="1" id="116" fill="rgb(33,88,43)" fill-opacity="0.501961" /></g>
<g transform="translate(13 225) rotate(82) scale(22 5)"><ellipse cx="0" cy="0" rx="1" ry="1" id="117" fill="rgb(23,78,42)" fill-opacity="0.501961" /></g>
<g transform="translate(0 185) rotate(87) scale(9 10)"><ellipse cx="0" cy="0" rx="1" ry="1" id="118" fill="rgb(53,98,43)" fill-opacity="0.501961" /></g>
<g transform="translate(176 2) rotate(93) scale(10 39)"><ellipse cx="0" cy="0" rx="1" ry="1" id="119" fill="rgb(97,112,75)" fill-opacity="0.501961" /></g>
<g transform="translate(12 42) rotate(329) scale(5 17)"><ellipse cx="0" cy="0" rx="1" ry="1" id="120" fill="rgb(130,146,86)" fill-opacity="0.501961" /></g>
<g transform="translate(86 123) rotate(299) scale(1 23)"><ellipse cx="0" cy="0" rx="1" ry="1" id="121" fill="rgb(90,120,70)" fill-opacity="0.501961" /></g>
<g transform="translate(101 196) rotate(224) scale(27 5)"><ellipse cx="0" cy="0" rx="1" ry="1" id="122" fill="rgb(15,71,38)" fill-opacity="0.501961" /></g>
<g transform="translate(163 228) rotate(145) scale(40 6)"><ellipse cx="0" cy="0" rx="1" ry="1" id="123" fill="rgb(5,56,29)" fill-opacity="0.501961" /></g>
<g transform="translate(23 21) rotate(52) scale(4 10)"><ellipse cx="0" cy="0" rx="1" ry="1" id="124" fill="rgb(211,196,161)" fill-opacity="0.501961" /></g>
<g transform="translate(159 28) rotate(161) scale(13 14)"><ellipse cx="0" cy="0" rx="1" ry="1" id="125" fill="rgb(114,130,81)" fill-opacity="0.501961" /></g>
<g transform="translate(56 31) rotate(68) scale(18 6)"><ellipse cx="0" cy="0" rx="1" ry="1" id="126" fill="rgb(112,137,78)" fill-opacity="0.501961" /></g>
<g transform="translate(124 191) rotate(173) scale(1 39)"><ellipse cx="0" cy="0" rx="1" ry="1" id="127" fill="rgb(15,71,37)" fill-opacity="0.501961" /></g>
<g transform="translate(71 47) rotate(152) scale(4 19)"><ellipse cx="0" cy="0" rx="1" ry="1" id="128" fill="rgb(112,134,74)" fill-opacity="0.501961" /></g>
<g transform="translate(50 121) rotate(144) scale(7 33)"><ellipse cx="0" cy="0" rx="1" ry="1" id="129" fill="rgb(68,109,55)" fill-opacity="0.501961" /></g>
<g transform="translate(14 14) rotate(90) scale(7 10)"><ellipse cx="0" cy="0" rx="1" ry="1" id="130" fill="rgb(233,209,181)" fill-opacity="0.501961" /></g>
<g transform="translate(108 166) rotate(81) scale(17 9)"><ellipse cx="0" cy="0" rx="1" ry="1" id="131" fill="rgb(63,99,52)" fill-opacity="0.501961" /></g>
<g transform="translate(165 188) rotate(20) scale(10 7)"><ellipse cx="0" cy="0" rx="1" ry="1" id="132" fill="rgb(54,99,48)" fill-opacity="0.501961" /></g>
<g transform="translate(16 155) rotate(300) scale(10 14)"><ellipse cx="0" cy="0" rx="1" ry="1" id="133" fill="rgb(67,107,50)" fill-opacity="0.501961" /></g>
<g transform="translate(143 150) rotate(288) scale(7 14)"><ellipse cx="0" cy="0" rx="1" ry="1" id="134" fill="rgb(46,98,47)" fill-opacity="0.501961" /></g>
<g transform="translate(4 7) rotate(59) scale(2 30)"><ellipse cx="0" cy="0" rx="1" ry="1" id="135" fill="rgb(191,179,143)" fill-opacity="0.501961" /></g>
<g transform="translate(82 205) rotate(7) scale(10 16)"><ellipse cx="0" cy="0" rx="1" ry="1" id="136" fill="rgb(3,53,34)" fill-opacity="0.501961" /></g>
<g transform="translate(13 72) rotate(72) scale(6 24)"><ellipse cx="0" cy="0" rx="1" ry="1" id="137" fill="rgb(96,126,64)" fill-opacity="0.501961" /></g>
<g transform="translate(126 175) rotate(88) scale(10 4)"><ellipse cx="0" cy="0" rx="1" ry="1" id="138" fill="rgb(68,115,52)" fill-opacity="0.501961" /></g>
<g transform="translate(105 122) rotate(295) scale(10 10)"><ellipse cx="0" cy="0" rx="1" ry="1" id="139" fill="rgb(49,96,50)" fill-opacity="0.501961" /></g>
<g transform="translate(63 85) rotate(181) scale(17 4)"><ellipse cx="0" cy="0" rx="1" ry="1" id="140" fill="rgb(140,150,102)" fill-opacity="0.501961" /></g>
<g transform="translate(73 136) rotate(249) scale(3 28)"><ellipse cx="0" cy="0" rx="1" ry="1" id="141" fill="rgb(66,105,55)" fill-opacity="0.501961" /></g>
<g transform="translate(135 193) rotate(144) scale(9 17)"><ellipse cx="0" cy="0" rx="1" ry="1" id="142" fill="rgb(45,97,44)" fill-opacity="0.501961" /></g>
<g transform="translate(40 172) rotate(59) scale(6 19)"><ellipse cx="0" cy="0" rx="1" ry="1" id="143" fill="rgb(45,98,45)" fill-opacity="0.501961" /></g>
<g transform="translate(161 76) rotate(352) scale(13 6)"><ellipse cx="0" cy="0" rx="1" ry="1" id="144" fill="rgb(80,113,58)" fill-opacity="0.501961" /></g>
<g transform="translate(48 50) rotate(249) scale(34 5)"><ellipse cx="0" cy="0" rx="1" ry="1" id="145" fill="rgb(161,165,122)" fill-opacity="0.501961" /></g>
<g transform="translate(145 132) rotate(120) scale(5 22)"><ellipse cx="0" cy="0" rx="1" ry="1" id="146" fill="rgb(53,100,48)" fill-opacity="0.501961" /></g>
<g transform="translate(103 142) rotate(247) scale(7 3)"><ellipse cx="0" cy="0" rx="1" ry="1" id="147" fill="rgb(212,196,181)" fill-opacity="0.501961" /></g>
<g transform="translate(56 66) rotate(332) scale(19 11)"><ellipse cx="0" cy="0" rx="1" ry="1" id="148" fill="rgb(152,159,115)" fill-opacity="0.501961" /></g>
<g transform="translate(99 215) rotate(232) scale(37 4)"><ellipse cx="0" cy="0" rx="1" ry="1" id="149" fill="rgb(7,57,33)" fill-opacity="0.501961" /></g>
<g transform="translate(167 51) rotate(268) scale(6 39)"><ellipse cx="0" cy="0" rx="1" ry="1" id="150" fill="rgb(94,121,69)" fill-opacity="0.501961" /></g>
<g transform="translate(74 119) rotate(336) scale(17 6)"><ellipse cx="0" cy="0" rx="1" ry="1" id="151" fill="rgb(108,134,75)" fill-opacity="0.501961" /></g>
<g transform="translate(91 155) rotate(188) scale(17 11)"><ellipse cx="0" cy="0" rx="1" ry="1" id="152" fill="rgb(38,85,47)" fill-opacity="0.501961" /></g>
<g transform="translate(36 255) rotate(170) scale(9 25)"><ellipse cx="0" cy="0" rx="1" ry="1" id="153" fill="rgb(11,64,30)" fill-opacity="0.501961" /></g>
<g transform="translate(138 246) rotate(360) scale(5 22)"><ellipse cx="0" cy="0" rx="1" ry="1" id="154" fill="rgb(4,55,30)" fill-opacity="0.501961" /></g>
<g transform="translate(116 175) rotate(83) scale(17 2)"><ellipse cx="0" cy="0" rx="1" ry="1" id="155" fill="rgb(75,118,57)" fill-opacity="0.501961" /></g>
<g transform="translate(80 243) rotate(306) scale(24 6)"><ellipse cx="0" cy="0" rx="1" ry="1" id="156" fill="rgb(2,32,22)" fill-opacity="0.501961" /></g>
<g transform="translate(73 113) rotate(199) scale(6 8)"><ellipse cx="0" cy="0" rx="1" ry="1" id="157" fill="rgb(120,141,85)" fill-opacity="0.501961" /></g>
<g transform="translate(27 57) rotate(291) scale(5 11)"><ellipse cx="0" cy="0" rx="1" ry="1" id="158" fill="rgb(127,145,86)" fill-opacity="0.501961" /></g>
<g transform="translate(89 227) rotate(63) scale(9 24)"><ellipse cx="0" cy="0" rx="1" ry="1" id="159" fill="rgb(7,44,31)" fill-opacity="0.501961" /></g>
<g transform="translate(149 234) rotate(233) scale(19 4)"><ellipse cx="0" cy="0" rx="1" ry="1" id="160" fill="rgb(10,63,33)" fill-opacity="0.501961" /></g>
<g transform="translate(6 84) rotate(309) scale(9 14)"><ellipse cx="0" cy="0" rx="1" ry="1" id="161" fill="rgb(82,116,56)" fill-opacity="0.501961" /></g>
<g transform="translate(167 103) rotate(305) scale(5 7)"><ellipse cx="0" cy="0" rx="1" ry="1" id="162" fill="rgb(86,120,62)" fill-opacity="0.501961" /></g>
<g transform="translate(101 241) rotate(69) scale(9 6)"><ellipse cx="0" cy="0" rx="1" ry="1" id="163" fill="rgb(16,67,41)" fill-opacity="0.501961" /></g>
<g transform="translate(84 33) rotate(296) scale(19 6)"><ellipse cx="0" cy="0" rx="1" ry="1" id="164" fill="rgb(146,155,103)" fill-opacity="0.501961" /></g>
<g transform="translate(163 245) rotate(282) scale(27 9)"><ellipse cx="0" cy="0" rx="1" ry="1" id="165" fill="rgb(7,47,29)" fill-opacity="0.501961" /></g>
<g transform="translate(122 2) rotate(174) scale(17 5)"><ellipse cx="0" cy="0" rx="1" ry="1" id="166" fill="rgb(104,119,80)" fill-opacity="0.501961" /></g>
<g transform="translate(67 175) rotate(332) scale(35 6)"><ellipse cx="0" cy="0" rx="1" ry="1" id="167" fill="rgb(25,82,41)" fill-opacity="0.501961" /></g>
<g transform="translate(78 174) rotate(294) scale(29 1)"><ellipse cx="0" cy="0" rx="1" ry="1" id="168" fill="rgb(54,98,49)" fill-opacity="0.501961" /></g>
<g transform="translate(46 196) rotate(148) scale(7 15)"><ellipse cx="0" cy="0" rx="1" ry="1" id="169" fill="rgb(14,70,36)" fill-opacity="0.501961" /></g>
<g transform="translate(2 61) rotate(72) scale(6 19)"><ellipse cx="0" cy="0" rx="1" ry="1" id="170" fill="rgb(120,141,75)" fill-opacity="0.501961" /></g>
<g transform="translate(187 145) rotate(254) scale(18 4)"><ellipse cx="0" cy="0" rx="1" ry="1" id="171" fill="rgb(21,81,40)" fill-opacity="0.501961" /></g>
<g transform="translate(109 187) rotate(128) scale(3 13)"><ellipse cx="0" cy="0" rx="1" ry="1" id="172" fill="rgb(41,96,44)" fill-opacity="0.501961" /></g>
<g transform="translate(5 171) rotate(288) scale(9 10)"><ellipse cx="0" cy="0" rx="1" ry="1" id="173" fill="rgb(79,110,57)" fill-opacity="0.501961" /></g>
<g transform="translate(64 56) rotate(123) scale(4 11)"><ellipse cx="0" cy="0" rx="1" ry="1" id="174" fill="rgb(137,149,103)" fill-opacity="0.501961" /></g>
<g transform="translate(137 6) rotate(150) scale(8 32)"><ellipse cx="0" cy="0" rx="1" ry="1" id="175" fill="rgb(116,129,87)" fill-opacity="0.501961" /></g>
<g transform="translate(113 222) rotate(250) scale(24 4)"><ellipse cx="0" cy="0" rx="1" ry="1" id="176" fill="rgb(11,65,34)" fill-opacity="0.501961" /></g>
<g transform="translate(117 154) rotate(73) scale(4 4)"><ellipse cx="0" cy="0" rx="1" ry="1" id="177" fill="rgb(0,19,9)" fill-opacity="0.501961" /></g>
<g transform="translate(86 58) rotate(198) scale(3 21)"><ellipse cx="0" cy="0" rx="1" ry="1" id="178" fill="rgb(124,144,81)" fill-opacity="0.501961" /></g>
<g transform="translate(90 110) rotate(284) scale(14 3)"><ellipse cx="0" cy="0" rx="1" ry="1" id="179" fill="rgb(100,128,69)" fill-opacity="0.501961" /></g>
<g transform="translate(122 109) rotate(15) scale(1 26)"><ellipse cx="0" cy="0" rx="1" ry="1" id="180" fill="rgb(65,110,48)" fill-opacity="0.501961" /></g>
<g transform="translate(150 203) rotate(187) scale(5 24)"><ellipse cx="0" cy="0" rx="1" ry="1" id="181" fill="rgb(28,85,42)" fill-opacity="0.501961" /></g>
<g transform="translate(52 248) rotate(289) scale(21 3)"><ellipse cx="0" cy="0" rx="1" ry="1" id="182" fill="rgb(45,96,48)" fill-opacity="0.501961" /></g>
<g transform="translate(12 124) rotate(93) scale(3 18)"><ellipse cx="0" cy="0" rx="1" ry="1" id="183" fill="rgb(73,109,54)" fill-opacity="0.501961" /></g>
<g transform="translate(110 146) rotate(311) scale(3 5)"><ellipse cx="0" cy="0" rx="1" ry="1" id="184" fill="rgb(155,149,143)" fill-opacity="0.501961" /></g>
<g transform="translate(70 0) rotate(77) scale(3 12)"><ellipse cx="0" cy="0" rx="1" ry="1" id="185" fill="rgb(83,102,66)" fill-opacity="0.501961" /></g>
<g transform="translate(27 40) rotate(123) scale(2 15)"><ellipse cx="0" cy="0" rx="1" ry="1" id="186" fill="rgb(155,162,114)" fill-opacity="0.501961" /></g>
<g transform="translate(191 218) rotate(74) scale(6 16)"><ellipse cx="0" cy="0" rx="1" ry="1" id="187" fill="rgb(2,58,29)" fill-opacity="0.501961" /></g>
<g transform="translate(46 0) rotate(360) scale(9 21)"><ellipse cx="0" cy="0" rx="1" ry="1" id="188" fill="rgb(105,124,81)" fill-opacity="0.501961" /></g>
<g transform="translate(80 177) rotate(23) scale(3 9)"><ellipse cx="0" cy="0" rx="1" ry="1" id="189" fill="rgb(17,74,39)" fill-opacity="0.501961" /></g>
<g transform="translate(91 0) rotate(143) scale(25 4)"><ellipse cx="0" cy="0" rx="1" ry="1" id="190" fill="rgb(121,124,87)" fill-opacity="0.501961" /></g>
<g transform="translate(62 31) rotate(140) scale(9 7)"><ellipse cx="0" cy="0" rx="1" ry="1" id="191" fill="rgb(108,128,75)" fill-opacity="0.501961" /></g>
<g transform="translate(131 124) rotate(268) scale(6 24)"><ellipse cx="0" cy="0" rx="1" ry="1" id="192" fill="rgb(54,103,45)" fill-opacity="0.501961" /></g>
<g transform="translate(133 136) rotate(29) scale(1 4)"><ellipse cx="0" cy="0" rx="1" ry="1" id="193" fill="rgb(255,255,255)" fill-opacity="0.501961" /></g>
<g transform="translate(150 166) rotate(244) scale(4 16)"><ellipse cx="0" cy="0" rx="1" ry="1" id="194" fill="rgb(26,86,40)" fill-opacity="0.501961" /></g>
<g transform="translate(107 148) rotate(232) scale(1 1)"><ellipse cx="0" cy="0" rx="1" ry="1" id="195" fill="rgb(252,215,182)" fill-opacity="0.501961" /></g>
<g transform="translate(191 204) rotate(168) scale(39 6)"><ellipse cx="0" cy="0" rx="1" ry="1" id="196" fill="rgb(14,67,33)" fill-opacity="0.501961" /></g>
<g transform="translate(172 137) rotate(55) scale(15 6)"><ellipse cx="0" cy="0" rx="1" ry="1" id="197" fill="rgb(39,94,42)" fill-opacity="0.501961" /></g>
<g transform="translate(191 184) rotate(134) scale(34 5)"><ellipse cx="0" cy="0" rx="1" ry="1" id="198" fill="rgb(17,74,34)" fill-opacity="0.501961" /></g>
<g transform="translate(121 37) rotate(8) scale(18 6)"><ellipse cx="0" cy="0" rx="1" ry="1" id="199" fill="rgb(120,138,84)" fill-opacity="0.501961" /></g>
<g transform="translate(122 151) rotate(260) scale(2 5)"><ellipse cx="0" cy="0" rx="1" ry="1" id="200" fill="rgb(0,16,7)" fill-opacity="0.501961" /></g>
<g transform="translate(186 121) rotate(244) scale(4 24)"><ellipse cx="0" cy="0" rx="1" ry="1" id="201" fill="rgb(44,96,44)" fill-opacity="0.501961" /></g>
<g transform="translate(132 224) rotate(280) scale(42 1)"><ellipse cx="0" cy="0" rx="1" ry="1" id="202" fill="rgb(45,93,51)" fill-opacity="0.501961" /></g>
<g transform="translate(115 85) rotate(279) scale(23 5)"><ellipse cx="0" cy="0" rx="1" ry="1" id="203" fill="rgb(86,120,57)" fill-opacity="0.501961" /></g>
<g transform="translate(53 218) rotate(51) scale(8 7)"><ellipse cx="0" cy="0" rx="1" ry="1" id="204" fill="rgb(10,64,33)" fill-opacity="0.501961" /></g>
<g transform="translate(128 208) rotate(176) scale(3 7)"><ellipse cx="0" cy="0" rx="1" ry="1" id="205" fill="rgb(11,68,40)" fill-opacity="0.501961" /></g>
<g transform="translate(111 241) rotate(23) scale(8 21)"><ellipse cx="0" cy="0" rx="1" ry="1" id="206" fill="rgb(7,60,33)" fill-opacity="0.501961" /></g>
<g transform="translate(107 159) rotate(198) scale(10 5)"><ellipse cx="0" cy="0" rx="1" ry="1" id="207" fill="rgb(58,92,54)" fill-opacity="0.501961" /></g>
<g transform="translate(149 105) rotate(152) scale(5 26)"><ellipse cx="0" cy="0" rx="1" ry="1" id="208" fill="rgb(57,103,48)" fill-opacity="0.501961" /></g>
<g transform="translate(43 42) rotate(161) scale(6 34)"><ellipse cx="0" cy="0" rx="1" ry="1" id="209" fill="rgb(162,165,122)" fill-opacity="0.501961" /></g>
<g transform="translate(11 255) rotate(45) scale(8 22)"><ellipse cx="0" cy="0" rx="1" ry="1" id="210" fill="rgb(3,53,33)" fill-opacity="0.501961" /></g>
<g transform="translate(90 69) rotate(176) scale(4 16)"><ellipse cx="0" cy="0" rx="1" ry="1" id="211" fill="rgb(120,141,73)" fill-opacity="0.501961" /></g>
<g transform="translate(124 228) rotate(207) scale(2 1)"><ellipse cx="0" cy="0" rx="1" ry="1" id="212" fill="rgb(110,110,45)" fill-opacity="0.501961" /></g>
<g transform="translate(99 196) rotate(149) scale(9 9)"><ellipse cx="0" cy="0" rx="1" ry="1" id="213" fill="rgb(16,72,39)" fill-opacity="0.501961" /></g>
<g transform="translate(135 108) rotate(4) scale(10 25)"><ellipse cx="0" cy="0" rx="1" ry="1" id="214" fill="rgb(64,107,50)" fill-opacity="0.501961" /></g>
<g transform="translate(127 121) rotate(186) scale(1 14)"><ellipse cx="0" cy="0" rx="1" ry="1" id="215" fill="rgb(67,112,46)" fill-opacity="0.501961" /></g>
<g transform="translate(79 79) rotate(96) scale(28 4)"><ellipse cx="0" cy="0" rx="1" ry="1" id="216" fill="rgb(131,148,92)" fill-opacity="0.501961" /></g>
<g transform="translate(7 238) rotate(46) scale(2 16)"><ellipse cx="0" cy="0" rx="1" ry="1" id="217" fill="rgb(17,69,40)" fill-opacity="0.501961" /></g>
<g transform="translate(22 6) rotate(209) scale(7 2)"><ellipse cx="0" cy="0" rx="1" ry="1" id="218" fill="rgb(223,203,173)" fill-opacity="0.501961" /></g>
<g transform="translate(115 224) rotate(163) scale(3 19)"><ellipse cx="0" cy="0" rx="1" ry="1" id="219" fill="rgb(15,67,36)" fill-opacity="0.501961" /></g>
<g transform="translate(40 19) rotate(333) scale(1 20)"><ellipse cx="0" cy="0" rx="1" ry="1" id="220" fill="rgb(138,146,106)" fill-opacity="0.501961" /></g>
<g transform="translate(111 195) rotate(236) scale(7 2)"><ellipse cx="0" cy="0" rx="1" ry="1" id="221" fill="rgb(32,92,40)" fill-opacity="0.501961" /></g>
<g transform="translate(56 108) rotate(168) scale(3 5)"><ellipse cx="0" cy="0" rx="1" ry="1" id="222" fill="rgb(86,121,61)" fill-opacity="0.501961" /></g>
<g transform="translate(133 154) rotate(301) scale(7 5)"><ellipse cx="0" cy="0" rx="1" ry="1" id="223" fill="rgb(61,106,49)" fill-opacity="0.501961" /></g>
<g transform="translate(89 25) rotate(236) scale(8 17)"><ellipse cx="0" cy="0" rx="1" ry="1" id="224" fill="rgb(141,149,101)" fill-opacity="0.501961" /></g>
<g transform="translate(122 139) rotate(98) scale(6 7)"><ellipse cx="0" cy="0" rx="1" ry="1" id="225" fill="rgb(234,227,221)" fill-opacity="0.501961" /></g>
<g transform="translate(107 216) rotate(172) scale(7 9)"><ellipse cx="0" cy="0" rx="1" ry="1" id="226" fill="rgb(2,50,31)" fill-opacity="0.501961" /></g>
<g transform="translate(126 164) rotate(282) scale(10 4)"><ellipse cx="0" cy="0" rx="1" ry="1" id="227" fill="rgb(76,114,55)" fill-opacity="0.501961" /></g>
<g transform="translate(0 175) rotate(50) scale(9 2)"><ellipse cx="0" cy="0" rx="1" ry="1" id="228" fill="rgb(51,94,42)" fill-opacity="0.501961" /></g>
<g transform="translate(38 152) rotate(8) scale(9 20)"><ellipse cx="0" cy="0" rx="1" ry="1" id="229" fill="rgb(49,97,47)" fill-opacity="0.501961" /></g>
<g transform="translate(119 146) rotate(177) scale(6 2)"><ellipse cx="0" cy="0" rx="1" ry="1" id="230" fill="rgb(179,161,160)" fill-opacity="0.501961" /></g>
<g transform="translate(131 236) rotate(292) scale(18 2)"><ellipse cx="0" cy="0" rx="1" ry="1" id="231" fill="rgb(24,76,43)" fill-opacity="0.501961" /></g>
<g transform="translate(38 110) rotate(155) scale(15 5)"><ellipse cx="0" cy="0" rx="1" ry="1" id="232" fill="rgb(69,106,57)" fill-opacity="0.501961" /></g>
<g transform="translate(78 220) rotate(226) scale(6 18)"><ellipse cx="0" cy="0" rx="1" ry="1" id="233" fill="rgb(6,49,35)" fill-opacity="0.501961" /></g>
<g transform="translate(26 47) rotate(48) scale(21 3)"><ellipse cx="0" cy="0" rx="1" ry="1" id="234" fill="rgb(150,159,109)" fill-opacity="0.501961" /></g>
<g transform="translate(93 140) rotate(22) scale(3 1)"><ellipse cx="0" cy="0" rx="1" ry="1" id="235" fill="rgb(149,156,139)" fill-opacity="0.501961" /></g>
<g transform="translate(191 47) rotate(273) scale(8 6)"><ellipse cx="0" cy="0" rx="1" ry="1" id="236" fill="rgb(105,128,73)" fill-opacity="0.501961" /></g>
<g transform="translate(59 255) rotate(142) scale(1 14)"><ellipse cx="0" cy="0" rx="1" ry="1" id="237" fill="rgb(36,91,54)" fill-opacity="0.501961" /></g>
<g transform="translate(17 192) rotate(247) scale(4 6)"><ellipse cx="0" cy="0" rx="1" ry="1" id="238" fill="rgb(15,71,36)" fill-opacity="0.501961" /></g>
<g transform="translate(24 24) rotate(192) scale(2 7)"><ellipse cx="0" cy="0" rx="1" ry="1" id="239" fill="rgb(204,192,157)" fill-opacity="0.501961" /></g>
<g transform="translate(120 95) rotate(136) scale(19 6)"><ellipse cx="0" cy="0" rx="1" ry="1" id="240" fill="rgb(78,116,54)" fill-opacity="0.501961" /></g>
<g transform="translate(0 48) rotate(358) scale(10 14)"><ellipse cx="0" cy="0" rx="1" ry="1" id="241" fill="rgb(128,147,82)" fill-opacity="0.501961" /></g>
<g transform="translate(175 171) rotate(176) scale(3 19)"><ellipse cx="0" cy="0" rx="1" ry="1" id="242" fill="rgb(29,86,42)" fill-opacity="0.501961" /></g>
<g transform="translate(47 247) rotate(246) scale(7 4)"><ellipse cx="0" cy="0" rx="1" ry="1" id="243" fill="rgb(13,72,34)" fill-opacity="0.501961" /></g>
<g transform="translate(138 164) rotate(183) scale(3 13)"><ellipse cx="0" cy="0" rx="1" ry="1" id="244" fill="rgb(39,94,42)" fill-opacity="0.501961" /></g>
<g transform="translate(19 64) rotate(60) scale(5 6)"><ellipse cx="0" cy="0" rx="1" ry="1" id="245" fill="rgb(108,134,68)" fill-opacity="0.501961" /></g>
<g transform="translate(77 142) rotate(158) scale(19 7)"><ellipse cx="0" cy="0" rx="1" ry="1" id="246" fill="rgb(56,98,51)" fill-opacity="0.501961" /></g>
<g transform="translate(128 28) rotate(182) scale(5 8)"><ellipse cx="0" cy="0" rx="1" ry="1" id="247" fill="rgb(132,146,96)" fill-opacity="0.501961" /></g>
<g transform="translate(95 156) rotate(272) scale(13 5)"><ellipse cx="0" cy="0" rx="1" ry="1" id="248" fill="rgb(29,83,46)" fill-opacity="0.501961" /></g>
<g transform="translate(0 207) rotate(338) scale(4 11)"><ellipse cx="0" cy="0" rx="1" ry="1" id="249" fill="rgb(12,61,28)" fill-opacity="0.501961" /></g>
</svg>