<svg xmlns="http://www.w3.org/2000/svg" viewBox="0.002 123.316 595.275 595.275">
  <path d="M284.017 681.588c-49.098-1.461-94.475-10.763-124.238-25.445-19.2-9.5-29.897-21.459-30.761-34.348-.266-4.651-.199-5.183 2.192-9.899 5.515-11.229 17.872-20.729 36.674-28.236 13.818-5.514 25.844-9.234 39.862-12.225 12.822-2.79 14.882-3.388 15.28-4.584.465-1.396.398-32.289-.066-32.82-.133-.133-4.385.398-9.434 1.263-9.435 1.462-12.357 1.462-26.243 0-13.62-1.462-32.223-13.021-40.128-25.047-2.06-3.123-4.385-5.913-5.183-6.179-2.392-.931-4.318-3.521-6.046-8.039-2.989-7.973-2.989-8.039-4.717-6.909-.996.664-2.724.93-4.783.797l-3.189-.199-3.122-6.312c-1.728-3.455-3.854-8.77-4.651-11.76-1.461-5.115-1.66-5.514-3.321-5.514-3.123 0-5.05-1.196-7.84-4.784-2.724-3.388-2.79-3.588-2.392-7.042.266-2.126 1.262-5.116 2.524-7.375l2.126-3.854-1.462-4.518c-.863-2.458-1.66-5.78-1.927-7.374-.266-2.259-.664-2.924-1.594-2.924-1.927 0-2.259-1.262-2.259-8.637-.066-5.581-.466-8.305-1.927-13.619-.997-3.654-1.927-6.711-1.993-6.777s-1.329.266-2.857.798c-1.461.531-8.969 1.395-16.543 1.927-7.64.598-14.948 1.328-16.21 1.66-1.263.399-6.977 1.329-12.624 2.126-5.646.731-12.955 2.126-16.276 2.99-18.204 4.916-26.509 6.909-28.303 6.909-1.927 0-1.993-.133-1.794-2.458l.199-2.524 3.787-.465c4.186-.532 6.843-1.196 19.067-4.784 5.249-1.527 11.428-2.79 17.274-3.454 4.982-.532 11.759-1.595 15.015-2.326 9.633-2.126 21.99-3.919 30.562-4.384l8.038-.399-1.195-3.388c-.598-1.86-1.13-4.385-1.196-5.647v-2.259l-15.479.465c-8.438.199-18.669.93-22.722 1.461-3.986.598-10.563 1.329-14.616 1.595-3.986.266-10.298 1.129-13.952 1.927-8.57 1.86-18.802 3.388-22.589 3.388-2.856 0-2.989-.066-2.989-1.927 0-1.528.465-2.126 2.192-2.923 3.388-1.528 4.318-1.727 13.088-2.392 4.584-.332 11.295-1.262 14.948-1.993 10.696-2.192 24.715-3.388 43.384-3.854 15.68-.332 17.407-.531 17.008-1.461-.266-.598-.73-2.99-1.062-5.381-.332-2.392-1.329-8.039-2.259-12.624-.864-4.584-2.325-13.088-3.322-18.935-.93-5.846-2.458-13.819-3.321-17.672-.864-3.853-2.459-13.288-3.588-20.928-1.13-7.64-2.392-15.214-2.79-16.875-.333-1.661-1.063-7.042-1.528-11.959s-1.329-12.091-1.86-15.945c-1.794-12.424-3.123-23.718-3.123-26.774 0-1.661-.398-5.049-.93-7.574-1.86-8.77-3.123-22.589-3.521-38.401l-.398-15.945 5.448-4.65c3.188-2.791 5.979-4.651 6.909-4.651h1.462l1.728 26.907c.996 14.816 1.927 27.373 2.192 27.904.199.532.664 6.312 1.062 12.756.398 7.042 1.196 14.284 2.06 17.938 1.927 8.77 3.588 20.13 5.913 40.726 2.79 24.449 4.318 33.95 7.375 46.174 1.395 5.713 3.188 14.417 3.853 19.333.731 4.85 1.927 11.76 2.725 15.214.73 3.455 1.328 7.242 1.328 8.438 0 3.587 1.263 4.186 8.704 4.186h6.577l-1.528-3.123c-3.056-6.112-5.78-23.253-5.78-36.541v-8.903l-2.259-2.126c-3.056-2.923-3.455-6.577-2.126-20.13 1.462-14.749 3.854-24.316 9.035-36.142 4.784-10.962 15.613-27.239 22.124-33.352 3.588-3.389 3.521-2.791 1.462-10.497-2.192-8.105-.266-31.625 3.654-45.842.797-2.724 1.727-6.445 2.06-8.238 1.195-6.245 1.461-6.378 10.763-6.378 14.019 0 27.704 4.252 45.51 14.218 12.756 7.109 17.141 9.633 19.399 11.029l2.325 1.461 7.973-1.395c23.718-4.186 33.551-4.85 66.77-4.85 31.558.066 38.002.465 58.266 3.854l14.151 2.392 2.79-2.259c1.528-1.196 9.7-5.647 18.204-9.899 21.393-10.763 30.628-13.687 45.908-14.351l8.039-.399.996 1.927c1.794 3.521 5.05 13.819 6.445 20.529 2.06 9.633 2.591 30.561.996 37.537-.598 2.724-1.263 5.78-1.462 6.71-.266 1.461.532 2.657 4.718 7.175 8.371 8.903 17.672 24.184 21.658 35.544 4.385 12.756 7.309 25.445 7.309 32.222 0 3.72-1.794 8.039-3.322 8.039-.398 0-.664 4.252-.664 11.693 0 10.63-.266 13.021-2.658 27.04-1.527 8.504-3.122 16.875-3.653 18.669-.532 1.794-.997 3.455-.997 3.654 0 .2 11.561.465 25.778.532 26.242.199 38.865.797 48.3 2.524 2.923.465 8.637 1.129 12.623 1.396 4.053.199 10.763 1.129 14.948 1.993 4.186.863 9.833 1.793 12.49 2.06l4.783.398v2.524c0 2.06-.266 2.591-1.129 2.591-.664 0-7.042-1.063-14.151-2.325-14.55-2.658-28.967-4.186-47.171-4.983-6.776-.332-14.55-.864-17.273-1.329-3.389-.465-10.896-.598-23.319-.266l-18.337.465-.73 3.72c-.466 2.126-.798 4.119-.798 4.452 0 .465 3.721.73 9.833.863 16.941.2 32.488 1.927 49.961 5.382 5.315 1.062 14.948 2.524 21.393 3.321 8.837 1.063 14.816 2.26 23.918 4.718 6.71 1.794 13.42 3.454 15.015 3.721 2.724.398 2.79.465 2.79 2.923 0 1.595-.332 2.591-.797 2.591-.398 0-9.5-2.06-20.064-4.584-10.63-2.524-21.592-4.783-24.315-5.049-2.725-.2-9.435-1.263-14.948-2.326-17.075-3.321-31.891-4.916-52.951-5.713l-11.561-.466-1.527 4.053c-5.647 15.613-24.25 30.96-51.556 42.653-15.215 6.511-28.037 10.364-40.859 12.291-18.337 2.79-19.931 3.255-16.41 5.049 2.657 1.396 5.78 4.784 5.78 6.378 0 .864-.465 2.259-.996 3.123-.931 1.396-.864 1.728 1.062 4.65 1.462 2.126 2.724 5.647 4.053 10.896 4.119 16.609 4.186 17.606 4.119 44.314-.066 13.553-.332 27.638-.531 31.425l-.466 6.776h3.057c4.916 0 12.291 1.794 28.9 7.043 31.89 10.098 42.853 15.28 52.419 24.914 6.644 6.71 9.567 12.889 9.567 20.662.066 4.584-.199 5.58-2.458 10.23-3.256 6.578-9.103 12.491-18.337 18.669-9.899 6.512-13.288 8.371-22.124 11.826-26.774 10.497-64.179 17.141-106.433 18.935-14.421.601-19.603.668-33.887.202zM258.77 558.679c.067-6.179.798-21.525 1.396-27.173.332-3.521.199-4.451-1.328-7.308l-1.728-3.256.332 11.627c.531 15.745.531 17.273 0 24.781-.398 5.314-.332 6.444.398 6.444s.93-1.195.93-5.115zm80.655-8.969c-.066-7.773-.266-17.008-.531-20.463l-.398-6.312-.864 3.056c-.598 1.993-.797 4.784-.531 7.973.199 2.725.531 10.497.797 17.407.199 6.843.665 12.424.997 12.424s.596-6.245.53-14.085zm-40.261.996c.398-11.692.066-19.466-.863-19.466-.532 0-1.329 14.019-1.329 24.117 0 5.514.199 7.108.863 7.108.732.001.997-2.59 1.329-11.759zm-82.25-56.007l6.711-2.126 2.259-6.976c1.195-3.787 3.056-8.305 4.186-10.032 1.727-2.79 1.86-3.256 1.195-5.515-.398-1.328-.73-2.724-.73-3.188 0-.398 1.794-2.06 3.92-3.654l3.92-2.856-5.647-.798c-5.581-.797-8.57-1.527-33.086-7.905-18.802-4.917-25.711-7.906-39.198-16.942-20.529-13.752-30.429-23.784-33.418-33.883l-1.13-3.787-4.982.332c-2.724.199-6.179.532-7.707.731l-2.724.332 1.196 3.388c.598 1.927 1.527 5.78 1.993 8.638.797 4.783.996 5.182 2.392 5.182 1.062 0 1.794.531 2.192 1.728.863 2.259.863 5.115-.066 6.046-.665.664.332 6.046 2.458 13.553.266.864.93.997 3.588.731 1.86-.133 5.182.066 7.507.531 7.176 1.396 8.837 4.65 5.05 9.833-1.13 1.595-1.993 2.923-1.86 3.056.133.066 1.661.931 3.388 1.927 4.186 2.392 10.165 7.973 11.162 10.431.664 1.661 1.195 1.993 2.989 1.993 2.857 0 4.851 2.325 9.567 10.829 4.451 8.039 7.042 11.096 11.893 13.952 6.843 4.186 12.822 5.913 21.725 6.444 10.893.663 13.551.463 21.257-1.995zm-92.679-102.313c0-.398-.532-2.524-1.13-4.651l-1.195-3.986h-7.11c-3.986 0-7.175.199-7.175.465 0 .199.332 2.325.73 4.651l.73 4.186h7.574c4.785-.001 7.576-.267 7.576-.665z"/>
</svg>
