<?xml version="1.0" standalone="no"?>
<svg xmlns="http://www.w3.org/2000/svg" version="1.2" baseProfile="tiny" width="192" height="256" viewBox="0 0 192 256">
<rect x="0" y="0" width="192" height="256" id="0" fill="rgb(112,107,103)" fill-opacity="1" />
<g transform="translate(33 158) rotate(23) scale(53 45)"><ellipse cx="0" cy="0" rx="1" ry="1" id="1" fill="rgb(255,241,218)" fill-opacity="0.501961" /></g>
<g transform="translate(53 28) rotate(351) scale(126 67)"><ellipse cx="0" cy="0" rx="1" ry="1" id="2" fill="rgb(22,20,26)" fill-opacity="0.501961" /></g>
<g transform="translate(114 189) rotate(271) scale(92 18)"><ellipse cx="0" cy="0" rx="1" ry="1" id="3" fill="rgb(1,10,30)" fill-opacity="0.501961" /></g>
<g transform="translate(16 255) rotate(75) scale(24 61)"><ellipse cx="0" cy="0" rx="1" ry="1" id="4" fill="rgb(243,222,186)" fill-opacity="0.501961" /></g>
<g transform="translate(27 200) rotate(304) scale(32 21)"><ellipse cx="0" cy="0" rx="1" ry="1" id="5" fill="rgb(79,74,44)" fill-opacity="0.501961" /></g>
<g transform="translate(10 144) rotate(252) scale(23 80)"><ellipse cx="0" cy="0" rx="1" ry="1" id="6" fill="rgb(238,227,229)" fill-opacity="0.501961" /></g>
<g transform="translate(184 100) rotate(360) scale(6 137)"><ellipse cx="0" cy="0" rx="1" ry="1" id="7" fill="rgb(237,254,254)" fill-opacity="0.501961" /></g>
<g transform="translate(141 172) rotate(93) scale(77 6)"><ellipse cx="0" cy="0" rx="1" ry="1" id="8" fill="rgb(255,245,238)" fill-opacity="0.501961" /></g>
<g transform="translate(76 199) rotate(10) scale(13 18)"><ellipse cx="0" cy="0" rx="1" ry="1" id="9" fill="rgb(227,195,255)" fill-opacity="0.501961" /></g>
<g transform="translate(45 26) rotate(2) scale(17 8)"><ellipse cx="0" cy="0" rx="1" ry="1" id="10" fill="rgb(244,253,245)" fill-opacity="0.501961" /></g>
<g transform="translate(49 172) rotate(251) scale(42 15)"><ellipse cx="0" cy="0" rx="1" ry="1" id="11" fill="rgb(253,157,79)" fill-opacity="0.501961" /></g>
<g transform="translate(36 102) rotate(178) scale(65 5)"><ellipse cx="0" cy="0" rx="1" ry="1" id="12" fill="rgb(255,193,63)" fill-opacity="0.501961" /></g>
<g transform="translate(97 74) rotate(93) scale(12 24)"><ellipse cx="0" cy="0" rx="1" ry="1" id="13" fill="rgb(190,143,126)" fill-opacity="0.501961" /></g>
<g transform="translate(163 254) rotate(100) scale(33 15)"><ellipse cx="0" cy="0" rx="1" ry="1" id="14" fill="rgb(28,25,7)" fill-opacity="0.501961" /></g>
<g transform="translate(74 124) rotate(70) scale(7 32)"><ellipse cx="0" cy="0" rx="1" ry="1" id="15" fill="rgb(74,177,255)" fill-opacity="0.501961" /></g>
<g transform="translate(48 0) rotate(91) scale(11 99)"><ellipse cx="0" cy="0" rx="1" ry="1" id="16" fill="rgb(0,0,0)" fill-opacity="0.501961" /></g>
<g transform="translate(0 197) rotate(111) scale(9 13)"><ellipse cx="0" cy="0" rx="1" ry="1" id="17" fill="rgb(255,255,255)" fill-opacity="0.501961" /></g>
<g transform="translate(101 143) rotate(1) scale(42 12)"><ellipse cx="0" cy="0" rx="1" ry="1" id="18" fill="rgb(104,100,117)" fill-opacity="0.501961" /></g>
<g transform="translate(131 255) rotate(89) scale(13 69)"><ellipse cx="0" cy="0" rx="1" ry="1" id="19" fill="rgb(82,48,21)" fill-opacity="0.501961" /></g>
<g transform="translate(111 189) rotate(193) scale(25 26)"><ellipse cx="0" cy="0" rx="1" ry="1" id="20" fill="rgb(18,35,58)" fill-opacity="0.501961" /></g>
<g transform="translate(37 42) rotate(183) scale(65 16)"><ellipse cx="0" cy="0" rx="1" ry="1" id="21" fill="rgb(73,65,66)" fill-opacity="0.501961" /></g>
<g transform="translate(108 144) rotate(28) scale(29 37)"><ellipse cx="0" cy="0" rx="1" ry="1" id="22" fill="rgb(90,85,95)" fill-opacity="0.501961" /></g>
<g transform="translate(17 159) rotate(177) scale(12 13)"><ellipse cx="0" cy="0" rx="1" ry="1" id="23" fill="rgb(255,255,255)" fill-opacity="0.501961" /></g>
<g transform="translate(160 53) rotate(348) scale(14 48)"><ellipse cx="0" cy="0" rx="1" ry="1" id="24" fill="rgb(56,82,112)" fill-opacity="0.501961" /></g>
<g transform="translate(33 86) rotate(261) scale(9 42)"><ellipse cx="0" cy="0" rx="1" ry="1" id="25" fill="rgb(0,14,29)" fill-opacity="0.501961" /></g>
<g transform="translate(32 193) rotate(224) scale(26 17)"><ellipse cx="0" cy="0" rx="1" ry="1" id="26" fill="rgb(102,112,100)" fill-opacity="0.501961" /></g>
<g transform="translate(191 20) rotate(268) scale(49 6)"><ellipse cx="0" cy="0" rx="1" ry="1" id="27" fill="rgb(87,81,57)" fill-opacity="0.501961" /></g>
<g transform="translate(162 6) rotate(79) scale(45 11)"><ellipse cx="0" cy="0" rx="1" ry="1" id="28" fill="rgb(12,28,42)" fill-opacity="0.501961" /></g>
<g transform="translate(55 222) rotate(355) scale(46 4)"><ellipse cx="0" cy="0" rx="1" ry="1" id="29" fill="rgb(91,56,0)" fill-opacity="0.501961" /></g>
<g transform="translate(191 215) rotate(16) scale(12 28)"><ellipse cx="0" cy="0" rx="1" ry="1" id="30" fill="rgb(177,193,186)" fill-opacity="0.501961" /></g>
<g transform="translate(150 82) rotate(183) scale(7 57)"><ellipse cx="0" cy="0" rx="1" ry="1" id="31" fill="rgb(122,142,166)" fill-opacity="0.501961" /></g>
<g transform="translate(46 156) rotate(95) scale(21 18)"><ellipse cx="0" cy="0" rx="1" ry="1" id="32" fill="rgb(244,155,94)" fill-opacity="0.501961" /></g>
<g transform="translate(75 67) rotate(313) scale(12 59)"><ellipse cx="0" cy="0" rx="1" ry="1" id="33" fill="rgb(87,70,64)" fill-opacity="0.501961" /></g>
<g transform="translate(29 130) rotate(64) scale(8 35)"><ellipse cx="0" cy="0" rx="1" ry="1" id="34" fill="rgb(255,249,241)" fill-opacity="0.501961" /></g>
<g transform="translate(20 253) rotate(262) scale(24 7)"><ellipse cx="0" cy="0" rx="1" ry="1" id="35" fill="rgb(243,245,255)" fill-opacity="0.501961" /></g>
<g transform="translate(181 205) rotate(360) scale(4 43)"><ellipse cx="0" cy="0" rx="1" ry="1" id="36" fill="rgb(211,224,216)" fill-opacity="0.501961" /></g>
<g transform="translate(78 238) rotate(238) scale(15 16)"><ellipse cx="0" cy="0" rx="1" ry="1" id="37" fill="rgb(168,163,138)" fill-opacity="0.501961" /></g>
<g transform="translate(122 19) rotate(33) scale(20 29)"><ellipse cx="0" cy="0" rx="1" ry="1" id="38" fill="rgb(48,34,18)" fill-opacity="0.501961" /></g>
<g transform="translate(135 227) rotate(268) scale(15 7)"><ellipse cx="0" cy="0" rx="1" ry="1" id="39" fill="rgb(252,204,164)" fill-opacity="0.501961" /></g>
<g transform="translate(171 219) rotate(360) scale(6 98)"><ellipse cx="0" cy="0" rx="1" ry="1" id="40" fill="rgb(44,59,48)" fill-opacity="0.501961" /></g>
<g transform="translate(76 186) rotate(171) scale(9 30)"><ellipse cx="0" cy="0" rx="1" ry="1" id="41" fill="rgb(159,160,255)" fill-opacity="0.501961" /></g>
<g transform="translate(86 135) rotate(281) scale(5 12)"><ellipse cx="0" cy="0" rx="1" ry="1" id="42" fill="rgb(166,196,247)" fill-opacity="0.501961" /></g>
<g transform="translate(131 74) rotate(19) scale(9 20)"><ellipse cx="0" cy="0" rx="1" ry="1" id="43" fill="rgb(53,40,30)" fill-opacity="0.501961" /></g>
<g transform="translate(114 237) rotate(271) scale(72 11)"><ellipse cx="0" cy="0" rx="1" ry="1" id="44" fill="rgb(19,23,25)" fill-opacity="0.501961" /></g>
<g transform="translate(118 53) rotate(218) scale(17 3)"><ellipse cx="0" cy="0" rx="1" ry="1" id="45" fill="rgb(148,133,132)" fill-opacity="0.501961" /></g>
<g transform="translate(61 192) rotate(84) scale(25 7)"><ellipse cx="0" cy="0" rx="1" ry="1" id="46" fill="rgb(255,203,139)" fill-opacity="0.501961" /></g>
<g transform="translate(0 218) rotate(152) scale(22 9)"><ellipse cx="0" cy="0" rx="1" ry="1" id="47" fill="rgb(18,8,0)" fill-opacity="0.501961" /></g>
<g transform="translate(95 80) rotate(84) scale(22 3)"><ellipse cx="0" cy="0" rx="1" ry="1" id="48" fill="rgb(202,154,131)" fill-opacity="0.501961" /></g>
<g transform="translate(123 94) rotate(244) scale(27 4)"><ellipse cx="0" cy="0" rx="1" ry="1" id="49" fill="rgb(134,153,186)" fill-opacity="0.501961" /></g>
<g transform="translate(47 22) rotate(360) scale(19 3)"><ellipse cx="0" cy="0" rx="1" ry="1" id="50" fill="rgb(255,255,255)" fill-opacity="0.501961" /></g>
<g transform="translate(160 138) rotate(278) scale(53 13)"><ellipse cx="0" cy="0" rx="1" ry="1" id="51" fill="rgb(91,112,119)" fill-opacity="0.501961" /></g>
<g transform="translate(103 126) rotate(342) scale(5 5)"><ellipse cx="0" cy="0" rx="1" ry="1" id="52" fill="rgb(0,0,0)" fill-opacity="0.501961" /></g>
<g transform="translate(137 97) rotate(56) scale(5 44)"><ellipse cx="0" cy="0" rx="1" ry="1" id="53" fill="rgb(122,129,138)" fill-opacity="0.501961" /></g>
<g transform="translate(165 59) rotate(78) scale(46 8)"><ellipse cx="0" cy="0" rx="1" ry="1" id="54" fill="rgb(60,71,80)" fill-opacity="0.501961" /></g>
<g transform="translate(109 91) rotate(36) scale(7 4)"><ellipse cx="0" cy="0" rx="1" ry="1" id="55" fill="rgb(9,0,0)" fill-opacity="0.501961" /></g>
<g transform="translate(50 56) rotate(90) scale(14 45)"><ellipse cx="0" cy="0" rx="1" ry="1" id="56" fill="rgb(96,86,90)" fill-opacity="0.501961" /></g>
<g transform="translate(140 166) rotate(47) scale(13 9)"><ellipse cx="0" cy="0" rx="1" ry="1" id="57" fill="rgb(192,193,202)" fill-opacity="0.501961" /></g>
<g transform="translate(95 204) rotate(73) scale(16 8)"><ellipse cx="0" cy="0" rx="1" ry="1" id="58" fill="rgb(45,97,151)" fill-opacity="0.501961" /></g>
<g transform="translate(124 121) rotate(265) scale(6 11)"><ellipse cx="0" cy="0" rx="1" ry="1" id="59" fill="rgb(27,0,0)" fill-opacity="0.501961" /></g>
<g transform="translate(44 188) rotate(86) scale(17 7)"><ellipse cx="0" cy="0" rx="1" ry="1" id="60" fill="rgb(97,118,110)" fill-opacity="0.501961" /></g>
<g transform="translate(142 220) rotate(178) scale(3 27)"><ellipse cx="0" cy="0" rx="1" ry="1" id="61" fill="rgb(242,211,187)" fill-opacity="0.501961" /></g>
<g transform="translate(2 144) rotate(90) scale(29 3)"><ellipse cx="0" cy="0" rx="1" ry="1" id="62" fill="rgb(161,128,98)" fill-opacity="0.501961" /></g>
<g transform="translate(5 40) rotate(269) scale(1 132)"><ellipse cx="0" cy="0" rx="1" ry="1" id="63" fill="rgb(0,0,0)" fill-opacity="0.501961" /></g>
<g transform="translate(83 116) rotate(97) scale(3 5)"><ellipse cx="0" cy="0" rx="1" ry="1" id="64" fill="rgb(255,238,206)" fill-opacity="0.501961" /></g>
<g transform="translate(0 255) rotate(271) scale(17 8)"><ellipse cx="0" cy="0" rx="1" ry="1" id="65" fill="rgb(101,73,54)" fill-opacity="0.501961" /></g>
<g transform="translate(24 163) rotate(280) scale(9 16)"><ellipse cx="0" cy="0" rx="1" ry="1" id="66" fill="rgb(244,242,244)" fill-opacity="0.501961" /></g>
<g transform="translate(183 119) rotate(90) scale(79 3)"><ellipse cx="0" cy="0" rx="1" ry="1" id="67" fill="rgb(225,229,230)" fill-opacity="0.501961" /></g>
<g transform="translate(81 92) rotate(269) scale(3 53)"><ellipse cx="0" cy="0" rx="1" ry="1" id="68" fill="rgb(27,32,33)" fill-opacity="0.501961" /></g>
<g transform="translate(88 156) rotate(154) scale(4 13)"><ellipse cx="0" cy="0" rx="1" ry="1" id="69" fill="rgb(19,32,35)" fill-opacity="0.501961" /></g>
<g transform="translate(59 140) rotate(33) scale(7 2)"><ellipse cx="0" cy="0" rx="1" ry="1" id="70" fill="rgb(116,44,0)" fill-opacity="0.501961" /></g>
<g transform="translate(127 133) rotate(99) scale(5 14)"><ellipse cx="0" cy="0" rx="1" ry="1" id="71" fill="rgb(122,149,170)" fill-opacity="0.501961" /></g>
<g transform="translate(17 150) rotate(246) scale(12 12)"><ellipse cx="0" cy="0" rx="1" ry="1" id="72" fill="rgb(254,255,255)" fill-opacity="0.501961" /></g>
<g transform="translate(44 206) rotate(221) scale(19 8)"><ellipse cx="0" cy="0" rx="1" ry="1" id="73" fill="rgb(166,143,95)" fill-opacity="0.501961" /></g>
<g transform="translate(158 213) rotate(94) scale(34 11)"><ellipse cx="0" cy="0" rx="1" ry="1" id="74" fill="rgb(88,102,88)" fill-opacity="0.501961" /></g>
<g transform="translate(191 107) rotate(178) scale(5 78)"><ellipse cx="0" cy="0" rx="1" ry="1" id="75" fill="rgb(147,151,138)" fill-opacity="0.501961" /></g>
<g transform="translate(64 251) rotate(6) scale(11 28)"><ellipse cx="0" cy="0" rx="1" ry="1" id="76" fill="rgb(152,142,127)" fill-opacity="0.501961" /></g>
<g transform="translate(106 226) rotate(275) scale(17 12)"><ellipse cx="0" cy="0" rx="1" ry="1" id="77" fill="rgb(9,27,42)" fill-opacity="0.501961" /></g>
<g transform="translate(109 175) rotate(188) scale(28 1)"><ellipse cx="0" cy="0" rx="1" ry="1" id="78" fill="rgb(139,132,138)" fill-opacity="0.501961" /></g>
<g transform="translate(121 153) rotate(47) scale(17 5)"><ellipse cx="0" cy="0" rx="1" ry="1" id="79" fill="rgb(128,148,158)" fill-opacity="0.501961" /></g>
<g transform="translate(96 112) rotate(175) scale(11 3)"><ellipse cx="0" cy="0" rx="1" ry="1" id="80" fill="rgb(188,179,188)" fill-opacity="0.501961" /></g>
<g transform="translate(75 180) rotate(275) scale(26 5)"><ellipse cx="0" cy="0" rx="1" ry="1" id="81" fill="rgb(134,122,204)" fill-opacity="0.501961" /></g>
<g transform="translate(79 188) rotate(261) scale(28 6)"><ellipse cx="0" cy="0" rx="1" ry="1" id="82" fill="rgb(190,171,219)" fill-opacity="0.501961" /></g>
<g transform="translate(126 255) rotate(7) scale(57 7)"><ellipse cx="0" cy="0" rx="1" ry="1" id="83" fill="rgb(96,66,43)" fill-opacity="0.501961" /></g>
<g transform="translate(80 22) rotate(118) scale(12 23)"><ellipse cx="0" cy="0" rx="1" ry="1" id="84" fill="rgb(87,70,57)" fill-opacity="0.501961" /></g>
<g transform="translate(5 237) rotate(360) scale(6 24)"><ellipse cx="0" cy="0" rx="1" ry="1" id="85" fill="rgb(153,136,95)" fill-opacity="0.501961" /></g>
<g transform="translate(61 103) rotate(270) scale(3 39)"><ellipse cx="0" cy="0" rx="1" ry="1" id="86" fill="rgb(244,185,112)" fill-opacity="0.501961" /></g>
<g transform="translate(72 126) rotate(24) scale(10 11)"><ellipse cx="0" cy="0" rx="1" ry="1" id="87" fill="rgb(69,184,255)" fill-opacity="0.501961" /></g>
<g transform="translate(107 171) rotate(180) scale(13 4)"><ellipse cx="0" cy="0" rx="1" ry="1" id="88" fill="rgb(39,0,0)" fill-opacity="0.501961" /></g>
<g transform="translate(68 159) rotate(180) scale(3 9)"><ellipse cx="0" cy="0" rx="1" ry="1" id="89" fill="rgb(233,255,255)" fill-opacity="0.501961" /></g>
<g transform="translate(42 150) rotate(308) scale(14 13)"><ellipse cx="0" cy="0" rx="1" ry="1" id="90" fill="rgb(231,145,83)" fill-opacity="0.501961" /></g>
<g transform="translate(144 97) rotate(360) scale(2 33)"><ellipse cx="0" cy="0" rx="1" ry="1" id="91" fill="rgb(220,205,183)" fill-opacity="0.501961" /></g>
<g transform="translate(2 124) rotate(256) scale(10 21)"><ellipse cx="0" cy="0" rx="1" ry="1" id="92" fill="rgb(226,187,162)" fill-opacity="0.501961" /></g>
<g transform="translate(108 101) rotate(119) scale(8 8)"><ellipse cx="0" cy="0" rx="1" ry="1" id="93" fill="rgb(50,26,39)" fill-opacity="0.501961" /></g>
<g transform="translate(127 144) rotate(317) scale(7 11)"><ellipse cx="0" cy="0" rx="1" ry="1" id="94" fill="rgb(47,49,52)" fill-opacity="0.501961" /></g>
<g transform="translate(141 150) rotate(4) scale(2 67)"><ellipse cx="0" cy="0" rx="1" ry="1" id="95" fill="rgb(225,212,209)" fill-opacity="0.501961" /></g>
<g transform="translate(17 110) rotate(269) scale(3 84)"><ellipse cx="0" cy="0" rx="1" ry="1" id="96" fill="rgb(95,57,38)" fill-opacity="0.501961" /></g>
<g transform="translate(94 133) rotate(167) scale(3 23)"><ellipse cx="0" cy="0" rx="1" ry="1" id="97" fill="rgb(125,129,140)" fill-opacity="0.501961" /></g>
<g transform="translate(134 107) rotate(205) scale(24 3)"><ellipse cx="0" cy="0" rx="1" ry="1" id="98" fill="rgb(90,101,116)" fill-opacity="0.501961" /></g>
<g transform="translate(88 150) rotate(357) scale(3 8)"><ellipse cx="0" cy="0" rx="1" ry="1" id="99" fill="rgb(0,0,6)" fill-opacity="0.501961" /></g>
<g transform="translate(16 189) rotate(64) scale(20 4)"><ellipse cx="0" cy="0" rx="1" ry="1" id="100" fill="rgb(103,103,84)" fill-opacity="0.501961" /></g>
<g transform="translate(80 76) rotate(169) scale(9 22)"><ellipse cx="0" cy="0" rx="1" ry="1" id="101" fill="rgb(91,79,70)" fill-opacity="0.501961" /></g>
<g transform="translate(51 173) rotate(163) scale(2 13)"><ellipse cx="0" cy="0" rx="1" ry="1" id="102" fill="rgb(249,246,251)" fill-opacity="0.501961" /></g>
<g transform="translate(121 65) rotate(11) scale(1 26)"><ellipse cx="0" cy="0" rx="1" ry="1" id="103" fill="rgb(190,172,172)" fill-opacity="0.501961" /></g>
<g transform="translate(107 151) rotate(338) scale(4 10)"><ellipse cx="0" cy="0" rx="1" ry="1" id="104" fill="rgb(65,0,0)" fill-opacity="0.501961" /></g>
<g transform="translate(150 31) rotate(275) scale(15 8)"><ellipse cx="0" cy="0" rx="1" ry="1" id="105" fill="rgb(88,97,117)" fill-opacity="0.501961" /></g>
<g transform="translate(115 82) rotate(344) scale(4 10)"><ellipse cx="0" cy="0" rx="1" ry="1" id="106" fill="rgb(200,187,192)" fill-opacity="0.501961" /></g>
<g transform="translate(58 75) rotate(0) scale(6 5)"><ellipse cx="0" cy="0" rx="1" ry="1" id="107" fill="rgb(0,0,0)" fill-opacity="0.501961" /></g>
<g transform="translate(97 158) rotate(46) scale(4 10)"><ellipse cx="0" cy="0" rx="1" ry="1" id="108" fill="rgb(138,130,135)" fill-opacity="0.501961" /></g>
<g transform="translate(36 129) rotate(87) scale(8 12)"><ellipse cx="0" cy="0" rx="1" ry="1" id="109" fill="rgb(241,242,244)" fill-opacity="0.501961" /></g>
<g transform="translate(75 29) rotate(175) scale(23 7)"><ellipse cx="0" cy="0" rx="1" ry="1" id="110" fill="rgb(86,75,66)" fill-opacity="0.501961" /></g>
<g transform="translate(9 14) rotate(176) scale(52 6)"><ellipse cx="0" cy="0" rx="1" ry="1" id="111" fill="rgb(39,44,49)" fill-opacity="0.501961" /></g>
<g transform="translate(124 143) rotate(117) scale(3 5)"><ellipse cx="0" cy="0" rx="1" ry="1" id="112" fill="rgb(177,192,198)" fill-opacity="0.501961" /></g>
<g transform="translate(27 183) rotate(135) scale(2 6)"><ellipse cx="0" cy="0" rx="1" ry="1" id="113" fill="rgb(0,21,61)" fill-opacity="0.501961" /></g>
<g transform="translate(120 184) rotate(278) scale(4 16)"><ellipse cx="0" cy="0" rx="1" ry="1" id="114" fill="rgb(0,0,0)" fill-opacity="0.501961" /></g>
<g transform="translate(152 108) rotate(88) scale(59 6)"><ellipse cx="0" cy="0" rx="1" ry="1" id="115" fill="rgb(108,123,139)" fill-opacity="0.501961" /></g>
<g transform="translate(115 226) rotate(312) scale(13 14)"><ellipse cx="0" cy="0" rx="1" ry="1" id="116" fill="rgb(13,25,35)" fill-opacity="0.501961" /></g>
<g transform="translate(62 187) rotate(271) scale(30 4)"><ellipse cx="0" cy="0" rx="1" ry="1" id="117" fill="rgb(255,172,100)" fill-opacity="0.501961" /></g>
<g transform="translate(0 193) rotate(142) scale(11 11)"><ellipse cx="0" cy="0" rx="1" ry="1" id="118" fill="rgb(255,222,201)" fill-opacity="0.501961" /></g>
<g transform="translate(191 225) rotate(350) scale(7 23)"><ellipse cx="0" cy="0" rx="1" ry="1" id="119" fill="rgb(127,131,124)" fill-opacity="0.501961" /></g>
<g transform="translate(24 237) rotate(19) scale(28 4)"><ellipse cx="0" cy="0" rx="1" ry="1" id="120" fill="rgb(201,189,153)" fill-opacity="0.501961" /></g>
<g transform="translate(153 171) rotate(183) scale(8 45)"><ellipse cx="0" cy="0" rx="1" ry="1" id="121" fill="rgb(110,118,114)" fill-opacity="0.501961" /></g>
<g transform="translate(97 0) rotate(178) scale(44 5)"><ellipse cx="0" cy="0" rx="1" ry="1" id="122" fill="rgb(1,4,7)" fill-opacity="0.501961" /></g>
<g transform="translate(6 204) rotate(44) scale(1 6)"><ellipse cx="0" cy="0" rx="1" ry="1" id="123" fill="rgb(242,208,189)" fill-opacity="0.501961" /></g>
<g transform="translate(99 55) rotate(190) scale(4 5)"><ellipse cx="0" cy="0" rx="1" ry="1" id="124" fill="rgb(2,0,0)" fill-opacity="0.501961" /></g>
<g transform="translate(17 218) rotate(93) scale(1 33)"><ellipse cx="0" cy="0" rx="1" ry="1" id="125" fill="rgb(175,151,92)" fill-opacity="0.501961" /></g>
<g transform="translate(129 40) rotate(326) scale(5 26)"><ellipse cx="0" cy="0" rx="1" ry="1" id="126" fill="rgb(27,34,42)" fill-opacity="0.501961" /></g>
<g transform="translate(93 81) rotate(175) scale(1 18)"><ellipse cx="0" cy="0" rx="1" ry="1" id="127" fill="rgb(211,186,178)" fill-opacity="0.501961" /></g>
<g transform="translate(26 196) rotate(60) scale(4 16)"><ellipse cx="0" cy="0" rx="1" ry="1" id="128" fill="rgb(155,154,151)" fill-opacity="0.501961" /></g>
<g transform="translate(72 185) rotate(360) scale(3 20)"><ellipse cx="0" cy="0" rx="1" ry="1" id="129" fill="rgb(104,121,190)" fill-opacity="0.501961" /></g>
<g transform="translate(179 255) rotate(179) scale(56 4)"><ellipse cx="0" cy="0" rx="1" ry="1" id="130" fill="rgb(47,36,29)" fill-opacity="0.501961" /></g>
<g transform="translate(172 4) rotate(274) scale(13 4)"><ellipse cx="0" cy="0" rx="1" ry="1" id="131" fill="rgb(3,7,9)" fill-opacity="0.501961" /></g>
<g transform="translate(57 188) rotate(185) scale(2 7)"><ellipse cx="0" cy="0" rx="1" ry="1" id="132" fill="rgb(253,224,224)" fill-opacity="0.501961" /></g>
<g transform="translate(75 147) rotate(216) scale(6 7)"><ellipse cx="0" cy="0" rx="1" ry="1" id="133" fill="rgb(205,152,123)" fill-opacity="0.501961" /></g>
<g transform="translate(78 165) rotate(108) scale(10 4)"><ellipse cx="0" cy="0" rx="1" ry="1" id="134" fill="rgb(174,155,233)" fill-opacity="0.501961" /></g>
<g transform="translate(6 219) rotate(86) scale(8 12)"><ellipse cx="0" cy="0" rx="1" ry="1" id="135" fill="rgb(60,43,14)" fill-opacity="0.501961" /></g>
<g transform="translate(135 225) rotate(173) scale(4 15)"><ellipse cx="0" cy="0" rx="1" ry="1" id="136" fill="rgb(217,187,164)" fill-opacity="0.501961" /></g>
<g transform="translate(50 151) rotate(204) scale(6 19)"><ellipse cx="0" cy="0" rx="1" ry="1" id="137" fill="rgb(250,173,120)" fill-opacity="0.501961" /></g>
<g transform="translate(58 160) rotate(360) scale(8 15)"><ellipse cx="0" cy="0" rx="1" ry="1" id="138" fill="rgb(255,165,93)" fill-opacity="0.501961" /></g>
<g transform="translate(169 41) rotate(83) scale(39 5)"><ellipse cx="0" cy="0" rx="1" ry="1" id="139" fill="rgb(39,47,52)" fill-opacity="0.501961" /></g>
<g transform="translate(54 91) rotate(183) scale(24 4)"><ellipse cx="0" cy="0" rx="1" ry="1" id="140" fill="rgb(0,26,41)" fill-opacity="0.501961" /></g>
<g transform="translate(144 106) rotate(266) scale(11 8)"><ellipse cx="0" cy="0" rx="1" ry="1" id="141" fill="rgb(162,156,153)" fill-opacity="0.501961" /></g>
<g transform="translate(101 83) rotate(99) scale(13 3)"><ellipse cx="0" cy="0" rx="1" ry="1" id="142" fill="rgb(99,44,16)" fill-opacity="0.501961" /></g>
<g transform="translate(68 141) rotate(173) scale(9 1)"><ellipse cx="0" cy="0" rx="1" ry="1" id="143" fill="rgb(26,3,8)" fill-opacity="0.501961" /></g>
<g transform="translate(0 181) rotate(360) scale(7 9)"><ellipse cx="0" cy="0" rx="1" ry="1" id="144" fill="rgb(252,223,197)" fill-opacity="0.501961" /></g>
<g transform="translate(26 78) rotate(282) scale(14 5)"><ellipse cx="0" cy="0" rx="1" ry="1" id="145" fill="rgb(17,18,20)" fill-opacity="0.501961" /></g>
<g transform="translate(35 104) rotate(210) scale(8 10)"><ellipse cx="0" cy="0" rx="1" ry="1" id="146" fill="rgb(195,146,82)" fill-opacity="0.501961" /></g>
<g transform="translate(110 20) rotate(288) scale(10 33)"><ellipse cx="0" cy="0" rx="1" ry="1" id="147" fill="rgb(70,56,43)" fill-opacity="0.501961" /></g>
<g transform="translate(67 243) rotate(50) scale(7 31)"><ellipse cx="0" cy="0" rx="1" ry="1" id="148" fill="rgb(169,160,138)" fill-opacity="0.501961" /></g>
<g transform="translate(139 242) rotate(84) scale(7 9)"><ellipse cx="0" cy="0" rx="1" ry="1" id="149" fill="rgb(164,131,94)" fill-opacity="0.501961" /></g>
<g transform="translate(28 120) rotate(74) scale(5 23)"><ellipse cx="0" cy="0" rx="1" ry="1" id="150" fill="rgb(238,201,172)" fill-opacity="0.501961" /></g>
<g transform="translate(54 129) rotate(160) scale(4 4)"><ellipse cx="0" cy="0" rx="1" ry="1" id="151" fill="rgb(50,179,249)" fill-opacity="0.501961" /></g>
<g transform="translate(107 128) rotate(169) scale(9 5)"><ellipse cx="0" cy="0" rx="1" ry="1" id="152" fill="rgb(21,17,18)" fill-opacity="0.501961" /></g>
<g transform="translate(67 83) rotate(90) scale(2 21)"><ellipse cx="0" cy="0" rx="1" ry="1" id="153" fill="rgb(97,90,87)" fill-opacity="0.501961" /></g>
<g transform="translate(25 200) rotate(304) scale(4 18)"><ellipse cx="0" cy="0" rx="1" ry="1" id="154" fill="rgb(115,97,68)" fill-opacity="0.501961" /></g>
<g transform="translate(85 98) rotate(174) scale(21 2)"><ellipse cx="0" cy="0" rx="1" ry="1" id="155" fill="rgb(216,147,44)" fill-opacity="0.501961" /></g>
<g transform="translate(131 77) rotate(101) scale(15 1)"><ellipse cx="0" cy="0" rx="1" ry="1" id="156" fill="rgb(11,12,10)" fill-opacity="0.501961" /></g>
<g transform="translate(113 64) rotate(342) scale(3 8)"><ellipse cx="0" cy="0" rx="1" ry="1" id="157" fill="rgb(26,24,26)" fill-opacity="0.501961" /></g>
<g transform="translate(59 238) rotate(183) scale(18 13)"><ellipse cx="0" cy="0" rx="1" ry="1" id="158" fill="rgb(159,152,133)" fill-opacity="0.501961" /></g>
<g transform="translate(142 153) rotate(91) scale(28 4)"><ellipse cx="0" cy="0" rx="1" ry="1" id="159" fill="rgb(214,206,206)" fill-opacity="0.501961" /></g>
<g transform="translate(157 67) rotate(345) scale(6 42)"><ellipse cx="0" cy="0" rx="1" ry="1" id="160" fill="rgb(93,105,123)" fill-opacity="0.501961" /></g>
<g transform="translate(95 164) rotate(271) scale(1 19)"><ellipse cx="0" cy="0" rx="1" ry="1" id="161" fill="rgb(159,165,169)" fill-opacity="0.501961" /></g>
<g transform="translate(31 193) rotate(161) scale(2 5)"><ellipse cx="0" cy="0" rx="1" ry="1" id="162" fill="rgb(245,255,255)" fill-opacity="0.501961" /></g>
<g transform="translate(84 104) rotate(94) scale(1 13)"><ellipse cx="0" cy="0" rx="1" ry="1" id="163" fill="rgb(243,204,164)" fill-opacity="0.501961" /></g>
<g transform="translate(122 75) rotate(360) scale(4 15)"><ellipse cx="0" cy="0" rx="1" ry="1" id="164" fill="rgb(118,95,81)" fill-opacity="0.501961" /></g>
<g transform="translate(104 105) rotate(352) scale(28 1)"><ellipse cx="0" cy="0" rx="1" ry="1" id="165" fill="rgb(37,26,36)" fill-opacity="0.501961" /></g>
<g transform="translate(16 65) rotate(284) scale(20 7)"><ellipse cx="0" cy="0" rx="1" ry="1" id="166" fill="rgb(78,80,92)" fill-opacity="0.501961" /></g>
<g transform="translate(41 203) rotate(260) scale(30 4)"><ellipse cx="0" cy="0" rx="1" ry="1" id="167" fill="rgb(112,100,70)" fill-opacity="0.501961" /></g>
<g transform="translate(22 100) rotate(360) scale(77 3)"><ellipse cx="0" cy="0" rx="1" ry="1" id="168" fill="rgb(192,131,40)" fill-opacity="0.501961" /></g>
<g transform="translate(187 173) rotate(360) scale(3 43)"><ellipse cx="0" cy="0" rx="1" ry="1" id="169" fill="rgb(155,165,162)" fill-opacity="0.501961" /></g>
<g transform="translate(23 142) rotate(79) scale(23 4)"><ellipse cx="0" cy="0" rx="1" ry="1" id="170" fill="rgb(247,253,255)" fill-opacity="0.501961" /></g>
<g transform="translate(92 134) rotate(62) scale(14 2)"><ellipse cx="0" cy="0" rx="1" ry="1" id="171" fill="rgb(107,93,103)" fill-opacity="0.501961" /></g>
<g transform="translate(23 41) rotate(178) scale(119 1)"><ellipse cx="0" cy="0" rx="1" ry="1" id="172" fill="rgb(8,12,14)" fill-opacity="0.501961" /></g>
<g transform="translate(92 184) rotate(185) scale(7 4)"><ellipse cx="0" cy="0" rx="1" ry="1" id="173" fill="rgb(5,14,21)" fill-opacity="0.501961" /></g>
<g transform="translate(43 229) rotate(270) scale(2 48)"><ellipse cx="0" cy="0" rx="1" ry="1" id="174" fill="rgb(162,157,113)" fill-opacity="0.501961" /></g>
<g transform="translate(138 219) rotate(95) scale(14 8)"><ellipse cx="0" cy="0" rx="1" ry="1" id="175" fill="rgb(215,192,178)" fill-opacity="0.501961" /></g>
<g transform="translate(40 255) rotate(252) scale(23 17)"><ellipse cx="0" cy="0" rx="1" ry="1" id="176" fill="rgb(199,172,140)" fill-opacity="0.501961" /></g>
<g transform="translate(132 51) rotate(136) scale(12 7)"><ellipse cx="0" cy="0" rx="1" ry="1" id="177" fill="rgb(41,51,65)" fill-opacity="0.501961" /></g>
<g transform="translate(44 23) rotate(185) scale(15 4)"><ellipse cx="0" cy="0" rx="1" ry="1" id="178" fill="rgb(241,254,255)" fill-opacity="0.501961" /></g>
<g transform="translate(43 80) rotate(70) scale(3 23)"><ellipse cx="0" cy="0" rx="1" ry="1" id="179" fill="rgb(16,16,18)" fill-opacity="0.501961" /></g>
<g transform="translate(135 176) rotate(266) scale(1 24)"><ellipse cx="0" cy="0" rx="1" ry="1" id="180" fill="rgb(164,170,172)" fill-opacity="0.501961" /></g>
<g transform="translate(37 164) rotate(267) scale(7 3)"><ellipse cx="0" cy="0" rx="1" ry="1" id="181" fill="rgb(225,210,191)" fill-opacity="0.501961" /></g>
<g transform="translate(62 118) rotate(339) scale(8 4)"><ellipse cx="0" cy="0" rx="1" ry="1" id="182" fill="rgb(255,221,213)" fill-opacity="0.501961" /></g>
<g transform="translate(170 178) rotate(275) scale(62 4)"><ellipse cx="0" cy="0" rx="1" ry="1" id="183" fill="rgb(74,82,72)" fill-opacity="0.501961" /></g>
<g transform="translate(133 122) rotate(176) scale(6 6)"><ellipse cx="0" cy="0" rx="1" ry="1" id="184" fill="rgb(24,31,53)" fill-opacity="0.501961" /></g>
<g transform="translate(125 170) rotate(133) scale(3 6)"><ellipse cx="0" cy="0" rx="1" ry="1" id="185" fill="rgb(86,7,0)" fill-opacity="0.501961" /></g>
<g transform="translate(43 171) rotate(180) scale(13 2)"><ellipse cx="0" cy="0" rx="1" ry="1" id="186" fill="rgb(230,190,164)" fill-opacity="0.501961" /></g>
<g transform="translate(49 144) rotate(357) scale(8 3)"><ellipse cx="0" cy="0" rx="1" ry="1" id="187" fill="rgb(229,204,194)" fill-opacity="0.501961" /></g>
<g transform="translate(191 0) rotate(269) scale(23 6)"><ellipse cx="0" cy="0" rx="1" ry="1" id="188" fill="rgb(80,74,58)" fill-opacity="0.501961" /></g>
<g transform="translate(62 207) rotate(159) scale(4 10)"><ellipse cx="0" cy="0" rx="1" ry="1" id="189" fill="rgb(248,193,156)" fill-opacity="0.501961" /></g>
<g transform="translate(17 0) rotate(177) scale(26 6)"><ellipse cx="0" cy="0" rx="1" ry="1" id="190" fill="rgb(0,1,6)" fill-opacity="0.501961" /></g>
<g transform="translate(98 149) rotate(253) scale(13 2)"><ellipse cx="0" cy="0" rx="1" ry="1" id="191" fill="rgb(116,142,159)" fill-opacity="0.501961" /></g>
<g transform="translate(111 44) rotate(1) scale(13 4)"><ellipse cx="0" cy="0" rx="1" ry="1" id="192" fill="rgb(87,67,54)" fill-opacity="0.501961" /></g>
<g transform="translate(80 190) rotate(76) scale(5 8)"><ellipse cx="0" cy="0" rx="1" ry="1" id="193" fill="rgb(188,183,223)" fill-opacity="0.501961" /></g>
<g transform="translate(8 90) rotate(181) scale(24 7)"><ellipse cx="0" cy="0" rx="1" ry="1" id="194" fill="rgb(0,42,63)" fill-opacity="0.501961" /></g>
<g transform="translate(99 183) rotate(357) scale(15 4)"><ellipse cx="0" cy="0" rx="1" ry="1" id="195" fill="rgb(16,23,26)" fill-opacity="0.501961" /></g>
<g transform="translate(120 204) rotate(11) scale(13 15)"><ellipse cx="0" cy="0" rx="1" ry="1" id="196" fill="rgb(21,45,67)" fill-opacity="0.501961" /></g>
<g transform="translate(75 131) rotate(62) scale(4 10)"><ellipse cx="0" cy="0" rx="1" ry="1" id="197" fill="rgb(166,209,255)" fill-opacity="0.501961" /></g>
<g transform="translate(117 254) rotate(86) scale(19 18)"><ellipse cx="0" cy="0" rx="1" ry="1" id="198" fill="rgb(74,52,35)" fill-opacity="0.501961" /></g>
<g transform="translate(156 23) rotate(164) scale(7 39)"><ellipse cx="0" cy="0" rx="1" ry="1" id="199" fill="rgb(55,71,95)" fill-opacity="0.501961" /></g>
<g transform="translate(140 66) rotate(271) scale(2 8)"><ellipse cx="0" cy="0" rx="1" ry="1" id="200" fill="rgb(128,106,94)" fill-opacity="0.501961" /></g>
<g transform="translate(131 147) rotate(285) scale(6 4)"><ellipse cx="0" cy="0" rx="1" ry="1" id="201" fill="rgb(0,0,0)" fill-opacity="0.501961" /></g>
<g transform="translate(68 212) rotate(5) scale(26 1)"><ellipse cx="0" cy="0" rx="1" ry="1" id="202" fill="rgb(191,201,204)" fill-opacity="0.501961" /></g>
<g transform="translate(38 213) rotate(260) scale(2 21)"><ellipse cx="0" cy="0" rx="1" ry="1" id="203" fill="rgb(124,112,59)" fill-opacity="0.501961" /></g>
<g transform="translate(83 195) rotate(353) scale(2 21)"><ellipse cx="0" cy="0" rx="1" ry="1" id="204" fill="rgb(214,198,234)" fill-opacity="0.501961" /></g>
<g transform="translate(175 105) rotate(89) scale(73 1)"><ellipse cx="0" cy="0" rx="1" ry="1" id="205" fill="rgb(54,68,61)" fill-opacity="0.501961" /></g>
<g transform="translate(116 116) rotate(55) scale(1 3)"><ellipse cx="0" cy="0" rx="1" ry="1" id="206" fill="rgb(169,192,208)" fill-opacity="0.501961" /></g>
<g transform="translate(149 157) rotate(180) scale(3 60)"><ellipse cx="0" cy="0" rx="1" ry="1" id="207" fill="rgb(106,117,120)" fill-opacity="0.501961" /></g>
<g transform="translate(112 77) rotate(236) scale(2 13)"><ellipse cx="0" cy="0" rx="1" ry="1" id="208" fill="rgb(204,159,153)" fill-opacity="0.501961" /></g>
<g transform="translate(135 86) rotate(191) scale(2 12)"><ellipse cx="0" cy="0" rx="1" ry="1" id="209" fill="rgb(132,101,76)" fill-opacity="0.501961" /></g>
<g transform="translate(183 37) rotate(0) scale(1 59)"><ellipse cx="0" cy="0" rx="1" ry="1" id="210" fill="rgb(210,224,243)" fill-opacity="0.501961" /></g>
<g transform="translate(37 142) rotate(182) scale(9 5)"><ellipse cx="0" cy="0" rx="1" ry="1" id="211" fill="rgb(222,129,62)" fill-opacity="0.501961" /></g>
<g transform="translate(14 247) rotate(3) scale(5 15)"><ellipse cx="0" cy="0" rx="1" ry="1" id="212" fill="rgb(211,220,241)" fill-opacity="0.501961" /></g>
<g transform="translate(126 219) rotate(323) scale(2 6)"><ellipse cx="0" cy="0" rx="1" ry="1" id="213" fill="rgb(73,115,147)" fill-opacity="0.501961" /></g>
<g transform="translate(20 184) rotate(357) scale(6 12)"><ellipse cx="0" cy="0" rx="1" ry="1" id="214" fill="rgb(127,130,111)" fill-opacity="0.501961" /></g>
<g transform="translate(38 60) rotate(222) scale(20 9)"><ellipse cx="0" cy="0" rx="1" ry="1" id="215" fill="rgb(90,82,90)" fill-opacity="0.501961" /></g>
<g transform="translate(34 171) rotate(306) scale(2 5)"><ellipse cx="0" cy="0" rx="1" ry="1" id="216" fill="rgb(179,135,100)" fill-opacity="0.501961" /></g>
<g transform="translate(140 170) rotate(357) scale(5 23)"><ellipse cx="0" cy="0" rx="1" ry="1" id="217" fill="rgb(216,203,202)" fill-opacity="0.501961" /></g>
<g transform="translate(45 197) rotate(71) scale(25 9)"><ellipse cx="0" cy="0" rx="1" ry="1" id="218" fill="rgb(124,123,98)" fill-opacity="0.501961" /></g>
<g transform="translate(95 108) rotate(169) scale(2 5)"><ellipse cx="0" cy="0" rx="1" ry="1" id="219" fill="rgb(159,175,194)" fill-opacity="0.501961" /></g>
<g transform="translate(135 57) rotate(210) scale(8 4)"><ellipse cx="0" cy="0" rx="1" ry="1" id="220" fill="rgb(13,39,74)" fill-opacity="0.501961" /></g>
<g transform="translate(157 234) rotate(311) scale(13 8)"><ellipse cx="0" cy="0" rx="1" ry="1" id="221" fill="rgb(89,90,75)" fill-opacity="0.501961" /></g>
<g transform="translate(69 27) rotate(78) scale(4 50)"><ellipse cx="0" cy="0" rx="1" ry="1" id="222" fill="rgb(78,71,67)" fill-opacity="0.501961" /></g>
<g transform="translate(97 198) rotate(196) scale(10 13)"><ellipse cx="0" cy="0" rx="1" ry="1" id="223" fill="rgb(52,84,122)" fill-opacity="0.501961" /></g>
<g transform="translate(35 148) rotate(290) scale(12 3)"><ellipse cx="0" cy="0" rx="1" ry="1" id="224" fill="rgb(222,123,49)" fill-opacity="0.501961" /></g>
<g transform="translate(63 192) rotate(178) scale(4 19)"><ellipse cx="0" cy="0" rx="1" ry="1" id="225" fill="rgb(255,165,87)" fill-opacity="0.501961" /></g>
<g transform="translate(131 82) rotate(91) scale(14 2)"><ellipse cx="0" cy="0" rx="1" ry="1" id="226" fill="rgb(7,8,6)" fill-opacity="0.501961" /></g>
<g transform="translate(37 223) rotate(267) scale(2 47)"><ellipse cx="0" cy="0" rx="1" ry="1" id="227" fill="rgb(88,60,17)" fill-opacity="0.501961" /></g>
<g transform="translate(0 104) rotate(271) scale(1 86)"><ellipse cx="0" cy="0" rx="1" ry="1" id="228" fill="rgb(229,191,160)" fill-opacity="0.501961" /></g>
<g transform="translate(1 31) rotate(121) scale(13 8)"><ellipse cx="0" cy="0" rx="1" ry="1" id="229" fill="rgb(36,39,44)" fill-opacity="0.501961" /></g>
<g transform="translate(108 66) rotate(78) scale(6 1)"><ellipse cx="0" cy="0" rx="1" ry="1" id="230" fill="rgb(220,181,169)" fill-opacity="0.501961" /></g>
<g transform="translate(84 69) rotate(6) scale(6 28)"><ellipse cx="0" cy="0" rx="1" ry="1" id="231" fill="rgb(91,76,66)" fill-opacity="0.501961" /></g>
<g transform="translate(27 30) rotate(173) scale(4 7)"><ellipse cx="0" cy="0" rx="1" ry="1" id="232" fill="rgb(76,78,84)" fill-opacity="0.501961" /></g>
<g transform="translate(88 176) rotate(254) scale(12 3)"><ellipse cx="0" cy="0" rx="1" ry="1" id="233" fill="rgb(53,58,66)" fill-opacity="0.501961" /></g>
<g transform="translate(94 75) rotate(275) scale(12 2)"><ellipse cx="0" cy="0" rx="1" ry="1" id="234" fill="rgb(187,157,161)" fill-opacity="0.501961" /></g>
<g transform="translate(89 116) rotate(286) scale(3 10)"><ellipse cx="0" cy="0" rx="1" ry="1" id="235" fill="rgb(227,194,186)" fill-opacity="0.501961" /></g>
<g transform="translate(38 182) rotate(255) scale(2 2)"><ellipse cx="0" cy="0" rx="1" ry="1" id="236" fill="rgb(8,0,16)" fill-opacity="0.501961" /></g>
<g transform="translate(45 140) rotate(82) scale(3 19)"><ellipse cx="0" cy="0" rx="1" ry="1" id="237" fill="rgb(236,147,85)" fill-opacity="0.501961" /></g>
<g transform="translate(180 163) rotate(181) scale(3 15)"><ellipse cx="0" cy="0" rx="1" ry="1" id="238" fill="rgb(202,215,206)" fill-opacity="0.501961" /></g>
<g transform="translate(102 47) rotate(257) scale(3 13)"><ellipse cx="0" cy="0" rx="1" ry="1" id="239" fill="rgb(100,78,81)" fill-opacity="0.501961" /></g>
<g transform="translate(180 0) rotate(182) scale(1 75)"><ellipse cx="0" cy="0" rx="1" ry="1" id="240" fill="rgb(138,145,154)" fill-opacity="0.501961" /></g>
<g transform="translate(32 225) rotate(150) scale(7 4)"><ellipse cx="0" cy="0" rx="1" ry="1" id="241" fill="rgb(123,87,28)" fill-opacity="0.501961" /></g>
<g transform="translate(14 177) rotate(124) scale(4 5)"><ellipse cx="0" cy="0" rx="1" ry="1" id="242" fill="rgb(101,104,96)" fill-opacity="0.501961" /></g>
<g transform="translate(95 175) rotate(103) scale(1 10)"><ellipse cx="0" cy="0" rx="1" ry="1" id="243" fill="rgb(106,121,127)" fill-opacity="0.501961" /></g>
<g transform="translate(181 197) rotate(274) scale(24 3)"><ellipse cx="0" cy="0" rx="1" ry="1" id="244" fill="rgb(204,213,208)" fill-opacity="0.501961" /></g>
<g transform="translate(63 237) rotate(238) scale(8 23)"><ellipse cx="0" cy="0" rx="1" ry="1" id="245" fill="rgb(167,163,147)" fill-opacity="0.501961" /></g>
<g transform="translate(133 196) rotate(266) scale(6 2)"><ellipse cx="0" cy="0" rx="1" ry="1" id="246" fill="rgb(16,58,100)" fill-opacity="0.501961" /></g>
<g transform="translate(12 211) rotate(0) scale(8 4)"><ellipse cx="0" cy="0" rx="1" ry="1" id="247" fill="rgb(0,0,9)" fill-opacity="0.501961" /></g>
<g transform="translate(95 130) rotate(99) scale(1 6)"><ellipse cx="0" cy="0" rx="1" ry="1" id="248" fill="rgb(0,0,10)" fill-opacity="0.501961" /></g>
<g transform="translate(107 147) rotate(195) scale(1 16)"><ellipse cx="0" cy="0" rx="1" ry="1" id="249" fill="rgb(55,37,42)" fill-opacity="0.501961" /></g>
</svg>