<?xml version="1.0" standalone="no"?>
<svg xmlns="http://www.w3.org/2000/svg" version="1.2" baseProfile="tiny" width="192" height="256" viewBox="0 0 192 256">
<rect x="0" y="0" width="192" height="256" id="0" fill="rgb(112,107,103)" fill-opacity="1" />
<polygon points="106,110 0,114 0,204" id="1" fill="rgb(255,255,251)" fill-opacity="0.501961" />
<polygon points="129,84 20,0 182,0" id="2" fill="rgb(13,10,13)" fill-opacity="0.501961" />
<polygon points="91,215 42,213 65,109" id="3" fill="rgb(249,206,212)" fill-opacity="0.501961" />
<polygon points="0,0 107,94 0,96" id="4" fill="rgb(10,12,24)" fill-opacity="0.501961" />
<polygon points="131,256 100,67 99,256" id="5" fill="rgb(0,0,6)" fill-opacity="0.501961" />
<polygon points="189,243 183,27 174,179" id="6" fill="rgb(246,255,255)" fill-opacity="0.501961" />
<polygon points="146,235 131,247 145,44" id="7" fill="rgb(255,247,233)" fill-opacity="0.501961" />
<polygon points="91,241 2,226 6,268" id="8" fill="rgb(251,231,195)" fill-opacity="0.501961" />
<polygon points="24,147 69,207 60,131" id="9" fill="rgb(255,171,73)" fill-opacity="0.501961" />
<polygon points="44,16 17,24 73,26" id="10" fill="rgb(255,255,255)" fill-opacity="0.501961" />
<polygon points="61,111 11,169 2,123" id="11" fill="rgb(255,255,250)" fill-opacity="0.501961" />
<polygon points="192,256 166,230 130,256" id="12" fill="rgb(35,19,0)" fill-opacity="0.501961" />
<polygon points="87,175 137,181 111,256" id="13" fill="rgb(0,16,42)" fill-opacity="0.501961" />
<polygon points="174,63 192,179 183,0" id="14" fill="rgb(205,221,224)" fill-opacity="0.501961" />
<polygon points="147,0 13,21 0,0" id="15" fill="rgb(0,2,5)" fill-opacity="0.501961" />
<polygon points="175,0 176,94 25,36" id="16" fill="rgb(61,61,67)" fill-opacity="0.501961" />
<polygon points="71,112 95,140 45,134" id="17" fill="rgb(64,177,255)" fill-opacity="0.501961" />
<polygon points="118,100 31,94 0,109" id="18" fill="rgb(253,177,62)" fill-opacity="0.501961" />
<polygon points="15,167 73,224 0,228" id="19" fill="rgb(101,88,43)" fill-opacity="0.501961" />
<polygon points="130,44 43,46 132,181" id="20" fill="rgb(99,84,84)" fill-opacity="0.501961" />
<polygon points="147,256 177,115 176,243" id="21" fill="rgb(49,62,47)" fill-opacity="0.501961" />
<polygon points="177,201 184,223 179,230" id="22" fill="rgb(255,255,255)" fill-opacity="0.501961" />
<polygon points="132,113 162,110 153,21" id="23" fill="rgb(125,143,166)" fill-opacity="0.501961" />
<polygon points="56,173 2,170 6,143" id="24" fill="rgb(255,250,242)" fill-opacity="0.501961" />
<polygon points="96,236 89,222 0,232" id="25" fill="rgb(195,195,155)" fill-opacity="0.501961" />
<polygon points="70,214 89,193 64,141" id="26" fill="rgb(147,164,255)" fill-opacity="0.501961" />
<polygon points="84,146 93,250 128,162" id="27" fill="rgb(42,57,78)" fill-opacity="0.501961" />
<polygon points="0,206 13,203 0,161" id="28" fill="rgb(255,231,206)" fill-opacity="0.501961" />
<polygon points="133,153 125,87 62,144" id="29" fill="rgb(79,83,104)" fill-opacity="0.501961" />
<polygon points="87,63 107,64 142,109" id="30" fill="rgb(193,164,158)" fill-opacity="0.501961" />
<polygon points="22,143 64,219 63,130" id="31" fill="rgb(245,164,108)" fill-opacity="0.501961" />
<polygon points="142,198 145,110 131,173" id="32" fill="rgb(226,217,226)" fill-opacity="0.501961" />
<polygon points="0,170 49,174 62,240" id="33" fill="rgb(120,122,100)" fill-opacity="0.501961" />
<polygon points="26,230 11,235 15,268" id="34" fill="rgb(239,245,255)" fill-opacity="0.501961" />
<polygon points="71,95 63,69 0,95" id="35" fill="rgb(0,15,29)" fill-opacity="0.501961" />
<polygon points="77,18 91,74 0,56" id="36" fill="rgb(85,73,71)" fill-opacity="0.501961" />
<polygon points="130,124 88,132 120,116" id="37" fill="rgb(11,0,0)" fill-opacity="0.501961" />
<polygon points="104,235 192,253 75,256" id="38" fill="rgb(88,54,29)" fill-opacity="0.501961" />
<polygon points="25,135 31,160 85,142" id="39" fill="rgb(216,138,87)" fill-opacity="0.501961" />
<polygon points="24,199 14,216 0,212" id="40" fill="rgb(0,0,0)" fill-opacity="0.501961" />
<polygon points="98,106 93,67 77,106" id="41" fill="rgb(206,160,100)" fill-opacity="0.501961" />
<polygon points="156,0 175,88 175,0" id="42" fill="rgb(9,26,38)" fill-opacity="0.501961" />
<polygon points="115,161 135,174 124,256" id="43" fill="rgb(22,34,49)" fill-opacity="0.501961" />
<polygon points="119,214 34,228 0,222" id="44" fill="rgb(83,51,2)" fill-opacity="0.501961" />
<polygon points="82,111 111,108 69,161" id="45" fill="rgb(157,157,177)" fill-opacity="0.501961" />
<polygon points="95,63 44,0 146,13" id="46" fill="rgb(67,52,39)" fill-opacity="0.501961" />
<polygon points="8,98 101,105 0,106" id="47" fill="rgb(239,184,114)" fill-opacity="0.501961" />
<polygon points="96,81 124,97 107,112" id="48" fill="rgb(41,28,32)" fill-opacity="0.501961" />
<polygon points="186,233 179,245 179,167" id="49" fill="rgb(214,232,225)" fill-opacity="0.501961" />
<polygon points="46,134 75,112 88,132" id="50" fill="rgb(81,190,255)" fill-opacity="0.501961" />
<polygon points="153,2 134,42 170,81" id="51" fill="rgb(73,91,116)" fill-opacity="0.501961" />
<polygon points="66,36 145,39 18,40" id="52" fill="rgb(0,0,0)" fill-opacity="0.501961" />
<polygon points="24,112 29,173 4,145" id="53" fill="rgb(255,255,255)" fill-opacity="0.501961" />
<polygon points="77,156 83,213 83,155" id="54" fill="rgb(213,184,248)" fill-opacity="0.501961" />
<polygon points="175,104 145,235 146,105" id="55" fill="rgb(96,118,125)" fill-opacity="0.501961" />
<polygon points="38,167 26,222 7,177" id="56" fill="rgb(114,117,111)" fill-opacity="0.501961" />
<polygon points="104,175 153,177 91,177" id="57" fill="rgb(181,190,193)" fill-opacity="0.501961" />
<polygon points="142,233 134,203 127,241" id="58" fill="rgb(251,201,163)" fill-opacity="0.501961" />
<polygon points="131,128 136,115 81,122" id="59" fill="rgb(45,31,41)" fill-opacity="0.501961" />
<polygon points="176,178 163,157 174,42" id="60" fill="rgb(63,78,76)" fill-opacity="0.501961" />
<polygon points="47,4 -12,7 7,-9" id="61" fill="rgb(0,0,0)" fill-opacity="0.501961" />
<polygon points="0,114 52,113 0,136" id="62" fill="rgb(231,182,150)" fill-opacity="0.501961" />
<polygon points="132,97 119,85 145,0" id="63" fill="rgb(50,43,35)" fill-opacity="0.501961" />
<polygon points="0,85 0,95 64,71" id="64" fill="rgb(0,10,19)" fill-opacity="0.501961" />
<polygon points="53,256 96,239 34,225" id="65" fill="rgb(159,146,124)" fill-opacity="0.501961" />
<polygon points="88,174 87,210 106,221" id="66" fill="rgb(37,82,131)" fill-opacity="0.501961" />
<polygon points="31,196 21,191 32,190" id="67" fill="rgb(229,235,255)" fill-opacity="0.501961" />
<polygon points="180,245 189,152 190,231" id="68" fill="rgb(150,164,159)" fill-opacity="0.501961" />
<polygon points="119,92 114,97 157,106" id="69" fill="rgb(156,174,196)" fill-opacity="0.501961" />
<polygon points="86,179 96,147 117,147" id="70" fill="rgb(130,107,113)" fill-opacity="0.501961" />
<polygon points="183,88 192,119 186,19" id="71" fill="rgb(173,181,171)" fill-opacity="0.501961" />
<polygon points="35,78 77,61 11,11" id="72" fill="rgb(86,79,84)" fill-opacity="0.501961" />
<polygon points="43,81 83,98 112,86" id="73" fill="rgb(74,61,51)" fill-opacity="0.501961" />
<polygon points="0,108 85,106 84,113" id="74" fill="rgb(91,51,34)" fill-opacity="0.501961" />
<polygon points="110,178 90,184 123,187" id="75" fill="rgb(0,0,0)" fill-opacity="0.501961" />
<polygon points="178,190 183,13 183,201" id="76" fill="rgb(227,235,236)" fill-opacity="0.501961" />
<polygon points="48,161 53,193 63,213" id="77" fill="rgb(255,243,224)" fill-opacity="0.501961" />
<polygon points="72,202 59,218 54,185" id="78" fill="rgb(255,188,125)" fill-opacity="0.501961" />
<polygon points="91,224 47,278 14,231" id="79" fill="rgb(179,165,139)" fill-opacity="0.501961" />
<polygon points="58,5 108,32 65,37" id="80" fill="rgb(92,80,74)" fill-opacity="0.501961" />
<polygon points="70,136 55,141 77,151" id="81" fill="rgb(103,84,84)" fill-opacity="0.501961" />
<polygon points="125,41 115,60 119,82" id="82" fill="rgb(147,134,134)" fill-opacity="0.501961" />
<polygon points="82,141 91,155 80,154" id="83" fill="rgb(0,0,0)" fill-opacity="0.501961" />
<polygon points="5,254 -6,226 9,228" id="84" fill="rgb(160,145,96)" fill-opacity="0.501961" />
<polygon points="133,245 95,233 107,197" id="85" fill="rgb(14,24,30)" fill-opacity="0.501961" />
<polygon points="31,139 15,122 69,112" id="86" fill="rgb(255,235,221)" fill-opacity="0.501961" />
<polygon points="95,80 106,45 103,92" id="87" fill="rgb(126,64,29)" fill-opacity="0.501961" />
<polygon points="142,180 144,247 127,225" id="88" fill="rgb(225,195,175)" fill-opacity="0.501961" />
<polygon points="5,155 0,117 0,179" id="89" fill="rgb(173,141,111)" fill-opacity="0.501961" />
<polygon points="114,164 109,134 135,164" id="90" fill="rgb(113,133,146)" fill-opacity="0.501961" />
<polygon points="164,152 172,230 139,256" id="91" fill="rgb(96,103,89)" fill-opacity="0.501961" />
<polygon points="111,132 83,128 110,130" id="92" fill="rgb(1,0,0)" fill-opacity="0.501961" />
<polygon points="95,247 86,195 104,189" id="93" fill="rgb(54,88,118)" fill-opacity="0.501961" />
<polygon points="177,39 184,0 179,0" id="94" fill="rgb(177,185,201)" fill-opacity="0.501961" />
<polygon points="99,8 142,59 141,0" id="95" fill="rgb(48,38,27)" fill-opacity="0.501961" />
<polygon points="131,153 136,143 119,145" id="96" fill="rgb(1,0,2)" fill-opacity="0.501961" />
<polygon points="148,20 137,31 175,118" id="97" fill="rgb(96,109,125)" fill-opacity="0.501961" />
<polygon points="61,252 85,232 84,281" id="98" fill="rgb(126,99,78)" fill-opacity="0.501961" />
<polygon points="6,84 11,52 50,40" id="99" fill="rgb(89,86,97)" fill-opacity="0.501961" />
<polygon points="145,55 129,77 127,39" id="100" fill="rgb(29,46,70)" fill-opacity="0.501961" />
<polygon points="71,211 87,211 86,197" id="101" fill="rgb(200,181,255)" fill-opacity="0.501961" />
<polygon points="30,107 0,113 0,107" id="102" fill="rgb(53,35,36)" fill-opacity="0.501961" />
<polygon points="63,172 24,169 55,132" id="103" fill="rgb(254,177,125)" fill-opacity="0.501961" />
<polygon points="2,168 27,134 28,171" id="104" fill="rgb(243,250,255)" fill-opacity="0.501961" />
<polygon points="119,103 135,110 84,127" id="105" fill="rgb(106,124,138)" fill-opacity="0.501961" />
<polygon points="101,132 38,127 38,136" id="106" fill="rgb(173,215,254)" fill-opacity="0.501961" />
<polygon points="144,75 141,80 121,50" id="107" fill="rgb(154,119,87)" fill-opacity="0.501961" />
<polygon points="17,217 17,205 -7,211" id="108" fill="rgb(0,0,4)" fill-opacity="0.501961" />
<polygon points="100,173 130,174 106,143" id="109" fill="rgb(68,22,19)" fill-opacity="0.501961" />
<polygon points="125,146 122,131 108,124" id="110" fill="rgb(120,143,159)" fill-opacity="0.501961" />
<polygon points="0,43 0,37 56,39" id="111" fill="rgb(0,2,7)" fill-opacity="0.501961" />
<polygon points="141,5 127,-16 1,7" id="112" fill="rgb(13,14,17)" fill-opacity="0.501961" />
<polygon points="31,31 19,9 0,14" id="113" fill="rgb(60,58,63)" fill-opacity="0.501961" />
<polygon points="81,168 115,161 83,177" id="114" fill="rgb(74,74,76)" fill-opacity="0.501961" />
<polygon points="70,20 32,19 39,29" id="115" fill="rgb(240,254,254)" fill-opacity="0.501961" />
<polygon points="61,151 73,142 66,165" id="116" fill="rgb(244,225,200)" fill-opacity="0.501961" />
<polygon points="115,77 115,91 117,87" id="117" fill="rgb(255,255,255)" fill-opacity="0.501961" />
<polygon points="42,6 69,26 96,10" id="118" fill="rgb(65,62,61)" fill-opacity="0.501961" />
<polygon points="32,134 62,170 27,149" id="119" fill="rgb(239,141,68)" fill-opacity="0.501961" />
<polygon points="90,9 30,15 98,24" id="120" fill="rgb(73,68,61)" fill-opacity="0.501961" />
<polygon points="95,120 117,127 104,132" id="121" fill="rgb(11,10,12)" fill-opacity="0.501961" />
<polygon points="100,103 46,101 83,94" id="122" fill="rgb(224,162,54)" fill-opacity="0.501961" />
<polygon points="52,100 0,104 1,96" id="123" fill="rgb(186,124,25)" fill-opacity="0.501961" />
<polygon points="162,256 174,256 176,182" id="124" fill="rgb(47,49,39)" fill-opacity="0.501961" />
<polygon points="65,161 39,135 67,210" id="125" fill="rgb(255,173,103)" fill-opacity="0.501961" />
<polygon points="0,89 0,97 53,95" id="126" fill="rgb(13,65,91)" fill-opacity="0.501961" />
<polygon points="91,177 99,142 91,132" id="127" fill="rgb(116,132,146)" fill-opacity="0.501961" />
<polygon points="92,103 92,60 91,69" id="128" fill="rgb(217,194,197)" fill-opacity="0.501961" />
<polygon points="66,164 107,163 110,164" id="129" fill="rgb(172,181,193)" fill-opacity="0.501961" />
<polygon points="39,25 72,35 28,31" id="130" fill="rgb(82,80,74)" fill-opacity="0.501961" />
<polygon points="190,239 179,256 192,256" id="131" fill="rgb(71,57,33)" fill-opacity="0.501961" />
<polygon points="172,151 176,227 176,152" id="132" fill="rgb(59,68,54)" fill-opacity="0.501961" />
<polygon points="117,52 129,52 75,40" id="133" fill="rgb(120,111,119)" fill-opacity="0.501961" />
<polygon points="51,182 63,192 49,167" id="134" fill="rgb(244,229,224)" fill-opacity="0.501961" />
<polygon points="103,97 129,86 96,107" id="135" fill="rgb(18,28,44)" fill-opacity="0.501961" />
<polygon points="109,38 28,63 84,70" id="136" fill="rgb(92,76,71)" fill-opacity="0.501961" />
<polygon points="5,199 22,206 6,193" id="137" fill="rgb(207,199,195)" fill-opacity="0.501961" />
<polygon points="126,125 137,128 138,115" id="138" fill="rgb(16,26,51)" fill-opacity="0.501961" />
<polygon points="8,183 24,197 34,180" id="139" fill="rgb(91,96,85)" fill-opacity="0.501961" />
<polygon points="104,61 119,97 117,75" id="140" fill="rgb(187,179,193)" fill-opacity="0.501961" />
<polygon points="174,114 133,117 128,109" id="141" fill="rgb(125,137,153)" fill-opacity="0.501961" />
<polygon points="27,219 67,219 42,205" id="142" fill="rgb(156,136,80)" fill-opacity="0.501961" />
<polygon points="96,60 105,44 122,65" id="143" fill="rgb(41,40,45)" fill-opacity="0.501961" />
<polygon points="139,105 132,96 145,64" id="144" fill="rgb(164,126,88)" fill-opacity="0.501961" />
<polygon points="72,114 61,125 79,119" id="145" fill="rgb(4,137,228)" fill-opacity="0.501961" />
<polygon points="143,0 159,0 173,81" id="146" fill="rgb(44,63,87)" fill-opacity="0.501961" />
<polygon points="119,98 103,100 121,94" id="147" fill="rgb(138,161,184)" fill-opacity="0.501961" />
<polygon points="7,218 -17,214 -17,245" id="148" fill="rgb(60,33,0)" fill-opacity="0.501961" />
<polygon points="141,119 147,129 142,63" id="149" fill="rgb(197,183,165)" fill-opacity="0.501961" />
<polygon points="123,66 104,81 114,81" id="150" fill="rgb(195,157,157)" fill-opacity="0.501961" />
<polygon points="86,179 131,188 129,179" id="151" fill="rgb(7,3,0)" fill-opacity="0.501961" />
<polygon points="57,112 35,107 0,113" id="152" fill="rgb(178,124,78)" fill-opacity="0.501961" />
<polygon points="19,80 68,72 71,80" id="153" fill="rgb(16,11,9)" fill-opacity="0.501961" />
<polygon points="4,151 0,205 4,207" id="154" fill="rgb(221,188,158)" fill-opacity="0.501961" />
<polygon points="93,94 79,94 81,48" id="155" fill="rgb(84,73,67)" fill-opacity="0.501961" />
<polygon points="189,187 186,141 192,131" id="156" fill="rgb(150,161,150)" fill-opacity="0.501961" />
<polygon points="147,42 147,159 171,111" id="157" fill="rgb(102,117,134)" fill-opacity="0.501961" />
<polygon points="179,251 192,196 192,237" id="158" fill="rgb(136,139,126)" fill-opacity="0.501961" />
<polygon points="186,0 192,38 214,-10" id="159" fill="rgb(75,69,40)" fill-opacity="0.501961" />
<polygon points="72,214 78,132 68,196" id="160" fill="rgb(127,108,186)" fill-opacity="0.501961" />
<polygon points="102,109 134,100 105,99" id="161" fill="rgb(45,29,42)" fill-opacity="0.501961" />
<polygon points="23,116 113,110 0,123" id="162" fill="rgb(225,198,187)" fill-opacity="0.501961" />
<polygon points="16,73 32,64 33,93" id="163" fill="rgb(31,25,24)" fill-opacity="0.501961" />
<polygon points="11,256 27,253 14,229" id="164" fill="rgb(223,223,236)" fill-opacity="0.501961" />
<polygon points="75,141 82,158 62,146" id="165" fill="rgb(189,150,129)" fill-opacity="0.501961" />
<polygon points="174,61 179,-7 175,10" id="166" fill="rgb(94,101,102)" fill-opacity="0.501961" />
<polygon points="79,137 87,156 95,145" id="167" fill="rgb(26,40,50)" fill-opacity="0.501961" />
<polygon points="133,66 130,94 126,67" id="168" fill="rgb(14,11,2)" fill-opacity="0.501961" />
<polygon points="3,168 -12,202 13,202" id="169" fill="rgb(230,208,196)" fill-opacity="0.501961" />
<polygon points="128,37 131,34 67,40" id="170" fill="rgb(3,7,8)" fill-opacity="0.501961" />
<polygon points="105,145 130,146 123,141" id="171" fill="rgb(130,138,147)" fill-opacity="0.501961" />
<polygon points="134,198 130,215 118,217" id="172" fill="rgb(24,67,100)" fill-opacity="0.501961" />
<polygon points="128,154 140,158 140,184" id="173" fill="rgb(204,204,213)" fill-opacity="0.501961" />
<polygon points="147,63 125,29 137,23" id="174" fill="rgb(66,53,43)" fill-opacity="0.501961" />
<polygon points="148,241 135,246 128,218" id="175" fill="rgb(193,159,125)" fill-opacity="0.501961" />
<polygon points="183,247 177,188 177,225" id="176" fill="rgb(186,205,194)" fill-opacity="0.501961" />
<polygon points="116,245 69,256 156,256" id="177" fill="rgb(91,61,36)" fill-opacity="0.501961" />
<polygon points="104,96 79,105 93,97" id="178" fill="rgb(247,187,87)" fill-opacity="0.501961" />
<polygon points="91,234 59,256 46,226" id="179" fill="rgb(154,151,136)" fill-opacity="0.501961" />
<polygon points="14,202 38,220 0,159" id="180" fill="rgb(114,115,95)" fill-opacity="0.501961" />
<polygon points="129,223 126,236 97,190" id="181" fill="rgb(16,34,50)" fill-opacity="0.501961" />
<polygon points="85,116 83,136 78,125" id="182" fill="rgb(147,199,255)" fill-opacity="0.501961" />
<polygon points="126,126 155,131 108,127" id="183" fill="rgb(131,150,166)" fill-opacity="0.501961" />
<polygon points="76,207 61,216 91,214" id="184" fill="rgb(180,198,239)" fill-opacity="0.501961" />
<polygon points="47,172 25,177 55,206" id="185" fill="rgb(107,115,97)" fill-opacity="0.501961" />
<polygon points="170,71 165,202 156,79" id="186" fill="rgb(91,101,104)" fill-opacity="0.501961" />
<polygon points="45,126 33,137 22,134" id="187" fill="rgb(255,255,255)" fill-opacity="0.501961" />
<polygon points="0,114 18,124 0,141" id="188" fill="rgb(194,173,161)" fill-opacity="0.501961" />
<polygon points="112,130 110,115 116,144" id="189" fill="rgb(107,125,137)" fill-opacity="0.501961" />
<polygon points="189,185 192,169 192,193" id="190" fill="rgb(0,36,79)" fill-opacity="0.501961" />
<polygon points="174,33 175,0 160,0" id="191" fill="rgb(18,21,24)" fill-opacity="0.501961" />
<polygon points="66,174 69,163 65,145" id="192" fill="rgb(228,255,255)" fill-opacity="0.501961" />
<polygon points="41,143 63,148 51,141" id="193" fill="rgb(233,207,195)" fill-opacity="0.501961" />
<polygon points="28,196 35,211 6,227" id="194" fill="rgb(80,73,50)" fill-opacity="0.501961" />
<polygon points="136,193 126,189 122,224" id="195" fill="rgb(33,65,94)" fill-opacity="0.501961" />
<polygon points="87,167 115,165 106,169" id="196" fill="rgb(26,0,0)" fill-opacity="0.501961" />
<polygon points="68,154 71,160 67,202" id="197" fill="rgb(182,222,255)" fill-opacity="0.501961" />
<polygon points="77,94 69,81 50,94" id="198" fill="rgb(7,21,30)" fill-opacity="0.501961" />
<polygon points="41,73 94,41 0,42" id="199" fill="rgb(86,77,80)" fill-opacity="0.501961" />
<polygon points="185,124 170,111 192,115" id="200" fill="rgb(181,194,189)" fill-opacity="0.501961" />
<polygon points="68,141 88,139 69,155" id="201" fill="rgb(175,153,140)" fill-opacity="0.501961" />
<polygon points="131,175 126,167 132,166" id="202" fill="rgb(9,11,24)" fill-opacity="0.501961" />
<polygon points="89,123 81,138 87,120" id="203" fill="rgb(159,76,86)" fill-opacity="0.501961" />
<polygon points="178,247 185,250 200,230" id="204" fill="rgb(121,110,88)" fill-opacity="0.501961" />
<polygon points="113,19 32,30 47,27" id="205" fill="rgb(83,78,65)" fill-opacity="0.501961" />
<polygon points="135,170 143,192 145,84" id="206" fill="rgb(210,201,199)" fill-opacity="0.501961" />
<polygon points="94,90 91,70 90,54" id="207" fill="rgb(206,179,186)" fill-opacity="0.501961" />
<polygon points="104,81 110,59 101,61" id="208" fill="rgb(165,104,68)" fill-opacity="0.501961" />
<polygon points="26,229 59,256 19,256" id="209" fill="rgb(204,178,146)" fill-opacity="0.501961" />
<polygon points="6,171 5,144 27,132" id="210" fill="rgb(244,247,255)" fill-opacity="0.501961" />
<polygon points="31,188 34,197 27,192" id="211" fill="rgb(244,255,255)" fill-opacity="0.501961" />
<polygon points="138,145 122,138 131,146" id="212" fill="rgb(23,14,20)" fill-opacity="0.501961" />
<polygon points="38,168 27,166 37,159" id="213" fill="rgb(212,207,196)" fill-opacity="0.501961" />
<polygon points="123,102 135,112 131,105" id="214" fill="rgb(138,170,212)" fill-opacity="0.501961" />
<polygon points="183,95 178,110 179,76" id="215" fill="rgb(202,213,215)" fill-opacity="0.501961" />
<polygon points="13,33 35,14 0,6" id="216" fill="rgb(58,56,59)" fill-opacity="0.501961" />
<polygon points="112,132 100,145 103,155" id="217" fill="rgb(67,19,27)" fill-opacity="0.501961" />
<polygon points="146,60 134,88 134,68" id="218" fill="rgb(120,92,66)" fill-opacity="0.501961" />
<polygon points="62,149 47,152 67,214" id="219" fill="rgb(255,166,94)" fill-opacity="0.501961" />
<polygon points="46,159 55,197 56,182" id="220" fill="rgb(238,223,215)" fill-opacity="0.501961" />
<polygon points="82,197 99,199 94,188" id="221" fill="rgb(89,121,171)" fill-opacity="0.501961" />
<polygon points="138,126 127,133 138,147" id="222" fill="rgb(109,133,168)" fill-opacity="0.501961" />
<polygon points="95,226 108,191 103,240" id="223" fill="rgb(20,46,67)" fill-opacity="0.501961" />
<polygon points="124,63 111,16 124,59" id="224" fill="rgb(65,49,30)" fill-opacity="0.501961" />
<polygon points="120,102 124,101 133,102" id="225" fill="rgb(0,5,22)" fill-opacity="0.501961" />
<polygon points="87,129 124,138 126,142" id="226" fill="rgb(76,85,90)" fill-opacity="0.501961" />
<polygon points="118,48 107,48 118,60" id="227" fill="rgb(119,125,138)" fill-opacity="0.501961" />
<polygon points="93,186 120,179 85,180" id="228" fill="rgb(14,17,18)" fill-opacity="0.501961" />
<polygon points="149,256 177,236 177,256" id="229" fill="rgb(46,36,31)" fill-opacity="0.501961" />
<polygon points="78,36 0,38 26,24" id="230" fill="rgb(80,77,79)" fill-opacity="0.501961" />
<polygon points="71,127 46,135 51,123" id="231" fill="rgb(87,182,244)" fill-opacity="0.501961" />
<polygon points="98,48 89,54 108,46" id="232" fill="rgb(132,105,155)" fill-opacity="0.501961" />
<polygon points="80,44 50,66 90,81" id="233" fill="rgb(91,77,70)" fill-opacity="0.501961" />
<polygon points="128,218 136,236 137,207" id="234" fill="rgb(217,192,175)" fill-opacity="0.501961" />
<polygon points="115,96 127,73 126,90" id="235" fill="rgb(91,84,78)" fill-opacity="0.501961" />
<polygon points="127,243 143,255 151,246" id="236" fill="rgb(126,89,63)" fill-opacity="0.501961" />
<polygon points="45,127 72,112 0,113" id="237" fill="rgb(238,206,182)" fill-opacity="0.501961" />
<polygon points="108,83 110,90 93,96" id="238" fill="rgb(27,20,8)" fill-opacity="0.501961" />
<polygon points="0,245 0,256 10,256" id="239" fill="rgb(118,81,67)" fill-opacity="0.501961" />
<polygon points="100,139 92,135 100,163" id="240" fill="rgb(113,132,149)" fill-opacity="0.501961" />
<polygon points="99,62 94,58 110,38" id="241" fill="rgb(28,21,20)" fill-opacity="0.501961" />
<polygon points="56,224 67,215 95,219" id="242" fill="rgb(88,64,30)" fill-opacity="0.501961" />
<polygon points="109,114 106,103 99,97" id="243" fill="rgb(60,47,58)" fill-opacity="0.501961" />
<polygon points="146,68 137,113 139,126" id="244" fill="rgb(169,156,148)" fill-opacity="0.501961" />
<polygon points="54,219 0,217 55,218" id="245" fill="rgb(170,145,93)" fill-opacity="0.501961" />
<polygon points="29,159 31,174 38,136" id="246" fill="rgb(221,134,68)" fill-opacity="0.501961" />
<polygon points="169,201 146,225 146,162" id="247" fill="rgb(102,111,101)" fill-opacity="0.501961" />
<polygon points="84,240 98,242 88,252" id="248" fill="rgb(135,119,95)" fill-opacity="0.501961" />
<polygon points="175,115 153,110 92,112" id="249" fill="rgb(109,121,131)" fill-opacity="0.501961" />
</svg>