<svg xmlns="http://www.w3.org/2000/svg" viewBox="0 0 225 300"><filter id="b"><feGaussianBlur stdDeviation="12" /></filter><path fill="#6f6b66" d="M0 0h225v300H0z"/><g filter="url(#b)" transform="translate(.6 .6) scale(1.17188)" fill-opacity=".5"><ellipse fill="#ffeace" rx="1" ry="1" transform="matrix(50.95104 31.10065 -25.45015 41.69404 26.6 154.2)"/><ellipse fill="#201b1c" cx="83" cy="9" rx="93" ry="93"/><ellipse fill="#041121" rx="1" ry="1" transform="matrix(-2.21949 92.11133 -19.94278 -.48054 114 191.1)"/><ellipse fill="#e4d4ad" rx="1" ry="1" transform="matrix(-75.92915 12.56999 -2.92381 -17.66132 19.5 246.8)"/><ellipse fill="#e8dacb" rx="1" ry="1" transform="matrix(78.21023 -45.50395 10.94017 18.8035 21.3 142.4)"/><ellipse fill="#edfffe" cx="183" cy="124" rx="7" ry="125"/><ellipse fill="#fff7ee" rx="1" ry="1" transform="matrix(-5.43635 -.20884 3.06025 -79.66065 141.4 165)"/><ellipse fill="#3f4834" cx="32" cy="189" rx="22" ry="18"/></g></svg>