<svg xmlns="http://www.w3.org/2000/svg" viewBox="0 0 595.279 841.891">
  <path fill="#3FBC3F" d="M297.64 460.63V256.445l104.5 22z"/>
  <circle cx="297.64" cy="460.63" r="30.769" fill="#FFF"/>
  <path d="M297.64 242.361c-120.048 0-218.269 98.221-218.269 218.269 0 59.021 23.753 112.756 62.157 152.146.382.572.826 1.12 1.34 1.634.562.562 1.128 1.036 1.713 1.439 39.471 38.93 93.582 63.05 153.06 63.05 120.048 0 218.27-98.222 218.27-218.27S417.688 242.361 297.64 242.361zm168.663 228.191h29.514c-2.352 47.171-21.376 90.139-51.265 123.102l-20.91-20.911c-3.969-3.968-9.921-3.968-13.891 0-3.968 3.969-3.968 9.922 0 13.891l20.91 20.91C397.7 637.433 354.73 656.457 307.56 658.81v-29.516c0-5.952-3.968-9.921-9.921-9.921-5.952 0-9.921 3.969-9.921 9.921v29.515c-47.418-2.365-90.589-21.578-123.619-51.738l20.438-20.438c3.968-3.968 3.968-9.921 0-13.891-3.969-3.968-9.921-3.968-13.891 0l-20.385 20.387c-29.617-32.893-48.459-75.654-50.799-122.576h29.514c4.961 0 9.921-3.968 9.921-9.921 0-5.952-3.968-9.921-9.921-9.921H99.463c2.352-47.17 21.376-90.138 51.265-123.101l20.91 20.91c1.985 1.985 3.969 2.977 6.945 2.977 1.984 0 4.961-.992 6.944-2.977 3.968-3.968 3.968-9.921 0-13.89l-20.91-20.91c32.961-29.889 75.931-48.913 123.101-51.265v29.514c0 5.953 3.968 9.921 9.921 9.921 4.961 0 9.921-3.968 9.921-9.921v-29.514c47.17 2.352 90.139 21.376 123.101 51.265l-20.91 20.91c-3.968 3.968-3.968 9.921 0 13.89 1.984 1.985 3.968 2.977 6.944 2.977s4.961-.992 6.944-2.977l20.911-20.91c29.888 32.961 48.913 75.931 51.265 123.101h-29.514c-5.953 0-9.921 3.969-9.921 9.921s3.97 9.92 9.923 9.92z"/>
  <path d="M545.673 302.881c7.938 0 15.874-2.977 21.826-8.929 11.906-11.906 11.906-31.749 0-43.654l-39.685-39.685c-11.905-11.906-31.749-11.906-43.654 0-9.669 9.669-11.484 24.57-5.45 36.206l-15.997 15.997c-35.167-29.422-78.21-49.699-125.39-57.064v-22.918h18.851c11.905 0 20.835-8.929 20.835-19.843v-18.85c0-11.905-8.93-20.835-20.835-20.835H238.113c-10.914 0-19.844 8.93-19.844 20.835v17.858c0 11.906 8.93 20.835 19.844 20.835h19.843v22.918c-46.938 7.327-89.784 27.431-124.851 56.61l-16.209-16.208c5.63-11.534 3.71-26.054-5.776-35.54-11.905-11.906-31.748-11.906-43.654 0l-39.685 39.685c-11.905 11.906-11.905 31.749 0 43.654 5.953 5.953 13.891 8.929 21.826 8.929 7.046 0 14.088-2.351 19.746-7.042l17.117 17.118c-29.446 41.906-46.785 92.86-46.785 147.673 0 141.877 116.08 257.956 257.955 257.956 141.876 0 257.955-116.079 257.955-257.955 0-54.559-17.181-105.292-46.378-147.087l17.261-17.261c5.559 4.394 12.376 6.597 19.195 6.597zm-47.622-78.379c1.984-1.984 4.961-2.976 7.937-2.976 2.977 0 5.953.992 7.938 2.976l39.686 39.685c3.968 4.961 4.961 11.906 0 15.874s-11.905 3.968-15.874 0l-1.794-1.794c-.495-1.134-1.217-2.209-2.175-3.167l-34.726-34.725c-.649-.65-1.358-1.184-2.098-1.621-2.809-4.762-2.448-10.698 1.106-14.252zm-6.945 36.709l20.835 20.835-14.882 14.882c-5.953-7.938-12.897-14.882-19.843-21.826l13.89-13.891zM238.113 143.148l119.056.992v17.858c0 .992 0 .992-.992.992l-118.063-.992v-18.85zm39.684 39.685h39.685v20.604c-6.55-.504-13.168-.763-19.843-.763s-13.291.258-19.843.763l.001-20.604zm-173.623 78.378l13.891 13.891c-6.945 6.944-13.891 13.89-19.844 21.826l-14.882-14.882 20.835-20.835zm-62.505 18.851c-3.968-4.961-3.968-11.906 0-15.874l39.686-39.686c1.984-1.984 4.961-2.976 7.938-2.976s5.952.992 7.938 2.976c3.968 4.961 3.968 11.906 0 15.874l-34.726 34.725-4.961 4.961c-3.969 3.969-11.906 3.969-15.875 0zm255.971 418.68c-130.961 0-238.112-107.15-238.112-238.112 0-53.098 17.617-102.277 47.289-141.993.442-.289.884-.58 1.325-.875 8.93-12.897 19.844-23.811 31.749-34.725.404-.405.757-.857 1.079-1.328 34.799-30.531 78.488-51.144 126.541-57.281.45.043.903.072 1.356.072 19.844-1.985 37.701-1.985 57.544 0h.991c.199 0 .414-.018.63-.037 116.749 15.044 207.72 115.497 207.72 236.166 0 130.963-107.15 238.113-238.112 238.113z"/>
  <path d="M307.561 422.21v-90.557c0-5.953-3.968-9.921-9.921-9.921-5.952 0-9.921 3.968-9.921 9.921v90.557c-17.066 4.435-29.764 20.017-29.764 38.421 0 21.827 17.858 39.686 39.685 39.686s39.685-17.858 39.685-39.686c-.001-18.404-12.698-33.986-29.764-38.421zm-9.921 58.263c-10.914 0-19.843-8.929-19.843-19.843s8.929-19.843 19.843-19.843 19.843 8.929 19.843 19.843-8.929 19.843-19.843 19.843z"/>
</svg>
