<?xml version="1.0" standalone="no"?>
<svg xmlns="http://www.w3.org/2000/svg" version="1.2" baseProfile="tiny" width="192" height="256" viewBox="0 0 192 256">
<rect x="0" y="0" width="192" height="256" id="0" fill="rgb(159,93,78)" fill-opacity="1" />
<g transform="translate(150 237) rotate(313) scale(85 60)"><ellipse cx="0" cy="0" rx="1" ry="1" id="1" fill="rgb(0,0,0)" fill-opacity="0.501961" /></g>
<g transform="translate(3 158) rotate(200) scale(39 125)"><ellipse cx="0" cy="0" rx="1" ry="1" id="2" fill="rgb(203,217,227)" fill-opacity="0.501961" /></g>
<g transform="translate(48 220) rotate(350) scale(92 24)"><ellipse cx="0" cy="0" rx="1" ry="1" id="3" fill="rgb(255,125,72)" fill-opacity="0.501961" /></g>
<g transform="translate(166 72) rotate(223) scale(43 94)"><ellipse cx="0" cy="0" rx="1" ry="1" id="4" fill="rgb(255,115,80)" fill-opacity="0.501961" /></g>
<g transform="translate(146 247) rotate(75) scale(35 107)"><ellipse cx="0" cy="0" rx="1" ry="1" id="5" fill="rgb(0,0,0)" fill-opacity="0.501961" /></g>
<g transform="translate(110 168) rotate(197) scale(56 21)"><ellipse cx="0" cy="0" rx="1" ry="1" id="6" fill="rgb(27,8,0)" fill-opacity="0.501961" /></g>
<g transform="translate(42 88) rotate(296) scale(39 80)"><ellipse cx="0" cy="0" rx="1" ry="1" id="7" fill="rgb(151,151,165)" fill-opacity="0.501961" /></g>
<g transform="translate(52 180) rotate(119) scale(31 25)"><ellipse cx="0" cy="0" rx="1" ry="1" id="8" fill="rgb(218,33,0)" fill-opacity="0.501961" /></g>
<g transform="translate(191 107) rotate(176) scale(27 70)"><ellipse cx="0" cy="0" rx="1" ry="1" id="9" fill="rgb(221,55,20)" fill-opacity="0.501961" /></g>
<g transform="translate(91 41) rotate(243) scale(36 13)"><ellipse cx="0" cy="0" rx="1" ry="1" id="10" fill="rgb(50,60,62)" fill-opacity="0.501961" /></g>
<g transform="translate(106 224) rotate(64) scale(10 84)"><ellipse cx="0" cy="0" rx="1" ry="1" id="11" fill="rgb(174,34,5)" fill-opacity="0.501961" /></g>
<g transform="translate(114 0) rotate(35) scale(19 33)"><ellipse cx="0" cy="0" rx="1" ry="1" id="12" fill="rgb(255,153,126)" fill-opacity="0.501961" /></g>
<g transform="translate(115 92) rotate(33) scale(16 47)"><ellipse cx="0" cy="0" rx="1" ry="1" id="13" fill="rgb(229,151,140)" fill-opacity="0.501961" /></g>
<g transform="translate(14 200) rotate(270) scale(52 18)"><ellipse cx="0" cy="0" rx="1" ry="1" id="14" fill="rgb(255,184,149)" fill-opacity="0.501961" /></g>
<g transform="translate(151 255) rotate(83) scale(31 91)"><ellipse cx="0" cy="0" rx="1" ry="1" id="15" fill="rgb(0,0,0)" fill-opacity="0.501961" /></g>
<g transform="translate(156 0) rotate(178) scale(38 25)"><ellipse cx="0" cy="0" rx="1" ry="1" id="16" fill="rgb(205,51,6)" fill-opacity="0.501961" /></g>
<g transform="translate(163 145) rotate(17) scale(72 11)"><ellipse cx="0" cy="0" rx="1" ry="1" id="17" fill="rgb(240,124,98)" fill-opacity="0.501961" /></g>
<g transform="translate(24 32) rotate(257) scale(24 9)"><ellipse cx="0" cy="0" rx="1" ry="1" id="18" fill="rgb(68,50,41)" fill-opacity="0.501961" /></g>
<g transform="translate(55 104) rotate(122) scale(14 39)"><ellipse cx="0" cy="0" rx="1" ry="1" id="19" fill="rgb(78,128,140)" fill-opacity="0.501961" /></g>
<g transform="translate(73 204) rotate(81) scale(23 10)"><ellipse cx="0" cy="0" rx="1" ry="1" id="20" fill="rgb(255,182,146)" fill-opacity="0.501961" /></g>
<g transform="translate(46 53) rotate(301) scale(29 14)"><ellipse cx="0" cy="0" rx="1" ry="1" id="21" fill="rgb(212,140,137)" fill-opacity="0.501961" /></g>
<g transform="translate(8 166) rotate(250) scale(19 33)"><ellipse cx="0" cy="0" rx="1" ry="1" id="22" fill="rgb(236,192,193)" fill-opacity="0.501961" /></g>
<g transform="translate(96 67) rotate(318) scale(15 32)"><ellipse cx="0" cy="0" rx="1" ry="1" id="23" fill="rgb(116,86,88)" fill-opacity="0.501961" /></g>
<g transform="translate(150 124) rotate(272) scale(32 8)"><ellipse cx="0" cy="0" rx="1" ry="1" id="24" fill="rgb(163,55,36)" fill-opacity="0.501961" /></g>
<g transform="translate(36 224) rotate(98) scale(18 9)"><ellipse cx="0" cy="0" rx="1" ry="1" id="25" fill="rgb(220,39,0)" fill-opacity="0.501961" /></g>
<g transform="translate(0 53) rotate(239) scale(12 22)"><ellipse cx="0" cy="0" rx="1" ry="1" id="26" fill="rgb(241,180,173)" fill-opacity="0.501961" /></g>
<g transform="translate(33 134) rotate(157) scale(28 10)"><ellipse cx="0" cy="0" rx="1" ry="1" id="27" fill="rgb(108,157,173)" fill-opacity="0.501961" /></g>
<g transform="translate(128 173) rotate(126) scale(24 20)"><ellipse cx="0" cy="0" rx="1" ry="1" id="28" fill="rgb(30,47,46)" fill-opacity="0.501961" /></g>
<g transform="translate(143 68) rotate(247) scale(22 14)"><ellipse cx="0" cy="0" rx="1" ry="1" id="29" fill="rgb(254,156,120)" fill-opacity="0.501961" /></g>
<g transform="translate(32 248) rotate(83) scale(6 19)"><ellipse cx="0" cy="0" rx="1" ry="1" id="30" fill="rgb(255,139,79)" fill-opacity="0.501961" /></g>
<g transform="translate(63 5) rotate(244) scale(15 5)"><ellipse cx="0" cy="0" rx="1" ry="1" id="31" fill="rgb(255,197,190)" fill-opacity="0.501961" /></g>
<g transform="translate(81 163) rotate(226) scale(31 22)"><ellipse cx="0" cy="0" rx="1" ry="1" id="32" fill="rgb(129,33,13)" fill-opacity="0.501961" /></g>
<g transform="translate(114 128) rotate(70) scale(32 11)"><ellipse cx="0" cy="0" rx="1" ry="1" id="33" fill="rgb(243,147,129)" fill-opacity="0.501961" /></g>
<g transform="translate(98 142) rotate(59) scale(6 9)"><ellipse cx="0" cy="0" rx="1" ry="1" id="34" fill="rgb(27,108,128)" fill-opacity="0.501961" /></g>
<g transform="translate(103 35) rotate(30) scale(31 5)"><ellipse cx="0" cy="0" rx="1" ry="1" id="35" fill="rgb(62,52,46)" fill-opacity="0.501961" /></g>
<g transform="translate(191 79) rotate(178) scale(12 35)"><ellipse cx="0" cy="0" rx="1" ry="1" id="36" fill="rgb(177,29,4)" fill-opacity="0.501961" /></g>
<g transform="translate(92 188) rotate(200) scale(22 8)"><ellipse cx="0" cy="0" rx="1" ry="1" id="37" fill="rgb(225,79,51)" fill-opacity="0.501961" /></g>
<g transform="translate(1 203) rotate(279) scale(12 14)"><ellipse cx="0" cy="0" rx="1" ry="1" id="38" fill="rgb(219,96,65)" fill-opacity="0.501961" /></g>
<g transform="translate(44 186) rotate(79) scale(16 19)"><ellipse cx="0" cy="0" rx="1" ry="1" id="39" fill="rgb(195,42,11)" fill-opacity="0.501961" /></g>
<g transform="translate(62 219) rotate(324) scale(17 7)"><ellipse cx="0" cy="0" rx="1" ry="1" id="40" fill="rgb(255,194,159)" fill-opacity="0.501961" /></g>
<g transform="translate(0 136) rotate(89) scale(35 20)"><ellipse cx="0" cy="0" rx="1" ry="1" id="41" fill="rgb(185,188,201)" fill-opacity="0.501961" /></g>
<g transform="translate(154 254) rotate(221) scale(27 74)"><ellipse cx="0" cy="0" rx="1" ry="1" id="42" fill="rgb(0,3,0)" fill-opacity="0.501961" /></g>
<g transform="translate(35 156) rotate(315) scale(41 5)"><ellipse cx="0" cy="0" rx="1" ry="1" id="43" fill="rgb(255,168,144)" fill-opacity="0.501961" /></g>
<g transform="translate(164 156) rotate(40) scale(10 17)"><ellipse cx="0" cy="0" rx="1" ry="1" id="44" fill="rgb(220,110,88)" fill-opacity="0.501961" /></g>
<g transform="translate(126 21) rotate(118) scale(8 25)"><ellipse cx="0" cy="0" rx="1" ry="1" id="45" fill="rgb(235,131,104)" fill-opacity="0.501961" /></g>
<g transform="translate(92 203) rotate(0) scale(17 13)"><ellipse cx="0" cy="0" rx="1" ry="1" id="46" fill="rgb(250,131,102)" fill-opacity="0.501961" /></g>
<g transform="translate(94 96) rotate(357) scale(8 23)"><ellipse cx="0" cy="0" rx="1" ry="1" id="47" fill="rgb(243,143,136)" fill-opacity="0.501961" /></g>
<g transform="translate(24 77) rotate(280) scale(16 39)"><ellipse cx="0" cy="0" rx="1" ry="1" id="48" fill="rgb(136,148,155)" fill-opacity="0.501961" /></g>
<g transform="translate(107 53) rotate(264) scale(5 8)"><ellipse cx="0" cy="0" rx="1" ry="1" id="49" fill="rgb(240,154,153)" fill-opacity="0.501961" /></g>
<g transform="translate(56 207) rotate(222) scale(7 25)"><ellipse cx="0" cy="0" rx="1" ry="1" id="50" fill="rgb(221,76,36)" fill-opacity="0.501961" /></g>
<g transform="translate(166 180) rotate(358) scale(20 8)"><ellipse cx="0" cy="0" rx="1" ry="1" id="51" fill="rgb(0,24,21)" fill-opacity="0.501961" /></g>
<g transform="translate(28 0) rotate(147) scale(9 5)"><ellipse cx="0" cy="0" rx="1" ry="1" id="52" fill="rgb(255,199,184)" fill-opacity="0.501961" /></g>
<g transform="translate(130 220) rotate(315) scale(20 8)"><ellipse cx="0" cy="0" rx="1" ry="1" id="53" fill="rgb(148,45,19)" fill-opacity="0.501961" /></g>
<g transform="translate(26 24) rotate(211) scale(24 16)"><ellipse cx="0" cy="0" rx="1" ry="1" id="54" fill="rgb(119,72,58)" fill-opacity="0.501961" /></g>
<g transform="translate(39 9) rotate(117) scale(24 9)"><ellipse cx="0" cy="0" rx="1" ry="1" id="55" fill="rgb(194,100,79)" fill-opacity="0.501961" /></g>
<g transform="translate(69 61) rotate(346) scale(9 27)"><ellipse cx="0" cy="0" rx="1" ry="1" id="56" fill="rgb(194,111,105)" fill-opacity="0.501961" /></g>
<g transform="translate(87 131) rotate(254) scale(27 5)"><ellipse cx="0" cy="0" rx="1" ry="1" id="57" fill="rgb(88,90,94)" fill-opacity="0.501961" /></g>
<g transform="translate(101 43) rotate(235) scale(8 15)"><ellipse cx="0" cy="0" rx="1" ry="1" id="58" fill="rgb(40,51,45)" fill-opacity="0.501961" /></g>
<g transform="translate(55 60) rotate(281) scale(7 7)"><ellipse cx="0" cy="0" rx="1" ry="1" id="59" fill="rgb(255,199,196)" fill-opacity="0.501961" /></g>
<g transform="translate(141 108) rotate(330) scale(17 20)"><ellipse cx="0" cy="0" rx="1" ry="1" id="60" fill="rgb(168,78,61)" fill-opacity="0.501961" /></g>
<g transform="translate(17 255) rotate(283) scale(3 39)"><ellipse cx="0" cy="0" rx="1" ry="1" id="61" fill="rgb(184,13,0)" fill-opacity="0.501961" /></g>
<g transform="translate(20 197) rotate(258) scale(16 5)"><ellipse cx="0" cy="0" rx="1" ry="1" id="62" fill="rgb(255,214,183)" fill-opacity="0.501961" /></g>
<g transform="translate(58 78) rotate(348) scale(5 11)"><ellipse cx="0" cy="0" rx="1" ry="1" id="63" fill="rgb(84,96,101)" fill-opacity="0.501961" /></g>
<g transform="translate(24 58) rotate(199) scale(17 8)"><ellipse cx="0" cy="0" rx="1" ry="1" id="64" fill="rgb(141,118,119)" fill-opacity="0.501961" /></g>
<g transform="translate(0 222) rotate(4) scale(7 22)"><ellipse cx="0" cy="0" rx="1" ry="1" id="65" fill="rgb(252,199,174)" fill-opacity="0.501961" /></g>
<g transform="translate(104 28) rotate(278) scale(5 22)"><ellipse cx="0" cy="0" rx="1" ry="1" id="66" fill="rgb(180,99,86)" fill-opacity="0.501961" /></g>
<g transform="translate(88 168) rotate(352) scale(25 9)"><ellipse cx="0" cy="0" rx="1" ry="1" id="67" fill="rgb(73,28,15)" fill-opacity="0.501961" /></g>
<g transform="translate(166 118) rotate(180) scale(10 33)"><ellipse cx="0" cy="0" rx="1" ry="1" id="68" fill="rgb(215,95,64)" fill-opacity="0.501961" /></g>
<g transform="translate(174 165) rotate(316) scale(8 9)"><ellipse cx="0" cy="0" rx="1" ry="1" id="69" fill="rgb(67,29,19)" fill-opacity="0.501961" /></g>
<g transform="translate(152 0) rotate(51) scale(10 13)"><ellipse cx="0" cy="0" rx="1" ry="1" id="70" fill="rgb(132,24,0)" fill-opacity="0.501961" /></g>
<g transform="translate(86 8) rotate(28) scale(3 18)"><ellipse cx="0" cy="0" rx="1" ry="1" id="71" fill="rgb(30,38,29)" fill-opacity="0.501961" /></g>
<g transform="translate(105 212) rotate(332) scale(32 5)"><ellipse cx="0" cy="0" rx="1" ry="1" id="72" fill="rgb(214,69,47)" fill-opacity="0.501961" /></g>
<g transform="translate(128 47) rotate(324) scale(18 2)"><ellipse cx="0" cy="0" rx="1" ry="1" id="73" fill="rgb(49,41,37)" fill-opacity="0.501961" /></g>
<g transform="translate(101 8) rotate(38) scale(7 19)"><ellipse cx="0" cy="0" rx="1" ry="1" id="74" fill="rgb(244,162,147)" fill-opacity="0.501961" /></g>
<g transform="translate(155 192) rotate(190) scale(12 3)"><ellipse cx="0" cy="0" rx="1" ry="1" id="75" fill="rgb(176,77,55)" fill-opacity="0.501961" /></g>
<g transform="translate(150 216) rotate(316) scale(21 9)"><ellipse cx="0" cy="0" rx="1" ry="1" id="76" fill="rgb(57,24,10)" fill-opacity="0.501961" /></g>
<g transform="translate(174 25) rotate(62) scale(21 15)"><ellipse cx="0" cy="0" rx="1" ry="1" id="77" fill="rgb(223,116,75)" fill-opacity="0.501961" /></g>
<g transform="translate(52 15) rotate(255) scale(8 10)"><ellipse cx="0" cy="0" rx="1" ry="1" id="78" fill="rgb(103,62,50)" fill-opacity="0.501961" /></g>
<g transform="translate(66 0) rotate(183) scale(6 9)"><ellipse cx="0" cy="0" rx="1" ry="1" id="79" fill="rgb(255,186,177)" fill-opacity="0.501961" /></g>
<g transform="translate(50 157) rotate(120) scale(28 6)"><ellipse cx="0" cy="0" rx="1" ry="1" id="80" fill="rgb(215,74,42)" fill-opacity="0.501961" /></g>
<g transform="translate(59 172) rotate(191) scale(8 32)"><ellipse cx="0" cy="0" rx="1" ry="1" id="81" fill="rgb(162,33,12)" fill-opacity="0.501961" /></g>
<g transform="translate(105 127) rotate(231) scale(7 11)"><ellipse cx="0" cy="0" rx="1" ry="1" id="82" fill="rgb(249,166,145)" fill-opacity="0.501961" /></g>
<g transform="translate(70 130) rotate(151) scale(8 4)"><ellipse cx="0" cy="0" rx="1" ry="1" id="83" fill="rgb(229,162,164)" fill-opacity="0.501961" /></g>
<g transform="translate(135 39) rotate(297) scale(6 10)"><ellipse cx="0" cy="0" rx="1" ry="1" id="84" fill="rgb(141,71,55)" fill-opacity="0.501961" /></g>
<g transform="translate(0 85) rotate(347) scale(13 38)"><ellipse cx="0" cy="0" rx="1" ry="1" id="85" fill="rgb(183,165,173)" fill-opacity="0.501961" /></g>
<g transform="translate(15 174) rotate(353) scale(3 7)"><ellipse cx="0" cy="0" rx="1" ry="1" id="86" fill="rgb(216,111,84)" fill-opacity="0.501961" /></g>
<g transform="translate(191 165) rotate(101) scale(5 8)"><ellipse cx="0" cy="0" rx="1" ry="1" id="87" fill="rgb(243,136,109)" fill-opacity="0.501961" /></g>
<g transform="translate(24 111) rotate(181) scale(6 44)"><ellipse cx="0" cy="0" rx="1" ry="1" id="88" fill="rgb(130,157,165)" fill-opacity="0.501961" /></g>
<g transform="translate(59 106) rotate(91) scale(25 8)"><ellipse cx="0" cy="0" rx="1" ry="1" id="89" fill="rgb(98,134,144)" fill-opacity="0.501961" /></g>
<g transform="translate(98 69) rotate(0) scale(21 9)"><ellipse cx="0" cy="0" rx="1" ry="1" id="90" fill="rgb(108,88,86)" fill-opacity="0.501961" /></g>
<g transform="translate(47 229) rotate(360) scale(26 4)"><ellipse cx="0" cy="0" rx="1" ry="1" id="91" fill="rgb(221,78,39)" fill-opacity="0.501961" /></g>
<g transform="translate(158 66) rotate(262) scale(28 8)"><ellipse cx="0" cy="0" rx="1" ry="1" id="92" fill="rgb(233,113,72)" fill-opacity="0.501961" /></g>
<g transform="translate(114 2) rotate(33) scale(56 7)"><ellipse cx="0" cy="0" rx="1" ry="1" id="93" fill="rgb(194,85,54)" fill-opacity="0.501961" /></g>
<g transform="translate(9 165) rotate(105) scale(23 6)"><ellipse cx="0" cy="0" rx="1" ry="1" id="94" fill="rgb(233,190,193)" fill-opacity="0.501961" /></g>
<g transform="translate(176 32) rotate(310) scale(20 6)"><ellipse cx="0" cy="0" rx="1" ry="1" id="95" fill="rgb(231,132,97)" fill-opacity="0.501961" /></g>
<g transform="translate(71 215) rotate(3) scale(8 12)"><ellipse cx="0" cy="0" rx="1" ry="1" id="96" fill="rgb(249,189,161)" fill-opacity="0.501961" /></g>
<g transform="translate(30 37) rotate(76) scale(7 10)"><ellipse cx="0" cy="0" rx="1" ry="1" id="97" fill="rgb(60,53,47)" fill-opacity="0.501961" /></g>
<g transform="translate(26 1) rotate(65) scale(17 3)"><ellipse cx="0" cy="0" rx="1" ry="1" id="98" fill="rgb(242,161,147)" fill-opacity="0.501961" /></g>
<g transform="translate(27 184) rotate(300) scale(15 5)"><ellipse cx="0" cy="0" rx="1" ry="1" id="99" fill="rgb(246,130,81)" fill-opacity="0.501961" /></g>
<g transform="translate(158 161) rotate(73) scale(8 7)"><ellipse cx="0" cy="0" rx="1" ry="1" id="100" fill="rgb(230,126,108)" fill-opacity="0.501961" /></g>
<g transform="translate(0 0) rotate(5) scale(6 37)"><ellipse cx="0" cy="0" rx="1" ry="1" id="101" fill="rgb(251,168,152)" fill-opacity="0.501961" /></g>
<g transform="translate(106 172) rotate(260) scale(21 9)"><ellipse cx="0" cy="0" rx="1" ry="1" id="102" fill="rgb(82,39,28)" fill-opacity="0.501961" /></g>
<g transform="translate(17 242) rotate(20) scale(13 7)"><ellipse cx="0" cy="0" rx="1" ry="1" id="103" fill="rgb(252,174,135)" fill-opacity="0.501961" /></g>
<g transform="translate(47 75) rotate(88) scale(25 5)"><ellipse cx="0" cy="0" rx="1" ry="1" id="104" fill="rgb(200,166,172)" fill-opacity="0.501961" /></g>
<g transform="translate(50 232) rotate(108) scale(22 4)"><ellipse cx="0" cy="0" rx="1" ry="1" id="105" fill="rgb(242,141,100)" fill-opacity="0.501961" /></g>
<g transform="translate(170 124) rotate(83) scale(6 16)"><ellipse cx="0" cy="0" rx="1" ry="1" id="106" fill="rgb(227,113,82)" fill-opacity="0.501961" /></g>
<g transform="translate(83 22) rotate(61) scale(19 5)"><ellipse cx="0" cy="0" rx="1" ry="1" id="107" fill="rgb(90,65,55)" fill-opacity="0.501961" /></g>
<g transform="translate(9 218) rotate(3) scale(3 7)"><ellipse cx="0" cy="0" rx="1" ry="1" id="108" fill="rgb(231,103,57)" fill-opacity="0.501961" /></g>
<g transform="translate(111 150) rotate(314) scale(2 26)"><ellipse cx="0" cy="0" rx="1" ry="1" id="109" fill="rgb(65,79,81)" fill-opacity="0.501961" /></g>
<g transform="translate(140 171) rotate(328) scale(14 8)"><ellipse cx="0" cy="0" rx="1" ry="1" id="110" fill="rgb(24,38,33)" fill-opacity="0.501961" /></g>
<g transform="translate(3 38) rotate(141) scale(25 3)"><ellipse cx="0" cy="0" rx="1" ry="1" id="111" fill="rgb(104,61,48)" fill-opacity="0.501961" /></g>
<g transform="translate(40 255) rotate(162) scale(26 5)"><ellipse cx="0" cy="0" rx="1" ry="1" id="112" fill="rgb(197,54,19)" fill-opacity="0.501961" /></g>
<g transform="translate(2 255) rotate(35) scale(41 7)"><ellipse cx="0" cy="0" rx="1" ry="1" id="113" fill="rgb(145,27,0)" fill-opacity="0.501961" /></g>
<g transform="translate(181 106) rotate(83) scale(29 10)"><ellipse cx="0" cy="0" rx="1" ry="1" id="114" fill="rgb(206,66,38)" fill-opacity="0.501961" /></g>
<g transform="translate(43 2) rotate(28) scale(15 10)"><ellipse cx="0" cy="0" rx="1" ry="1" id="115" fill="rgb(149,70,49)" fill-opacity="0.501961" /></g>
<g transform="translate(144 94) rotate(119) scale(3 6)"><ellipse cx="0" cy="0" rx="1" ry="1" id="116" fill="rgb(49,37,34)" fill-opacity="0.501961" /></g>
<g transform="translate(138 250) rotate(347) scale(105 12)"><ellipse cx="0" cy="0" rx="1" ry="1" id="117" fill="rgb(0,3,1)" fill-opacity="0.501961" /></g>
<g transform="translate(11 202) rotate(314) scale(4 6)"><ellipse cx="0" cy="0" rx="1" ry="1" id="118" fill="rgb(191,41,5)" fill-opacity="0.501961" /></g>
<g transform="translate(186 183) rotate(164) scale(27 2)"><ellipse cx="0" cy="0" rx="1" ry="1" id="119" fill="rgb(38,30,24)" fill-opacity="0.501961" /></g>
<g transform="translate(48 211) rotate(139) scale(7 3)"><ellipse cx="0" cy="0" rx="1" ry="1" id="120" fill="rgb(245,142,90)" fill-opacity="0.501961" /></g>
<g transform="translate(98 78) rotate(282) scale(4 29)"><ellipse cx="0" cy="0" rx="1" ry="1" id="121" fill="rgb(150,97,98)" fill-opacity="0.501961" /></g>
<g transform="translate(49 202) rotate(360) scale(19 5)"><ellipse cx="0" cy="0" rx="1" ry="1" id="122" fill="rgb(196,48,21)" fill-opacity="0.501961" /></g>
<g transform="translate(131 154) rotate(262) scale(6 4)"><ellipse cx="0" cy="0" rx="1" ry="1" id="123" fill="rgb(32,56,56)" fill-opacity="0.501961" /></g>
<g transform="translate(46 43) rotate(43) scale(7 7)"><ellipse cx="0" cy="0" rx="1" ry="1" id="124" fill="rgb(190,107,96)" fill-opacity="0.501961" /></g>
<g transform="translate(106 75) rotate(119) scale(4 18)"><ellipse cx="0" cy="0" rx="1" ry="1" id="125" fill="rgb(117,88,85)" fill-opacity="0.501961" /></g>
<g transform="translate(74 194) rotate(54) scale(1 25)"><ellipse cx="0" cy="0" rx="1" ry="1" id="126" fill="rgb(200,45,15)" fill-opacity="0.501961" /></g>
<g transform="translate(130 66) rotate(183) scale(10 15)"><ellipse cx="0" cy="0" rx="1" ry="1" id="127" fill="rgb(235,155,137)" fill-opacity="0.501961" /></g>
<g transform="translate(96 17) rotate(299) scale(3 12)"><ellipse cx="0" cy="0" rx="1" ry="1" id="128" fill="rgb(233,166,159)" fill-opacity="0.501961" /></g>
<g transform="translate(98 119) rotate(260) scale(16 6)"><ellipse cx="0" cy="0" rx="1" ry="1" id="129" fill="rgb(242,163,149)" fill-opacity="0.501961" /></g>
<g transform="translate(106 96) rotate(42) scale(3 3)"><ellipse cx="0" cy="0" rx="1" ry="1" id="130" fill="rgb(141,81,87)" fill-opacity="0.501961" /></g>
<g transform="translate(8 245) rotate(300) scale(5 16)"><ellipse cx="0" cy="0" rx="1" ry="1" id="131" fill="rgb(243,134,93)" fill-opacity="0.501961" /></g>
<g transform="translate(55 123) rotate(53) scale(7 25)"><ellipse cx="0" cy="0" rx="1" ry="1" id="132" fill="rgb(101,132,140)" fill-opacity="0.501961" /></g>
<g transform="translate(144 150) rotate(228) scale(8 6)"><ellipse cx="0" cy="0" rx="1" ry="1" id="133" fill="rgb(174,70,53)" fill-opacity="0.501961" /></g>
<g transform="translate(176 194) rotate(258) scale(5 11)"><ellipse cx="0" cy="0" rx="1" ry="1" id="134" fill="rgb(158,57,32)" fill-opacity="0.501961" /></g>
<g transform="translate(175 150) rotate(165) scale(36 3)"><ellipse cx="0" cy="0" rx="1" ry="1" id="135" fill="rgb(224,119,95)" fill-opacity="0.501961" /></g>
<g transform="translate(82 205) rotate(12) scale(9 15)"><ellipse cx="0" cy="0" rx="1" ry="1" id="136" fill="rgb(240,152,117)" fill-opacity="0.501961" /></g>
<g transform="translate(38 157) rotate(209) scale(3 17)"><ellipse cx="0" cy="0" rx="1" ry="1" id="137" fill="rgb(255,191,162)" fill-opacity="0.501961" /></g>
<g transform="translate(42 83) rotate(192) scale(3 11)"><ellipse cx="0" cy="0" rx="1" ry="1" id="138" fill="rgb(98,128,137)" fill-opacity="0.501961" /></g>
<g transform="translate(132 112) rotate(44) scale(10 20)"><ellipse cx="0" cy="0" rx="1" ry="1" id="139" fill="rgb(208,103,81)" fill-opacity="0.501961" /></g>
<g transform="translate(101 189) rotate(35) scale(7 5)"><ellipse cx="0" cy="0" rx="1" ry="1" id="140" fill="rgb(164,47,23)" fill-opacity="0.501961" /></g>
<g transform="translate(114 48) rotate(208) scale(1 9)"><ellipse cx="0" cy="0" rx="1" ry="1" id="141" fill="rgb(242,152,145)" fill-opacity="0.501961" /></g>
<g transform="translate(1 50) rotate(151) scale(19 4)"><ellipse cx="0" cy="0" rx="1" ry="1" id="142" fill="rgb(248,181,173)" fill-opacity="0.501961" /></g>
<g transform="translate(130 0) rotate(212) scale(48 4)"><ellipse cx="0" cy="0" rx="1" ry="1" id="143" fill="rgb(169,58,31)" fill-opacity="0.501961" /></g>
<g transform="translate(71 159) rotate(88) scale(5 6)"><ellipse cx="0" cy="0" rx="1" ry="1" id="144" fill="rgb(74,27,11)" fill-opacity="0.501961" /></g>
<g transform="translate(89 230) rotate(244) scale(4 30)"><ellipse cx="0" cy="0" rx="1" ry="1" id="145" fill="rgb(152,32,10)" fill-opacity="0.501961" /></g>
<g transform="translate(75 26) rotate(55) scale(5 13)"><ellipse cx="0" cy="0" rx="1" ry="1" id="146" fill="rgb(99,70,63)" fill-opacity="0.501961" /></g>
<g transform="translate(153 47) rotate(139) scale(24 6)"><ellipse cx="0" cy="0" rx="1" ry="1" id="147" fill="rgb(215,121,96)" fill-opacity="0.501961" /></g>
<g transform="translate(176 47) rotate(133) scale(28 7)"><ellipse cx="0" cy="0" rx="1" ry="1" id="148" fill="rgb(213,89,49)" fill-opacity="0.501961" /></g>
<g transform="translate(8 231) rotate(23) scale(4 11)"><ellipse cx="0" cy="0" rx="1" ry="1" id="149" fill="rgb(246,193,166)" fill-opacity="0.501961" /></g>
<g transform="translate(108 14) rotate(206) scale(18 4)"><ellipse cx="0" cy="0" rx="1" ry="1" id="150" fill="rgb(234,158,140)" fill-opacity="0.501961" /></g>
<g transform="translate(15 24) rotate(42) scale(7 12)"><ellipse cx="0" cy="0" rx="1" ry="1" id="151" fill="rgb(90,58,44)" fill-opacity="0.501961" /></g>
<g transform="translate(184 186) rotate(35) scale(20 2)"><ellipse cx="0" cy="0" rx="1" ry="1" id="152" fill="rgb(7,21,17)" fill-opacity="0.501961" /></g>
<g transform="translate(93 148) rotate(197) scale(19 5)"><ellipse cx="0" cy="0" rx="1" ry="1" id="153" fill="rgb(118,68,57)" fill-opacity="0.501961" /></g>
<g transform="translate(107 109) rotate(209) scale(4 22)"><ellipse cx="0" cy="0" rx="1" ry="1" id="154" fill="rgb(241,151,134)" fill-opacity="0.501961" /></g>
<g transform="translate(0 78) rotate(301) scale(30 3)"><ellipse cx="0" cy="0" rx="1" ry="1" id="155" fill="rgb(188,171,176)" fill-opacity="0.501961" /></g>
<g transform="translate(32 22) rotate(257) scale(8 6)"><ellipse cx="0" cy="0" rx="1" ry="1" id="156" fill="rgb(187,116,104)" fill-opacity="0.501961" /></g>
<g transform="translate(33 75) rotate(336) scale(13 3)"><ellipse cx="0" cy="0" rx="1" ry="1" id="157" fill="rgb(208,167,174)" fill-opacity="0.501961" /></g>
<g transform="translate(162 140) rotate(260) scale(6 20)"><ellipse cx="0" cy="0" rx="1" ry="1" id="158" fill="rgb(202,79,53)" fill-opacity="0.501961" /></g>
<g transform="translate(74 134) rotate(242) scale(4 7)"><ellipse cx="0" cy="0" rx="1" ry="1" id="159" fill="rgb(201,118,108)" fill-opacity="0.501961" /></g>
<g transform="translate(0 52) rotate(353) scale(19 3)"><ellipse cx="0" cy="0" rx="1" ry="1" id="160" fill="rgb(160,98,86)" fill-opacity="0.501961" /></g>
<g transform="translate(125 156) rotate(234) scale(4 2)"><ellipse cx="0" cy="0" rx="1" ry="1" id="161" fill="rgb(255,125,109)" fill-opacity="0.501961" /></g>
<g transform="translate(112 121) rotate(360) scale(7 20)"><ellipse cx="0" cy="0" rx="1" ry="1" id="162" fill="rgb(230,134,114)" fill-opacity="0.501961" /></g>
<g transform="translate(100 238) rotate(72) scale(5 25)"><ellipse cx="0" cy="0" rx="1" ry="1" id="163" fill="rgb(53,27,11)" fill-opacity="0.501961" /></g>
<g transform="translate(130 208) rotate(39) scale(7 14)"><ellipse cx="0" cy="0" rx="1" ry="1" id="164" fill="rgb(182,64,40)" fill-opacity="0.501961" /></g>
<g transform="translate(76 0) rotate(245) scale(7 3)"><ellipse cx="0" cy="0" rx="1" ry="1" id="165" fill="rgb(235,160,149)" fill-opacity="0.501961" /></g>
<g transform="translate(0 133) rotate(360) scale(15 8)"><ellipse cx="0" cy="0" rx="1" ry="1" id="166" fill="rgb(141,174,183)" fill-opacity="0.501961" /></g>
<g transform="translate(191 201) rotate(174) scale(33 6)"><ellipse cx="0" cy="0" rx="1" ry="1" id="167" fill="rgb(62,27,14)" fill-opacity="0.501961" /></g>
<g transform="translate(17 87) rotate(360) scale(13 7)"><ellipse cx="0" cy="0" rx="1" ry="1" id="168" fill="rgb(123,150,158)" fill-opacity="0.501961" /></g>
<g transform="translate(100 62) rotate(306) scale(5 19)"><ellipse cx="0" cy="0" rx="1" ry="1" id="169" fill="rgb(89,75,70)" fill-opacity="0.501961" /></g>
<g transform="translate(186 4) rotate(99) scale(10 20)"><ellipse cx="0" cy="0" rx="1" ry="1" id="170" fill="rgb(217,69,31)" fill-opacity="0.501961" /></g>
<g transform="translate(76 185) rotate(99) scale(6 6)"><ellipse cx="0" cy="0" rx="1" ry="1" id="171" fill="rgb(227,78,44)" fill-opacity="0.501961" /></g>
<g transform="translate(13 110) rotate(79) scale(16 3)"><ellipse cx="0" cy="0" rx="1" ry="1" id="172" fill="rgb(221,161,166)" fill-opacity="0.501961" /></g>
<g transform="translate(27 218) rotate(212) scale(4 8)"><ellipse cx="0" cy="0" rx="1" ry="1" id="173" fill="rgb(252,176,122)" fill-opacity="0.501961" /></g>
<g transform="translate(105 87) rotate(87) scale(11 6)"><ellipse cx="0" cy="0" rx="1" ry="1" id="174" fill="rgb(167,106,105)" fill-opacity="0.501961" /></g>
<g transform="translate(92 37) rotate(305) scale(10 4)"><ellipse cx="0" cy="0" rx="1" ry="1" id="175" fill="rgb(66,59,52)" fill-opacity="0.501961" /></g>
<g transform="translate(124 190) rotate(89) scale(6 14)"><ellipse cx="0" cy="0" rx="1" ry="1" id="176" fill="rgb(38,31,25)" fill-opacity="0.501961" /></g>
<g transform="translate(88 0) rotate(187) scale(7 3)"><ellipse cx="0" cy="0" rx="1" ry="1" id="177" fill="rgb(37,33,25)" fill-opacity="0.501961" /></g>
<g transform="translate(122 49) rotate(162) scale(6 3)"><ellipse cx="0" cy="0" rx="1" ry="1" id="178" fill="rgb(24,41,36)" fill-opacity="0.501961" /></g>
<g transform="translate(78 95) rotate(284) scale(21 4)"><ellipse cx="0" cy="0" rx="1" ry="1" id="179" fill="rgb(143,101,103)" fill-opacity="0.501961" /></g>
<g transform="translate(16 161) rotate(166) scale(6 2)"><ellipse cx="0" cy="0" rx="1" ry="1" id="180" fill="rgb(130,156,173)" fill-opacity="0.501961" /></g>
<g transform="translate(45 99) rotate(221) scale(26 8)"><ellipse cx="0" cy="0" rx="1" ry="1" id="181" fill="rgb(111,141,150)" fill-opacity="0.501961" /></g>
<g transform="translate(40 228) rotate(1) scale(5 13)"><ellipse cx="0" cy="0" rx="1" ry="1" id="182" fill="rgb(203,49,19)" fill-opacity="0.501961" /></g>
<g transform="translate(189 177) rotate(115) scale(3 31)"><ellipse cx="0" cy="0" rx="1" ry="1" id="183" fill="rgb(88,40,30)" fill-opacity="0.501961" /></g>
<g transform="translate(37 113) rotate(0) scale(5 10)"><ellipse cx="0" cy="0" rx="1" ry="1" id="184" fill="rgb(186,142,151)" fill-opacity="0.501961" /></g>
<g transform="translate(19 171) rotate(310) scale(7 3)"><ellipse cx="0" cy="0" rx="1" ry="1" id="185" fill="rgb(207,120,101)" fill-opacity="0.501961" /></g>
<g transform="translate(72 48) rotate(140) scale(13 10)"><ellipse cx="0" cy="0" rx="1" ry="1" id="186" fill="rgb(170,95,82)" fill-opacity="0.501961" /></g>
<g transform="translate(189 68) rotate(319) scale(13 19)"><ellipse cx="0" cy="0" rx="1" ry="1" id="187" fill="rgb(189,49,23)" fill-opacity="0.501961" /></g>
<g transform="translate(1 20) rotate(271) scale(36 3)"><ellipse cx="0" cy="0" rx="1" ry="1" id="188" fill="rgb(197,124,109)" fill-opacity="0.501961" /></g>
<g transform="translate(140 140) rotate(23) scale(7 4)"><ellipse cx="0" cy="0" rx="1" ry="1" id="189" fill="rgb(234,133,107)" fill-opacity="0.501961" /></g>
<g transform="translate(123 180) rotate(220) scale(29 4)"><ellipse cx="0" cy="0" rx="1" ry="1" id="190" fill="rgb(42,39,32)" fill-opacity="0.501961" /></g>
<g transform="translate(32 62) rotate(185) scale(9 13)"><ellipse cx="0" cy="0" rx="1" ry="1" id="191" fill="rgb(151,126,129)" fill-opacity="0.501961" /></g>
<g transform="translate(46 54) rotate(298) scale(5 6)"><ellipse cx="0" cy="0" rx="1" ry="1" id="192" fill="rgb(247,162,156)" fill-opacity="0.501961" /></g>
<g transform="translate(17 210) rotate(295) scale(10 3)"><ellipse cx="0" cy="0" rx="1" ry="1" id="193" fill="rgb(250,215,192)" fill-opacity="0.501961" /></g>
<g transform="translate(191 155) rotate(167) scale(13 16)"><ellipse cx="0" cy="0" rx="1" ry="1" id="194" fill="rgb(214,105,76)" fill-opacity="0.501961" /></g>
<g transform="translate(43 159) rotate(305) scale(12 3)"><ellipse cx="0" cy="0" rx="1" ry="1" id="195" fill="rgb(234,111,71)" fill-opacity="0.501961" /></g>
<g transform="translate(33 204) rotate(113) scale(6 4)"><ellipse cx="0" cy="0" rx="1" ry="1" id="196" fill="rgb(240,115,57)" fill-opacity="0.501961" /></g>
<g transform="translate(75 98) rotate(34) scale(15 6)"><ellipse cx="0" cy="0" rx="1" ry="1" id="197" fill="rgb(168,119,123)" fill-opacity="0.501961" /></g>
<g transform="translate(99 201) rotate(353) scale(18 6)"><ellipse cx="0" cy="0" rx="1" ry="1" id="198" fill="rgb(229,119,91)" fill-opacity="0.501961" /></g>
<g transform="translate(50 243) rotate(299) scale(11 4)"><ellipse cx="0" cy="0" rx="1" ry="1" id="199" fill="rgb(213,88,52)" fill-opacity="0.501961" /></g>
<g transform="translate(111 209) rotate(352) scale(18 7)"><ellipse cx="0" cy="0" rx="1" ry="1" id="200" fill="rgb(194,72,46)" fill-opacity="0.501961" /></g>
<g transform="translate(5 208) rotate(116) scale(5 3)"><ellipse cx="0" cy="0" rx="1" ry="1" id="201" fill="rgb(251,213,189)" fill-opacity="0.501961" /></g>
<g transform="translate(95 159) rotate(98) scale(6 14)"><ellipse cx="0" cy="0" rx="1" ry="1" id="202" fill="rgb(110,45,31)" fill-opacity="0.501961" /></g>
<g transform="translate(191 136) rotate(333) scale(4 13)"><ellipse cx="0" cy="0" rx="1" ry="1" id="203" fill="rgb(165,41,20)" fill-opacity="0.501961" /></g>
<g transform="translate(58 20) rotate(317) scale(9 3)"><ellipse cx="0" cy="0" rx="1" ry="1" id="204" fill="rgb(130,88,79)" fill-opacity="0.501961" /></g>
<g transform="translate(2 62) rotate(329) scale(21 1)"><ellipse cx="0" cy="0" rx="1" ry="1" id="205" fill="rgb(208,180,184)" fill-opacity="0.501961" /></g>
<g transform="translate(58 34) rotate(300) scale(4 10)"><ellipse cx="0" cy="0" rx="1" ry="1" id="206" fill="rgb(219,154,149)" fill-opacity="0.501961" /></g>
<g transform="translate(156 109) rotate(215) scale(4 13)"><ellipse cx="0" cy="0" rx="1" ry="1" id="207" fill="rgb(167,63,40)" fill-opacity="0.501961" /></g>
<g transform="translate(56 223) rotate(87) scale(5 8)"><ellipse cx="0" cy="0" rx="1" ry="1" id="208" fill="rgb(243,155,120)" fill-opacity="0.501961" /></g>
<g transform="translate(9 193) rotate(149) scale(1 4)"><ellipse cx="0" cy="0" rx="1" ry="1" id="209" fill="rgb(208,79,48)" fill-opacity="0.501961" /></g>
<g transform="translate(81 13) rotate(147) scale(5 6)"><ellipse cx="0" cy="0" rx="1" ry="1" id="210" fill="rgb(60,54,44)" fill-opacity="0.501961" /></g>
<g transform="translate(141 67) rotate(167) scale(5 21)"><ellipse cx="0" cy="0" rx="1" ry="1" id="211" fill="rgb(238,141,111)" fill-opacity="0.501961" /></g>
<g transform="translate(133 38) rotate(205) scale(4 2)"><ellipse cx="0" cy="0" rx="1" ry="1" id="212" fill="rgb(54,36,27)" fill-opacity="0.501961" /></g>
<g transform="translate(103 28) rotate(186) scale(5 4)"><ellipse cx="0" cy="0" rx="1" ry="1" id="213" fill="rgb(207,127,116)" fill-opacity="0.501961" /></g>
<g transform="translate(109 52) rotate(110) scale(6 3)"><ellipse cx="0" cy="0" rx="1" ry="1" id="214" fill="rgb(226,147,142)" fill-opacity="0.501961" /></g>
<g transform="translate(53 3) rotate(20) scale(4 2)"><ellipse cx="0" cy="0" rx="1" ry="1" id="215" fill="rgb(85,46,33)" fill-opacity="0.501961" /></g>
<g transform="translate(54 214) rotate(178) scale(1 6)"><ellipse cx="0" cy="0" rx="1" ry="1" id="216" fill="rgb(254,183,135)" fill-opacity="0.501961" /></g>
<g transform="translate(85 59) rotate(104) scale(12 3)"><ellipse cx="0" cy="0" rx="1" ry="1" id="217" fill="rgb(79,77,73)" fill-opacity="0.501961" /></g>
<g transform="translate(86 130) rotate(229) scale(25 2)"><ellipse cx="0" cy="0" rx="1" ry="1" id="218" fill="rgb(80,111,117)" fill-opacity="0.501961" /></g>
<g transform="translate(40 125) rotate(0) scale(10 7)"><ellipse cx="0" cy="0" rx="1" ry="1" id="219" fill="rgb(137,152,161)" fill-opacity="0.501961" /></g>
<g transform="translate(39 19) rotate(327) scale(4 12)"><ellipse cx="0" cy="0" rx="1" ry="1" id="220" fill="rgb(162,86,68)" fill-opacity="0.501961" /></g>
<g transform="translate(10 45) rotate(125) scale(6 3)"><ellipse cx="0" cy="0" rx="1" ry="1" id="221" fill="rgb(255,210,207)" fill-opacity="0.501961" /></g>
<g transform="translate(27 162) rotate(287) scale(9 4)"><ellipse cx="0" cy="0" rx="1" ry="1" id="222" fill="rgb(241,199,192)" fill-opacity="0.501961" /></g>
<g transform="translate(119 148) rotate(92) scale(6 5)"><ellipse cx="0" cy="0" rx="1" ry="1" id="223" fill="rgb(174,84,75)" fill-opacity="0.501961" /></g>
<g transform="translate(142 31) rotate(98) scale(5 31)"><ellipse cx="0" cy="0" rx="1" ry="1" id="224" fill="rgb(202,109,85)" fill-opacity="0.501961" /></g>
<g transform="translate(60 45) rotate(121) scale(3 10)"><ellipse cx="0" cy="0" rx="1" ry="1" id="225" fill="rgb(150,102,98)" fill-opacity="0.501961" /></g>
<g transform="translate(163 23) rotate(156) scale(10 7)"><ellipse cx="0" cy="0" rx="1" ry="1" id="226" fill="rgb(189,83,53)" fill-opacity="0.501961" /></g>
<g transform="translate(155 90) rotate(179) scale(8 7)"><ellipse cx="0" cy="0" rx="1" ry="1" id="227" fill="rgb(233,123,92)" fill-opacity="0.501961" /></g>
<g transform="translate(151 231) rotate(254) scale(5 76)"><ellipse cx="0" cy="0" rx="1" ry="1" id="228" fill="rgb(9,14,9)" fill-opacity="0.501961" /></g>
<g transform="translate(31 248) rotate(78) scale(10 2)"><ellipse cx="0" cy="0" rx="1" ry="1" id="229" fill="rgb(239,110,57)" fill-opacity="0.501961" /></g>
<g transform="translate(191 66) rotate(270) scale(24 4)"><ellipse cx="0" cy="0" rx="1" ry="1" id="230" fill="rgb(176,35,12)" fill-opacity="0.501961" /></g>
<g transform="translate(184 107) rotate(74) scale(5 16)"><ellipse cx="0" cy="0" rx="1" ry="1" id="231" fill="rgb(190,50,27)" fill-opacity="0.501961" /></g>
<g transform="translate(11 205) rotate(176) scale(1 9)"><ellipse cx="0" cy="0" rx="1" ry="1" id="232" fill="rgb(186,44,15)" fill-opacity="0.501961" /></g>
<g transform="translate(14 69) rotate(283) scale(12 11)"><ellipse cx="0" cy="0" rx="1" ry="1" id="233" fill="rgb(152,150,156)" fill-opacity="0.501961" /></g>
<g transform="translate(129 138) rotate(41) scale(10 3)"><ellipse cx="0" cy="0" rx="1" ry="1" id="234" fill="rgb(239,152,126)" fill-opacity="0.501961" /></g>
<g transform="translate(7 154) rotate(177) scale(1 11)"><ellipse cx="0" cy="0" rx="1" ry="1" id="235" fill="rgb(249,200,200)" fill-opacity="0.501961" /></g>
<g transform="translate(176 167) rotate(280) scale(7 2)"><ellipse cx="0" cy="0" rx="1" ry="1" id="236" fill="rgb(19,30,27)" fill-opacity="0.501961" /></g>
<g transform="translate(31 6) rotate(360) scale(3 22)"><ellipse cx="0" cy="0" rx="1" ry="1" id="237" fill="rgb(207,125,108)" fill-opacity="0.501961" /></g>
<g transform="translate(33 188) rotate(94) scale(12 1)"><ellipse cx="0" cy="0" rx="1" ry="1" id="238" fill="rgb(223,81,41)" fill-opacity="0.501961" /></g>
<g transform="translate(96 71) rotate(191) scale(17 4)"><ellipse cx="0" cy="0" rx="1" ry="1" id="239" fill="rgb(124,97,97)" fill-opacity="0.501961" /></g>
<g transform="translate(31 151) rotate(240) scale(2 14)"><ellipse cx="0" cy="0" rx="1" ry="1" id="240" fill="rgb(231,171,174)" fill-opacity="0.501961" /></g>
<g transform="translate(183 171) rotate(136) scale(1 22)"><ellipse cx="0" cy="0" rx="1" ry="1" id="241" fill="rgb(123,45,28)" fill-opacity="0.501961" /></g>
<g transform="translate(169 150) rotate(76) scale(4 16)"><ellipse cx="0" cy="0" rx="1" ry="1" id="242" fill="rgb(224,127,104)" fill-opacity="0.501961" /></g>
<g transform="translate(95 175) rotate(109) scale(6 17)"><ellipse cx="0" cy="0" rx="1" ry="1" id="243" fill="rgb(84,30,14)" fill-opacity="0.501961" /></g>
<g transform="translate(5 255) rotate(7) scale(46 1)"><ellipse cx="0" cy="0" rx="1" ry="1" id="244" fill="rgb(106,25,0)" fill-opacity="0.501961" /></g>
<g transform="translate(27 187) rotate(343) scale(3 4)"><ellipse cx="0" cy="0" rx="1" ry="1" id="245" fill="rgb(215,65,24)" fill-opacity="0.501961" /></g>
<g transform="translate(27 69) rotate(270) scale(8 4)"><ellipse cx="0" cy="0" rx="1" ry="1" id="246" fill="rgb(118,136,143)" fill-opacity="0.501961" /></g>
<g transform="translate(90 31) rotate(284) scale(1 4)"><ellipse cx="0" cy="0" rx="1" ry="1" id="247" fill="rgb(182,104,95)" fill-opacity="0.501961" /></g>
<g transform="translate(160 194) rotate(47) scale(7 3)"><ellipse cx="0" cy="0" rx="1" ry="1" id="248" fill="rgb(171,70,44)" fill-opacity="0.501961" /></g>
<g transform="translate(4 189) rotate(345) scale(5 4)"><ellipse cx="0" cy="0" rx="1" ry="1" id="249" fill="rgb(249,185,183)" fill-opacity="0.501961" /></g>
<g transform="translate(139 179) rotate(251) scale(14 16)"><ellipse cx="0" cy="0" rx="1" ry="1" id="250" fill="rgb(37,39,33)" fill-opacity="0.501961" /></g>
<g transform="translate(76 245) rotate(139) scale(25 3)"><ellipse cx="0" cy="0" rx="1" ry="1" id="251" fill="rgb(101,30,8)" fill-opacity="0.501961" /></g>
<g transform="translate(61 178) rotate(99) scale(25 4)"><ellipse cx="0" cy="0" rx="1" ry="1" id="252" fill="rgb(165,36,16)" fill-opacity="0.501961" /></g>
</svg>