<?xml version="1.0" standalone="no"?>
<svg xmlns="http://www.w3.org/2000/svg" version="1.2" baseProfile="tiny" width="192" height="256" viewBox="0 0 192 256">
<rect x="0" y="0" width="192" height="256" id="0" fill="rgb(159,93,78)" fill-opacity="1" />
<polygon points="192,149 53,256 192,256" id="1" fill="rgb(0,0,0)" fill-opacity="0.501961" />
<polygon points="0,37 0,256 82,62" id="2" fill="rgb(196,212,223)" fill-opacity="0.501961" />
<polygon points="141,150 192,238 39,152" id="3" fill="rgb(27,3,0)" fill-opacity="0.501961" />
<polygon points="192,174 71,110 183,0" id="4" fill="rgb(255,116,83)" fill-opacity="0.501961" />
<polygon points="5,165 151,206 0,255" id="5" fill="rgb(255,122,71)" fill-opacity="0.501961" />
<polygon points="192,256 192,195 61,256" id="6" fill="rgb(0,0,0)" fill-opacity="0.501961" />
<polygon points="129,161 88,57 0,95" id="7" fill="rgb(134,137,149)" fill-opacity="0.501961" />
<polygon points="86,136 35,158 31,256" id="8" fill="rgb(195,24,0)" fill-opacity="0.501961" />
<polygon points="152,34 113,150 76,99" id="9" fill="rgb(229,148,136)" fill-opacity="0.501961" />
<polygon points="192,0 192,156 120,0" id="10" fill="rgb(216,68,28)" fill-opacity="0.501961" />
<polygon points="79,0 76,64 122,88" id="11" fill="rgb(55,61,64)" fill-opacity="0.501961" />
<polygon points="0,146 52,140 0,256" id="12" fill="rgb(254,186,166)" fill-opacity="0.501961" />
<polygon points="26,193 0,244 28,256" id="13" fill="rgb(255,190,141)" fill-opacity="0.501961" />
<polygon points="140,225 16,256 179,181" id="14" fill="rgb(172,37,6)" fill-opacity="0.501961" />
<polygon points="107,0 171,43 77,14" id="15" fill="rgb(246,152,128)" fill-opacity="0.501961" />
<polygon points="28,256 105,199 78,185" id="16" fill="rgb(255,166,130)" fill-opacity="0.501961" />
<polygon points="112,196 91,133 192,187" id="17" fill="rgb(30,41,37)" fill-opacity="0.501961" />
<polygon points="44,26 26,52 0,12" id="18" fill="rgb(69,50,41)" fill-opacity="0.501961" />
<polygon points="53,66 1,136 86,133" id="19" fill="rgb(113,145,159)" fill-opacity="0.501961" />
<polygon points="141,38 128,52 53,24" id="20" fill="rgb(62,51,45)" fill-opacity="0.501961" />
<polygon points="65,256 192,210 192,256" id="21" fill="rgb(0,0,0)" fill-opacity="0.501961" />
<polygon points="89,129 136,147 98,92" id="22" fill="rgb(255,158,135)" fill-opacity="0.501961" />
<polygon points="113,59 155,97 192,8" id="23" fill="rgb(232,140,107)" fill-opacity="0.501961" />
<polygon points="57,20 27,54 124,111" id="24" fill="rgb(196,121,119)" fill-opacity="0.501961" />
<polygon points="42,199 106,155 74,131" id="25" fill="rgb(114,29,10)" fill-opacity="0.501961" />
<polygon points="2,256 160,184 56,256" id="26" fill="rgb(200,63,29)" fill-opacity="0.501961" />
<polygon points="162,58 192,44 192,149" id="27" fill="rgb(193,41,15)" fill-opacity="0.501961" />
<polygon points="117,94 157,88 156,150" id="28" fill="rgb(164,68,50)" fill-opacity="0.501961" />
<polygon points="23,178 39,226 94,176" id="29" fill="rgb(210,58,24)" fill-opacity="0.501961" />
<polygon points="77,0 65,16 55,0" id="30" fill="rgb(255,190,183)" fill-opacity="0.501961" />
<polygon points="16,256 0,256 0,244" id="31" fill="rgb(125,0,0)" fill-opacity="0.501961" />
<polygon points="20,47 94,125 0,89" id="32" fill="rgb(114,137,147)" fill-opacity="0.501961" />
<polygon points="106,144 128,162 118,84" id="33" fill="rgb(237,126,104)" fill-opacity="0.501961" />
<polygon points="0,67 25,146 0,191" id="34" fill="rgb(188,189,204)" fill-opacity="0.501961" />
<polygon points="83,20 63,33 103,-27" id="35" fill="rgb(36,41,35)" fill-opacity="0.501961" />
<polygon points="176,159 131,185 192,188" id="36" fill="rgb(20,23,17)" fill-opacity="0.501961" />
<polygon points="107,150 55,72 91,153" id="37" fill="rgb(89,97,102)" fill-opacity="0.501961" />
<polygon points="39,77 114,91 119,41" id="38" fill="rgb(137,97,97)" fill-opacity="0.501961" />
<polygon points="95,177 75,188 118,198" id="39" fill="rgb(195,46,19)" fill-opacity="0.501961" />
<polygon points="181,185 179,200 116,199" id="40" fill="rgb(159,64,41)" fill-opacity="0.501961" />
<polygon points="45,256 161,218 86,228" id="41" fill="rgb(83,18,0)" fill-opacity="0.501961" />
<polygon points="109,42 69,0 86,65" id="42" fill="rgb(73,63,57)" fill-opacity="0.501961" />
<polygon points="86,26 95,0 127,23" id="43" fill="rgb(241,157,141)" fill-opacity="0.501961" />
<polygon points="60,48 47,89 40,48" id="44" fill="rgb(234,179,182)" fill-opacity="0.501961" />
<polygon points="15,197 56,132 63,153" id="45" fill="rgb(229,86,48)" fill-opacity="0.501961" />
<polygon points="76,229 78,202 45,213" id="46" fill="rgb(252,185,150)" fill-opacity="0.501961" />
<polygon points="145,10 178,0 129,0" id="47" fill="rgb(141,23,0)" fill-opacity="0.501961" />
<polygon points="33,0 22,-5 31,26" id="48" fill="rgb(248,160,143)" fill-opacity="0.501961" />
<polygon points="7,226 19,193 6,200" id="49" fill="rgb(212,83,41)" fill-opacity="0.501961" />
<polygon points="50,250 7,253 58,229" id="50" fill="rgb(244,133,84)" fill-opacity="0.501961" />
<polygon points="22,175 24,212 1,177" id="51" fill="rgb(248,205,184)" fill-opacity="0.501961" />
<polygon points="5,0 0,53 0,0" id="52" fill="rgb(233,149,132)" fill-opacity="0.501961" />
<polygon points="113,0 169,40 115,44" id="53" fill="rgb(192,97,74)" fill-opacity="0.501961" />
<polygon points="12,85 58,130 21,155" id="54" fill="rgb(140,156,168)" fill-opacity="0.501961" />
<polygon points="13,2 4,39 28,10" id="55" fill="rgb(91,53,38)" fill-opacity="0.501961" />
<polygon points="168,37 146,157 192,162" id="56" fill="rgb(212,89,60)" fill-opacity="0.501961" />
<polygon points="63,214 63,135 32,189" id="57" fill="rgb(183,42,17)" fill-opacity="0.501961" />
<polygon points="65,97 64,7 89,113" id="58" fill="rgb(168,105,102)" fill-opacity="0.501961" />
<polygon points="171,151 189,174 157,169" id="59" fill="rgb(107,46,35)" fill-opacity="0.501961" />
<polygon points="11,35 19,40 0,59" id="60" fill="rgb(255,189,184)" fill-opacity="0.501961" />
<polygon points="0,171 57,137 24,180" id="61" fill="rgb(249,177,160)" fill-opacity="0.501961" />
<polygon points="108,172 69,179 63,138" id="62" fill="rgb(88,25,7)" fill-opacity="0.501961" />
<polygon points="40,135 83,133 75,125" id="63" fill="rgb(228,154,151)" fill-opacity="0.501961" />
<polygon points="165,232 137,218 136,173" id="64" fill="rgb(54,29,19)" fill-opacity="0.501961" />
<polygon points="60,73 73,119 33,144" id="65" fill="rgb(99,129,137)" fill-opacity="0.501961" />
<polygon points="48,52 25,83 59,61" id="66" fill="rgb(229,174,178)" fill-opacity="0.501961" />
<polygon points="192,141 154,169 155,148" id="67" fill="rgb(232,132,111)" fill-opacity="0.501961" />
<polygon points="59,214 78,180 14,234" id="68" fill="rgb(230,90,46)" fill-opacity="0.501961" />
<polygon points="37,99 30,114 55,127" id="69" fill="rgb(192,144,152)" fill-opacity="0.501961" />
<polygon points="44,16 51,0 90,54" id="70" fill="rgb(120,72,60)" fill-opacity="0.501961" />
<polygon points="13,207 0,199 11,186" id="71" fill="rgb(192,66,34)" fill-opacity="0.501961" />
<polygon points="86,228 34,256 65,256" id="72" fill="rgb(164,38,10)" fill-opacity="0.501961" />
<polygon points="60,196 74,186 67,180" id="73" fill="rgb(255,190,151)" fill-opacity="0.501961" />
<polygon points="121,223 148,202 127,193" id="74" fill="rgb(181,62,39)" fill-opacity="0.501961" />
<polygon points="0,56 51,25 27,48" id="75" fill="rgb(91,64,57)" fill-opacity="0.501961" />
<polygon points="118,56 136,44 116,40" id="76" fill="rgb(56,43,38)" fill-opacity="0.501961" />
<polygon points="186,208 92,256 192,256" id="77" fill="rgb(0,1,0)" fill-opacity="0.501961" />
<polygon points="158,95 141,53 116,75" id="78" fill="rgb(243,150,123)" fill-opacity="0.501961" />
<polygon points="142,98 148,93 136,88" id="79" fill="rgb(41,39,37)" fill-opacity="0.501961" />
<polygon points="32,53 71,9 65,37" id="80" fill="rgb(202,136,128)" fill-opacity="0.501961" />
<polygon points="184,168 184,135 192,169" id="81" fill="rgb(239,123,93)" fill-opacity="0.501961" />
<polygon points="34,206 24,226 25,194" id="82" fill="rgb(255,182,132)" fill-opacity="0.501961" />
<polygon points="27,0 16,0 31,10" id="83" fill="rgb(251,183,172)" fill-opacity="0.501961" />
<polygon points="134,158 173,183 114,197" id="84" fill="rgb(22,35,30)" fill-opacity="0.501961" />
<polygon points="98,58 121,54 106,48" id="85" fill="rgb(224,143,139)" fill-opacity="0.501961" />
<polygon points="91,131 100,79 85,78" id="86" fill="rgb(221,140,139)" fill-opacity="0.501961" />
<polygon points="101,52 117,32 87,36" id="87" fill="rgb(47,53,49)" fill-opacity="0.501961" />
<polygon points="172,196 155,187 142,196" id="88" fill="rgb(168,68,46)" fill-opacity="0.501961" />
<polygon points="192,213 91,235 62,256" id="89" fill="rgb(33,18,7)" fill-opacity="0.501961" />
<polygon points="84,73 81,0 106,68" id="90" fill="rgb(92,75,69)" fill-opacity="0.501961" />
<polygon points="90,214 89,188 127,198" id="91" fill="rgb(219,94,70)" fill-opacity="0.501961" />
<polygon points="82,51 61,15 32,1" id="92" fill="rgb(141,77,62)" fill-opacity="0.501961" />
<polygon points="93,150 88,180 119,146" id="93" fill="rgb(109,47,34)" fill-opacity="0.501961" />
<polygon points="167,7 178,43 204,20" id="94" fill="rgb(232,123,78)" fill-opacity="0.501961" />
<polygon points="32,0 21,30 46,28" id="95" fill="rgb(183,100,82)" fill-opacity="0.501961" />
<polygon points="105,99 101,134 144,67" id="96" fill="rgb(234,146,127)" fill-opacity="0.501961" />
<polygon points="27,244 45,238 32,201" id="97" fill="rgb(222,72,27)" fill-opacity="0.501961" />
<polygon points="133,145 160,143 141,159" id="98" fill="rgb(165,67,52)" fill-opacity="0.501961" />
<polygon points="144,144 108,108 116,141" id="99" fill="rgb(237,138,113)" fill-opacity="0.501961" />
<polygon points="55,7 69,0 83,4" id="100" fill="rgb(236,157,145)" fill-opacity="0.501961" />
<polygon points="192,17 192,0 159,2" id="101" fill="rgb(218,67,25)" fill-opacity="0.501961" />
<polygon points="149,130 144,110 164,97" id="102" fill="rgb(160,60,40)" fill-opacity="0.501961" />
<polygon points="129,21 156,18 155,0" id="103" fill="rgb(159,48,17)" fill-opacity="0.501961" />
<polygon points="114,41 104,55 113,51" id="104" fill="rgb(243,159,154)" fill-opacity="0.501961" />
<polygon points="100,71 119,89 118,52" id="105" fill="rgb(119,78,75)" fill-opacity="0.501961" />
<polygon points="59,218 74,193 72,225" id="106" fill="rgb(245,195,170)" fill-opacity="0.501961" />
<polygon points="166,129 192,142 192,125" id="107" fill="rgb(175,53,31)" fill-opacity="0.501961" />
<polygon points="30,75 0,138 0,53" id="108" fill="rgb(165,163,170)" fill-opacity="0.501961" />
<polygon points="120,25 97,0 122,0" id="109" fill="rgb(239,134,104)" fill-opacity="0.501961" />
<polygon points="26,230 30,252 0,237" id="110" fill="rgb(250,167,127)" fill-opacity="0.501961" />
<polygon points="148,38 122,33 147,49" id="111" fill="rgb(117,59,47)" fill-opacity="0.501961" />
<polygon points="139,46 115,35 97,10" id="112" fill="rgb(192,100,82)" fill-opacity="0.501961" />
<polygon points="63,207 49,202 58,180" id="113" fill="rgb(168,26,9)" fill-opacity="0.501961" />
<polygon points="88,213 75,224 74,190" id="114" fill="rgb(245,156,121)" fill-opacity="0.501961" />
<polygon points="21,164 14,185 14,167" id="115" fill="rgb(208,111,89)" fill-opacity="0.501961" />
<polygon points="153,108 120,79 119,123" id="116" fill="rgb(200,102,83)" fill-opacity="0.501961" />
<polygon points="38,57 75,107 13,52" id="117" fill="rgb(155,132,138)" fill-opacity="0.501961" />
<polygon points="24,256 0,256 -9,246" id="118" fill="rgb(147,23,0)" fill-opacity="0.501961" />
<polygon points="120,169 95,134 135,168" id="119" fill="rgb(78,72,68)" fill-opacity="0.501961" />
<polygon points="181,199 156,200 122,235" id="120" fill="rgb(61,24,11)" fill-opacity="0.501961" />
<polygon points="128,231 147,204 79,228" id="121" fill="rgb(146,39,16)" fill-opacity="0.501961" />
<polygon points="52,203 40,212 56,234" id="122" fill="rgb(239,135,88)" fill-opacity="0.501961" />
<polygon points="61,139 89,137 75,126" id="123" fill="rgb(184,111,104)" fill-opacity="0.501961" />
<polygon points="8,205 0,200 0,226" id="124" fill="rgb(255,205,174)" fill-opacity="0.501961" />
<polygon points="16,0 28,36 0,36" id="125" fill="rgb(111,66,53)" fill-opacity="0.501961" />
<polygon points="76,55 52,48 86,36" id="126" fill="rgb(164,90,77)" fill-opacity="0.501961" />
<polygon points="103,164 71,177 96,178" id="127" fill="rgb(75,23,8)" fill-opacity="0.501961" />
<polygon points="36,234 18,224 31,241" id="128" fill="rgb(223,76,26)" fill-opacity="0.501961" />
<polygon points="0,240 23,190 27,203" id="129" fill="rgb(248,201,171)" fill-opacity="0.501961" />
<polygon points="181,63 192,106 192,38" id="130" fill="rgb(182,33,8)" fill-opacity="0.501961" />
<polygon points="9,52 0,53 0,48" id="131" fill="rgb(175,82,65)" fill-opacity="0.501961" />
<polygon points="25,190 40,206 59,133" id="132" fill="rgb(207,66,36)" fill-opacity="0.501961" />
<polygon points="59,89 73,81 90,119" id="133" fill="rgb(155,120,127)" fill-opacity="0.501961" />
<polygon points="0,115 19,131 15,91" id="134" fill="rgb(205,163,169)" fill-opacity="0.501961" />
<polygon points="147,127 146,142 191,140" id="135" fill="rgb(191,72,48)" fill-opacity="0.501961" />
<polygon points="151,61 141,34 192,21" id="136" fill="rgb(213,120,93)" fill-opacity="0.501961" />
<polygon points="39,80 53,119 3,82" id="137" fill="rgb(113,145,154)" fill-opacity="0.501961" />
<polygon points="140,28 139,0 105,0" id="138" fill="rgb(197,84,52)" fill-opacity="0.501961" />
<polygon points="126,54 137,76 114,76" id="139" fill="rgb(232,157,146)" fill-opacity="0.501961" />
<polygon points="149,65 192,42 192,25" id="140" fill="rgb(215,89,50)" fill-opacity="0.501961" />
<polygon points="137,42 169,91 147,92" id="141" fill="rgb(238,127,90)" fill-opacity="0.501961" />
<polygon points="147,159 168,136 159,173" id="142" fill="rgb(223,119,101)" fill-opacity="0.501961" />
<polygon points="104,165 89,139 57,138" id="143" fill="rgb(114,54,38)" fill-opacity="0.501961" />
<polygon points="138,197 129,222 91,208" id="144" fill="rgb(184,64,41)" fill-opacity="0.501961" />
<polygon points="157,37 156,9 192,8" id="145" fill="rgb(201,91,54)" fill-opacity="0.501961" />
<polygon points="0,186 5,154 20,199" id="146" fill="rgb(241,188,184)" fill-opacity="0.501961" />
<polygon points="51,25 45,29 76,90" id="147" fill="rgb(193,122,116)" fill-opacity="0.501961" />
<polygon points="60,57 58,68 46,60" id="148" fill="rgb(255,197,195)" fill-opacity="0.501961" />
<polygon points="58,225 83,230 46,244" id="149" fill="rgb(210,84,51)" fill-opacity="0.501961" />
<polygon points="56,123 20,148 7,135" id="150" fill="rgb(133,158,166)" fill-opacity="0.501961" />
<polygon points="120,146 114,153 125,155" id="151" fill="rgb(213,97,81)" fill-opacity="0.501961" />
<polygon points="104,135 106,110 91,129" id="152" fill="rgb(254,174,156)" fill-opacity="0.501961" />
<polygon points="99,29 92,10 108,29" id="153" fill="rgb(227,154,147)" fill-opacity="0.501961" />
<polygon points="147,197 150,160 107,192" id="154" fill="rgb(39,36,30)" fill-opacity="0.501961" />
<polygon points="169,156 168,177 159,176" id="155" fill="rgb(55,39,33)" fill-opacity="0.501961" />
<polygon points="15,33 0,43 0,33" id="156" fill="rgb(149,80,65)" fill-opacity="0.501961" />
<polygon points="52,0 70,1 96,-23" id="157" fill="rgb(255,197,184)" fill-opacity="0.501961" />
<polygon points="55,0 35,26 60,18" id="158" fill="rgb(119,70,57)" fill-opacity="0.501961" />
<polygon points="83,131 95,144 78,101" id="159" fill="rgb(83,108,114)" fill-opacity="0.501961" />
<polygon points="101,99 98,74 120,89" id="160" fill="rgb(159,105,107)" fill-opacity="0.501961" />
<polygon points="44,92 43,62 58,91" id="161" fill="rgb(174,163,170)" fill-opacity="0.501961" />
<polygon points="119,41 120,37 80,65" id="162" fill="rgb(128,81,75)" fill-opacity="0.501961" />
<polygon points="108,57 72,60 120,83" id="163" fill="rgb(108,86,82)" fill-opacity="0.501961" />
<polygon points="31,66 6,61 39,41" id="164" fill="rgb(151,132,136)" fill-opacity="0.501961" />
<polygon points="8,114 0,127 0,170" id="165" fill="rgb(154,181,190)" fill-opacity="0.501961" />
<polygon points="52,210 22,228 41,241" id="166" fill="rgb(211,65,29)" fill-opacity="0.501961" />
<polygon points="23,175 44,149 28,146" id="167" fill="rgb(249,192,181)" fill-opacity="0.501961" />
<polygon points="26,12 23,51 18,8" id="168" fill="rgb(78,57,46)" fill-opacity="0.501961" />
<polygon points="22,33 25,44 46,33" id="169" fill="rgb(63,56,49)" fill-opacity="0.501961" />
<polygon points="74,118 47,93 60,80" id="170" fill="rgb(108,123,129)" fill-opacity="0.501961" />
<polygon points="141,201 187,194 180,186" id="171" fill="rgb(153,53,30)" fill-opacity="0.501961" />
<polygon points="56,66 42,75 64,70" id="172" fill="rgb(130,122,132)" fill-opacity="0.501961" />
<polygon points="76,85 79,93 91,62" id="173" fill="rgb(108,97,99)" fill-opacity="0.501961" />
<polygon points="51,173 71,148 58,137" id="174" fill="rgb(159,45,20)" fill-opacity="0.501961" />
<polygon points="156,120 192,113 165,141" id="175" fill="rgb(220,102,70)" fill-opacity="0.501961" />
<polygon points="159,102 186,135 192,107" id="176" fill="rgb(200,64,38)" fill-opacity="0.501961" />
<polygon points="148,210 159,187 143,189" id="177" fill="rgb(124,48,31)" fill-opacity="0.501961" />
<polygon points="106,148 105,136 81,137" id="178" fill="rgb(67,99,106)" fill-opacity="0.501961" />
<polygon points="0,179 37,161 53,132" id="179" fill="rgb(242,178,166)" fill-opacity="0.501961" />
<polygon points="70,32 72,0 106,49" id="180" fill="rgb(97,67,59)" fill-opacity="0.501961" />
<polygon points="75,95 63,60 72,52" id="181" fill="rgb(192,116,109)" fill-opacity="0.501961" />
<polygon points="95,33 85,57 114,32" id="182" fill="rgb(54,58,53)" fill-opacity="0.501961" />
<polygon points="118,178 155,178 132,150" id="183" fill="rgb(37,49,44)" fill-opacity="0.501961" />
<polygon points="5,21 36,-20 7,0" id="184" fill="rgb(158,76,53)" fill-opacity="0.501961" />
<polygon points="28,209 0,222 31,218" id="185" fill="rgb(244,147,101)" fill-opacity="0.501961" />
<polygon points="48,7 36,20 37,-18" id="186" fill="rgb(173,75,49)" fill-opacity="0.501961" />
<polygon points="0,14 0,13 0,27" id="187" fill="rgb(250,197,192)" fill-opacity="0.501961" />
<polygon points="0,241 53,247 2,247" id="188" fill="rgb(241,143,103)" fill-opacity="0.501961" />
<polygon points="102,160 96,179 119,198" id="189" fill="rgb(92,34,20)" fill-opacity="0.501961" />
<polygon points="10,188 9,213 12,210" id="190" fill="rgb(194,54,21)" fill-opacity="0.501961" />
<polygon points="16,187 -12,206 11,183" id="191" fill="rgb(229,139,113)" fill-opacity="0.501961" />
<polygon points="85,194 78,226 113,195" id="192" fill="rgb(236,128,96)" fill-opacity="0.501961" />
<polygon points="0,245 0,249 21,256" id="193" fill="rgb(215,66,26)" fill-opacity="0.501961" />
<polygon points="71,25 83,53 62,55" id="194" fill="rgb(170,95,82)" fill-opacity="0.501961" />
<polygon points="94,0 122,20 88,18" id="195" fill="rgb(235,159,142)" fill-opacity="0.501961" />
<polygon points="165,192 137,174 183,170" id="196" fill="rgb(24,28,23)" fill-opacity="0.501961" />
<polygon points="58,216 80,181 71,181" id="197" fill="rgb(220,69,34)" fill-opacity="0.501961" />
<polygon points="95,0 67,-17 88,4" id="198" fill="rgb(26,31,22)" fill-opacity="0.501961" />
<polygon points="156,24 164,39 84,23" id="199" fill="rgb(194,105,83)" fill-opacity="0.501961" />
<polygon points="138,227 111,223 97,240" id="200" fill="rgb(69,27,13)" fill-opacity="0.501961" />
<polygon points="116,40 110,30 93,51" id="201" fill="rgb(53,54,48)" fill-opacity="0.501961" />
<polygon points="27,32 36,4 22,28" id="202" fill="rgb(196,120,106)" fill-opacity="0.501961" />
<polygon points="66,81 56,95 54,70" id="203" fill="rgb(99,116,120)" fill-opacity="0.501961" />
<polygon points="177,158 188,181 165,166" id="204" fill="rgb(85,41,31)" fill-opacity="0.501961" />
<polygon points="96,127 74,117 77,106" id="205" fill="rgb(97,99,101)" fill-opacity="0.501961" />
<polygon points="57,113 36,140 79,119" id="206" fill="rgb(97,134,143)" fill-opacity="0.501961" />
<polygon points="119,57 137,88 134,51" id="207" fill="rgb(240,156,135)" fill-opacity="0.501961" />
<polygon points="5,43 0,59 12,40" id="208" fill="rgb(255,193,187)" fill-opacity="0.501961" />
<polygon points="3,171 22,150 4,143" id="209" fill="rgb(224,192,198)" fill-opacity="0.501961" />
<polygon points="176,156 209,188 192,144" id="210" fill="rgb(220,109,82)" fill-opacity="0.501961" />
<polygon points="143,3 163,4 172,-24" id="211" fill="rgb(129,31,8)" fill-opacity="0.501961" />
<polygon points="192,203 192,188 164,205" id="212" fill="rgb(64,28,16)" fill-opacity="0.501961" />
<polygon points="122,85 120,98 97,106" id="213" fill="rgb(237,154,144)" fill-opacity="0.501961" />
<polygon points="84,4 81,6 77,0" id="214" fill="rgb(217,121,104)" fill-opacity="0.501961" />
<polygon points="54,57 51,65 33,42" id="215" fill="rgb(233,169,166)" fill-opacity="0.501961" />
<polygon points="40,141 17,87 20,152" id="216" fill="rgb(141,158,166)" fill-opacity="0.501961" />
<polygon points="69,29 46,-2 53,0" id="217" fill="rgb(111,62,48)" fill-opacity="0.501961" />
<polygon points="0,58 0,54 8,58" id="218" fill="rgb(255,203,200)" fill-opacity="0.501961" />
<polygon points="104,190 86,179 68,188" id="219" fill="rgb(187,47,22)" fill-opacity="0.501961" />
<polygon points="129,10 149,0 159,17" id="220" fill="rgb(164,52,23)" fill-opacity="0.501961" />
<polygon points="102,223 35,256 103,212" id="221" fill="rgb(184,52,28)" fill-opacity="0.501961" />
<polygon points="62,221 45,232 56,212" id="222" fill="rgb(244,158,119)" fill-opacity="0.501961" />
<polygon points="52,62 42,65 34,78" id="223" fill="rgb(226,176,182)" fill-opacity="0.501961" />
<polygon points="54,256 54,275 83,237" id="224" fill="rgb(101,30,10)" fill-opacity="0.501961" />
<polygon points="107,136 94,148 97,137" id="225" fill="rgb(61,90,95)" fill-opacity="0.501961" />
<polygon points="48,137 44,162 55,136" id="226" fill="rgb(230,116,86)" fill-opacity="0.501961" />
<polygon points="61,118 82,122 87,104" id="227" fill="rgb(98,107,109)" fill-opacity="0.501961" />
<polygon points="114,42 89,52 68,78" id="228" fill="rgb(107,82,79)" fill-opacity="0.501961" />
<polygon points="154,164 165,147 145,158" id="229" fill="rgb(225,124,105)" fill-opacity="0.501961" />
<polygon points="8,25 34,41 26,53" id="230" fill="rgb(96,71,62)" fill-opacity="0.501961" />
<polygon points="64,181 79,181 78,179" id="231" fill="rgb(241,123,89)" fill-opacity="0.501961" />
<polygon points="77,173 67,168 56,189" id="232" fill="rgb(128,24,5)" fill-opacity="0.501961" />
<polygon points="112,194 113,211 144,199" id="233" fill="rgb(182,76,52)" fill-opacity="0.501961" />
<polygon points="143,163 123,168 133,148" id="234" fill="rgb(50,63,60)" fill-opacity="0.501961" />
<polygon points="169,44 154,54 167,145" id="235" fill="rgb(220,100,63)" fill-opacity="0.501961" />
<polygon points="0,44 19,45 11,48" id="236" fill="rgb(255,193,189)" fill-opacity="0.501961" />
<polygon points="169,104 136,93 156,106" id="237" fill="rgb(167,71,51)" fill-opacity="0.501961" />
<polygon points="58,199 37,214 33,177" id="238" fill="rgb(196,50,22)" fill-opacity="0.501961" />
<polygon points="22,250 48,250 25,256" id="239" fill="rgb(215,80,42)" fill-opacity="0.501961" />
<polygon points="61,67 76,58 78,105" id="240" fill="rgb(183,118,116)" fill-opacity="0.501961" />
<polygon points="85,188 63,208 65,214" id="241" fill="rgb(245,184,156)" fill-opacity="0.501961" />
<polygon points="153,216 189,204 192,232" id="242" fill="rgb(7,15,9)" fill-opacity="0.501961" />
<polygon points="22,241 16,249 27,197" id="243" fill="rgb(246,182,146)" fill-opacity="0.501961" />
<polygon points="26,153 16,163 0,167" id="244" fill="rgb(170,168,180)" fill-opacity="0.501961" />
<polygon points="176,187 177,161 173,166" id="245" fill="rgb(22,29,25)" fill-opacity="0.501961" />
<polygon points="18,176 41,157 11,179" id="246" fill="rgb(221,130,100)" fill-opacity="0.501961" />
<polygon points="125,153 138,150 131,147" id="247" fill="rgb(58,57,55)" fill-opacity="0.501961" />
<polygon points="182,15 161,47 192,25" id="248" fill="rgb(231,131,95)" fill-opacity="0.501961" />
<polygon points="42,60 22,50 36,72" id="249" fill="rgb(161,119,121)" fill-opacity="0.501961" />
</svg>