<svg height="196.52mm" viewBox="0 0 196.52 196.52" width="196.52mm" xmlns="http://www.w3.org/2000/svg"><g transform="scale(.26458333)"><path d="m181.13086 275.13672a68.892408 68.892408 0 0 1 -29.46484 29.32812l161.75781 162.38868 38.99805-19.76368zm213.36328 214.1875-38.99805 19.76367 81.96289 82.2832a68.892409 68.892409 0 0 1 29.47071-29.33203z" fill="#a730b8"/><path d="m581.64648 339.39062-91.57617 46.41016 6.75196 43.18945 103.61523-52.51367a68.892409 68.892409 0 0 1 -18.79102-37.08594zm-144.73828 73.35157-216.52539 109.73437a68.892408 68.892408 0 0 1 18.79492 37.08985l204.48243-103.63282z" fill="#5496be"/><path d="m367.27539 142.4375-104.48047 203.9707 30.84766 30.9668 110.62304-215.95703a68.892408 68.892408 0 0 1 -36.99023-18.98047zm-131.6543 257.02148-52.92187 103.31446a68.892409 68.892409 0 0 1 36.98633 18.97851l46.78125-91.32812z" fill="#ce3d1a"/><path d="m150.76758 304.91797a68.892408 68.892408 0 0 1 -34.41602 7.19531 68.892408 68.892408 0 0 1 -6.65039-.69531l30.90235 197.66211a68.892409 68.892409 0 0 1 34.41601-7.19531 68.892409 68.892409 0 0 1 6.64649.69531z" fill="#d0188f"/><path d="m239.3418 560.54492a68.892408 68.892408 0 0 1 .7207 13.87696 68.892408 68.892408 0 0 1 -7.26758 27.17968l197.62891 31.71289a68.892409 68.892409 0 0 1 -.72266-13.8789 68.892409 68.892409 0 0 1 7.26953-27.17774z" fill="#5b36e9"/><path d="m601.13281 377.19922-91.21875 178.08203a68.892408 68.892408 0 0 1 36.99414 18.98242l91.2168-178.08008a68.892409 68.892409 0 0 1 -36.99219-18.98437z" fill="#30b873"/><path d="m476.72266 125.33008a68.892408 68.892408 0 0 1 -29.47071 29.33203l141.26563 141.81055a68.892409 68.892409 0 0 1 29.46875-29.33204z" fill="#ebe305"/><path d="m347.78711 104.63086-178.57617 90.49805a68.892409 68.892409 0 0 1 18.79297 37.08593l178.57421-90.50195a68.892408 68.892408 0 0 1 -18.79101-37.08203z" fill="#f47601"/><path d="m446.92578 154.82617a68.892408 68.892408 0 0 1 -34.98242 7.48242 68.892408 68.892408 0 0 1 -6.0293-.63281l15.81836 101.29102 43.16211 6.92578zm-16 167.02735 37.40039 239.48242a68.892409 68.892409 0 0 1 33.91406-6.94336 68.892409 68.892409 0 0 1 7.20704.79101l-35.35743-226.40625z" fill="#57c115"/><path d="m188.13086 232.97461a68.892408 68.892408 0 0 1 .75781 14.0957 68.892408 68.892408 0 0 1 -7.16015 26.98242l101.36914 16.28125 19.92382-38.9082zm173.73633 27.90039-19.92578 38.91211 239.51367 38.4668a68.892409 68.892409 0 0 1 -.69531-13.71875 68.892409 68.892409 0 0 1 7.34961-27.32422z" fill="#dbb210"/></g><g fill-opacity=".995968" transform="matrix(.99851981 .05438933 -.05438933 .99851981 6.67897 -32.495842)"><circle cx="106.26596" cy="51.535553" fill="#ffca00" r="16.570711"/><circle cx="171.42836" cy="110.19328" fill="#64ff00" r="16.570711"/><circle cx="135.76379" cy="190.27704" fill="#00a3ff" r="16.570711"/><circle cx="48.559471" cy="181.1138" fill="#9500ff" r="16.570711"/><circle cx="30.328812" cy="95.366837" fill="#f00" r="16.570711"/></g></svg>