<svg enable-background="new 0 0 145 145" height="145" viewBox="0 0 145 145" width="145" xmlns="http://www.w3.org/2000/svg" xmlns:xlink="http://www.w3.org/1999/xlink"><clipPath id="a"><path d="m-2.518 35.699h150.518v71.534h-150.518z"/></clipPath><path d="m48.113 45.892 18.257 38.993 5.76-12.302-12.446-26.691z" fill="#ff5c00"/><path d="m100.369 45.892h-15.742-20.724l11.999 25.733 6.209 13.26z" fill="#ff5c00"/><path d="m7.675 45.892h36.419v10.194h-36.419z" fill="#f00"/><path d="m7.675 59.804h36.419v22.183h-36.419z" fill="#f00"/><path clip-path="url(#a)" d="m137.513 65.959c-.942 10.018-9.374 17.858-19.635 17.858-10.892 0-19.72-8.834-19.72-19.73 0-10.897 8.828-19.731 19.72-19.731 10.233 0 18.647 7.799 19.627 17.78h-19.618c-1.056 0-1.912.855-1.912 1.912 0 1.055.856 1.912 1.912 1.912h19.626z" fill="#ffb100"/><g fill="#666"><path clip-path="url(#a)" d="m7.817 89.555h1.315v7.483h-1.315z"/><path clip-path="url(#a)" d="m15.728 89.491 4.725 4.629v-4.565h1.315v7.516l-.075.033-4.725-4.598v4.532h-1.315v-7.515z"/><path clip-path="url(#a)" d="m27.433 97.038v-7.483h2.619c2.854 0 3.699 2.171 3.699 3.73 0 1.604-.845 3.753-3.699 3.753zm2.618-1.176c2.063 0 2.373-1.914 2.373-2.577 0-.651-.31-2.564-2.373-2.564h-1.326v5.142h1.326z"/><path clip-path="url(#a)" d="m39.414 89.555h1.315v7.483h-1.315z"/><path clip-path="url(#a)" d="m48.34 93.938v1.924h3.7v1.176h-5.003v-7.483h5.003v1.176h-3.7v2.032h2.897v1.175z"/></g><path clip-path="url(#a)" d="m62.962 92.452-2.061 4.652h-.097l-3.422-7.549h1.454l2.021 4.757 2.053-4.896h.107l2.063 4.896 2.02-4.757h1.455l-3.422 7.549h-.096z" fill="#444"/><path clip-path="url(#a)" d="m74.347 93.938v1.924h3.698v1.176h-5.003v-7.483h5.003v1.176h-3.698v2.032h2.897v1.175z" fill="#444"/><path clip-path="url(#a)" d="m88.66 93.285c.608.257.919.995.919 1.583 0 .898-.62 2.17-2.64 2.17h-2.801v-7.483h2.801c2.02 0 2.64 1.272 2.64 2.181 0 .609-.311 1.293-.919 1.549m-1.572-.533c.982-.032 1.155-.716 1.155-1.017 0-.245-.173-1.015-1.197-1.015h-1.615v2.031h1.657zm-.042 3.11c1.024 0 1.197-.748 1.197-.994 0-.342-.173-.898-1.155-.93h-1.657v1.924z" fill="#444"/><path clip-path="url(#a)" d="m100.921 91.586c-.396-.492-1.198-.94-1.968-.94-2.085 0-2.384 1.988-2.384 2.64 0 .653.299 2.642 2.384 2.642.79 0 1.581-.471 2.062-.93l.76.95c-.729.729-1.615 1.188-2.822 1.188-2.866 0-3.709-2.245-3.709-3.85 0-1.56.854-3.838 3.709-3.838 1.293 0 2.138.515 2.844 1.305z" fill="#666"/><path clip-path="url(#a)" d="m112.581 97.038h-1.452l-.791-1.914h-2.449l-.791 1.914h-1.454l3.421-7.547h.098zm-4.244-3.003h1.55l-.77-1.872z" fill="#666"/><path clip-path="url(#a)" d="m120.685 97.135-2.171-4.426-1.432 4.329h-1.4l2.651-7.579h.095l2.31 5.099 2.308-5.099h.097l2.65 7.579h-1.399l-1.433-4.329-2.169 4.426z" fill="#666"/><path clip-path="url(#a)" d="m131.811 97.038h-1.314v-7.483h2.822c2.021 0 2.64 1.411 2.64 2.385 0 1.453-1.282 2.416-2.49 2.416h-1.657v2.682zm1.603-3.88c.995-.033 1.231-.823 1.231-1.219 0-.418-.226-1.219-1.273-1.219h-1.561v2.438z" fill="#666"/></svg>