<svg width="960" height="541" viewBox="0 0 960 541" fill="none" xmlns="http://www.w3.org/2000/svg">
<g clip-path="url(#clip0_9562_295)">
<rect width="960" height="540" transform="translate(0 0.35791)" fill="url(#paint0_linear_9562_295)"/>
<path d="M1741.98 356.358L653.435 356.358" stroke="white" stroke-width="3"/>
<path d="M1741.98 336.515L653.435 336.515" stroke="white" stroke-width="3"/>
<path d="M1741.98 316.671L653.435 316.671" stroke="white" stroke-width="3"/>
<path d="M1741.98 296.828L653.434 296.828" stroke="white" stroke-width="3"/>
<path d="M1741.98 276.985L653.435 276.985" stroke="white" stroke-width="3"/>
<path d="M1741.98 257.141L653.435 257.141" stroke="white" stroke-width="3"/>
<path d="M1741.98 237.298L653.435 237.298" stroke="white" stroke-width="3"/>
<path d="M1741.98 217.455L653.435 217.455" stroke="white" stroke-width="3"/>
<path d="M1741.98 197.612L653.435 197.612" stroke="white" stroke-width="3"/>
<path d="M1741.98 177.768L653.434 177.768" stroke="white" stroke-width="3"/>
<path d="M1741.98 157.925L653.435 157.925" stroke="white" stroke-width="3"/>
<path d="M1741.98 138.082L653.435 138.082" stroke="white" stroke-width="3"/>
<path d="M1741.98 118.239L653.435 118.238" stroke="white" stroke-width="3"/>
<path d="M1741.98 98.3953L653.435 98.3952" stroke="white" stroke-width="3"/>
<path d="M1741.98 78.552L653.435 78.5519" stroke="white" stroke-width="3"/>
<path d="M1741.98 58.7087L653.435 58.7086" stroke="white" stroke-width="3"/>
<path d="M1741.98 38.8657L653.435 38.8656" stroke="white" stroke-width="3"/>
<path d="M1741.98 19.0225L653.435 19.0224" stroke="white" stroke-width="3"/>
<path d="M1741.98 -0.820923L653.435 -0.821018" stroke="white" stroke-width="3"/>
<path d="M754.489 441.791H747.722V420.274H766.283V425.511H754.489V429.772H764.138V434.694H754.489V441.791Z" fill="black"/>
<path d="M778.881 426.126L780.111 426.216V433.028C779.371 432.618 778.346 432.413 777.035 432.413C775.815 432.413 774.895 432.698 774.274 433.269C773.664 433.839 773.359 434.629 773.359 435.639V441.791H767.207V426.426H773.359V429.187H773.659C773.729 428.947 773.949 428.587 774.319 428.107C774.559 427.777 774.87 427.472 775.25 427.191C775.65 426.901 776.17 426.651 776.81 426.441C777.46 426.231 778.151 426.126 778.881 426.126Z" fill="black"/>
<path d="M783.541 440.066C781.87 438.715 781.035 436.73 781.035 434.109C781.035 431.488 781.87 429.502 783.541 428.152C785.201 426.801 787.442 426.126 790.263 426.126C793.074 426.126 795.31 426.801 796.97 428.152C798.641 429.502 799.476 431.488 799.476 434.109C799.476 436.73 798.641 438.715 796.97 440.066C795.31 441.416 793.074 442.091 790.263 442.091C787.442 442.091 785.201 441.416 783.541 440.066ZM792.469 436.209C792.979 435.689 793.234 434.989 793.234 434.109C793.234 433.228 792.979 432.523 792.469 431.993C791.959 431.473 791.223 431.213 790.263 431.213C789.293 431.213 788.553 431.473 788.042 431.993C787.532 432.523 787.277 433.228 787.277 434.109C787.277 434.989 787.532 435.689 788.042 436.209C788.553 436.74 789.293 437.005 790.263 437.005C791.223 437.005 791.959 436.74 792.469 436.209Z" fill="black"/>
<path d="M819.891 441.791H813.754V434.379C813.754 433.509 813.494 432.813 812.974 432.293C812.454 431.763 811.739 431.498 810.828 431.498C809.898 431.498 809.178 431.758 808.668 432.278C808.167 432.788 807.917 433.489 807.917 434.379V441.791H801.765V426.426H807.917V429.187H808.217C808.288 428.947 808.518 428.587 808.908 428.107C809.178 427.777 809.508 427.472 809.898 427.191C810.328 426.901 810.888 426.651 811.579 426.441C812.269 426.231 812.994 426.126 813.754 426.126C815.655 426.126 817.155 426.661 818.256 427.732C819.346 428.812 819.891 430.428 819.891 432.578V441.791Z" fill="black"/>
<path d="M823.516 435.639V431.033H821.58V428.122L826.592 423.35H829.668V426.426H833.839V431.033H829.668V434.814C829.668 435.684 829.883 436.3 830.313 436.66C830.743 437.01 831.409 437.185 832.309 437.185C833.039 437.185 833.569 437.08 833.899 436.87L834.155 436.78V441.581C833.414 441.931 832.479 442.101 831.349 442.091C828.628 442.091 826.642 441.581 825.392 440.561C824.141 439.551 823.516 437.91 823.516 435.639Z" fill="black"/>
<path d="M853.519 434.109L853.429 435.024H841.56C841.58 436.034 841.805 436.775 842.236 437.245C842.676 437.715 843.361 437.95 844.291 437.95C844.801 437.95 845.257 437.84 845.657 437.62C846.057 437.4 846.322 437.16 846.452 436.9L846.632 436.57H853.174C853.174 436.82 853.084 437.18 852.904 437.65C852.564 438.51 852.049 439.265 851.359 439.916C850.879 440.376 850.338 440.756 849.738 441.056C849.148 441.356 848.398 441.601 847.487 441.791C846.507 441.991 845.442 442.091 844.291 442.091C841.49 442.091 839.255 441.421 837.584 440.081C835.914 438.74 835.078 436.75 835.078 434.109C835.078 431.488 835.914 429.502 837.584 428.152C839.245 426.801 841.485 426.126 844.306 426.126C847.117 426.126 849.353 426.801 851.014 428.152C852.684 429.502 853.519 431.488 853.519 434.109ZM844.291 430.117C843.511 430.117 842.891 430.328 842.431 430.748C841.971 431.168 841.74 431.673 841.74 432.263H846.752C846.752 431.703 846.532 431.203 846.092 430.763C845.662 430.333 845.062 430.117 844.291 430.117Z" fill="black"/>
<path d="M873.785 441.791H867.648V434.379C867.648 433.509 867.387 432.813 866.867 432.293C866.347 431.763 865.632 431.498 864.722 431.498C863.791 431.498 863.071 431.758 862.561 432.278C862.061 432.788 861.811 433.489 861.811 434.379V441.791H855.659V426.426H861.811V429.187H862.111C862.181 428.947 862.411 428.587 862.801 428.107C863.071 427.777 863.401 427.472 863.791 427.191C864.221 426.901 864.782 426.651 865.472 426.441C866.162 426.231 866.887 426.126 867.648 426.126C869.548 426.126 871.049 426.661 872.149 427.732C873.239 428.812 873.785 430.428 873.785 432.578V441.791Z" fill="black"/>
<path d="M882.856 442.091C880.885 442.091 879.24 441.401 877.919 440.021C876.599 438.64 875.939 436.67 875.939 434.109C875.939 431.548 876.599 429.577 877.919 428.197C879.24 426.816 880.885 426.126 882.856 426.126C883.936 426.126 884.907 426.276 885.767 426.576C886.617 426.896 887.192 427.206 887.493 427.507L887.958 427.957H888.228V420.274H894.38V441.791H888.228V439.03H887.928C887.768 439.381 887.548 439.736 887.267 440.096C886.957 440.466 886.642 440.771 886.322 441.011C885.932 441.311 885.422 441.566 884.792 441.776C884.171 441.986 883.526 442.091 882.856 442.091ZM883.156 432.203C882.646 432.673 882.391 433.309 882.391 434.109C882.391 434.909 882.641 435.544 883.141 436.014C883.641 436.485 884.366 436.72 885.317 436.72C886.247 436.72 886.962 436.49 887.463 436.029C887.973 435.559 888.228 434.919 888.228 434.109C888.228 433.289 887.973 432.648 887.463 432.188C886.952 431.728 886.237 431.498 885.317 431.498C884.376 431.498 883.656 431.733 883.156 432.203Z" fill="black"/>
<path d="M750.138 466.831C748.117 464.9 747.107 462.184 747.107 458.683C747.107 455.172 748.117 452.451 750.138 450.52C752.159 448.59 754.93 447.624 758.451 447.624C761.752 447.624 764.418 448.445 766.448 450.085C768.469 451.716 769.479 453.867 769.479 456.537H762.472C762.472 456.267 762.377 455.897 762.187 455.427C762.047 455.077 761.842 454.752 761.572 454.452C761.282 454.152 760.862 453.897 760.311 453.686C759.761 453.476 759.141 453.371 758.451 453.371C755.6 453.371 754.174 455.142 754.174 458.683C754.174 462.234 755.6 464.01 758.451 464.01C759.161 464.01 759.786 463.905 760.326 463.695C760.877 463.485 761.292 463.215 761.572 462.885C762.102 462.284 762.392 461.704 762.442 461.144L762.472 460.844H769.479C769.479 463.505 768.469 465.65 766.448 467.281C764.418 468.922 761.752 469.742 758.451 469.742C754.94 469.742 752.169 468.772 750.138 466.831Z" fill="black"/>
<path d="M773.689 467.716C772.019 466.366 771.183 464.38 771.183 461.759C771.183 459.138 772.019 457.153 773.689 455.802C775.35 454.452 777.59 453.777 780.411 453.777C783.222 453.777 785.458 454.452 787.119 455.802C788.789 457.153 789.625 459.138 789.625 461.759C789.625 464.38 788.789 466.366 787.119 467.716C785.458 469.067 783.222 469.742 780.411 469.742C777.59 469.742 775.35 469.067 773.689 467.716ZM782.617 463.86C783.127 463.34 783.382 462.639 783.382 461.759C783.382 460.879 783.127 460.174 782.617 459.643C782.107 459.123 781.372 458.863 780.411 458.863C779.441 458.863 778.701 459.123 778.191 459.643C777.681 460.174 777.425 460.879 777.425 461.759C777.425 462.639 777.681 463.34 778.191 463.86C778.701 464.39 779.441 464.655 780.411 464.655C781.372 464.655 782.107 464.39 782.617 463.86Z" fill="black"/>
<path d="M810.04 469.442H803.903V462.029C803.903 461.159 803.643 460.464 803.122 459.944C802.602 459.413 801.887 459.148 800.977 459.148C800.046 459.148 799.326 459.408 798.816 459.929C798.316 460.439 798.066 461.139 798.066 462.029V469.442H791.914V454.077H798.066V456.838H798.366C798.436 456.597 798.666 456.237 799.056 455.757C799.326 455.427 799.656 455.122 800.046 454.842C800.477 454.552 801.037 454.302 801.727 454.092C802.417 453.882 803.142 453.777 803.903 453.777C805.803 453.777 807.304 454.312 808.404 455.382C809.495 456.462 810.04 458.078 810.04 460.229V469.442Z" fill="black"/>
<path d="M824.693 454.692V459.298H820.372V469.442H814.219V459.298H811.429V455.922L814.219 454.692V454.317C814.219 452.036 814.89 450.35 816.23 449.26C817.581 448.17 819.676 447.624 822.517 447.624C823.157 447.624 823.773 447.684 824.363 447.805C824.963 447.915 825.413 448.04 825.713 448.18L826.088 448.39V453.026C825.388 452.596 824.568 452.381 823.628 452.381C821.457 452.381 820.372 453.111 820.372 454.572V454.692H824.693Z" fill="black"/>
<path d="M846.825 469.442H834.414V466.745C834.414 466.113 834.561 465.552 834.856 465.064C835.15 464.569 835.548 464.171 836.049 463.871C836.907 463.357 838.022 462.912 839.393 462.537C839.788 462.43 840.12 462.336 840.389 462.255C840.665 462.167 840.953 462.057 841.253 461.926C841.56 461.794 841.805 461.66 841.986 461.522C842.168 461.384 842.318 461.218 842.437 461.024C842.556 460.83 842.616 460.62 842.616 460.395C842.616 459.587 842.014 459.183 840.812 459.183C839.603 459.183 838.999 459.715 838.999 460.78V461.494H834.762V460.78C834.762 459.039 835.257 457.767 836.246 456.966C837.229 456.176 838.748 455.782 840.803 455.782C842.838 455.782 844.354 456.161 845.35 456.919C846.345 457.676 846.843 458.835 846.843 460.395C846.843 461.265 846.587 462.032 846.073 462.696C845.566 463.354 844.936 463.858 844.185 464.209C843.483 464.535 842.75 464.823 841.986 465.073C841.341 465.28 840.715 465.477 840.107 465.665C839.588 465.834 839.328 466.003 839.328 466.172H846.825V469.442Z" fill="#FF4140"/>
<path d="M859.813 457.642C860.984 458.888 861.57 460.576 861.57 462.706C861.57 464.841 860.984 466.526 859.813 467.76C858.642 469.006 857.014 469.63 854.928 469.63C852.849 469.63 851.223 469.006 850.052 467.76C848.875 466.514 848.286 464.829 848.286 462.706C848.286 460.583 848.875 458.895 850.052 457.642C851.23 456.402 852.855 455.782 854.928 455.782C857.014 455.782 858.642 456.402 859.813 457.642ZM854.928 459.38C853.45 459.38 852.711 460.489 852.711 462.706C852.711 464.929 853.45 466.041 854.928 466.041C856.4 466.041 857.136 464.929 857.136 462.706C857.136 460.489 856.4 459.38 854.928 459.38Z" fill="#FF4140"/>
<path d="M875.32 469.442H862.909V466.745C862.909 466.113 863.057 465.552 863.351 465.064C863.645 464.569 864.043 464.171 864.544 463.871C865.402 463.357 866.517 462.912 867.889 462.537C868.283 462.43 868.615 462.336 868.884 462.255C869.16 462.167 869.448 462.057 869.749 461.926C870.056 461.794 870.3 461.66 870.482 461.522C870.663 461.384 870.813 461.218 870.932 461.024C871.051 460.83 871.111 460.62 871.111 460.395C871.111 459.587 870.51 459.183 869.307 459.183C868.098 459.183 867.494 459.715 867.494 460.78V461.494H863.257V460.78C863.257 459.039 863.752 457.767 864.741 456.966C865.725 456.176 867.243 455.782 869.298 455.782C871.333 455.782 872.849 456.161 873.845 456.919C874.841 457.676 875.339 458.835 875.339 460.395C875.339 461.265 875.082 462.032 874.568 462.696C874.061 463.354 873.431 463.858 872.68 464.209C871.978 464.535 871.246 464.823 870.482 465.073C869.836 465.28 869.21 465.477 868.603 465.665C868.083 465.834 867.823 466.003 867.823 466.172H875.32V469.442Z" fill="#FF4140"/>
<path d="M887.36 469.442H883.132V466.943H875.72V463.673L881.779 455.97H887.36V463.673H889.098V466.943H887.36V469.442ZM883.414 458.478L882.587 460.056L879.684 463.636V463.73H883.188V460.056L883.837 458.478H883.414Z" fill="#FF4140"/>
<path fill-rule="evenodd" clip-rule="evenodd" d="M657.972 409.249L653.434 483.851L728.266 479.335V413.766L657.972 409.249Z" fill="white"/>
<path d="M676.576 459.33H668.286V432.97H691.024V439.385H676.576V444.605H688.396V450.635H676.576V459.33Z" fill="black"/>
<path d="M694.914 456.131C692.439 453.766 691.201 450.439 691.201 446.15C691.201 441.848 692.439 438.515 694.914 436.15C697.389 433.785 700.784 432.602 705.098 432.602C709.142 432.602 712.408 433.607 714.895 435.617C717.371 437.614 718.609 440.249 718.609 443.521H710.024C710.024 443.19 709.908 442.737 709.675 442.161C709.503 441.732 709.252 441.333 708.921 440.966C708.566 440.598 708.051 440.286 707.377 440.028C706.703 439.771 705.943 439.642 705.098 439.642C701.605 439.642 699.859 441.811 699.859 446.15C699.859 450.5 701.605 452.675 705.098 452.675C705.968 452.675 706.734 452.547 707.395 452.289C708.069 452.032 708.578 451.701 708.921 451.297C709.571 450.561 709.926 449.85 709.987 449.164L710.024 448.797H718.609C718.609 452.056 717.371 454.685 714.895 456.683C712.408 458.692 709.142 459.697 705.098 459.697C700.796 459.697 697.402 458.508 694.914 456.131Z" fill="black"/>
</g>
<defs>
<linearGradient id="paint0_linear_9562_295" x1="0" y1="0" x2="960" y2="563.25" gradientUnits="userSpaceOnUse">
<stop stop-color="#FFED00"/>
<stop offset="1" stop-color="#FFB800"/>
</linearGradient>
<clipPath id="clip0_9562_295">
<rect width="960" height="540" fill="white" transform="translate(0 0.35791)"/>
</clipPath>
</defs>
</svg>
