<svg width="960" height="540" viewBox="0 0 960 540" fill="none" xmlns="http://www.w3.org/2000/svg">
<g clip-path="url(#clip0_9562_243)">
<rect width="960" height="540" fill="url(#paint0_linear_9562_243)"/>
<path d="M1741.98 356L653.434 356" stroke="white" stroke-width="3"/>
<path d="M1741.98 336.157L653.434 336.157" stroke="white" stroke-width="3"/>
<path d="M1741.98 316.313L653.434 316.313" stroke="white" stroke-width="3"/>
<path d="M1741.98 296.47L653.434 296.47" stroke="white" stroke-width="3"/>
<path d="M1741.98 276.627L653.434 276.627" stroke="white" stroke-width="3"/>
<path d="M1741.98 256.784L653.434 256.784" stroke="white" stroke-width="3"/>
<path d="M1741.98 236.94L653.434 236.94" stroke="white" stroke-width="3"/>
<path d="M1741.98 217.097L653.434 217.097" stroke="white" stroke-width="3"/>
<path d="M1741.98 197.254L653.434 197.254" stroke="white" stroke-width="3"/>
<path d="M1741.98 177.41L653.434 177.41" stroke="white" stroke-width="3"/>
<path d="M1741.98 157.567L653.434 157.567" stroke="white" stroke-width="3"/>
<path d="M1741.98 137.724L653.434 137.724" stroke="white" stroke-width="3"/>
<path d="M1741.98 117.881L653.434 117.881" stroke="white" stroke-width="3"/>
<path d="M1741.98 98.0374L653.434 98.0373" stroke="white" stroke-width="3"/>
<path d="M1741.98 78.1941L653.434 78.194" stroke="white" stroke-width="3"/>
<path d="M1741.98 58.3508L653.434 58.3507" stroke="white" stroke-width="3"/>
<path d="M1741.98 38.5078L653.434 38.5077" stroke="white" stroke-width="3"/>
<path d="M1741.98 18.6646L653.434 18.6645" stroke="white" stroke-width="3"/>
<path d="M1741.98 -1.17871L653.434 -1.17881" stroke="white" stroke-width="3"/>
<path d="M754.489 441.433H747.722V419.916H766.283V425.153H754.489V429.414H764.138V434.336H754.489V441.433Z" fill="black"/>
<path d="M778.881 425.768L780.111 425.858V432.671C779.371 432.26 778.346 432.055 777.035 432.055C775.815 432.055 774.895 432.34 774.274 432.911C773.664 433.481 773.359 434.271 773.359 435.281V441.433H767.207V426.068H773.359V428.829H773.659C773.729 428.589 773.949 428.229 774.319 427.749C774.559 427.419 774.87 427.114 775.25 426.834C775.65 426.543 776.17 426.293 776.81 426.083C777.46 425.873 778.151 425.768 778.881 425.768Z" fill="black"/>
<path d="M783.541 439.708C781.87 438.357 781.035 436.372 781.035 433.751C781.035 431.13 781.87 429.144 783.541 427.794C785.201 426.443 787.442 425.768 790.263 425.768C793.074 425.768 795.31 426.443 796.97 427.794C798.641 429.144 799.476 431.13 799.476 433.751C799.476 436.372 798.641 438.357 796.97 439.708C795.31 441.058 793.074 441.734 790.263 441.734C787.442 441.734 785.201 441.058 783.541 439.708ZM792.469 435.852C792.979 435.331 793.234 434.631 793.234 433.751C793.234 432.871 792.979 432.165 792.469 431.635C791.959 431.115 791.223 430.855 790.263 430.855C789.293 430.855 788.553 431.115 788.042 431.635C787.532 432.165 787.277 432.871 787.277 433.751C787.277 434.631 787.532 435.331 788.042 435.852C788.553 436.382 789.293 436.647 790.263 436.647C791.223 436.647 791.959 436.382 792.469 435.852Z" fill="black"/>
<path d="M819.891 441.433H813.754V434.021C813.754 433.151 813.494 432.455 812.974 431.935C812.454 431.405 811.739 431.14 810.828 431.14C809.898 431.14 809.178 431.4 808.668 431.92C808.167 432.43 807.917 433.131 807.917 434.021V441.433H801.765V426.068H807.917V428.829H808.217C808.288 428.589 808.518 428.229 808.908 427.749C809.178 427.419 809.508 427.114 809.898 426.834C810.328 426.543 810.888 426.293 811.579 426.083C812.269 425.873 812.994 425.768 813.754 425.768C815.655 425.768 817.155 426.303 818.256 427.374C819.346 428.454 819.891 430.07 819.891 432.22V441.433Z" fill="black"/>
<path d="M823.516 435.281V430.675H821.58V427.764L826.592 422.992H829.668V426.068H833.839V430.675H829.668V434.456C829.668 435.326 829.883 435.942 830.313 436.302C830.743 436.652 831.409 436.827 832.309 436.827C833.039 436.827 833.569 436.722 833.899 436.512L834.155 436.422V441.223C833.414 441.573 832.479 441.744 831.349 441.734C828.628 441.734 826.642 441.223 825.392 440.203C824.141 439.193 823.516 437.552 823.516 435.281Z" fill="black"/>
<path d="M853.519 433.751L853.429 434.666H841.56C841.58 435.677 841.805 436.417 842.236 436.887C842.676 437.357 843.361 437.592 844.291 437.592C844.801 437.592 845.257 437.482 845.657 437.262C846.057 437.042 846.322 436.802 846.452 436.542L846.632 436.212H853.174C853.174 436.462 853.084 436.822 852.904 437.292C852.564 438.152 852.049 438.908 851.359 439.558C850.879 440.018 850.338 440.398 849.738 440.698C849.148 440.998 848.398 441.243 847.487 441.433C846.507 441.633 845.442 441.734 844.291 441.734C841.49 441.734 839.255 441.063 837.584 439.723C835.914 438.382 835.078 436.392 835.078 433.751C835.078 431.13 835.914 429.144 837.584 427.794C839.245 426.443 841.485 425.768 844.306 425.768C847.117 425.768 849.353 426.443 851.014 427.794C852.684 429.144 853.519 431.13 853.519 433.751ZM844.291 429.76C843.511 429.76 842.891 429.97 842.431 430.39C841.971 430.81 841.74 431.315 841.74 431.905H846.752C846.752 431.345 846.532 430.845 846.092 430.405C845.662 429.975 845.062 429.76 844.291 429.76Z" fill="black"/>
<path d="M873.785 441.433H867.648V434.021C867.648 433.151 867.387 432.455 866.867 431.935C866.347 431.405 865.632 431.14 864.722 431.14C863.791 431.14 863.071 431.4 862.561 431.92C862.061 432.43 861.811 433.131 861.811 434.021V441.433H855.659V426.068H861.811V428.829H862.111C862.181 428.589 862.411 428.229 862.801 427.749C863.071 427.419 863.401 427.114 863.791 426.834C864.221 426.543 864.782 426.293 865.472 426.083C866.162 425.873 866.887 425.768 867.648 425.768C869.548 425.768 871.049 426.303 872.149 427.374C873.239 428.454 873.785 430.07 873.785 432.22V441.433Z" fill="black"/>
<path d="M882.856 441.734C880.885 441.734 879.24 441.043 877.919 439.663C876.599 438.282 875.939 436.312 875.939 433.751C875.939 431.19 876.599 429.219 877.919 427.839C879.24 426.458 880.885 425.768 882.856 425.768C883.936 425.768 884.907 425.918 885.767 426.218C886.617 426.538 887.192 426.849 887.493 427.149L887.958 427.599H888.228V419.916H894.38V441.433H888.228V438.673H887.928C887.768 439.023 887.548 439.378 887.267 439.738C886.957 440.108 886.642 440.413 886.322 440.653C885.932 440.953 885.422 441.208 884.792 441.418C884.171 441.628 883.526 441.734 882.856 441.734ZM883.156 431.845C882.646 432.315 882.391 432.951 882.391 433.751C882.391 434.551 882.641 435.186 883.141 435.657C883.641 436.127 884.366 436.362 885.317 436.362C886.247 436.362 886.962 436.132 887.463 435.672C887.973 435.201 888.228 434.561 888.228 433.751C888.228 432.931 887.973 432.29 887.463 431.83C886.952 431.37 886.237 431.14 885.317 431.14C884.376 431.14 883.656 431.375 883.156 431.845Z" fill="black"/>
<path d="M750.138 466.473C748.117 464.542 747.107 461.826 747.107 458.325C747.107 454.814 748.117 452.093 750.138 450.163C752.159 448.232 754.93 447.267 758.451 447.267C761.752 447.267 764.418 448.087 766.448 449.727C768.469 451.358 769.479 453.509 769.479 456.18H762.472C762.472 455.909 762.377 455.539 762.187 455.069C762.047 454.719 761.842 454.394 761.572 454.094C761.282 453.794 760.862 453.539 760.311 453.329C759.761 453.119 759.141 453.013 758.451 453.013C755.6 453.013 754.174 454.784 754.174 458.325C754.174 461.876 755.6 463.652 758.451 463.652C759.161 463.652 759.786 463.547 760.326 463.337C760.877 463.127 761.292 462.857 761.572 462.527C762.102 461.926 762.392 461.346 762.442 460.786L762.472 460.486H769.479C769.479 463.147 768.469 465.293 766.448 466.923C764.418 468.564 761.752 469.384 758.451 469.384C754.94 469.384 752.169 468.414 750.138 466.473Z" fill="black"/>
<path d="M773.689 467.358C772.019 466.008 771.183 464.022 771.183 461.401C771.183 458.78 772.019 456.795 773.689 455.444C775.35 454.094 777.59 453.419 780.411 453.419C783.222 453.419 785.458 454.094 787.119 455.444C788.789 456.795 789.625 458.78 789.625 461.401C789.625 464.022 788.789 466.008 787.119 467.358C785.458 468.709 783.222 469.384 780.411 469.384C777.59 469.384 775.35 468.709 773.689 467.358ZM782.617 463.502C783.127 462.982 783.382 462.282 783.382 461.401C783.382 460.521 783.127 459.816 782.617 459.286C782.107 458.765 781.372 458.505 780.411 458.505C779.441 458.505 778.701 458.765 778.191 459.286C777.681 459.816 777.425 460.521 777.425 461.401C777.425 462.282 777.681 462.982 778.191 463.502C778.701 464.032 779.441 464.297 780.411 464.297C781.372 464.297 782.107 464.032 782.617 463.502Z" fill="black"/>
<path d="M810.04 469.084H803.903V461.671C803.903 460.801 803.643 460.106 803.122 459.586C802.602 459.055 801.887 458.79 800.977 458.79C800.046 458.79 799.326 459.05 798.816 459.571C798.316 460.081 798.066 460.781 798.066 461.671V469.084H791.914V453.719H798.066V456.48H798.366C798.436 456.24 798.666 455.879 799.056 455.399C799.326 455.069 799.656 454.764 800.046 454.484C800.477 454.194 801.037 453.944 801.727 453.734C802.417 453.524 803.142 453.419 803.903 453.419C805.803 453.419 807.304 453.954 808.404 455.024C809.495 456.104 810.04 457.72 810.04 459.871V469.084Z" fill="black"/>
<path d="M824.693 454.334V458.94H820.372V469.084H814.219V458.94H811.429V455.564L814.219 454.334V453.959C814.219 451.678 814.89 449.992 816.23 448.902C817.581 447.812 819.676 447.267 822.517 447.267C823.157 447.267 823.773 447.327 824.363 447.447C824.963 447.557 825.413 447.682 825.713 447.822L826.088 448.032V452.668C825.388 452.238 824.568 452.023 823.628 452.023C821.457 452.023 820.372 452.753 820.372 454.214V454.334H824.693Z" fill="black"/>
<path d="M846.825 469.084H834.414V466.388C834.414 465.755 834.561 465.194 834.856 464.706C835.15 464.211 835.548 463.813 836.049 463.513C836.907 462.999 838.022 462.555 839.393 462.179C839.788 462.072 840.12 461.978 840.389 461.897C840.665 461.809 840.953 461.7 841.253 461.568C841.56 461.437 841.805 461.302 841.986 461.164C842.168 461.026 842.318 460.86 842.437 460.666C842.556 460.472 842.616 460.262 842.616 460.037C842.616 459.229 842.014 458.825 840.812 458.825C839.603 458.825 838.999 459.357 838.999 460.422V461.136H834.762V460.422C834.762 458.681 835.257 457.409 836.246 456.608C837.229 455.819 838.748 455.424 840.803 455.424C842.838 455.424 844.354 455.803 845.35 456.561C846.345 457.319 846.843 458.477 846.843 460.037C846.843 460.907 846.587 461.675 846.073 462.338C845.566 462.996 844.936 463.5 844.185 463.851C843.483 464.177 842.75 464.465 841.986 464.715C841.341 464.922 840.715 465.119 840.107 465.307C839.588 465.476 839.328 465.645 839.328 465.814H846.825V469.084Z" fill="#FF4140"/>
<path d="M859.813 457.284C860.984 458.53 861.57 460.218 861.57 462.348C861.57 464.484 860.984 466.168 859.813 467.402C858.642 468.649 857.014 469.272 854.928 469.272C852.849 469.272 851.223 468.649 850.052 467.402C848.875 466.156 848.286 464.471 848.286 462.348C848.286 460.225 848.875 458.537 850.052 457.284C851.23 456.044 852.855 455.424 854.928 455.424C857.014 455.424 858.642 456.044 859.813 457.284ZM854.928 459.022C853.45 459.022 852.711 460.131 852.711 462.348C852.711 464.571 853.45 465.683 854.928 465.683C856.4 465.683 857.136 464.571 857.136 462.348C857.136 460.131 856.4 459.022 854.928 459.022Z" fill="#FF4140"/>
<path d="M875.32 469.084H862.909V466.388C862.909 465.755 863.057 465.194 863.351 464.706C863.645 464.211 864.043 463.813 864.544 463.513C865.402 462.999 866.517 462.555 867.889 462.179C868.283 462.072 868.615 461.978 868.884 461.897C869.16 461.809 869.448 461.7 869.749 461.568C870.056 461.437 870.3 461.302 870.482 461.164C870.663 461.026 870.813 460.86 870.932 460.666C871.051 460.472 871.111 460.262 871.111 460.037C871.111 459.229 870.51 458.825 869.307 458.825C868.098 458.825 867.494 459.357 867.494 460.422V461.136H863.257V460.422C863.257 458.681 863.752 457.409 864.741 456.608C865.725 455.819 867.243 455.424 869.298 455.424C871.333 455.424 872.849 455.803 873.845 456.561C874.841 457.319 875.339 458.477 875.339 460.037C875.339 460.907 875.082 461.675 874.568 462.338C874.061 462.996 873.431 463.5 872.68 463.851C871.978 464.177 871.246 464.465 870.482 464.715C869.836 464.922 869.21 465.119 868.603 465.307C868.083 465.476 867.823 465.645 867.823 465.814H875.32V469.084Z" fill="#FF4140"/>
<path d="M887.36 469.084H883.132V466.585H875.72V463.315L881.779 455.612H887.36V463.315H889.098V466.585H887.36V469.084ZM883.414 458.12L882.587 459.699L879.684 463.278V463.372H883.188V459.699L883.837 458.12H883.414Z" fill="#FF4140"/>
<path fill-rule="evenodd" clip-rule="evenodd" d="M657.972 408.891L653.434 483.494L728.266 478.977V413.408L657.972 408.891Z" fill="white"/>
<path d="M676.576 458.972H668.286V432.612H691.024V439.027H676.576V444.247H688.396V450.277H676.576V458.972Z" fill="black"/>
<path d="M694.914 455.773C692.439 453.408 691.201 450.081 691.201 445.792C691.201 441.49 692.439 438.157 694.914 435.792C697.389 433.426 700.784 432.244 705.098 432.244C709.142 432.244 712.408 433.249 714.895 435.259C717.371 437.256 718.609 439.891 718.609 443.163H710.024C710.024 442.832 709.908 442.379 709.675 441.803C709.503 441.374 709.252 440.975 708.921 440.608C708.566 440.24 708.051 439.928 707.377 439.67C706.703 439.413 705.943 439.284 705.098 439.284C701.605 439.284 699.859 441.453 699.859 445.792C699.859 450.142 701.605 452.317 705.098 452.317C705.968 452.317 706.734 452.189 707.395 451.931C708.069 451.674 708.578 451.343 708.921 450.939C709.571 450.203 709.926 449.492 709.987 448.806L710.024 448.439H718.609C718.609 451.698 717.371 454.327 714.895 456.324C712.408 458.334 709.142 459.339 705.098 459.339C700.796 459.339 697.402 458.15 694.914 455.773Z" fill="black"/>
</g>
<defs>
<linearGradient id="paint0_linear_9562_243" x1="0" y1="0" x2="960" y2="563.25" gradientUnits="userSpaceOnUse">
<stop stop-color="#FFED00"/>
<stop offset="1" stop-color="#FFB800"/>
</linearGradient>
<clipPath id="clip0_9562_243">
<rect width="960" height="540" fill="white"/>
</clipPath>
</defs>
</svg>
