<svg height="344.69" width="620" xmlns="http://www.w3.org/2000/svg"><path d="m-275.62954 706.51704c-2.79268-.913-5.18777-3.05463-6.57468-5.87891-1.08481-2.20909-1.22937-2.99343-1.22937-6.67014 0-3.68043.14401-4.45992 1.23402-6.67964 2.63928-5.37468 8.1152-7.63247 14.1469-5.83295 4.64769 1.3866 7.51059 5.44968 7.95195 11.28558.6119 8.09064-3.75828 13.77689-10.92239 14.21167-1.62037.09834-3.52374-.08166-4.60643-.43561zm8.52694-4.05209c2.12151-1.69116 3.21283-3.92198 3.5073-7.16946.45146-4.9788-1.40153-8.99873-4.87509-10.57613-4.53422-2.05907-9.60754.25725-11.02614 5.03421-2.33678 7.86879 1.57197 14.60913 8.22726 14.18727 1.99207-.12627 2.85868-.43323 4.16667-1.47589zm11.51989-8.49696v-12.7193h1.75438 1.75439v5.26316 5.26316h6.57895 6.57895v-5.26316-5.26316h1.75438 1.75439v12.7193 12.7193h-1.75439-1.75438v-5.92105-5.92106h-6.57895-6.57895v5.92106 5.92105h-1.75439-1.75438zm-17.122-36.73245-.01672-21.38158-24.32378-14.47369c-13.37808-7.96052-24.47252-14.43875-24.65432-14.39605-.1818.04269-8.39623 4.74017-18.25429 10.43883s-17.97277 10.30188-18.0327 10.22938c-.54423-.65841-1.03988-2.09235-.7772-2.24848.18157-.10792 8.60814-4.96984 18.72571-10.80428 15.3571-8.85588 18.54468-10.53874 19.29825-10.18841.49646.23081 11.65615 6.84858 24.7993 14.70615 16.19078 9.67958 23.99307 14.1158 24.19566 13.75713.16446-.29114 9.39452-16.41007 20.51125-35.81984l20.21224-35.29048v-20.08233-20.08232h1.09649 1.09649l.00566 19.84649.00566 19.84649 15.56451 4.36904 15.56453 4.36904v1.22306c0 .67269-.14803 1.22203-.32895 1.22074-.18092-.00127-7.23305-1.96888-15.6714-4.37246-8.43835-2.40357-15.48136-4.22818-15.65115-4.05468-.30552.31219-39.40114 68.48022-39.40114 68.70074 0 .06294 16.67555-5.62695 37.05677-12.6442l37.05677-12.75865.00464-25.76754.00463-25.76754h3.72467 3.72468l.11304 26.6192.11305 26.6192 36.99904 10.61909 36.99905 10.61908 3.88129-5.98829c22.985172-35.46286 38.449519-59.52421 38.335229-59.6467-.076793-.0823-17.559552 4.82676-38.850569 10.90904l-38.71094 11.05868-17.68061-4.98798-17.6806-4.98799-.00121-1.20614c-.00066-.66338.15805-1.20614.3527-1.20614s8.01883 2.17582 17.38707 4.83516c9.36823 2.65934 17.07076 4.78105 17.11674 4.71491.04597-.06614 4.40929-7.66335 9.69627-16.88271 5.28697-9.21935 9.82167-16.76869 10.0771-16.77631s.78512.23285 1.17709.53439c.63294.4869-.30949 2.31494-8.42278 16.33772-5.0245 8.68421-9.06151 15.86767-8.97115 15.96325.09037.09558 17.3394-4.7319 38.33117-10.72774l38.166864-10.90153v-28.15077c0-22.11467-.117557-28.19641-.548245-28.36366-.301535-.1171-17.405338-6.76018-38.008459-14.76241-20.60311-8.00223-37.5768-14.37569-37.7193-14.16323-5.9205 8.82696-35.79775 50.53591-36.20023 50.53591-.31584 0-.80509-.27814-1.08724-.6181-.41372-.49851 2.75258-5.24975 16.36413-24.55549 18.34123-26.014 17.6872-25.06922 17.1136-24.72133-1.2051.73092-66.04471 23.58281-66.36022 23.38781-.20789-.12848-.47663-.61085-.5972-1.07193-.26914-1.02917-4.28313.51175 36.18008-13.889l33.21586-11.82143.00782-19.62719.00783-19.6272h1.09649 1.09649l.0133 19.6272.01329 19.62719 37.59636 14.56506c20.677986 8.01078 37.892399 14.67103 38.254241 14.80057.59389.2126 5.361798-3.71456 27.527938-22.67382l3.97032-3.39592 3.113641 4.57424c2.273675 3.34025 2.964899 4.67049 2.562272 4.931-.30325.19622-8.248733 4.51479-17.656627 9.59683l-17.105264 9.24007v28.23717 28.23718l33.137834 5.90153 33.1378375 5.90152-.188193 1.28223c-.1538991 1.04859-.3580355 1.24184-1.1202895 1.06056-3.141794-.74717-65.731491-11.72784-65.898224-11.5611-.440535.44053-33.959316 66.66399-33.814866 66.80844.0846.0846 15.774757-5.19631 34.867015-11.73536l34.713202-11.88916 34.7758248 12.85522c19.1267022 7.07037 34.8431492 12.90261 34.9253862 12.96051.329824.23218-2.353553 6.7506-2.778948 6.7506-.251491 0-14.8395-5.32895-32.417776-11.84211s-32.110338-11.8421-32.293465-11.8421c-.183131 0-4.711732 7.59679-10.063561 16.88176-9.279465 16.09908-9.774649 16.85886-10.68075 16.38796-.522584-.2716-1.015189-.54856-1.09468-.61548s3.636864-6.66922 8.258566-14.67179c4.621701-8.00256 8.338057-14.60587 8.258565-14.67401-.079491-.06814-17.907688 3.98766-39.618214 9.01288-21.710525 5.02522-39.922535 9.14422-40.471115 9.15334-.54859.00911-17.16353-4.62751-36.92208-10.30362l-35.92465-10.32017-41.45026 9.66228c-22.79765 5.31426-41.561 9.66228-41.69634 9.66228s-.24608 9.57237-.24608 21.27193v21.27193h-1.09649-1.09649zm161.89045-21.39793 1.30383-.67424-1.34668-1.95733c-1.38697-2.01589-1.62177-2.17166-2.44444-1.62168-.3444.23024-.29706.9796.16582 2.62486.3563 1.26645.73103 2.30263.83273 2.30263s.77163-.30341 1.48874-.67424zm49.6584 39.97767c-2.792671-.91299-5.187768-3.05462-6.574676-5.87891-1.084807-2.20908-1.229368-2.99343-1.229368-6.67013 0-3.68044.144004-4.45992 1.234018-6.67965 2.63928-5.37467 8.115197-7.63246 14.146903-5.83295 4.647689 1.3866 7.510583 5.44969 7.951952 11.28559.611895 8.09064-3.758281 13.77689-10.922395 14.21167-1.620368.09833-3.523737-.08166-4.606434-.43562zm8.526943-4.05209c2.121509-1.69115 3.212829-3.92197 3.507302-7.16946.451461-4.97879-1.401535-8.99872-4.875092-10.57612-4.534219-2.05908-9.607535.25725-11.02614 5.0342-2.336781 7.8688 1.571969 14.60913 8.227263 14.18728 1.99207-.12627 2.858676-.43324 4.166667-1.4759zm-41.111693-8.49695v-12.7193h1.75439 1.75439v5.26316 5.26315h6.578944 6.578947v-5.26315-5.26316h1.754386 1.754386v12.7193 12.7193h-1.754386-1.754386v-5.92106-5.92105h-6.578947-6.578944v5.92105 5.92106h-1.75439-1.75439zm136.403513-20.17544v-12.7193l1.864035.01116 1.864035.01116 6.468114 9.74761 6.46807 9.74761.001228-9.75877.001185-9.75877h1.754386 1.754386v12.7193 12.7193l-1.864036-.01116-1.864035-.01116-6.468114-9.74761-6.46807-9.74762-.001228 9.75878-.001184 9.75877h-1.754386-1.754386zm25.438596 0v-12.7193h1.754386 1.754386v5.26316 5.26316h6.578948 6.578947v-5.26316-5.26316h1.754386 1.754386v12.7193 12.7193h-1.754386-1.754386v-5.92106-5.92105h-6.578947-6.578948v5.92105 5.92106h-1.754386-1.754386zm-443.731039 4.65431c-2.79268-.913-5.18777-3.05463-6.57468-5.87891-1.08481-2.20909-1.22937-2.99343-1.22937-6.67014 0-3.68043.14401-4.45992 1.23402-6.67964 2.63928-5.37468 8.1152-7.63247 14.1469-5.83295 4.64769 1.3866 7.51059 5.44968 7.95195 11.28558.6119 8.09064-3.75828 13.77689-10.92239 14.21167-1.62037.09834-3.52374-.08166-4.60643-.43561zm8.52694-4.05209c2.12151-1.69116 3.21283-3.92198 3.5073-7.16946.45146-4.9788-1.40153-8.99873-4.87509-10.57613-4.53422-2.05907-9.60754.25725-11.02614 5.03421-2.33678 7.86879 1.57197 14.60913 8.22726 14.18727 1.99207-.12627 2.85868-.43323 4.16667-1.47589zm-41.11169-8.49696v-12.7193h1.75439 1.75438v5.26316 5.26316h6.57895 6.57895v-5.26316-5.26316h1.75438 1.75439v12.7193 12.7193h-1.75439-1.75438v-5.92105-5.92106h-6.57895-6.57895v5.92106 5.92105h-1.75438-1.75439zm468.564386-9.13421c-2.454079-1.1275-4.584605-2.17397-4.734561-2.32549-.149957-.15152 7.332412-14.6581 16.627412-32.23684 9.295044-17.57874 16.72193-32.02156 16.504254-32.09514-.217719-.07359-13.708728 3.23233-29.980044 7.34649-16.271315 4.11415-29.784824 7.48028-30.029956 7.48028-.245131 0-.539737-.49179-.654649-1.09286-.176535-.92361.002325-1.15015 1.155044-1.46277.750132-.20345 11.82443-3.01064 24.609518-6.23821l23.245614-5.8683 22.774298-13.99364c21.083294-12.95458 22.817454-13.93464 23.355264-13.19913.31952.43697.58096.93302.58096 1.10234 0 .16931-8.47285 5.50742-18.82855 11.86248-10.355657 6.35506-18.766315 11.61684-18.69035 11.69284.076009.076 1.683202-.2576 3.571535-.74135 1.888334-.48374 3.518685-.79417 3.623027-.68984s-.234913 1.29926-.75386 2.6554l-.943596 2.4657 1.427587-.84772c.785132-.46625 8.691007-5.32184 17.568557-10.79019 8.87754-5.46836 16.29653-9.94247 16.48662-9.94247s.54842.44511.79627.98912c.42996.94366-.42855 1.52867-18.6796 12.72893l-19.130268 11.73981-12.353114 31.66654c-6.794166 17.4166-12.517851 31.70648-12.719298 31.75528-.201404.04881-2.374035-.83376-4.828114-1.96126zm-56.2836842-19.37456v-12.7193h1.7543859 1.754386v5.26316 5.26316h6.5789473 6.578947v-5.26316-5.26316h1.754386 1.754386v12.7193 12.7193h-1.754386-1.754386v-5.92105-5.92106h-6.578947-6.5789473v5.92106 5.92105h-1.754386-1.7543859zm0-28.94737v-12.7193l1.864035.01116 1.8640351.01116 6.4680961 9.74761 6.468097 9.74762.001202-9.75877.001201-9.75878h1.754386 1.754386v12.7193 12.7193l-1.864035-.01116-1.864035-.01116-6.468096-9.74761-6.4680968-9.74761-.0012018 9.75877-.0012017 9.75877h-1.754386-1.7543859zm-198.9942018-26.04745c-2.79267-.91299-5.18777-3.05462-6.57468-5.8789-1.0848-2.20909-1.22936-2.99343-1.22936-6.67014 0-3.68043.144-4.45992 1.23401-6.67964 2.63928-5.37468 8.1152-7.63247 14.14691-5.83296 4.64769 1.3866 7.51058 5.44969 7.95195 11.28559.61189 8.09064-3.75828 13.77689-10.9224 14.21167-1.62036.09834-3.52373-.08166-4.60643-.43562zm8.52694-4.05208c2.12151-1.69116 3.21283-3.92198 3.50731-7.16946.45146-4.9788-1.40154-8.99873-4.8751-10.57613-4.53422-2.05908-9.60753.25725-11.02614 5.0342-2.33678 7.8688 1.57197 14.60914 8.22727 14.18728 1.99207-.12627 2.85867-.43324 4.16666-1.47589zm62.96429.98191c-2.79267-.91299-5.18777-3.05462-6.57468-5.87891-1.0848-2.20908-1.22937-2.99343-1.22937-6.67014 0-3.68043.14401-4.45992 1.23402-6.67964 2.63928-5.37468 8.1152-7.63246 14.14691-5.83295 4.64768 1.3866 7.51058 5.44968 7.95195 11.28559.61189 8.09064-3.75828 13.77689-10.9224 14.21166-1.62037.09834-3.52373-.08166-4.60643-.43561zm8.52694-4.05209c2.12151-1.69115 3.21283-3.92198 3.5073-7.16946.45146-4.97879-1.40153-8.99872-4.87509-10.57613-4.53422-2.05907-9.60753.25725-11.02614 5.03421-2.33678 7.86879 1.57197 14.60913 8.22726 14.18728 1.99207-.12628 2.85868-.43324 4.16667-1.4759zm11.51989-8.49696v-12.71929h1.75439 1.75438v5.26315 5.26316h6.57895 6.578948v-5.26316-5.26315h1.754386 1.754386v12.71929 12.7193h-1.754386-1.754386v-5.92105-5.92105h-6.578948-6.57895v5.92105 5.92105h-1.75438-1.75439zm282.89474 11.37468c0-1.12634 1.25285-2.65955 5.53158-6.76941 3.92614-3.77116 4.56548-4.58132 4.56118-5.77957-.01052-2.91734-4.20105-4.3187-6.38465-2.1351-.5921.5921-1.07653 1.38158-1.07653 1.75438 0 .74477-.7647.87463-1.69167.28727-.69996-.44351-.33228-2.03588.75566-3.27276 3.68285-4.18696 11.16096-1.52297 10.45702 3.7252-.29557 2.20378-1.74917 4.09019-5.58035 7.24199-1.68492 1.38611-3.06347 2.67821-3.06347 2.87132 0 .19312 1.97368.35113 4.38597.35113 4.38596 0 4.38596 0 4.38596 1.09649v1.09649h-6.14035c-4.05369 0-6.14035-.15885-6.14035-.46743zm-48.68421-19.70801v-12.7193l1.86403.01116 1.86404.01116 6.46811 9.74761 6.46807 9.74762.00123-9.75877.00118-9.75878h1.75439 1.75439v12.7193 12.7193l-1.86404-.01116-1.86403-.01116-6.46812-9.74761-6.46807-9.74761-.00123 9.75877-.00118 9.75877h-1.75439-1.75438zm25 0v-12.7193h1.75438 1.75439v5.26316 5.26316h6.57895 6.57894v-5.26316-5.26316h1.75439 1.75439v12.7193 12.7193h-1.75439-1.75439v-5.92105-5.92106h-6.57894-6.57895v5.92106 5.92105h-1.75439-1.75438zm-389.78368-10.25797c-2.79267-.91299-5.18777-3.05462-6.57467-5.87891-1.08481-2.20908-1.22937-2.99343-1.22937-6.67014 0-3.68043.144-4.45992 1.23402-6.67964 2.63928-5.37468 8.11519-7.63247 14.1469-5.83295 4.64769 1.3866 7.51058 5.44968 7.95195 11.28559.6119 8.09064-3.75828 13.77689-10.92239 14.21166-1.62037.09834-3.52374-.08166-4.60644-.43561zm8.52695-4.05209c2.1215-1.69115 3.21282-3.92198 3.5073-7.16946.45146-4.97879-1.40154-8.99872-4.87509-10.57613-4.53422-2.05907-9.60754.25725-11.02614 5.03421-2.33679 7.86879 1.57196 14.60913 8.22726 14.18727 1.99207-.12627 2.85867-.43323 4.16667-1.47589zm359.06418-1.50821c-5.0525-1.94357-8.341-7.18604-7.96052-12.6905.33482-4.84393 2.66017-8.3347 6.99509-10.50086 8.48596-4.24049 18.32486 1.86857 18.32486 11.37805 0 8.88648-9.01679 15.02251-17.35943 11.81331zm9.36299-2.32646c7.31925-3.78493 7.76346-14.15572.79096-18.46648-1.90044-1.17494-2.53267-1.32738-5.50526-1.32738s-3.60483.15244-5.50527 1.32738c-4.01399 2.48166-5.86109 7.30133-4.5971 11.99537.66333 2.46343 3.85487 5.91759 6.30219 6.82079 2.24961.83024 6.57636.65255 8.51448-.34968zm-6.03009-5.53948v-3.07017h-2.85088c-2.74855 0-2.85088-.03936-2.85088-1.0965 0-1.05713.10233-1.09649 2.85088-1.09649h2.85088v-3.07017c0-2.98246.03131-3.07018 1.09649-3.07018s1.09649.08772 1.09649 3.07018v3.07017h3.07018c2.98245 0 3.07017.03133 3.07017 1.09649 0 1.06517-.08772 1.0965-3.07017 1.0965h-3.07018v3.07017c0 2.98246-.03131 3.07018-1.09649 3.07018s-1.09649-.08772-1.09649-3.07018zm-160.836308-19.0299c-2.792671-.91299-5.187768-3.05463-6.574676-5.87891-1.084807-2.20908-1.229368-2.99343-1.229368-6.67014 0-3.68043.144004-4.45992 1.234017-6.67964 2.639281-5.37468 8.115198-7.63247 14.146904-5.83295 4.647688 1.3866 7.510583 5.44968 7.951952 11.28558.611894 8.09065-3.758281 13.7769-10.922395 14.21167-1.620369.09834-3.523737-.08166-4.606434-.43561zm8.526943-4.05209c2.121508-1.69115 3.212829-3.92198 3.507302-7.16946.451461-4.97879-1.401535-8.99872-4.875092-10.57613-4.534219-2.05907-9.607535.25725-11.02614 5.03421-2.336781 7.86879 1.571969 14.60913 8.227263 14.18727 1.99207-.12627 2.858675-.43323 4.166667-1.47589zm11.51989-8.49696v-12.71929h1.754386 1.754386v5.26315 5.26316h6.5789472 6.5789478v-5.26316-5.26315h1.754385 1.754386v12.71929 12.7193h-1.754386-1.754385v-5.92105-5.92105h-6.5789478-6.5789472v5.92105 5.92105h-1.754386-1.754386zm-145.485425-43.15271c-2.79268-.91299-5.18777-3.05462-6.57468-5.8789-1.08481-2.20909-1.22937-2.99343-1.22937-6.67014 0-3.68043.14401-4.45992 1.23402-6.67964 2.63928-5.37468 8.1152-7.63247 14.1469-5.83296 4.64769 1.38661 7.51059 5.44969 7.95195 11.28559.6119 8.09064-3.75828 13.77689-10.92239 14.21167-1.62037.09834-3.52374-.08166-4.60643-.43562zm8.52694-4.05208c2.12151-1.69116 3.21283-3.92198 3.5073-7.16946.45146-4.9788-1.40153-8.99873-4.87509-10.57613-4.53422-2.05908-9.60754.25725-11.02614 5.03421-2.33678 7.86879 1.57197 14.60913 8.22726 14.18727 1.99207-.12627 2.85868-.43323 4.16667-1.47589zm13.42504-17.72096c-6.41777-1.28622-10.61648-6.88968-10.13964-13.53204.8028-11.18311 14.50494-15.80671 22.03227-7.4345 2.44206 2.71615 3.46515 5.65982 3.22798 9.28759-.49799 7.61728-7.68576 13.16901-15.12061 11.67895zm6.64748-2.82968c5.16595-2.0914 7.76822-8.69554 5.44697-13.82351-1.89495-4.18621-5.11895-6.29843-9.61364-6.29843-6.06682 0-10.52631 4.43355-10.52631 10.46509 0 2.90504.70052 4.75119 2.64182 6.9622 2.96186 3.37338 7.73716 4.44114 12.05116 2.69465zm-11.62281-9.65685v-1.09649h7.23685 7.23684v1.09649 1.0965h-7.23684-7.23685z" transform="translate(418.21429 -372.29134)"/></svg>