<svg xmlns="http://www.w3.org/2000/svg" xmlns:xlink="http://www.w3.org/1999/xlink" viewBox="0 0 135.467 135.467"><defs><linearGradient id="a"><stop offset="0" stop-color="#c3dcda"/><stop offset="1" stop-color="#c3dcda" stop-opacity="0"/></linearGradient><linearGradient id="b" x1="109.759" x2="114.215" y1="344.032" y2="339.755" gradientTransform="translate(57.718 120.122) scale(.04023)" gradientUnits="userSpaceOnUse" xlink:href="#a"/></defs><path fill="#a2a4a4" d="M135.467 67.733A67.733 67.733 0 1 1 0 67.733a67.733 67.733 0 1 1 135.467 0z"/><path fill="#007c85" d="M128.454 67.733a60.72 60.72 0 1 1-121.44 0 60.72 60.72 0 1 1 121.44 0z"/><path fill="#7fc0c4" d="M133.13 67.733a65.396 65.396 0 1 1-130.792 0 65.396 65.396 0 1 1 130.79 0z"/><path fill="#007c85" d="M128.454 67.733a60.72 60.72 0 1 1-121.44 0 60.72 60.72 0 1 1 121.44 0z"/><path d="M122.028 94.934c-9.98 19.872-30.554 33.52-54.295 33.52-23.24 0-43.447-13.08-53.65-32.275 55.48-16.827 74.176-6.556 107.945-1.246z"/><g transform="matrix(9.34964 0 0 9.34964 -521.99 -1189.515)"><path fill="#fff" fill-rule="evenodd" d="M58.492 130.987l.567.075.206.114 4.814 5.418 1.492.15-.623-.905-4.494-4.985-1.964-.02z"/><path fill="url(#b)" fill-rule="evenodd" d="M58.492 130.987l.567.075.206.114 4.814 5.418 1.492.15-.623-.905-4.494-4.985-1.964-.02z"/><rect width=".428" height="5.88" x="65.14" y="-136.968" fill="#fff" ry="0" transform="scale(1 -1)"/><path fill="#fff" fill-rule="evenodd" d="M63.94 130.973c.768-.02 1.066.31 1.23.742l.427-.085c.142-.29.25-.59 1.056-.657v-.2h-2.74zM57.146 137.123c3.95-1.06 8.168-.883 11.74.246l-.06.12c-2.56-.22-6.9-1.142-11.306.343-.126-.2-.262-.435-.374-.71z"/><path fill="#c3dcda" fill-rule="evenodd" d="M58.445 137.767c.757.02 1.05-.31 1.21-.742l.423.085c.14.29.246.59 1.042.657v.2h-2.703z"/><path fill="#c3dcda" d="M59.628 131.557l.422.483v5.613h-.422z"/><path fill="#fff" fill-rule="evenodd" d="M58.49 137.767c.773.05 1.087-.217 1.226-.742l.428.085c.142.29.25.59 1.057.657v.2h-2.74z"/><path fill="#fff" d="M59.688 131.657l.428.478v5.518h-.428z"/></g></svg>