<svg height="1000.2591" viewBox="0 0 999.99999 1000.2591" width="1000" xmlns="http://www.w3.org/2000/svg" xmlns:xlink="http://www.w3.org/1999/xlink"><linearGradient id="a" gradientUnits="userSpaceOnUse" x1="78.34751798586" x2="76.78056511582" y1="73.82697134717" y2="147.47364229833"><stop offset="0" stop-color="#e8b600"/><stop offset="1" stop-color="#d39d00"/></linearGradient><linearGradient id="b" gradientUnits="userSpaceOnUse" x1="134.62215" x2="135.73015" y1="21.814505" y2="115.99461"><stop offset="0" stop-color="#e3ae00"/><stop offset="1" stop-color="#ce9900"/></linearGradient><linearGradient id="c" gradientUnits="userSpaceOnUse" x1="194.30185" x2="133.19078" y1="223.47073" y2="105.16598"><stop offset="0" stop-color="#ecbe00"/><stop offset=".38944092" stop-color="#f1cc20"/><stop offset="1" stop-color="#f0cd24"/></linearGradient><linearGradient id="d" gradientUnits="userSpaceOnUse" x1="162.17937" x2="110.47001" y1="162.35966" y2="214.06903"><stop offset="0" stop-color="#dfa900"/><stop offset=".30293563" stop-color="#e4af00"/><stop offset="1" stop-color="#c79200"/></linearGradient><linearGradient id="e" gradientUnits="userSpaceOnUse" x1="80.274994" x2="80.274994" y1="134.82329" y2="64.718895"><stop offset="0" stop-color="#b37f00"/><stop offset=".28043434" stop-color="#c18d00"/><stop offset="1" stop-color="#c79300"/></linearGradient><linearGradient id="f" gradientUnits="userSpaceOnUse" x1="73.682083" x2="113.01613" y1="224.02473" y2="150.34265"><stop offset="0" stop-color="#d29c00"/><stop offset="1" stop-color="#dfa900"/></linearGradient><linearGradient id="g" gradientUnits="userSpaceOnUse" x1="128.48993" x2="144.15944" y1="187.43086" y2="105.16597"><stop offset="0" stop-color="#dfa900"/><stop offset=".30293563" stop-color="#e4af00"/><stop offset="1" stop-color="#f0cd24"/></linearGradient><g transform="matrix(4.4760185 0 0 4.4760185 -.00001 -.000015)"><path d="m221.96962 112.15202c0 60.75132-49.24868 110-110 110-60.751318 0-109.999996-49.24868-109.999996-110 0-60.751319 49.248678-109.999997 109.999996-109.999997 60.75132 0 110 49.248678 110 109.999997z" fill="#fff"/><path d="m181.96962 132.15202a70 70 0 1 0 -139.999996 0h20a50 50 0 1 1 99.999996 0" fill-opacity=".1"/><path d="m154.96962 126.15202c0 20.98682-17.01318 38-38 38-20.986816 0-37.999996-17.01318-37.999996-38s17.01318-37.999997 37.999996-37.999997c20.98682 0 38 17.013177 38 37.999997z" fill-opacity=".1"/><path d="m152.96962 112.15202c0 22.64367-18.35633 41-41 41-22.643666 0-40.999996-18.35633-40.999996-41 0-22.643667 18.35633-40.999997 40.999996-40.999997 22.64367 0 41 18.35633 41 40.999997z" fill="url(#a)"/><path d="m211.96962 62.152023a112 112 0 0 0 -192.999996-13l45 77.999997a50 50 0 0 1 46.999996-64.999997" fill="url(#b)"/><path d="m18.969624 49.152023a112 112 0 0 0 83.999996 173.999997l47-80a50 50 0 0 1 -85.999996-16" fill="url(#f)"/><path d="m102.96962 223.15202a112 112 0 0 0 109-160.999997h-101a50 50 0 0 1 39 80.999997" fill="url(#c)"/><path d="m18.969624 49.152023 45 77.999997a50 50 0 0 1 2-33.999997l-45-47" fill="url(#e)"/><path d="m102.96962 223.15202 47-80a50 50 0 0 1 -29 17l-20 63" fill="url(#d)"/><path d="m211.96962 62.152023h-101a50 50 0 0 1 39 19l64-16" fill="url(#g)"/></g></svg>