<svg viewBox="0 0 275.66 224.2" xmlns="http://www.w3.org/2000/svg"><path d="m9 59.72a24.47 24.47 0 0 0 9.53 5.75 37.43 37.43 0 0 0 20.7.59 22.38 22.38 0 0 0 7.43-3.28v-18.24h-10v11a30.28 30.28 0 0 1 -5.84.55 16.84 16.84 0 0 1 -7.48-1.6 15.64 15.64 0 0 1 -5.56-4.49 20.56 20.56 0 0 1 -3.46-7 31.89 31.89 0 0 1 -1.19-9 33.52 33.52 0 0 1 1.28-9.8 19.66 19.66 0 0 1 3.59-6.84 14.28 14.28 0 0 1 5.34-4 16.5 16.5 0 0 1 6.57-1.36 37.13 37.13 0 0 1 5.84.46v10.4h10v-19a32 32 0 0 0 -6.25-2.1 40 40 0 0 0 -9.22-.9 35 35 0 0 0 -10.58 1.69 26.58 26.58 0 0 0 -9.76 5.56 28.81 28.81 0 0 0 -7.16 10.21q-2.78 6.35-2.78 15.73a42.59 42.59 0 0 0 2.46 15.37 28.27 28.27 0 0 0 6.54 10.3z" fill="#fff"/><path d="m64.33 65.33a42.83 42.83 0 0 0 5.47 1.37 36 36 0 0 0 6.43.54 36.32 36.32 0 0 0 9.67-1.24 22.43 22.43 0 0 0 7.75-3.73 17.47 17.47 0 0 0 5.11-6.21 19.29 19.29 0 0 0 1.82-8.61 14.52 14.52 0 0 0 -2.33-8.45 20.44 20.44 0 0 0 -5.74-5.61 39.44 39.44 0 0 0 -7.51-3.81c-2.7-1-5.2-2.06-7.47-3.1a25.82 25.82 0 0 1 -5.72-3.48 6.1 6.1 0 0 1 -2.32-4.93 5.39 5.39 0 0 1 2.51-4.63 12 12 0 0 1 6.89-1.73 34.21 34.21 0 0 1 4.6.32 32.48 32.48 0 0 1 4.33.87 1.81 1.81 0 0 0 .55.09v10.12h10v-18.51a29.47 29.47 0 0 0 -8.57-2.74 59.45 59.45 0 0 0 -10.94-1 27.68 27.68 0 0 0 -8.94 1.37 20.69 20.69 0 0 0 -6.88 3.83 17.17 17.17 0 0 0 -4.47 5.88 17.49 17.49 0 0 0 -1.57 7.52 15.13 15.13 0 0 0 2.33 8.76 20.54 20.54 0 0 0 5.74 5.6 35.46 35.46 0 0 0 7.48 3.7q4.05 1.48 7.45 2.91a23.57 23.57 0 0 1 5.74 3.38 6.19 6.19 0 0 1 2.33 5 6.48 6.48 0 0 1 -2.83 5.52c-1.88 1.37-4.53 2-7.93 2a22.94 22.94 0 0 1 -5.31-.53 27.57 27.57 0 0 1 -4.6-1.5l-.55-.19v-9h-10v17c.79.42 1.82.94 3.1 1.55a37.85 37.85 0 0 0 4.38 1.67z" fill="#fff"/><path d="m119.05 65.33a42.41 42.41 0 0 0 5.47 1.37 35.79 35.79 0 0 0 6.43.54 36.3 36.3 0 0 0 9.66-1.24 22.35 22.35 0 0 0 7.75-3.73 17.47 17.47 0 0 0 5.11-6.21 19.29 19.29 0 0 0 1.82-8.61 14.59 14.59 0 0 0 -2.29-8.45 20.61 20.61 0 0 0 -5.75-5.61 39.65 39.65 0 0 0 -7.47-3.79q-4.06-1.54-7.48-3.1a25.82 25.82 0 0 1 -5.78-3.5 6.1 6.1 0 0 1 -2.32-4.93 5.38 5.38 0 0 1 2.51-4.65 12 12 0 0 1 6.88-1.73 34.09 34.09 0 0 1 4.6.32 32.64 32.64 0 0 1 4.34.87 1.7 1.7 0 0 0 .54.09v10.14h10v-18.51a29.36 29.36 0 0 0 -8.57-2.74 59.37 59.37 0 0 0 -10.94-1 27.68 27.68 0 0 0 -8.94 1.37 20.69 20.69 0 0 0 -6.88 3.83 17.17 17.17 0 0 0 -4.47 5.88 17.63 17.63 0 0 0 -1.6 7.52 15.13 15.13 0 0 0 2.33 8.76 20.67 20.67 0 0 0 5.74 5.6 36 36 0 0 0 7.48 3.7q4.06 1.45 7.48 2.91a23.64 23.64 0 0 1 5.75 3.38 6.21 6.21 0 0 1 2.32 5 6.46 6.46 0 0 1 -2.77 5.53c-1.88 1.37-4.53 2-7.93 2a22.85 22.85 0 0 1 -5.33-.59 27.39 27.39 0 0 1 -4.61-1.5l-.55-.19v-9h-10v17c.79.42 1.83.94 3.1 1.55a37.36 37.36 0 0 0 4.37 1.72z" fill="#fff"/><path d="m25.29 96.9h-.36l-10.88-17.59h-12.61v63.47h11.79v-34.82l-.54-8.88h.45l10.61 16.59h2.17l10.16-16.59h.54l-.45 9.88v33.82h12.42v-63.47h-12.51z" fill="#fc4a4a"/><path d="m60.31 90.37h16.05v41.35h-16.05v11.06h44.61v-11.06h-16.14v-41.35h16.14v-11.06h-44.61z" fill="#fc4a4a"/><path d="m149.72 142.78h10.87v-63.47h-11.78v31.19l.81 7.62h-.45l-21.94-38.81h-10.88v63.47h11.78v-30.01l-.54-7.53h.45z" fill="#fc4a4a"/><path d="m190.59 144.05a36.28 36.28 0 0 0 9.61-1.22 22.48 22.48 0 0 0 7.71-3.72 17.41 17.41 0 0 0 5.09-6.11 19.27 19.27 0 0 0 1.81-8.57 14.55 14.55 0 0 0 -2.31-8.44 20.5 20.5 0 0 0 -5.72-5.57 38.93 38.93 0 0 0 -7.43-3.77q-4-1.53-7.44-3.08a25.71 25.71 0 0 1 -5.71-3.45 6 6 0 0 1 -2.31-4.89 5.37 5.37 0 0 1 2.49-4.63 12 12 0 0 1 6.85-1.72 33.92 33.92 0 0 1 4.58.32 34.58 34.58 0 0 1 4.31.86 1.7 1.7 0 0 0 .54.09v10.07h10v-18.46a29.13 29.13 0 0 0 -8.56-2.76 59.67 59.67 0 0 0 -10.88-1 27.64 27.64 0 0 0 -8.89 1.36 20.63 20.63 0 0 0 -6.84 3.81 17.12 17.12 0 0 0 -4.49 5.89 17.59 17.59 0 0 0 -1.58 7.48 15 15 0 0 0 2.31 8.7 20.36 20.36 0 0 0 5.71 5.58 35.29 35.29 0 0 0 7.44 3.67q4 1.45 7.43 2.9a23.58 23.58 0 0 1 5.72 3.36 6.15 6.15 0 0 1 2.31 5 6.43 6.43 0 0 1 -2.81 5.48q-2.82 2-7.89 2a22.68 22.68 0 0 1 -5.31-.59 27.33 27.33 0 0 1 -4.58-1.49l-.54-.19v-9h-10v16.86c.78.43 1.81.94 3.08 1.55a38.62 38.62 0 0 0 4.4 1.72 42 42 0 0 0 5.44 1.36 35.42 35.42 0 0 0 6.46.6z" fill="#fc4a4a"/><path d="m238.3 116.31h6.44l15.6 26.47h15.32l-20.13-32.82 17.86-30.65h-14.14l-14.51 25.93h-6.44v-25.93h-12.42v63.47h12.42z" fill="#fc4a4a"/><g fill="#fff"><path d="m181.09 168.4h25.63v29.6q0 6.19-3.2 9.67a9.72 9.72 0 0 1 -4.05 2.59 13.71 13.71 0 0 1 -4.34.78 23.41 23.41 0 0 1 -5.79-.64 24.2 24.2 0 0 1 -6-2.64l-4.47 10a28.82 28.82 0 0 0 8.21 3.42 37.11 37.11 0 0 0 8.48.95c.91 0 2.07 0 3.47-.18a25.35 25.35 0 0 0 4.46-.82 24.94 24.94 0 0 0 4.88-1.91 18.59 18.59 0 0 0 4.7-3.47 19.21 19.21 0 0 0 4.79-8.11 35 35 0 0 0 1.32-9.76v-40.6h-38.09z"/><path d="m267.59 188.51a38.84 38.84 0 0 0 -7.48-3.78c-2.7-1-5.2-2.07-7.47-3.1a25.83 25.83 0 0 1 -5.75-3.47 6.09 6.09 0 0 1 -2.33-4.92 5.38 5.38 0 0 1 2.51-4.65 11.93 11.93 0 0 1 6.89-1.74 34.21 34.21 0 0 1 4.6.32 36 36 0 0 1 4.33.87 1.81 1.81 0 0 0 .55.09v10.12h10v-18.51a29.49 29.49 0 0 0 -8.54-2.74 59.45 59.45 0 0 0 -10.9-1 27.68 27.68 0 0 0 -8.94 1.37 20.59 20.59 0 0 0 -6.88 3.83 17.17 17.17 0 0 0 -4.47 5.88 17.5 17.5 0 0 0 -1.6 7.53 15.12 15.12 0 0 0 2.33 8.75 20.58 20.58 0 0 0 5.74 5.61 35.43 35.43 0 0 0 7.48 3.69c2.7 1 5.2 2 7.48 2.92a23.56 23.56 0 0 1 5.74 3.37 6.2 6.2 0 0 1 2.33 5 6.5 6.5 0 0 1 -2.83 5.52c-1.88 1.36-4.53 2-7.93 2a22.87 22.87 0 0 1 -5.34-.6 26.68 26.68 0 0 1 -4.6-1.5l-.55-.18v-9h-10v17c.79.43 1.82.95 3.1 1.55a36.16 36.16 0 0 0 4.42 1.73 41.22 41.22 0 0 0 5.47 1.37 35.92 35.92 0 0 0 6.43.55 36.32 36.32 0 0 0 9.67-1.23 22.45 22.45 0 0 0 7.75-3.74 17.43 17.43 0 0 0 5.11-6.2 19.33 19.33 0 0 0 1.82-8.62 14.52 14.52 0 0 0 -2.33-8.48 20.44 20.44 0 0 0 -5.81-5.61z"/><path d="m163.82 2.05h9.88v9.88h-9.88z" transform="matrix(.70710678 -.70710678 .70710678 .70710678 44.49 121.38)"/><path d="m2.89 170.53h9.88v9.88h-9.88z" transform="matrix(.70710678 -.70710678 .70710678 .70710678 -121.78 56.93)"/><path d="m46.47 156.58h9.88v9.88h-9.88z" transform="matrix(.70710678 -.70710678 .70710678 .70710678 -99.16 83.66)"/><path d="m45.6 212.28h9.88v9.88h-9.88z" transform="matrix(.70710678 -.70710678 .70710678 .70710678 -138.79 99.35)"/><path d="m31.65 198.12h9.88v9.88h-9.88z" transform="matrix(.70710678 -.70710678 .70710678 .70710678 -132.87 85.35)"/><path d="m101.37 156.58h9.88v9.88h-9.88z" transform="matrix(.70710678 -.70710678 .70710678 .70710678 -83.08 122.48)"/><path d="m87.72 170.53h9.88v9.88h-9.88z" transform="matrix(.70710678 -.70710678 .70710678 .70710678 -96.93 116.91)"/><path d="m73.77 156.58h9.88v9.88h-9.88z" transform="matrix(.70710678 -.70710678 .70710678 .70710678 -91.16 102.97)"/><path d="m101.37 211.98h9.88v9.88h-9.88z" transform="matrix(.70710678 -.70710678 .70710678 .70710678 -122.25 138.71)"/><path d="m64.69 168.34-20.77 20.78 20.77 20.77 20.78-20.77zm-7 20.78 7-7 7 7-7 7z"/><path d="m141.57 189.22 13.91-13.91-20.78-20.77-20.78 20.77 13.91 13.91-13.91 13.91 20.78 20.78 20.78-20.78zm-13.85-13.91 7-7 7 7-7 7zm0 27.82 7-7 7 7-7 7z"/><path d="m43.35 175.54-20.99-21-6.99 6.98 14.02 14.01-27.67 27.6 20.78 20.78 6.98-6.99-13.76-13.75z"/><path d="m68.28 198.19h48.89v9.88h-48.89z" transform="matrix(.70710678 -.70710678 .70710678 .70710678 -116.48 125.06)"/><path d="m262.88 15.99h9.88v9.88h-9.88z" transform="matrix(.70710678 -.70710678 .70710678 .70710678 63.64 195.5)"/><path d="m262.88 43.88h9.88v9.88h-9.88z" transform="matrix(.70710678 -.70710678 .70710678 .70710678 43.93 203.67)"/><path d="m163.82 30.22h9.88v9.88h-9.88z" transform="matrix(.70710678 -.70710678 .70710678 .70710678 24.57 129.63)"/><path d="m221.05 29.64h9.88v9.88h-9.88z" transform="matrix(.70710678 -.70710678 .70710678 .70710678 41.74 169.93)"/><path d="m192.87 57.82h9.88v9.88h-9.88z" transform="matrix(.70710678 -.70710678 .70710678 .70710678 13.56 158.25)"/><path d="m253.87 69.74 6.98-6.98-13.94-13.95 13.94-13.94v-.01l-13.94-13.93 13.94-13.94-6.98-6.98-13.94 13.93-13.94-13.94-6.99 6.98 27.89 27.89-27.89 27.88 6.99 6.98 13.94-13.93z"/><path d="m218.73 48.81-20.92-20.92v.01l-.01-.01-20.92 20.92 6.99 6.99 13.94-13.94 13.94 13.94z"/><path d="m183.87 27.91 13.94-13.94 13.94 13.94 6.98-6.98-20.92-20.92h-.01l-20.92 20.92z"/><path d="m163.82 57.82h9.88v9.88h-9.88z" transform="matrix(.70710678 -.70710678 .70710678 .70710678 5.05 137.71)"/><path d="m157.14 156h9.88v9.88h-9.88z" transform="matrix(.70710678 -.70710678 .70710678 .70710678 -66.33 161.75)"/><path d="m157.14 184.18h9.88v9.88h-9.88z" transform="matrix(.70710678 -.70710678 .70710678 .70710678 -86.25 170)"/><path d="m183.87 184.18h9.88v9.88h-9.88z" transform="matrix(.70710678 -.70710678 .70710678 .70710678 -78.43 188.9)"/><path d="m157.14 211.98h9.88v9.88h-9.88z" transform="matrix(.70710678 -.70710678 .70710678 .70710678 -105.92 178.14)"/></g></svg>