<svg enable-background="new 0 0 393.3 241.4" height="241.4" viewBox="0 0 393.3 241.4" width="393.3" xmlns="http://www.w3.org/2000/svg"><g fill="#333"><path d="m60.6 187.8c10.2-12.2 11.4-24.8 3.5-48.2-5-14.8-13.3-26.2-7.2-35.4 6.5-9.8 20.3-.3 8.8 12.8l2.3 1.6c13.8 1.6 20.6-17.3 10.3-22.7-27.2-14.2-51 13.1-40.5 44.7 4.5 13.4 10.8 27.6 5.7 38.9-4.4 9.7-12.9 15.4-18.6 15.6-11.9.6-4-26.7 9.7-33.5 1.2-.6 2.9-1.4 1.3-3.4-16.9-1.9-26.8 5.9-32.5 16.8-16.6 31.7 31.5 43.4 57.2 12.8z"/><path d="m357.6 94.6c3.9 9.6 9.8 19.1 6.3 27.5-2.9 7.2-6.7 10.2-10.9 10.9-5.9 1-4.3-17.5 5.8-23 .9-.5 2.2-2.9 1-4.3-12.8-.7-20 5.4-23.9 13.5-11.3 23.7 25.6 30.2 43.7 6.9 7.2-9.3 7.5-18.5.6-35.2-4.4-10.6-11.1-18.5-6.9-25.5 4.5-7.4 15.3-1 7.2 8.9l1.8 1c10.5.6 14.8-13.4 6.8-16.9-21.1-9-40.8 13.7-31.5 36.2z"/><path d="m224 69.3c-7.3-5.8-27.8 3.9-33.6 18.3-7.3 18.3-18.1 45-28.7 56.7-11.2 12.3-12.3 2.8-11.2-4.3 2.6-16.7 18.9-55.4 27.8-66.3-3.3-4.9-24.9-4.2-39.9 19.1-5.6 8.8-18.4 38.1-32.6 61.2-3.1 5-7 1.5-4-10.2 3.4-13.5 13.4-50.6 26.3-79.8 33.8-6.7 69.7-11.4 97.2-11.5 3.7-1 6.2-4.3 0-4.5-23.7-.8-59.3 2-92.6 6.2 6.4-12.8 13.3-23 20.3-27.3-7.6-4.8-23-2.9-31.8 10.1-3.9 5.8-7.8 12.8-11.5 20.4-24.4 3.8-45.3 8.1-55.9 12.1-11 4.2-9.8 17.5-3.1 15 13.9-5.2 32.7-10.6 53.6-15.4-13.3 30-23.7 65.4-26.2 79.8-6.2 35 15.5 34.8 26.1 21 11.5-15.1 35.5-68.2 39.2-73.8 1.1-1.9 2.6-.9 1.8.8-26.8 53.5-24.5 74.2-2.8 69.6 9.8-2.1 26.7-18.9 31.1-27.6.9-2.1 2.8-1.9 2.4-1-17 44.1-38.6 79.8-53.1 91-13.2 10.1-23-11.8 23.7-43.2 6.9-4.7 3.7-11.1-4.1-8.9-24.1 3.8-93.1 25.7-123.4 46.7-2.3 1.6-4.4 2.9-4.3 6.2.1 1.9 3.4 1.2 5 .2 39.2-23.5 71.3-32.7 108.1-40.4.5.2 1.1.3 1.6.1 1.7-.4 1.6.5.5 1.2-2.5 1.4-5 2.7-5.6 2.9-24.8 9.7-39.8 31.1-34.5 42 4.5 9.4 28.8 6 40.3-.2 28.2-15.3 48.7-45.3 62.7-86.7 12.2-36.7 27.6-78.3 31.2-79.5z"/><path d="m387.9 154c-45.9-6-144.9 2-188.6 13.6-13 3.4-9.4 10.3-2.8 9 .1 0 2.9-.7 3-.7 35.9-7 123-13.1 173.8-3.4 6.1 1.1 24.4-17.2 14.6-18.5z"/><path d="m236.8 148.6c12.8-6.4 31.8-46 44.3-67.7.9-1.6 2.5-.3 1.6.8-31.6 54.4-18.2 60.7-5.7 59.9 16.7-1 32.1-25 35.5-30.4 1.4-2.1 2.2-.4 1.4 1.1-.8 2.5-3.7 6.9-6.4 12.9-3.8 8.5.2 11.8 3.5 13.3 5.2 2.5 19.4.9 21.6-7.8-14.2-.3 19.8-67.3 23.3-71.4-9.5-5.5-24.2.5-30.9 13.7-14.3 28.3-26.3 51.1-33.8 51.5-14.6.8 16.8-63.1 21.9-65.1-3.1-4.5-23-2.6-34.1 14.6-4 6.2-28.4 49.4-34.4 56.5-10.6 12.6-11.4 1.8-8.4-10.8 1-4.3 2.7-9.8 4.9-15.9 7-15.8 14.5-20.8 19.1-25.9 30.9-34.3 48.6-62.1 41.6-73-6.2-9.7-26.9-5.4-40.2 14.6-24.5 36.7-47.1 87-50 110-2.8 23 13.9 24.7 25.2 19.1zm13-67.3c1.1-2.5 1.8-3.2 3.7-7.4 11-24.2 24.8-49.7 34.3-61.6 5.9-6.2 14.2 2.2-.8 25.2-8.8 13.6-18.8 26.1-29.7 37.1v.1c-2.8 3.1-5.3 5.7-6.4 7.2-.8 1-1.7.8-1.1-.6z"/></g></svg>