<svg xmlns="http://www.w3.org/2000/svg" viewBox="0 0 248.3 37.2" width="496.6" height="74.5"><path fill="transparent" d="M0 0h248.3v37.2H0z"/><g stroke-linecap="round"><path d="M10.9 25c18.4-2.4 71.8-13 109.7-13.5 37.9-.4 98 9 117.7 11M10 27.2C28.3 24.6 81.7 10.7 119.6 10c38-.6 98.1 10.8 118 13.2M207.1 29.1c12.2-1.8 17.4-3.4 30.5-5.7m-30.2 5.9c12.2-2.7 22.6-5.5 29.7-6" stroke="#ffd139" stroke-width="4" fill="none"/><path d="M210.2 8.8c11.1 4.5 15.5 9.2 27.4 14.6M210.4 9a137 137 0 0 1 26.7 14.3" stroke="#ffd139" stroke-width="4" fill="none"/></g></svg>
