<svg enable-background="new 0 0 1000 1000" viewBox="0 0 1000 1000" xmlns="http://www.w3.org/2000/svg"><g transform="matrix(.1 0 0 -.1 0 511)"><path d="m2921.9 4981.1c-216.4-57.4-408.5-220.8-499.1-424-35.3-75.1-42-185.5-50.8-947.4l-11-861.3-861.3-11c-819.3-11-865.7-13.3-960.6-57.4-159-75.1-278.3-194.3-357.8-357.7l-72.9-148-6.6-3146.9c-4.4-3142.5-4.4-3146.9 42-3299.3 39.7-132.5 66.3-172.2 183.3-291.5 119.2-117.1 159-143.5 291.5-183.3 152.4-46.4 156.8-46.4 3299.3-41.9l3146.9 6.6 148 72.9c163.4 79.5 282.7 198.8 357.8 357.8 44.2 95 46.4 141.3 57.4 960.6l11 861.3 861.3 11c819.3 11 865.7 13.3 960.6 57.4 159 75.1 278.3 194.3 357.8 357.7l72.9 148 6.6 3146.9c4.4 3142.5 4.4 3146.9-41.9 3299.3-39.8 132.5-66.3 172.3-183.3 291.5-117 114.8-161.2 143.5-287.1 183.3-150.2 46.4-161.2 46.4-3257.3 44.2-2387.4-.1-3129.4-6.7-3206.7-28.8zm6229.8-3734.3v-3014.4h-3014.4-3014.4v3014.4 3014.4h3014.4 3014.4zm-6779.7-1230.1v-1972.1l64-132.5c75.1-156.8 192.1-280.5 344.5-360l110.4-59.6 1992-6.6 1994.2-4.4v-761.9-761.9h-3014.4-3014.4v3014.4 3014.4h761.9 761.8z"/><path d="m5629.4 3477.2c-300.3-108.2-333.5-519-55.2-682.4 72.9-44.2 117-46.4 792.8-53l715.5-6.6-1194.7-1196.9c-823.8-826-1205.8-1223.5-1230.1-1278.7-46.4-114.8-42-216.4 17.7-326.8 90.5-170 291.5-240.7 474.8-165.6 55.2 24.3 452.7 406.3 1278.7 1230.1l1196.9 1194.7 6.6-715.5c6.6-675.8 8.8-719.9 53-792.8 53-92.8 163.4-170 267.2-189.9 176.7-33.1 377.6 97.2 426.2 273.8 15.5 66.3 22.1 448.3 17.7 1280.9l-6.6 1185.9-50.8 81.7c-28.7 44.2-88.3 103.8-132.5 132.5l-81.7 50.8-1203.6 4.4c-998.2 4.3-1219.1-.1-1291.9-26.6z"/></g></svg>