<svg width="763" height="763" xmlns="http://www.w3.org/2000/svg" style="margin-left:auto;margin-right:auto" display="block"><defs><style>.g1_1{fill:#231f20}</style></defs><path d="M0 0v763h763V0z" fill="#FFF"/><path d="M381.3 680.7c-165.2 0-299.5-134.3-299.5-299.4 0-165.2 134.3-299.5 299.5-299.5 165.1 0 299.4 134.3 299.4 299.5 0 165.1-134.3 299.4-299.4 299.4m0-657.8c-198 0-358.4 160.4-358.4 358.4 0 197.9 160.4 358.3 358.4 358.3 197.9 0 358.3-160.4 358.3-358.3 0-198-160.4-358.4-358.3-358.4z" class="g1_1"/><path d="M564.7 413.1l-47.6-31.8 47.6-31.9zM400.3 548.2v-88.8l82.5-55.2 66.7 44.5zm-19-121.9l-67.4-45 67.4-45.1 67.3 45.1zm-19.1 121.9L213 448.7l66.7-44.5 82.5 55.2zM197.8 349.4l47.6 31.9-47.6 31.8zm164.4-135.1v88.8l-82.5 55.3-66.7-44.6zm38.1 0l149.2 99.5-66.7 44.6-82.5-55.3zm202.3 97c0-.3-.1-.6-.1-.9-.1-.5-.2-1-.3-1.6l-.3-.9c-.2-.4-.3-.9-.5-1.4-.2-.3-.3-.6-.5-.9-.2-.4-.4-.9-.6-1.3-.2-.3-.4-.6-.5-.8-.3-.4-.6-.8-.8-1.2-.3-.3-.5-.6-.7-.8-.3-.4-.6-.7-.9-1.1-.3-.2-.5-.5-.8-.7-.4-.3-.7-.6-1.1-.9-.3-.2-.5-.4-.8-.7-.2 0-.3-.1-.4-.2l-202.5-135c-6.4-4.3-14.7-4.3-21.1 0l-202.5 135c-.1.1-.2.2-.3.2-.3.3-.6.5-.9.7-.4.3-.7.6-1.1.9-.3.2-.5.5-.7.7-.4.4-.7.7-1 1.1-.2.2-.4.5-.6.8-.3.4-.6.8-.8 1.2-.2.2-.4.5-.6.8-.2.4-.4.9-.6 1.3-.2.3-.3.6-.5.9-.2.5-.3 1-.5 1.4l-.3.9c-.1.6-.2 1.1-.3 1.6 0 .3-.1.6-.1.9-.2.8-.2 1.6-.2 2.4v135.1c0 .8 0 1.6.2 2.5 0 .2.1.5.1.8.1.5.2 1 .3 1.6l.3.9c.2.5.3.9.5 1.4.2.3.3.6.5.9.2.4.4.9.6 1.3l.6.9c.2.4.5.7.8 1.1.2.3.4.6.6.8.3.4.6.7 1 1.1.2.2.4.5.7.7.4.3.7.6 1.1.9.3.2.6.5.9.7.1 0 .2.1.3.2l202.5 135c3.2 2.2 6.9 3.2 10.6 3.2 3.6 0 7.3-1 10.5-3.2l202.5-135c.1-.1.2-.2.4-.2.3-.2.5-.5.8-.7.4-.3.7-.6 1.1-.9.3-.2.5-.5.8-.7.3-.4.6-.7.9-1.1.2-.2.4-.5.7-.8.2-.4.5-.7.8-1.1.1-.3.3-.6.5-.9.2-.4.4-.9.6-1.3.2-.3.3-.6.5-.9.2-.5.3-.9.5-1.4l.3-.9c.1-.6.2-1.1.3-1.6 0-.3.1-.6.1-.8.2-.9.2-1.7.2-2.5V313.7c0-.8 0-1.6-.2-2.4z" class="g1_1"/></svg>
