<svg xmlns="http://www.w3.org/2000/svg" width="181" height="181"><path fill-rule="evenodd" fill="#33AADC" d="M165 1h15v15h-15V1zm-18.159 59H124l33.4-33h22.594l-33.153 33zM121 34.159l33-33.153V23.6L121 57V34.159zM107.893 11.5L118.5.893 129.107 11.5 118.5 22.107 107.893 11.5zM116 57L83 23.6V1.006l33 33.153V57zm-26 4H75V46h15v15zM75 76H60V61h15v15zm15 15H75V76h15v15zm15 15H90V91h15v15zm15 15h-15v-15h15v15zm0-30h15v15h-15V91zm-15-15h15v15h-15V76zM90 61h15v15H90V61zm60 45v15h-15v-15h15zm-15 30h-15v-15h15v15zm30 0v-15h15v60h-15v-15h-15v-15h-15v-15h30zM45 61V46h15v15H45zM30 31H15V16H0V1h60v15H45v30H30V31zm30 0h15v15H60V31zm97.4 67L124 65h22.841l33.153 33H157.4zm22.706-35.5L169.5 73.106 158.893 62.5 169.5 51.893 180.106 62.5z"/></svg>
