<?xml version="1.0" encoding="utf-8"?>
<!-- Generator: Adobe Illustrator 16.0.0, SVG Export Plug-In . SVG Version: 6.00 Build 0)  -->
<!DOCTYPE svg PUBLIC "-//W3C//DTD SVG 1.1//EN" "http://www.w3.org/Graphics/SVG/1.1/DTD/svg11.dtd" [
	<!ENTITY ns_flows "http://ns.adobe.com/Flows/1.0/">
	<!ENTITY ns_extend "http://ns.adobe.com/Extensibility/1.0/">
	<!ENTITY ns_ai "http://ns.adobe.com/AdobeIllustrator/10.0/">
	<!ENTITY ns_graphs "http://ns.adobe.com/Graphs/1.0/">
]>
<svg version="1.1" id="Layer_1" xmlns:x="&ns_extend;" xmlns:i="&ns_ai;" xmlns:graph="&ns_graphs;"
	 xmlns="http://www.w3.org/2000/svg" xmlns:xlink="http://www.w3.org/1999/xlink" xmlns:a="http://ns.adobe.com/AdobeSVGViewerExtensions/3.0/"
	 x="0px" y="0px" width="864px" height="864px" viewBox="0 0 864 864" enable-background="new 0 0 864 864" xml:space="preserve">
<path fill-rule="evenodd" clip-rule="evenodd" d="M249.279,358.916c10.295-6.55,8.079-17.354,9.984-26.078
	c2.786-12.759,3.312-26.122,3.705-39.262c0.308-10.293-4.077-18.835-13.791-23.859c-1.489-0.769-3.358-1.669-4.029-3.018
	c-4.014-8.063-11.057-8.299-18.623-7.914c-4.753,0.244-9.794-1.042-14.228,0.144c-4.211,1.126-7.97,4.352-11.611,7.077
	c-2.814,2.106-5.448,4.625-7.606,7.394c-2.981,3.827-6.253,7.758-7.896,12.201c-1.72,4.646-2.465,9.992-2.222,14.964
	c0.723,14.783-1.508,30.168,6.973,43.662c1.904,3.03,5.493,5.065,7.151,8.174c7.065,13.249,3.957,29.317-11.469,38.812
	c-14.003,8.618-27.756,17.646-41.543,26.612c-1.46,0.948-3.277,2.594-3.444,4.083c-0.943,8.435-2.073,16.929-1.936,25.384
	c0.244,14.978-1.565,29.429-9.248,42.473c-6.77,11.494-14.455,22.448-21.282,33.911c-1.45,2.436-1.942,6.346-1.122,9.043
	c1.848,6.069,3.425,11.561,1.689,18.276c-1.243,4.808,1.58,10.528,1.15,15.727c-0.314,3.813-2.958,7.439-4.564,11.147
	c-3.275-2.002-6.583-3.956-9.803-6.047c-0.729-0.473-1.156-1.412-2.068-2.58c-2,3.213-3.73,5.989-5.646,9.062
	c5.047,6.688,12.71,4.423,19.119,5.921c2.772,0.649,5.96,0.217,8.401,1.413c3.023,1.483,7.925,4.517,7.668,6.229
	c-0.609,4.053-3.006,8.572-6.076,11.375c-8.188,7.481-18.707,8.034-29.248,8.088c-3.268,0.018-6.532,1.043-9.798,1.604
	c-0.465,0.08-0.935,0.22-1.398,0.205c-7.538-0.247-24.519-16.868-23.176-24.174c1.844-10.031-5.062-16.242-8.352-23.94
	c-8.128-19.02-8.841-38.646-5.693-58.59c1.319-8.356,3.763-16.551,5.954-24.75c0.987-3.696,2.579-7.279,8.17-3.289
	c0.799-15.106-0.691-30.167,2.962-43.855c3.647-13.667,12.444-25.963,18.982-38.858c0.95,0.062,1.9,0.126,2.85,0.19
	c1.481,5.692,2.964,11.382,4.885,18.76c2.508-6.398,8.955-9.296,5.893-16.071c7.339-9.059,10.073-22.212,23.276-26.093
	c1.028-0.302,2.078-1.333,2.636-2.304c4.427-7.707,10.781-15.029,12.625-23.338c3.087-13.91,9.286-25.912,16.804-37.493
	c2.876-4.43,4.371-7.914,0.874-12.882c-2.222-3.157-2.77-7.495-4.475-12.497c-3.126,3.93-5.423,6.818-8.66,10.89
	c-1.423-2.922-2.716-4.809-3.301-6.894c-9.383-33.455,6.825-65.841,31.522-80.94c4.138-2.53,8.533-4.644,12.656-7.196
	c8.638-5.347,17.485-5.582,26.274-0.856c3.811,2.048,6.665,1.838,9.794-0.985c4.32-3.897,9.664-6.946,13.115-11.468
	c9.764-12.795,25.107-13.903,38.438-18.988c2.199-0.839,6.396,3.559,10.221,5.869c2.772-9.501-1.287-18.497-3.622-27.666
	c-1.843-7.244-4.666-14.419-5.242-21.767c-1.273-16.208-1.598-32.502-1.837-48.769c-0.049-3.316,1.163-7.298,3.186-9.886
	c9.488-12.145,22.583-18.044,37.652-19.271c13.336-1.085,26.991-1.924,38.301,7.21c3.711,2.997,7.342,7.196,8.881,11.592
	c6.83,19.496,12.562,39.437,12.68,60.257c0.04,7.061-2.723,14.306-5.069,21.171c-2.997,8.771-0.13,16.536,2.783,24.429
	c0.272,0.739,1.329,1.39,2.162,1.693c23.001,8.348,39.596,25.857,58.137,40.581c2.832,2.249,5.649,4.515,9.082,7.26
	c7.395-8.89,16.341-9.044,26.39-5.692c2.045,0.682,5.323-2.334,9.062-4.142c22.342,8.657,44.506,41.769,42.947,67.314
	c-0.286,4.702-4.043,9.555-7.153,13.605c-2.263,2.946-6.097,4.684-11.3,7.727c4.416,10.249,8.843,20.493,13.242,30.749
	c9.263,21.592,19.49,42.827,23.469,66.325c0.369,2.179,3.123,3.973,4.816,5.904c4.072,4.648,8.407,9.088,12.209,13.947
	c6.074,7.764,11.782,15.814,17.711,23.693c0.539,0.718,1.53,1.468,2.364,1.532c10.072,0.778,15.031,8.139,19.729,15.541
	c5.589,8.806,10.683,17.926,16.111,26.837c6.513,10.691,15.106,19.088,25.189,26.78c6.606,5.038,10.407,14.078,14.662,21.771
	c2.916,5.271,4.469,11.304,6.599,17.006c0.913,2.446,2.785,5.078,2.443,7.356c-1.971,13.135-3.618,26.583-16.979,34.177
	c-2.708,1.54-5.062,3.693-7.624,5.502c-4.196,2.965-8.262,6.517-13.438,1.311c-0.783-0.789-3.351-0.707-4.54-0.04
	c-8.983,5.026-12.507,4.28-18.506-4.349c-6.413-9.229-6.46-10.615-0.671-17.151c-3.551-6.729-6.44-13.864-10.778-19.971
	c-4.712-6.636-10.242-12.919-16.357-18.278c-12.23-10.721-25.423-20.35-37.544-31.184c-4.432-3.962-6.952-10.06-10.332-15.194
	c-1.049-1.595-1.798-3.475-3.118-4.787c-9.079-9.043-18.437-17.812-27.382-26.982c-7.884-8.083-11.728-17.333-11.416-29.362
	c0.205-7.915-3.28-16.694-7.394-23.757c-5.17-8.876-12.67-16.395-20.043-25.595c-2.576,6.281-4.169,11.302-6.651,15.836
	c-1.831,3.345-4.989,5.935-7.228,9.095c-1.151,1.624-2.147,3.725-2.251,5.663c-0.93,17.191-1.69,34.392-2.357,51.594
	c-0.07,1.794,0.189,4.597,1.304,5.277c7.933,4.839,8.073,13.402,10.475,20.839c4.74,14.685,9.384,29.4,13.838,44.173
	c0.657,2.179-0.033,4.739,0.068,7.117c0.082,1.926,0.047,3.977,0.702,5.73c3.753,10.062,8.422,19.849,11.354,30.136
	c2.508,8.789,3.562,18.082,4.456,27.229c3.905,39.989,4.878,79.968-2.467,119.715c-0.525,2.837-2.754,6.374-5.2,7.645
	c-6.305,3.275-4.911,8.071-1.75,11.182c4.902,4.824,4.686,9.726,3.093,15.302c-1.075,3.766-1.529,6.97,2.867,9.226
	c1.308,0.672,2.36,3.173,2.369,4.842c0.146,26.438,0.103,52.876,0.103,79.195c-13.104,2.446-13.089,2.421-16.296-9.615
	c-3.852-14.456-7.778-28.894-12.873-43.23c0,17.718,0,35.433,0,53.443c-4.254,0-7.781,0-11.981,0c0-27.267,0-54.133,0-81.354
	c-6.376,0-12.077,0-18.594,0c4.329,27.211,8.581,53.939,12.924,81.235c-4.4,0-8.378,0-12.806,0c-0.449-1.823-1.397-3.697-1.272-5.5
	c0.602-8.729-4.368-9.623-11.398-9.188c-4.211,0.262-5.972,1.345-6.498,5.673c-1.238,10.193-1.448,10.168-13.2,8.921
	c4.235-26.727,8.464-53.415,12.807-80.828c-6.115,0-11.939,0-18.531,0c0,26.82,0,53.66,0,80.965c-4.262,0-7.782,0-12.012,0
	c0-16.271,0-32.619,0-48.967c-0.558-0.068-1.115-0.134-1.673-0.202c-0.729,4.326-1.519,8.644-2.178,12.981
	c-1.567,10.321-3.317,20.625-4.484,30.992c-0.475,4.221-1.677,5.893-6.168,5.771c-4.185-0.114-7.496,0.122-8.264-5.372
	c-1.846-13.218-4.099-26.381-6.206-39.562c-0.291-1.823-0.687-3.626-2.298-5.366c0,16.471,0,32.938,0,49.796
	c-3.813,0-6.878,0-10.564,0c0-26.969,0-53.996,0-81.497c5.492,0,10.968,0,17.423,0c2.912,17.587,5.862,35.415,8.812,53.244
	c0.38,0.014,0.759,0.028,1.138,0.046c2.631-17.524,5.262-35.049,7.888-52.547c-14.397-2.651-13.898-2.691-15.105-17.333
	c-2.109-25.593-4.899-51.131-7.436-77.012c4.991-2.096,9.698-3.36,13.539-5.924c2.795-1.865,5.225-5.138,6.482-8.311
	c8.806-22.218,11.485-45.534,10.951-69.213c-0.442-19.617-3.219-39.301-2.14-58.798c1.355-24.499-9.022-46.412-11.944-69.823
	c-1.53-12.258-1.837-24.667-3.439-36.913c-1-7.644-2.814-15.308-5.387-22.565c-1.291-3.643-4.477-7.903-7.866-9.288
	c-14.995-6.121-30.196-11.879-45.672-16.631C266.744,374.992,257.715,368.212,249.279,358.916z M341.709,288.196
	c-0.15,11.445,12.321,22.77,25.399,23.067c9.013,0.205,16.731-8.43,16.959-18.972c0.274-12.675-10.819-24.52-22.895-24.446
	C350.509,267.911,341.857,276.957,341.709,288.196z M610.339,557.081c0.186-7.854-5.651-15.026-11.478-14.622
	c-5.341,0.37-8.143,3.808-8.34,9.131c-0.247,6.625,5.713,13.619,11.59,13.438C607.78,564.848,609.91,561.088,610.339,557.081z
	 M449.932,812.71c0.252-0.068,0.504-0.137,0.756-0.202c0-14.251,0-28.506,0-42.615c-4.216,0-7.747,0-12.169,0
	C442.433,784.574,446.182,798.641,449.932,812.71z M393.574,789.373c-0.487-0.003-0.975-0.006-1.462-0.008
	c-1.714,11.696-3.427,23.394-5.168,35.275c4.435,0,7.911,0,11.846,0C396.988,812.463,395.281,800.916,393.574,789.373z
	 M310.085,88.921c6.597,4.519,20.236,4.431,26.608-0.172C333.636,84.375,318.617,84.473,310.085,88.921z M286.563,94.552
	c-0.283-0.752-0.565-1.504-0.849-2.257c-15.27,0.282-20.601,2.475-20.765,10.806C272.695,100.037,279.629,97.294,286.563,94.552z"/>
<path fill-rule="evenodd" clip-rule="evenodd" d="M271.671,812.115c0-13.933,0-27.865,0-42.334c3.992,0,7.465,0,11.405,0
	c0,27.085,0,54.142,0,81.161c-12.707,1.655-12.69,1.649-15.881-10.145c-3.856-14.255-7.743-28.498-12.787-42.71
	c0,17.607,0,35.214,0,53.153c-4.225,0-7.546,0-11.64,0c0-26.84,0-53.671,0-81.138c-5.874,0-11.006,0-17.729,0
	c10.422,6.89,9.276,16.841,9.286,26.438c0.012,11.907,0.195,23.818-0.106,35.72c-0.337,13.347-6.694,19.977-18.734,20.25
	c-12.675,0.288-19.904-5.952-20.472-19.369c-0.636-15.035-0.37-30.124-0.019-45.179c0.207-8.823,3.518-15.93,12.917-19.079
	c1.803-0.604,3.356-3.848,3.86-6.132c3.655-16.587,6.586-33.34,10.626-49.827c2.342-9.558,6.316-18.717,9.557-28.056
	c0.895-0.046,1.791-0.094,2.686-0.143c10.102,27.8,20.204,55.6,30.426,83.729c-2.491,0.798-4.01,1.282-5.945,1.9
	c3.799,14.148,7.533,28.05,11.266,41.951C270.813,812.243,271.242,812.181,271.671,812.115z M208.012,810.739
	c0,7.029-0.064,14.061,0.022,21.09c0.055,4.451,1.208,8.649,6.581,8.687c5.376,0.037,6.552-3.959,6.539-8.562
	c-0.042-14.303-0.032-28.605-0.023-42.908c0.003-4.48-0.738-8.578-6.387-8.606c-5.546-0.029-6.637,4.044-6.706,8.481
	C207.926,796.191,208.008,803.466,208.012,810.739z"/>
<path fill-rule="evenodd" clip-rule="evenodd" d="M180.676,811.201c12.255,11.802,3.956,26.7,8.439,39.793
	c-2.499,0.233-4.363,0.259-6.167,0.604c-6.624,1.265-8.546-2.036-8.288-8.009c0.22-5.081,0.228-10.19-0.008-15.271
	c-0.392-8.433-2.509-10.161-12.209-9.859c0,10.7,0,21.466,0,32.673c-4.796,0-8.768,0-13.091,0c0-27.071,0-53.911,0-81.347
	c8.65,0,17.333-0.729,25.827,0.226c7.166,0.803,11.641,5.983,12.054,13.448C187.786,793.443,189.977,803.921,180.676,811.201z
	 M162.257,805.676c11.386,0.8,12.327-0.462,12.122-15.104c-0.119-8.532-1.895-9.962-11.614-9.045
	c-0.161,1.073-0.476,2.227-0.484,3.383C162.232,791.646,162.257,798.382,162.257,805.676z"/>
<path fill-rule="evenodd" clip-rule="evenodd" d="M232.55,383.771c-3.206,2.973-6.005,5.571-9.019,8.366
	c16.558,25.282,10.237,48.665-5.55,72.787c-4.496-15.838-15.308-28.505-13.116-44.981c0.816-6.137,2.979-12.127,4.854-18.081
	c1.375-4.371,3.686-8.464,4.877-12.871C217.895,376.786,222.43,375.197,232.55,383.771z"/>
<path fill-rule="evenodd" clip-rule="evenodd" d="M139.207,851.225c-4.367,0-8.167,0-12.36,0c0-27.35,0-54.344,0-81.671
	c4.229,0,8.026,0,12.36,0C139.207,796.682,139.207,823.673,139.207,851.225z"/>
<path fill-rule="evenodd" clip-rule="evenodd" d="M240.677,348.59c0.816,6.237-5.659,12.564-14.446,13.738
	c-11.782,1.575-21.02-3.16-22.986-10.205c1.694,2.083,3.387,4.165,5.081,6.249c1.076-0.508,2.152-1.017,3.228-1.524
	c2.679-4.914,5.357-9.827,8.649-15.866c0.477,0,3.062,0,5.647,0c-0.607,0.384-1.215,0.771-1.822,1.155
	c2.692,4.758,5.384,9.514,8.931,15.781C236.251,353.939,238.4,351.343,240.677,348.59z"/>
<path fill-rule="evenodd" clip-rule="evenodd" d="M208.37,338.087c6.677-10.793,18.739-10.932,27.731,0.108
	C226.762,331.552,217.584,330.8,208.37,338.087z"/>
</svg>
