<svg xmlns="http://www.w3.org/2000/svg" width="250" height="250" viewBox="0 0 250 250">
    <title>MinskJS</title>
    <rect x="81.8" y="25.5" width="86.8" height="80.5" fill="#EF3C51"/>
    <polygon points="7.8 45.8 49.1 22.5 54.8 0.6 " transform="matrix(1.0620232,0,0,1.0620232,27.87798,-1.29e-4)" fill="#E29FC7"/>
    <polygon points="124.3 165 59.3 165 50.8 102 132.5 102 " transform="matrix(1.0620232,0,0,1.0620232,27.87798,-1.29e-4)" fill="#f57f20"/><polygon points="132.5 22.5 50.8 22.5 57.1 0 126.5 0 " transform="matrix(1.0620232,0,0,1.0620232,27.87798,-1.29e-4)" fill="#D16AA9"/>
    <polygon points="3.5 113.5 49.3 99.8 49.3 24 7.9 47.7 " transform="matrix(1.0620232,0,0,1.0620232,27.87798,-1.29e-4)" fill="#F27070"/>
    <polygon points="175.6 45.8 134.3 22.5 128.6 0.6 " transform="matrix(1.0620232,0,0,1.0620232,27.87798,-1.29e-4)" fill="#D32589"/>
    <polygon points="180.1 113.5 134.3 99.8 134.3 24 175.7 47.7 " transform="matrix(1.0620232,0,0,1.0620232,27.87798,-1.29e-4)" fill="#E21D3F"/>
    <polygon points="134.3 102 178.9 115.6 126.4 165 " transform="matrix(1.0620232,0,0,1.0620232,27.87798,-1.29e-4)" fill="#F05223"/>
    <polygon points="48.9 102 4.3 115.6 56.8 165 " transform="matrix(1.0620232,0,0,1.0620232,27.87798,-1.29e-4)" fill="#FCB017"/>
    <path d="m15 209.5 4.6 0 14.5 21.8 14.5-21.8 4.6 0 0 39.9-4.5 0 0-32.3-14.5 21.3-0.2 0-14.5-21.3 0 32.3-4.4 0 0-39.9zm48.9-0.8 5 0 0 4.9-5 0 0-4.9zm0.3 11.3 4.4 0 0 29.4-4.4 0 0-29.4zm14.5 0 4.4 0 0 5.1c1.9-3.2 5-5.7 10.1-5.7 7.1 0 11.3 4.8 11.3 11.8l0 18.3-4.4 0 0-17.2c0-5.5-3-8.9-8.2-8.9-5.1 0-8.8 3.7-8.8 9.2l0 16.9-4.4 0 0-29.4zm32.6 25.7 2.2-3.1c3.2 2.4 6.7 3.7 10.2 3.7 3.5 0 6.1-1.8 6.1-4.8 0-3-3.5-4.1-7.3-5.2-4.6-1.3-9.8-2.9-9.8-8.4 0-5.1 4.2-8.4 10-8.4 3.6 0 7.5 1.3 10.6 3.3l-2 3.3c-2.8-1.8-5.8-2.9-8.7-2.9-3.5 0-5.7 1.8-5.7 4.4 0 2.8 3.6 3.8 7.5 5.1 4.6 1.4 9.5 3.2 9.5 8.5 0 5.6-4.6 8.8-10.5 8.8-4.2 0-8.9-1.7-12.2-4.4zm30.8-37.8 4.4 0 0 28.7 15.9-16.6 5.5 0-12.3 12.6 12.7 16.8-5.2 0-10.5-13.7-5.9 6.1 0 7.6-4.4 0 0-41.6z" fill="#010101"/>
    <path d="m170.8 243.5 4.6-4.8c2.3 3 4.7 4.7 8.1 4.7 3.7 0 6.4-2.5 6.4-7.8l0-26.1 7.2 0 0 26.3c0 4.8-1.4 8.3-3.7 10.6-2.3 2.3-5.7 3.5-9.7 3.5-6.2 0-10.1-2.9-12.7-6.5zm33.1 0.1 4.2-5c3.8 3.3 7.6 5.2 12.6 5.2 4.4 0 7.1-2 7.1-5.1 0-2.9-1.6-4.4-9-6.2-8.5-2-13.3-4.5-13.3-12 0-6.8 5.7-11.6 13.6-11.6 5.8 0 10.4 1.8 14.4 5l-3.7 5.3c-3.6-2.7-7.2-4.1-10.8-4.1-4.1 0-6.5 2.1-6.5 4.9 0 3.1 1.8 4.5 9.5 6.3 8.4 2 12.9 5.1 12.9 11.8 0 7.4-5.8 11.9-14.2 11.9-6.1 0-11.9-2.1-16.7-6.4z" fill="#e21d3f"/>
</svg>
