<svg height="61" viewBox="0 0 54 61" width="54" xmlns="http://www.w3.org/2000/svg" xmlns:xlink="http://www.w3.org/1999/xlink"><mask id="a" fill="#fff"><path d="m.14.043h34.851v60.957h-34.851z" fill="#fff" fill-rule="evenodd"/></mask><g fill="none" fill-rule="evenodd"><path d="m31.4084167.31388754-31.26825761 16.03087236v33.3427448l3.39429293 1.2013561v8.8136855l5.96219697-6.7038457 22.21138891 7.8603116c1.6073485.5687299 3.283106-.6538042 3.283106-2.3952908v-55.88378342c0-1.88448368-1.9370202-3.10973293-3.5827272-2.26605044" fill="#33a7d8" mask="url(#a)" transform="translate(8)"/><path d="m32.1159002 17.802552-29.28553013-3.7817998c-1.50210757-.1941496-2.83037007.998745-2.83037007 2.5413285v31.8756665c0 1.5030582 1.26378897 2.6833267 2.73339038 2.5523077l29.29935872-2.6117786c1.1131113-.0991791 1.9672509-1.0488835 1.9672509-2.1874309v-26.2098288c0-1.1061586-.8072661-2.0393942-1.8840998-2.1784646" fill="#000"/><path d="m22.814659 40.2179145c.0019432 1.8102687-1.192805 2.713616-2.490369 2.8072567-1.0391111.0752343-1.8466217-.1152639-2.4022158-.5757834l-.0019432-2.480765c.5995823.5975853 1.5775693.9594603 2.3145927.9185372.4483618-.0248399.6766059-.2953973.6762525-.5718519-.0008833-1.0582835-3.0477296-.5230658-3.0498495-3.308342-.0012366-1.6816019.9924731-2.7002131 2.5981312-2.7053955.8145769-.0026806 1.5017824.2528657 2.0653262.7632436l.0022965 2.3108177c-.6280245-.5791787-1.2836079-.9814408-1.9895392-.9673232-.4163864.0082204-.625198.2868195-.6250213.5654186.0008833.958388 2.8993356.243037 2.9023389 3.2441872zm3.1747477-5.731743 1.2758349-.0064333.0024732 2.0674233-1.2760115.0284139.0033565 2.834777c.0007067.6865797.1607602.943377.5880995.9203242.237077-.0125093.4633779-.1175871.6886187-.314876l.0024732 2.0436557c-.3135706.331138-.73826.5166325-1.2855511.556126-1.0493574.0759491-1.7872641-.789513-1.7892074-2.500065l-.0037098-3.4999123-.9232225.0205509-.0022966-2.1365816.9233992-.0044676-.0022966-2.1510566 1.7955671.0226953zm-22.28471197-1.7130538 7.09181877.0550407.0008833 2.6172947-4.61151946.0528963.00017665 1.8749594 3.47489227-.0861352.00070664 2.5397372-3.47524559.1508259.00052998 3.8467762-2.48224256.1754871zm9.30006247 5.2846263c.0855032-.9962732.5002997-1.6228085 1.0698499-1.6335307.5169057-.0100074.9470715.6283223.9594377 1.5702696zm1.165246-3.7356225c-2.1419964.0071482-3.3217285 2.1499844-3.3208452 4.6982994.00106 2.9730938 1.5374676 4.5787467 3.4943248 4.4372133 1.1094217-.080238 1.8257759-.4358583 2.3843732-1.0631084l-.0014132-2.2854418c-.6170716.5191343-1.2638221.8068473-1.9171089.8420519-.877291.0468204-1.6074247-.3629473-1.7915039-1.2695112l4.0435592-.1751297-.00053-.7373315c-.0017666-2.4360891-1.0020127-4.4531179-2.890856-4.447042zm-3.3757863-8.0874154.00106 3.0997947c-.80503734.7128491-1.76023523 1.0757963-2.87195343 1.0477399-2.6958239-.0680862-4.92332347-2.424116-4.92332347-6.0044449.00017666-3.5542383 2.1833347-5.6425699 4.90866073-5.3507467 1.03469466.1107963 1.93495145.5437954 2.73115577 1.3283047l.00106 2.9303835c-.80592063-.8777926-1.68957143-1.3642241-2.70730678-1.4525038-1.39737661-.1215185-2.55608623.9442705-2.55590958 2.7020002.00017666 1.824565 1.1981047 2.9793484 2.64247273 3.0451114 1.21718392.0552194 2.12698033-.4101251 2.77408403-1.345639zm16.9865171-.2480408c.0667773-.8783287.3946573-1.4019306.8454924-1.3665473.4096733.031988.7511561.6342195.7617557 1.4732334zm3.2183827.9603538c-.0030032-2.1712502-.8000909-4.0471031-2.29887-4.1884577-1.6938112-.1597611-2.6226869 1.6494353-2.6202136 3.9089651.0001766.0822037.0015899.1631565.0038865.2432157.0001766.003038.0003533.006076.0005299.0091139.0095397.3150547.0372752.6142047.0825.8981649.0019433.0135815.0045932.0268056.0068898.0402084.0083029.0507518.0167826.101325.0264989.1511833.3437794 1.8170594 1.3830672 2.8544345 2.643886 2.8864224.8797643.022338 1.4487845-.2337444 1.8925532-.7455519l-.0028266-2.0365075c-.4902301.4115546-1.0037793.6145621-1.5222749.591688-.6951551-.0307371-1.273185-.454801-1.4192824-1.2754085l3.2076065.1742362zm-8.7033067 1.5112973c-.6721894-.0293074-1.1468734-.9199667-1.1479334-2.0854723-.0010599-1.1651483.4720342-1.9986224 1.1440469-1.9476919.475744.0362769.8227033.3708103 1.0636668 1.0036001l.0021199 2.1530224c-.2397269.6040186-.5861562.8972714-1.0619002.8765417zm1.0649035 2.0913696 1.8195928.0493223-.0116596-10.2970869-1.8188861-.2085473.0037098 3.2751031c-.3773447-.7823649-.9152728-1.2003529-1.6072481-1.2655798-1.5634365-.1474305-2.5318839 1.872815-2.5301173 4.1539679.0019433 2.2770428.945305 4.4188069 2.538067 4.4591939.7027515.0178704 1.2401497-.335963 1.6056582-1.074188zm-8.1544257-2.4183974c-.7753585-.0339537-1.3420822-.9610686-1.3426121-2.1946603-.0007067-1.1966001.564957-2.0924418 1.3401389-2.0334696.7659956.0580787 1.3150533 1.0196834 1.3159366 2.1923372.0007066 1.2089306-.5472912 2.0692103-1.3134634 2.0357927zm-.0038865-6.6452764c-1.9932491-.1879963-3.4791321 1.6764196-3.4780721 4.3226642.0010599 2.6088956 1.4293519 4.6890069 3.4833719 4.7411883 1.9925424.0507519 3.3049458-1.8583399 3.3031792-4.3351734-.0019432-2.507928-1.3694644-4.5458652-3.308479-4.7286791z" fill="#fff"/></g></svg>